<?xml version="1.0" encoding="UTF-8" standalone="no"?>
<!DOCTYPE svg PUBLIC "-//W3C//DTD SVG 1.1//EN"
 "http://www.w3.org/Graphics/SVG/1.1/DTD/svg11.dtd">
<!-- Generated by graphviz version 2.43.0 (0)
 -->
<!-- Title: cflow Pages: 1 -->
<svg width="3006pt" height="188pt"
 viewBox="0.00 0.00 3005.50 188.00" xmlns="http://www.w3.org/2000/svg" xmlns:xlink="http://www.w3.org/1999/xlink">
<g id="graph0" class="graph" transform="scale(1 1) rotate(0) translate(4 184)">
<title>cflow</title>
<polygon fill="white" stroke="transparent" points="-4,4 -4,-184 3001.5,-184 3001.5,4 -4,4"/>
<!-- AutoVacWorkerMain -->
<g id="node1" class="node">
<title>AutoVacWorkerMain</title>
<polygon fill="none" stroke="black" points="1709,-180 1547,-180 1547,-144 1709,-144 1709,-180"/>
<text text-anchor="middle" x="1628" y="-158.3" font-family="Times,serif" font-size="14.00">AutoVacWorkerMain</text>
</g>
<!-- FloatExceptionHandler -->
<g id="node2" class="node">
<title>FloatExceptionHandler</title>
<polygon fill="none" stroke="black" points="182,-108 0,-108 0,-72 182,-72 182,-108"/>
<text text-anchor="middle" x="91" y="-86.3" font-family="Times,serif" font-size="14.00">FloatExceptionHandler</text>
</g>
<!-- AutoVacWorkerMain&#45;&gt;FloatExceptionHandler -->
<g id="edge1" class="edge">
<title>AutoVacWorkerMain&#45;&gt;FloatExceptionHandler</title>
<path fill="none" stroke="black" d="M1546.71,-161.74C1328.72,-162.91 712.94,-160.97 192.19,-108.04"/>
<polygon fill="black" stroke="black" points="192.52,-104.55 182.22,-107.02 191.81,-111.52 192.52,-104.55"/>
</g>
<!-- SetProcessingMode -->
<g id="node3" class="node">
<title>SetProcessingMode</title>
<polygon fill="none" stroke="black" points="358,-108 200,-108 200,-72 358,-72 358,-108"/>
<text text-anchor="middle" x="279" y="-86.3" font-family="Times,serif" font-size="14.00">SetProcessingMode</text>
</g>
<!-- AutoVacWorkerMain&#45;&gt;SetProcessingMode -->
<g id="edge2" class="edge">
<title>AutoVacWorkerMain&#45;&gt;SetProcessingMode</title>
<path fill="none" stroke="black" d="M1546.9,-161.76C1347.61,-162.73 817.99,-159.87 368.01,-108.01"/>
<polygon fill="black" stroke="black" points="368.4,-104.53 358.07,-106.85 367.6,-111.48 368.4,-104.53"/>
</g>
<!-- StatementCancelHandler -->
<g id="node4" class="node">
<title>StatementCancelHandler</title>
<polygon fill="none" stroke="black" points="573.5,-108 376.5,-108 376.5,-72 573.5,-72 573.5,-108"/>
<text text-anchor="middle" x="475" y="-86.3" font-family="Times,serif" font-size="14.00">StatementCancelHandler</text>
</g>
<!-- AutoVacWorkerMain&#45;&gt;StatementCancelHandler -->
<g id="edge3" class="edge">
<title>AutoVacWorkerMain&#45;&gt;StatementCancelHandler</title>
<path fill="none" stroke="black" d="M1546.73,-159.84C1372.11,-156.7 948.05,-145.63 583.72,-108.12"/>
<polygon fill="black" stroke="black" points="584.07,-104.64 573.77,-107.09 583.35,-111.6 584.07,-104.64"/>
</g>
<!-- HOLD_INTERRUPTS -->
<g id="node5" class="node">
<title>HOLD_INTERRUPTS</title>
<polygon fill="none" stroke="black" points="756.5,-108 591.5,-108 591.5,-72 756.5,-72 756.5,-108"/>
<text text-anchor="middle" x="674" y="-86.3" font-family="Times,serif" font-size="14.00">HOLD_INTERRUPTS</text>
</g>
<!-- AutoVacWorkerMain&#45;&gt;HOLD_INTERRUPTS -->
<g id="edge4" class="edge">
<title>AutoVacWorkerMain&#45;&gt;HOLD_INTERRUPTS</title>
<path fill="none" stroke="black" d="M1546.89,-159.29C1395.46,-155.38 1059.39,-143.33 766.64,-107.98"/>
<polygon fill="black" stroke="black" points="767.03,-104.5 756.68,-106.77 766.18,-111.45 767.03,-104.5"/>
</g>
<!-- BaseInit -->
<g id="node6" class="node">
<title>BaseInit</title>
<polygon fill="none" stroke="black" points="851,-108 775,-108 775,-72 851,-72 851,-108"/>
<text text-anchor="middle" x="813" y="-86.3" font-family="Times,serif" font-size="14.00">BaseInit</text>
</g>
<!-- AutoVacWorkerMain&#45;&gt;BaseInit -->
<g id="edge5" class="edge">
<title>AutoVacWorkerMain&#45;&gt;BaseInit</title>
<path fill="none" stroke="black" d="M1546.89,-158.25C1381.08,-152.19 1007.36,-136.07 861.33,-107.86"/>
<polygon fill="black" stroke="black" points="861.72,-104.36 851.22,-105.81 860.33,-111.22 861.72,-104.36"/>
</g>
<!-- ReadNextTransactionId -->
<g id="node7" class="node">
<title>ReadNextTransactionId</title>
<polygon fill="none" stroke="black" points="1054.5,-108 869.5,-108 869.5,-72 1054.5,-72 1054.5,-108"/>
<text text-anchor="middle" x="962" y="-86.3" font-family="Times,serif" font-size="14.00">ReadNextTransactionId</text>
</g>
<!-- AutoVacWorkerMain&#45;&gt;ReadNextTransactionId -->
<g id="edge6" class="edge">
<title>AutoVacWorkerMain&#45;&gt;ReadNextTransactionId</title>
<path fill="none" stroke="black" d="M1546.54,-155.18C1438.75,-147.07 1242.61,-130.89 1064.6,-108.02"/>
<polygon fill="black" stroke="black" points="1064.89,-104.53 1054.52,-106.72 1063.99,-111.47 1064.89,-104.53"/>
</g>
<!-- SetConfigOption -->
<g id="node8" class="node">
<title>SetConfigOption</title>
<polygon fill="none" stroke="black" points="1207,-108 1073,-108 1073,-72 1207,-72 1207,-108"/>
<text text-anchor="middle" x="1140" y="-86.3" font-family="Times,serif" font-size="14.00">SetConfigOption</text>
</g>
<!-- AutoVacWorkerMain&#45;&gt;SetConfigOption -->
<g id="edge7" class="edge">
<title>AutoVacWorkerMain&#45;&gt;SetConfigOption</title>
<path fill="none" stroke="black" d="M1546.75,-152.78C1465.69,-144.08 1337.43,-128.93 1217.19,-108.12"/>
<polygon fill="black" stroke="black" points="1217.52,-104.63 1207.07,-106.35 1216.32,-111.52 1217.52,-104.63"/>
</g>
<!-- Assert -->
<g id="node9" class="node">
<title>Assert</title>
<polygon fill="none" stroke="black" points="1287,-108 1225,-108 1225,-72 1287,-72 1287,-108"/>
<text text-anchor="middle" x="1256" y="-86.3" font-family="Times,serif" font-size="14.00">Assert</text>
</g>
<!-- AutoVacWorkerMain&#45;&gt;Assert -->
<g id="edge8" class="edge">
<title>AutoVacWorkerMain&#45;&gt;Assert</title>
<path fill="none" stroke="black" d="M1546.97,-153.64C1481.39,-146.41 1386.79,-133.1 1296.98,-107.9"/>
<polygon fill="black" stroke="black" points="1297.76,-104.49 1287.18,-105.1 1295.83,-111.22 1297.76,-104.49"/>
</g>
<!-- FreeWorkerInfo -->
<g id="node10" class="node">
<title>FreeWorkerInfo</title>
<polygon fill="none" stroke="black" points="2080.5,-108 1951.5,-108 1951.5,-72 2080.5,-72 2080.5,-108"/>
<text text-anchor="middle" x="2016" y="-86.3" font-family="Times,serif" font-size="14.00">FreeWorkerInfo</text>
</g>
<!-- AutoVacWorkerMain&#45;&gt;FreeWorkerInfo -->
<g id="edge23" class="edge">
<title>AutoVacWorkerMain&#45;&gt;FreeWorkerInfo</title>
<path fill="none" stroke="black" d="M1709.24,-148.63C1770.42,-139 1856.57,-124.78 1941.64,-108.01"/>
<polygon fill="black" stroke="black" points="1942.35,-111.44 1951.47,-106.06 1940.98,-104.57 1942.35,-111.44"/>
</g>
<!-- LWLockRelease -->
<g id="node11" class="node">
<title>LWLockRelease</title>
<polygon fill="none" stroke="black" points="1784,-36 1656,-36 1656,0 1784,0 1784,-36"/>
<text text-anchor="middle" x="1720" y="-14.3" font-family="Times,serif" font-size="14.00">LWLockRelease</text>
</g>
<!-- AutoVacWorkerMain&#45;&gt;LWLockRelease -->
<g id="edge21" class="edge">
<title>AutoVacWorkerMain&#45;&gt;LWLockRelease</title>
<path fill="none" stroke="black" d="M1611.15,-143.98C1594.79,-125.33 1574.53,-95.01 1590,-72 1603.03,-52.62 1624.52,-40.32 1646.31,-32.52"/>
<polygon fill="black" stroke="black" points="1647.57,-35.79 1655.97,-29.34 1645.38,-29.14 1647.57,-35.79"/>
</g>
<!-- ReadNextMultiXactId -->
<g id="node12" class="node">
<title>ReadNextMultiXactId</title>
<polygon fill="none" stroke="black" points="1770.5,-108 1599.5,-108 1599.5,-72 1770.5,-72 1770.5,-108"/>
<text text-anchor="middle" x="1685" y="-86.3" font-family="Times,serif" font-size="14.00">ReadNextMultiXactId</text>
</g>
<!-- AutoVacWorkerMain&#45;&gt;ReadNextMultiXactId -->
<g id="edge10" class="edge">
<title>AutoVacWorkerMain&#45;&gt;ReadNextMultiXactId</title>
<path fill="none" stroke="black" d="M1642.09,-143.7C1648.92,-135.3 1657.26,-125.07 1664.76,-115.86"/>
<polygon fill="black" stroke="black" points="1667.47,-118.07 1671.07,-108.1 1662.04,-113.65 1667.47,-118.07"/>
</g>
<!-- InitializeTimeouts -->
<g id="node13" class="node">
<title>InitializeTimeouts</title>
<polygon fill="none" stroke="black" points="1933.5,-108 1788.5,-108 1788.5,-72 1933.5,-72 1933.5,-108"/>
<text text-anchor="middle" x="1861" y="-86.3" font-family="Times,serif" font-size="14.00">InitializeTimeouts</text>
</g>
<!-- AutoVacWorkerMain&#45;&gt;InitializeTimeouts -->
<g id="edge11" class="edge">
<title>AutoVacWorkerMain&#45;&gt;InitializeTimeouts</title>
<path fill="none" stroke="black" d="M1684.7,-143.97C1717.68,-134.06 1759.43,-121.51 1794.03,-111.12"/>
<polygon fill="black" stroke="black" points="1795.48,-114.34 1804.05,-108.11 1793.46,-107.64 1795.48,-114.34"/>
</g>
<!-- LWLockAcquire -->
<g id="node14" class="node">
<title>LWLockAcquire</title>
<polygon fill="none" stroke="black" points="2392.5,-36 2265.5,-36 2265.5,0 2392.5,0 2392.5,-36"/>
<text text-anchor="middle" x="2329" y="-14.3" font-family="Times,serif" font-size="14.00">LWLockAcquire</text>
</g>
<!-- AutoVacWorkerMain&#45;&gt;LWLockAcquire -->
<g id="edge12" class="edge">
<title>AutoVacWorkerMain&#45;&gt;LWLockAcquire</title>
<path fill="none" stroke="black" d="M1709.39,-159.68C1941.45,-155.52 2591.74,-140.97 2623,-108 2690.27,-37.05 2510.4,-22.08 2402.87,-19.29"/>
<polygon fill="black" stroke="black" points="2402.78,-15.79 2392.7,-19.06 2402.62,-22.79 2402.78,-15.79"/>
</g>
<!-- GetProcessingMode -->
<g id="node15" class="node">
<title>GetProcessingMode</title>
<polygon fill="none" stroke="black" points="2259,-108 2099,-108 2099,-72 2259,-72 2259,-108"/>
<text text-anchor="middle" x="2179" y="-86.3" font-family="Times,serif" font-size="14.00">GetProcessingMode</text>
</g>
<!-- AutoVacWorkerMain&#45;&gt;GetProcessingMode -->
<g id="edge13" class="edge">
<title>AutoVacWorkerMain&#45;&gt;GetProcessingMode</title>
<path fill="none" stroke="black" d="M1709.01,-153.47C1799.1,-144.7 1949.15,-128.88 2088.56,-108"/>
<polygon fill="black" stroke="black" points="2089.21,-111.44 2098.58,-106.49 2088.17,-104.52 2089.21,-111.44"/>
</g>
<!-- MemoryContextDelete -->
<g id="node16" class="node">
<title>MemoryContextDelete</title>
<polygon fill="none" stroke="black" points="2456.5,-108 2277.5,-108 2277.5,-72 2456.5,-72 2456.5,-108"/>
<text text-anchor="middle" x="2367" y="-86.3" font-family="Times,serif" font-size="14.00">MemoryContextDelete</text>
</g>
<!-- AutoVacWorkerMain&#45;&gt;MemoryContextDelete -->
<g id="edge14" class="edge">
<title>AutoVacWorkerMain&#45;&gt;MemoryContextDelete</title>
<path fill="none" stroke="black" d="M1709.06,-156.57C1828.81,-149.51 2060.2,-133.94 2267.32,-108.02"/>
<polygon fill="black" stroke="black" points="2267.99,-111.46 2277.47,-106.73 2267.11,-104.51 2267.99,-111.46"/>
</g>
<!-- EmitErrorReport -->
<g id="node17" class="node">
<title>EmitErrorReport</title>
<polygon fill="none" stroke="black" points="2613.5,-108 2474.5,-108 2474.5,-72 2613.5,-72 2613.5,-108"/>
<text text-anchor="middle" x="2544" y="-86.3" font-family="Times,serif" font-size="14.00">EmitErrorReport</text>
</g>
<!-- AutoVacWorkerMain&#45;&gt;EmitErrorReport -->
<g id="edge15" class="edge">
<title>AutoVacWorkerMain&#45;&gt;EmitErrorReport</title>
<path fill="none" stroke="black" d="M1709.01,-159.94C1857.3,-157.12 2182.33,-146.81 2464.34,-108.12"/>
<polygon fill="black" stroke="black" points="2464.93,-111.57 2474.35,-106.73 2463.97,-104.63 2464.93,-111.57"/>
</g>
<!-- SignalHandlerForConfigReload -->
<g id="node19" class="node">
<title>SignalHandlerForConfigReload</title>
<polygon fill="none" stroke="black" points="1543,-108 1305,-108 1305,-72 1543,-72 1543,-108"/>
<text text-anchor="middle" x="1424" y="-86.3" font-family="Times,serif" font-size="14.00">SignalHandlerForConfigReload</text>
</g>
<!-- AutoVacWorkerMain&#45;&gt;SignalHandlerForConfigReload -->
<g id="edge24" class="edge">
<title>AutoVacWorkerMain&#45;&gt;SignalHandlerForConfigReload</title>
<path fill="none" stroke="black" d="M1578.36,-143.97C1549.73,-134.14 1513.55,-121.73 1483.42,-111.39"/>
<polygon fill="black" stroke="black" points="1484.46,-108.05 1473.87,-108.11 1482.19,-114.67 1484.46,-108.05"/>
</g>
<!-- OidIsValid -->
<g id="node20" class="node">
<title>OidIsValid</title>
<polygon fill="none" stroke="black" points="2759.5,-108 2670.5,-108 2670.5,-72 2759.5,-72 2759.5,-108"/>
<text text-anchor="middle" x="2715" y="-86.3" font-family="Times,serif" font-size="14.00">OidIsValid</text>
</g>
<!-- AutoVacWorkerMain&#45;&gt;OidIsValid -->
<g id="edge18" class="edge">
<title>AutoVacWorkerMain&#45;&gt;OidIsValid</title>
<path fill="none" stroke="black" d="M1709.17,-159.21C1918.76,-154.22 2474.35,-138.44 2656,-108 2657.48,-107.75 2658.97,-107.48 2660.48,-107.19"/>
<polygon fill="black" stroke="black" points="2661.45,-110.56 2670.47,-104.99 2659.95,-103.72 2661.45,-110.56"/>
</g>
<!-- InitPostgres -->
<g id="node21" class="node">
<title>InitPostgres</title>
<polygon fill="none" stroke="black" points="2882,-108 2778,-108 2778,-72 2882,-72 2882,-108"/>
<text text-anchor="middle" x="2830" y="-86.3" font-family="Times,serif" font-size="14.00">InitPostgres</text>
</g>
<!-- AutoVacWorkerMain&#45;&gt;InitPostgres -->
<g id="edge19" class="edge">
<title>AutoVacWorkerMain&#45;&gt;InitPostgres</title>
<path fill="none" stroke="black" d="M1709.37,-159.6C1931.47,-155.41 2545.66,-141.23 2767.96,-107.89"/>
<polygon fill="black" stroke="black" points="2768.58,-111.34 2777.93,-106.34 2767.51,-104.42 2768.58,-111.34"/>
</g>
<!-- InitProcess -->
<g id="node22" class="node">
<title>InitProcess</title>
<polygon fill="none" stroke="black" points="2997.5,-108 2900.5,-108 2900.5,-72 2997.5,-72 2997.5,-108"/>
<text text-anchor="middle" x="2949" y="-86.3" font-family="Times,serif" font-size="14.00">InitProcess</text>
</g>
<!-- AutoVacWorkerMain&#45;&gt;InitProcess -->
<g id="edge20" class="edge">
<title>AutoVacWorkerMain&#45;&gt;InitProcess</title>
<path fill="none" stroke="black" d="M1709.32,-160.17C1947.7,-157.32 2642.92,-146.05 2890.43,-107.76"/>
<polygon fill="black" stroke="black" points="2891.14,-111.19 2900.46,-106.16 2890.04,-104.28 2891.14,-111.19"/>
</g>
<!-- SetLatch -->
<g id="node18" class="node">
<title>SetLatch</title>
<polygon fill="none" stroke="black" points="990,-36 910,-36 910,0 990,0 990,-36"/>
<text text-anchor="middle" x="950" y="-14.3" font-family="Times,serif" font-size="14.00">SetLatch</text>
</g>
<!-- StatementCancelHandler&#45;&gt;SetLatch -->
<g id="edge16" class="edge">
<title>StatementCancelHandler&#45;&gt;SetLatch</title>
<path fill="none" stroke="black" d="M573.52,-73.29C576.38,-72.85 579.21,-72.42 582,-72 695.6,-54.8 829.13,-35.89 899.96,-25.97"/>
<polygon fill="black" stroke="black" points="900.53,-29.43 909.95,-24.57 899.56,-22.49 900.53,-29.43"/>
</g>
<!-- FreeWorkerInfo&#45;&gt;LWLockRelease -->
<g id="edge9" class="edge">
<title>FreeWorkerInfo&#45;&gt;LWLockRelease</title>
<path fill="none" stroke="black" d="M1951.41,-73.72C1905.02,-62.75 1842.39,-47.94 1793.99,-36.5"/>
<polygon fill="black" stroke="black" points="1794.74,-33.08 1784.2,-34.18 1793.13,-39.89 1794.74,-33.08"/>
</g>
<!-- FreeWorkerInfo&#45;&gt;LWLockAcquire -->
<g id="edge22" class="edge">
<title>FreeWorkerInfo&#45;&gt;LWLockAcquire</title>
<path fill="none" stroke="black" d="M2080.57,-74.14C2083.76,-73.41 2086.91,-72.7 2090,-72 2145.44,-59.48 2208.19,-45.58 2255.47,-35.16"/>
<polygon fill="black" stroke="black" points="2256.3,-38.56 2265.32,-32.98 2254.8,-31.72 2256.3,-38.56"/>
</g>
<!-- SignalHandlerForConfigReload&#45;&gt;SetLatch -->
<g id="edge17" class="edge">
<title>SignalHandlerForConfigReload&#45;&gt;SetLatch</title>
<path fill="none" stroke="black" d="M1308.65,-71.97C1210.18,-57.42 1073.28,-37.21 1000.39,-26.44"/>
<polygon fill="black" stroke="black" points="1000.51,-22.92 990.11,-24.92 999.49,-29.85 1000.51,-22.92"/>
</g>
</g>
</svg>
