<?xml version="1.0" encoding="UTF-8" standalone="no"?>
<!DOCTYPE svg PUBLIC "-//W3C//DTD SVG 1.1//EN"
 "http://www.w3.org/Graphics/SVG/1.1/DTD/svg11.dtd">
<!-- Generated by graphviz version 2.43.0 (0)
 -->
<!-- Title: cflow Pages: 1 -->
<svg width="6538pt" height="188pt"
 viewBox="0.00 0.00 6537.50 188.00" xmlns="http://www.w3.org/2000/svg" xmlns:xlink="http://www.w3.org/1999/xlink">
<g id="graph0" class="graph" transform="scale(1 1) rotate(0) translate(4 184)">
<title>cflow</title>
<polygon fill="white" stroke="transparent" points="-4,4 -4,-184 6533.5,-184 6533.5,4 -4,4"/>
<!-- AutoVacLauncherMain -->
<g id="node1" class="node">
<title>AutoVacLauncherMain</title>
<polygon fill="none" stroke="black" points="3382.5,-180 3205.5,-180 3205.5,-144 3382.5,-144 3382.5,-180"/>
<text text-anchor="middle" x="3294" y="-158.3" font-family="Times,serif" font-size="14.00">AutoVacLauncherMain</text>
</g>
<!-- SignalHandlerForConfigReload -->
<g id="node2" class="node">
<title>SignalHandlerForConfigReload</title>
<polygon fill="none" stroke="black" points="238,-108 0,-108 0,-72 238,-72 238,-108"/>
<text text-anchor="middle" x="119" y="-86.3" font-family="Times,serif" font-size="14.00">SignalHandlerForConfigReload</text>
</g>
<!-- AutoVacLauncherMain&#45;&gt;SignalHandlerForConfigReload -->
<g id="edge1" class="edge">
<title>AutoVacLauncherMain&#45;&gt;SignalHandlerForConfigReload</title>
<path fill="none" stroke="black" d="M3205.38,-160.83C2771.32,-159.8 865.91,-152.79 248.52,-108.05"/>
<polygon fill="black" stroke="black" points="248.42,-104.53 238.19,-107.28 247.9,-111.51 248.42,-104.53"/>
</g>
<!-- MemoryContextSwitchTo -->
<g id="node3" class="node">
<title>MemoryContextSwitchTo</title>
<polygon fill="none" stroke="black" points="961.5,-108 764.5,-108 764.5,-72 961.5,-72 961.5,-108"/>
<text text-anchor="middle" x="863" y="-86.3" font-family="Times,serif" font-size="14.00">MemoryContextSwitchTo</text>
</g>
<!-- AutoVacLauncherMain&#45;&gt;MemoryContextSwitchTo -->
<g id="edge2" class="edge">
<title>AutoVacLauncherMain&#45;&gt;MemoryContextSwitchTo</title>
<path fill="none" stroke="black" d="M3205.25,-160.56C2838.3,-158.49 1437.59,-148.15 971.68,-107.96"/>
<polygon fill="black" stroke="black" points="971.79,-104.45 961.52,-107.06 971.18,-111.43 971.79,-104.45"/>
</g>
<!-- LWLockReleaseAll -->
<g id="node4" class="node">
<title>LWLockReleaseAll</title>
<polygon fill="none" stroke="black" points="1126,-108 980,-108 980,-72 1126,-72 1126,-108"/>
<text text-anchor="middle" x="1053" y="-86.3" font-family="Times,serif" font-size="14.00">LWLockReleaseAll</text>
</g>
<!-- AutoVacLauncherMain&#45;&gt;LWLockReleaseAll -->
<g id="edge3" class="edge">
<title>AutoVacLauncherMain&#45;&gt;LWLockReleaseAll</title>
<path fill="none" stroke="black" d="M3205.3,-160.92C2855.09,-160.29 1567.1,-154.82 1136.23,-107.85"/>
<polygon fill="black" stroke="black" points="1136.53,-104.36 1126.21,-106.73 1135.76,-111.32 1136.53,-104.36"/>
</g>
<!-- WaitLatch -->
<g id="node5" class="node">
<title>WaitLatch</title>
<polygon fill="none" stroke="black" points="1233.5,-108 1144.5,-108 1144.5,-72 1233.5,-72 1233.5,-108"/>
<text text-anchor="middle" x="1189" y="-86.3" font-family="Times,serif" font-size="14.00">WaitLatch</text>
</g>
<!-- AutoVacLauncherMain&#45;&gt;WaitLatch -->
<g id="edge4" class="edge">
<title>AutoVacLauncherMain&#45;&gt;WaitLatch</title>
<path fill="none" stroke="black" d="M3205.39,-160.17C2842.75,-156.56 1480.11,-141.03 1243.65,-107.63"/>
<polygon fill="black" stroke="black" points="1243.97,-104.14 1233.55,-106.08 1242.91,-111.06 1243.97,-104.14"/>
</g>
<!-- FloatExceptionHandler -->
<g id="node6" class="node">
<title>FloatExceptionHandler</title>
<polygon fill="none" stroke="black" points="1434,-108 1252,-108 1252,-72 1434,-72 1434,-108"/>
<text text-anchor="middle" x="1343" y="-86.3" font-family="Times,serif" font-size="14.00">FloatExceptionHandler</text>
</g>
<!-- AutoVacLauncherMain&#45;&gt;FloatExceptionHandler -->
<g id="edge5" class="edge">
<title>AutoVacLauncherMain&#45;&gt;FloatExceptionHandler</title>
<path fill="none" stroke="black" d="M3205.41,-160.01C2886.17,-156.18 1795.31,-140.96 1448,-108 1446.87,-107.89 1445.74,-107.78 1444.6,-107.67"/>
<polygon fill="black" stroke="black" points="1444.57,-104.14 1434.25,-106.51 1443.8,-111.1 1444.57,-104.14"/>
</g>
<!-- HandleAutoVacLauncherInterrupts -->
<g id="node7" class="node">
<title>HandleAutoVacLauncherInterrupts</title>
<polygon fill="none" stroke="black" points="1756,-108 1490,-108 1490,-72 1756,-72 1756,-108"/>
<text text-anchor="middle" x="1623" y="-86.3" font-family="Times,serif" font-size="14.00">HandleAutoVacLauncherInterrupts</text>
</g>
<!-- AutoVacLauncherMain&#45;&gt;HandleAutoVacLauncherInterrupts -->
<g id="edge21" class="edge">
<title>AutoVacLauncherMain&#45;&gt;HandleAutoVacLauncherInterrupts</title>
<path fill="none" stroke="black" d="M3205.39,-160.41C2970.85,-158.29 2314.5,-148.89 1770,-108 1768.88,-107.92 1767.75,-107.83 1766.62,-107.74"/>
<polygon fill="black" stroke="black" points="1766.61,-104.23 1756.36,-106.9 1766.04,-111.21 1766.61,-104.23"/>
</g>
<!-- SetProcessingMode -->
<g id="node9" class="node">
<title>SetProcessingMode</title>
<polygon fill="none" stroke="black" points="1970,-108 1812,-108 1812,-72 1970,-72 1970,-108"/>
<text text-anchor="middle" x="1891" y="-86.3" font-family="Times,serif" font-size="14.00">SetProcessingMode</text>
</g>
<!-- AutoVacLauncherMain&#45;&gt;SetProcessingMode -->
<g id="edge7" class="edge">
<title>AutoVacLauncherMain&#45;&gt;SetProcessingMode</title>
<path fill="none" stroke="black" d="M3205.49,-159.14C2950.67,-153.53 2218.3,-135.41 1980,-108 1979.9,-107.99 1979.79,-107.98 1979.69,-107.96"/>
<polygon fill="black" stroke="black" points="1980.37,-104.52 1970.01,-106.72 1979.48,-111.47 1980.37,-104.52"/>
</g>
<!-- TimestampDifferenceExceeds -->
<g id="node10" class="node">
<title>TimestampDifferenceExceeds</title>
<polygon fill="none" stroke="black" points="2217.5,-108 1988.5,-108 1988.5,-72 2217.5,-72 2217.5,-108"/>
<text text-anchor="middle" x="2103" y="-86.3" font-family="Times,serif" font-size="14.00">TimestampDifferenceExceeds</text>
</g>
<!-- AutoVacLauncherMain&#45;&gt;TimestampDifferenceExceeds -->
<g id="edge8" class="edge">
<title>AutoVacLauncherMain&#45;&gt;TimestampDifferenceExceeds</title>
<path fill="none" stroke="black" d="M3205.29,-159.19C3023.78,-154.92 2596.76,-141.97 2227.88,-108.03"/>
<polygon fill="black" stroke="black" points="2228.09,-104.53 2217.81,-107.1 2227.44,-111.5 2228.09,-104.53"/>
</g>
<!-- StatementCancelHandler -->
<g id="node11" class="node">
<title>StatementCancelHandler</title>
<polygon fill="none" stroke="black" points="453.5,-108 256.5,-108 256.5,-72 453.5,-72 453.5,-108"/>
<text text-anchor="middle" x="355" y="-86.3" font-family="Times,serif" font-size="14.00">StatementCancelHandler</text>
</g>
<!-- AutoVacLauncherMain&#45;&gt;StatementCancelHandler -->
<g id="edge9" class="edge">
<title>AutoVacLauncherMain&#45;&gt;StatementCancelHandler</title>
<path fill="none" stroke="black" d="M3205.49,-160.98C2790.67,-160.65 1035.42,-156.4 463.51,-107.94"/>
<polygon fill="black" stroke="black" points="463.78,-104.45 453.52,-107.08 463.18,-111.43 463.78,-104.45"/>
</g>
<!-- ResetLatch -->
<g id="node12" class="node">
<title>ResetLatch</title>
<polygon fill="none" stroke="black" points="2332.5,-108 2235.5,-108 2235.5,-72 2332.5,-72 2332.5,-108"/>
<text text-anchor="middle" x="2284" y="-86.3" font-family="Times,serif" font-size="14.00">ResetLatch</text>
</g>
<!-- AutoVacLauncherMain&#45;&gt;ResetLatch -->
<g id="edge10" class="edge">
<title>AutoVacLauncherMain&#45;&gt;ResetLatch</title>
<path fill="none" stroke="black" d="M3205.28,-158.66C3005.56,-152.98 2524.65,-136.89 2342.55,-107.77"/>
<polygon fill="black" stroke="black" points="2342.98,-104.3 2332.54,-106.11 2341.83,-111.2 2342.98,-104.3"/>
</g>
<!-- HOLD_INTERRUPTS -->
<g id="node14" class="node">
<title>HOLD_INTERRUPTS</title>
<polygon fill="none" stroke="black" points="2515.5,-108 2350.5,-108 2350.5,-72 2515.5,-72 2515.5,-108"/>
<text text-anchor="middle" x="2433" y="-86.3" font-family="Times,serif" font-size="14.00">HOLD_INTERRUPTS</text>
</g>
<!-- AutoVacLauncherMain&#45;&gt;HOLD_INTERRUPTS -->
<g id="edge12" class="edge">
<title>AutoVacLauncherMain&#45;&gt;HOLD_INTERRUPTS</title>
<path fill="none" stroke="black" d="M3205.45,-158.18C3063.94,-152.94 2777.95,-139.38 2525.77,-108"/>
<polygon fill="black" stroke="black" points="2526.04,-104.51 2515.68,-106.74 2525.17,-111.46 2526.04,-104.51"/>
</g>
<!-- RESUME_INTERRUPTS -->
<g id="node15" class="node">
<title>RESUME_INTERRUPTS</title>
<polygon fill="none" stroke="black" points="2722.5,-108 2533.5,-108 2533.5,-72 2722.5,-72 2722.5,-108"/>
<text text-anchor="middle" x="2628" y="-86.3" font-family="Times,serif" font-size="14.00">RESUME_INTERRUPTS</text>
</g>
<!-- AutoVacLauncherMain&#45;&gt;RESUME_INTERRUPTS -->
<g id="edge13" class="edge">
<title>AutoVacLauncherMain&#45;&gt;RESUME_INTERRUPTS</title>
<path fill="none" stroke="black" d="M3205.22,-154.5C3096.38,-146.12 2906.12,-130.08 2732.7,-108.04"/>
<polygon fill="black" stroke="black" points="2732.98,-104.55 2722.62,-106.75 2732.09,-111.49 2732.98,-104.55"/>
</g>
<!-- BaseInit -->
<g id="node16" class="node">
<title>BaseInit</title>
<polygon fill="none" stroke="black" points="2817,-108 2741,-108 2741,-72 2817,-72 2817,-108"/>
<text text-anchor="middle" x="2779" y="-86.3" font-family="Times,serif" font-size="14.00">BaseInit</text>
</g>
<!-- AutoVacLauncherMain&#45;&gt;BaseInit -->
<g id="edge14" class="edge">
<title>AutoVacLauncherMain&#45;&gt;BaseInit</title>
<path fill="none" stroke="black" d="M3205.4,-157.15C3112.72,-151.73 2963.19,-139.03 2827.03,-107.93"/>
<polygon fill="black" stroke="black" points="2827.79,-104.52 2817.25,-105.66 2826.2,-111.33 2827.79,-104.52"/>
</g>
<!-- SignalHandlerForShutdownRequest -->
<g id="node17" class="node">
<title>SignalHandlerForShutdownRequest</title>
<polygon fill="none" stroke="black" points="746,-108 472,-108 472,-72 746,-72 746,-108"/>
<text text-anchor="middle" x="609" y="-86.3" font-family="Times,serif" font-size="14.00">SignalHandlerForShutdownRequest</text>
</g>
<!-- AutoVacLauncherMain&#45;&gt;SignalHandlerForShutdownRequest -->
<g id="edge15" class="edge">
<title>AutoVacLauncherMain&#45;&gt;SignalHandlerForShutdownRequest</title>
<path fill="none" stroke="black" d="M3205.43,-160.27C2817.82,-156.92 1267.99,-141.67 756.33,-107.96"/>
<polygon fill="black" stroke="black" points="756.5,-104.47 746.29,-107.29 756.03,-111.45 756.5,-104.47"/>
</g>
<!-- Min -->
<g id="node18" class="node">
<title>Min</title>
<polygon fill="none" stroke="black" points="2889,-108 2835,-108 2835,-72 2889,-72 2889,-108"/>
<text text-anchor="middle" x="2862" y="-86.3" font-family="Times,serif" font-size="14.00">Min</text>
</g>
<!-- AutoVacLauncherMain&#45;&gt;Min -->
<g id="edge16" class="edge">
<title>AutoVacLauncherMain&#45;&gt;Min</title>
<path fill="none" stroke="black" d="M3205.38,-156.64C3124.29,-150.9 3001.68,-137.75 2899,-108 2898.9,-107.97 2898.8,-107.94 2898.69,-107.91"/>
<polygon fill="black" stroke="black" points="2899.73,-104.56 2889.13,-104.56 2897.41,-111.17 2899.73,-104.56"/>
</g>
<!-- AtEOXact_Files -->
<g id="node19" class="node">
<title>AtEOXact_Files</title>
<polygon fill="none" stroke="black" points="3034.5,-108 2907.5,-108 2907.5,-72 3034.5,-72 3034.5,-108"/>
<text text-anchor="middle" x="2971" y="-86.3" font-family="Times,serif" font-size="14.00">AtEOXact_Files</text>
</g>
<!-- AutoVacLauncherMain&#45;&gt;AtEOXact_Files -->
<g id="edge17" class="edge">
<title>AutoVacLauncherMain&#45;&gt;AtEOXact_Files</title>
<path fill="none" stroke="black" d="M3211.71,-143.99C3165.39,-134.3 3106.23,-121.77 3044.6,-108.11"/>
<polygon fill="black" stroke="black" points="3045.21,-104.66 3034.68,-105.91 3043.69,-111.49 3045.21,-104.66"/>
</g>
<!-- SetConfigOption -->
<g id="node20" class="node">
<title>SetConfigOption</title>
<polygon fill="none" stroke="black" points="3187,-108 3053,-108 3053,-72 3187,-72 3187,-108"/>
<text text-anchor="middle" x="3120" y="-86.3" font-family="Times,serif" font-size="14.00">SetConfigOption</text>
</g>
<!-- AutoVacLauncherMain&#45;&gt;SetConfigOption -->
<g id="edge18" class="edge">
<title>AutoVacLauncherMain&#45;&gt;SetConfigOption</title>
<path fill="none" stroke="black" d="M3251.43,-143.88C3227.44,-134.22 3197.27,-122.09 3171.9,-111.88"/>
<polygon fill="black" stroke="black" points="3173.01,-108.55 3162.43,-108.07 3170.4,-115.05 3173.01,-108.55"/>
</g>
<!-- GetCurrentTimestamp -->
<g id="node21" class="node">
<title>GetCurrentTimestamp</title>
<polygon fill="none" stroke="black" points="3383,-108 3205,-108 3205,-72 3383,-72 3383,-108"/>
<text text-anchor="middle" x="3294" y="-86.3" font-family="Times,serif" font-size="14.00">GetCurrentTimestamp</text>
</g>
<!-- AutoVacLauncherMain&#45;&gt;GetCurrentTimestamp -->
<g id="edge19" class="edge">
<title>AutoVacLauncherMain&#45;&gt;GetCurrentTimestamp</title>
<path fill="none" stroke="black" d="M3294,-143.7C3294,-135.98 3294,-126.71 3294,-118.11"/>
<polygon fill="black" stroke="black" points="3297.5,-118.1 3294,-108.1 3290.5,-118.1 3297.5,-118.1"/>
</g>
<!-- Assert -->
<g id="node22" class="node">
<title>Assert</title>
<polygon fill="none" stroke="black" points="3463,-108 3401,-108 3401,-72 3463,-72 3463,-108"/>
<text text-anchor="middle" x="3432" y="-86.3" font-family="Times,serif" font-size="14.00">Assert</text>
</g>
<!-- AutoVacLauncherMain&#45;&gt;Assert -->
<g id="edge20" class="edge">
<title>AutoVacLauncherMain&#45;&gt;Assert</title>
<path fill="none" stroke="black" d="M3327.76,-143.88C3347.13,-134.05 3371.58,-121.65 3391.92,-111.33"/>
<polygon fill="black" stroke="black" points="3393.61,-114.4 3400.95,-106.75 3390.45,-108.15 3393.61,-114.4"/>
</g>
<!-- AtEOXact_SMgr -->
<g id="node23" class="node">
<title>AtEOXact_SMgr</title>
<polygon fill="none" stroke="black" points="3613,-108 3481,-108 3481,-72 3613,-72 3613,-108"/>
<text text-anchor="middle" x="3547" y="-86.3" font-family="Times,serif" font-size="14.00">AtEOXact_SMgr</text>
</g>
<!-- AutoVacLauncherMain&#45;&gt;AtEOXact_SMgr -->
<g id="edge22" class="edge">
<title>AutoVacLauncherMain&#45;&gt;AtEOXact_SMgr</title>
<path fill="none" stroke="black" d="M3355.57,-143.97C3391.69,-133.97 3437.49,-121.3 3475.24,-110.85"/>
<polygon fill="black" stroke="black" points="3476.45,-114.15 3485.16,-108.11 3474.59,-107.4 3476.45,-114.15"/>
</g>
<!-- AutoVacuumingActive -->
<g id="node24" class="node">
<title>AutoVacuumingActive</title>
<polygon fill="none" stroke="black" points="1138.5,-36 965.5,-36 965.5,0 1138.5,0 1138.5,-36"/>
<text text-anchor="middle" x="1052" y="-14.3" font-family="Times,serif" font-size="14.00">AutoVacuumingActive</text>
</g>
<!-- AutoVacLauncherMain&#45;&gt;AutoVacuumingActive -->
<g id="edge23" class="edge">
<title>AutoVacLauncherMain&#45;&gt;AutoVacuumingActive</title>
<path fill="none" stroke="black" d="M3205.21,-160.16C2851.92,-156.6 1561.26,-141.35 1481,-108 1459.52,-99.07 1464.05,-81.91 1443,-72 1326.41,-17.12 1280.87,-53.64 1148.66,-35.98"/>
<polygon fill="black" stroke="black" points="1148.96,-32.49 1138.57,-34.55 1147.98,-39.42 1148.96,-32.49"/>
</g>
<!-- AbortCurrentTransaction -->
<g id="node25" class="node">
<title>AbortCurrentTransaction</title>
<polygon fill="none" stroke="black" points="3828.5,-108 3631.5,-108 3631.5,-72 3828.5,-72 3828.5,-108"/>
<text text-anchor="middle" x="3730" y="-86.3" font-family="Times,serif" font-size="14.00">AbortCurrentTransaction</text>
</g>
<!-- AutoVacLauncherMain&#45;&gt;AbortCurrentTransaction -->
<g id="edge24" class="edge">
<title>AutoVacLauncherMain&#45;&gt;AbortCurrentTransaction</title>
<path fill="none" stroke="black" d="M3382.76,-146.75C3451.72,-135.68 3547.69,-120.27 3621.26,-108.46"/>
<polygon fill="black" stroke="black" points="3622.17,-111.86 3631.49,-106.82 3621.06,-104.95 3622.17,-111.86"/>
</g>
<!-- InitializeTimeouts -->
<g id="node26" class="node">
<title>InitializeTimeouts</title>
<polygon fill="none" stroke="black" points="3991.5,-108 3846.5,-108 3846.5,-72 3991.5,-72 3991.5,-108"/>
<text text-anchor="middle" x="3919" y="-86.3" font-family="Times,serif" font-size="14.00">InitializeTimeouts</text>
</g>
<!-- AutoVacLauncherMain&#45;&gt;InitializeTimeouts -->
<g id="edge25" class="edge">
<title>AutoVacLauncherMain&#45;&gt;InitializeTimeouts</title>
<path fill="none" stroke="black" d="M3382.94,-155.34C3488.76,-147.94 3670.88,-133.05 3835.87,-108.24"/>
<polygon fill="black" stroke="black" points="3836.85,-111.63 3846.21,-106.67 3835.8,-104.71 3836.85,-111.63"/>
</g>
<!-- FlushErrorState -->
<g id="node27" class="node">
<title>FlushErrorState</title>
<polygon fill="none" stroke="black" points="4144,-108 4010,-108 4010,-72 4144,-72 4144,-108"/>
<text text-anchor="middle" x="4077" y="-86.3" font-family="Times,serif" font-size="14.00">FlushErrorState</text>
</g>
<!-- AutoVacLauncherMain&#45;&gt;FlushErrorState -->
<g id="edge26" class="edge">
<title>AutoVacLauncherMain&#45;&gt;FlushErrorState</title>
<path fill="none" stroke="black" d="M3382.63,-158.49C3515.03,-153.81 3772.34,-141.2 3999.84,-108.04"/>
<polygon fill="black" stroke="black" points="4000.58,-111.47 4009.96,-106.55 3999.56,-104.55 4000.58,-111.47"/>
</g>
<!-- AtEOXact_Buffers -->
<g id="node29" class="node">
<title>AtEOXact_Buffers</title>
<polygon fill="none" stroke="black" points="4306,-108 4162,-108 4162,-72 4306,-72 4306,-108"/>
<text text-anchor="middle" x="4234" y="-86.3" font-family="Times,serif" font-size="14.00">AtEOXact_Buffers</text>
</g>
<!-- AutoVacLauncherMain&#45;&gt;AtEOXact_Buffers -->
<g id="edge28" class="edge">
<title>AutoVacLauncherMain&#45;&gt;AtEOXact_Buffers</title>
<path fill="none" stroke="black" d="M3382.52,-159.77C3536.92,-156.69 3865.51,-146.03 4151.51,-108.09"/>
<polygon fill="black" stroke="black" points="4152.22,-111.52 4161.67,-106.72 4151.29,-104.58 4152.22,-111.52"/>
</g>
<!-- GetProcessingMode -->
<g id="node30" class="node">
<title>GetProcessingMode</title>
<polygon fill="none" stroke="black" points="4484,-108 4324,-108 4324,-72 4484,-72 4484,-108"/>
<text text-anchor="middle" x="4404" y="-86.3" font-family="Times,serif" font-size="14.00">GetProcessingMode</text>
</g>
<!-- AutoVacLauncherMain&#45;&gt;GetProcessingMode -->
<g id="edge29" class="edge">
<title>AutoVacLauncherMain&#45;&gt;GetProcessingMode</title>
<path fill="none" stroke="black" d="M3382.78,-160.47C3558.74,-158.53 3964.23,-149.63 4313.49,-108.09"/>
<polygon fill="black" stroke="black" points="4314.04,-111.55 4323.55,-106.88 4313.2,-104.6 4314.04,-111.55"/>
</g>
<!-- MemoryContextReset -->
<g id="node31" class="node">
<title>MemoryContextReset</title>
<polygon fill="none" stroke="black" points="4675.5,-108 4502.5,-108 4502.5,-72 4675.5,-72 4675.5,-108"/>
<text text-anchor="middle" x="4589" y="-86.3" font-family="Times,serif" font-size="14.00">MemoryContextReset</text>
</g>
<!-- AutoVacLauncherMain&#45;&gt;MemoryContextReset -->
<g id="edge30" class="edge">
<title>AutoVacLauncherMain&#45;&gt;MemoryContextReset</title>
<path fill="none" stroke="black" d="M3382.68,-161.05C3580.23,-160.29 4071.56,-153.65 4492.23,-107.98"/>
<polygon fill="black" stroke="black" points="4492.91,-111.43 4502.47,-106.86 4492.15,-104.47 4492.91,-111.43"/>
</g>
<!-- AutoVacLauncherShutdown -->
<g id="node32" class="node">
<title>AutoVacLauncherShutdown</title>
<polygon fill="none" stroke="black" points="2265.5,-36 2052.5,-36 2052.5,0 2265.5,0 2265.5,-36"/>
<text text-anchor="middle" x="2159" y="-14.3" font-family="Times,serif" font-size="14.00">AutoVacLauncherShutdown</text>
</g>
<!-- AutoVacLauncherMain&#45;&gt;AutoVacLauncherShutdown -->
<g id="edge31" class="edge">
<title>AutoVacLauncherMain&#45;&gt;AutoVacLauncherShutdown</title>
<path fill="none" stroke="black" d="M3205.48,-161.2C2892.17,-161.49 1851.86,-158.63 1803,-108 1791.89,-96.49 1792.55,-84.12 1803,-72 1803.25,-71.71 1938.64,-51.61 2042.36,-36.25"/>
<polygon fill="black" stroke="black" points="2042.91,-39.71 2052.29,-34.78 2041.89,-32.78 2042.91,-39.71"/>
</g>
<!-- LWLockAcquire -->
<g id="node33" class="node">
<title>LWLockAcquire</title>
<polygon fill="none" stroke="black" points="4820.5,-108 4693.5,-108 4693.5,-72 4820.5,-72 4820.5,-108"/>
<text text-anchor="middle" x="4757" y="-86.3" font-family="Times,serif" font-size="14.00">LWLockAcquire</text>
</g>
<!-- AutoVacLauncherMain&#45;&gt;LWLockAcquire -->
<g id="edge32" class="edge">
<title>AutoVacLauncherMain&#45;&gt;LWLockAcquire</title>
<path fill="none" stroke="black" d="M3382.52,-159.87C3644.15,-156.18 4411.93,-142.74 4682.93,-108.1"/>
<polygon fill="black" stroke="black" points="4683.67,-111.54 4693.13,-106.76 4682.76,-104.6 4683.67,-111.54"/>
</g>
<!-- AllocSetContextCreate -->
<g id="node34" class="node">
<title>AllocSetContextCreate</title>
<polygon fill="none" stroke="black" points="5017.5,-108 4838.5,-108 4838.5,-72 5017.5,-72 5017.5,-108"/>
<text text-anchor="middle" x="4928" y="-86.3" font-family="Times,serif" font-size="14.00">AllocSetContextCreate</text>
</g>
<!-- AutoVacLauncherMain&#45;&gt;AllocSetContextCreate -->
<g id="edge33" class="edge">
<title>AutoVacLauncherMain&#45;&gt;AllocSetContextCreate</title>
<path fill="none" stroke="black" d="M3382.52,-159.54C3662.36,-154.69 4526.64,-137.74 4828.29,-108.07"/>
<polygon fill="black" stroke="black" points="4828.75,-111.55 4838.35,-107.06 4828.05,-104.58 4828.75,-111.55"/>
</g>
<!-- UnlockBuffers -->
<g id="node35" class="node">
<title>UnlockBuffers</title>
<polygon fill="none" stroke="black" points="5154,-108 5036,-108 5036,-72 5154,-72 5154,-108"/>
<text text-anchor="middle" x="5095" y="-86.3" font-family="Times,serif" font-size="14.00">UnlockBuffers</text>
</g>
<!-- AutoVacLauncherMain&#45;&gt;UnlockBuffers -->
<g id="edge34" class="edge">
<title>AutoVacLauncherMain&#45;&gt;UnlockBuffers</title>
<path fill="none" stroke="black" d="M3382.52,-160.8C3686.04,-159.72 4684.18,-152.86 5025.65,-107.97"/>
<polygon fill="black" stroke="black" points="5026.37,-111.4 5035.81,-106.59 5025.43,-104.46 5026.37,-111.4"/>
</g>
<!-- ReleaseAuxProcessResources -->
<g id="node36" class="node">
<title>ReleaseAuxProcessResources</title>
<polygon fill="none" stroke="black" points="5400,-108 5172,-108 5172,-72 5400,-72 5400,-108"/>
<text text-anchor="middle" x="5286" y="-86.3" font-family="Times,serif" font-size="14.00">ReleaseAuxProcessResources</text>
</g>
<!-- AutoVacLauncherMain&#45;&gt;ReleaseAuxProcessResources -->
<g id="edge36" class="edge">
<title>AutoVacLauncherMain&#45;&gt;ReleaseAuxProcessResources</title>
<path fill="none" stroke="black" d="M3382.56,-159.77C3701.36,-155.15 4790.67,-137.58 5161.83,-108.03"/>
<polygon fill="black" stroke="black" points="5162.11,-111.51 5171.8,-107.21 5161.55,-104.54 5162.11,-111.51"/>
</g>
<!-- MemoryContextDelete -->
<g id="node38" class="node">
<title>MemoryContextDelete</title>
<polygon fill="none" stroke="black" points="5597.5,-108 5418.5,-108 5418.5,-72 5597.5,-72 5597.5,-108"/>
<text text-anchor="middle" x="5508" y="-86.3" font-family="Times,serif" font-size="14.00">MemoryContextDelete</text>
</g>
<!-- AutoVacLauncherMain&#45;&gt;MemoryContextDelete -->
<g id="edge38" class="edge">
<title>AutoVacLauncherMain&#45;&gt;MemoryContextDelete</title>
<path fill="none" stroke="black" d="M3382.67,-160.49C3728.22,-158.25 4985.94,-147.57 5408.11,-107.97"/>
<polygon fill="black" stroke="black" points="5408.61,-111.44 5418.23,-107 5407.94,-104.47 5408.61,-111.44"/>
</g>
<!-- EmitErrorReport -->
<g id="node39" class="node">
<title>EmitErrorReport</title>
<polygon fill="none" stroke="black" points="5754.5,-108 5615.5,-108 5615.5,-72 5754.5,-72 5754.5,-108"/>
<text text-anchor="middle" x="5685" y="-86.3" font-family="Times,serif" font-size="14.00">EmitErrorReport</text>
</g>
<!-- AutoVacLauncherMain&#45;&gt;EmitErrorReport -->
<g id="edge40" class="edge">
<title>AutoVacLauncherMain&#45;&gt;EmitErrorReport</title>
<path fill="none" stroke="black" d="M3382.76,-161.24C3748.89,-161.88 5143.9,-160.81 5605.31,-108.04"/>
<polygon fill="black" stroke="black" points="5605.85,-111.51 5615.37,-106.87 5605.03,-104.55 5605.85,-111.51"/>
</g>
<!-- InitPostgres -->
<g id="node41" class="node">
<title>InitPostgres</title>
<polygon fill="none" stroke="black" points="5877,-108 5773,-108 5773,-72 5877,-72 5877,-108"/>
<text text-anchor="middle" x="5825" y="-86.3" font-family="Times,serif" font-size="14.00">InitPostgres</text>
</g>
<!-- AutoVacLauncherMain&#45;&gt;InitPostgres -->
<g id="edge42" class="edge">
<title>AutoVacLauncherMain&#45;&gt;InitPostgres</title>
<path fill="none" stroke="black" d="M3382.7,-160.41C3791.01,-157.53 5481.5,-143.63 5762.8,-107.82"/>
<polygon fill="black" stroke="black" points="5763.51,-111.26 5772.94,-106.43 5762.56,-104.32 5763.51,-111.26"/>
</g>
<!-- SendPostmasterSignal -->
<g id="node42" class="node">
<title>SendPostmasterSignal</title>
<polygon fill="none" stroke="black" points="6074.5,-108 5895.5,-108 5895.5,-72 6074.5,-72 6074.5,-108"/>
<text text-anchor="middle" x="5985" y="-86.3" font-family="Times,serif" font-size="14.00">SendPostmasterSignal</text>
</g>
<!-- AutoVacLauncherMain&#45;&gt;SendPostmasterSignal -->
<g id="edge45" class="edge">
<title>AutoVacLauncherMain&#45;&gt;SendPostmasterSignal</title>
<path fill="none" stroke="black" d="M3382.51,-160.97C3775.23,-160.56 5363.33,-155.98 5884.99,-107.98"/>
<polygon fill="black" stroke="black" points="5885.61,-111.44 5895.24,-107.02 5884.95,-104.47 5885.61,-111.44"/>
</g>
<!-- InitProcess -->
<g id="node43" class="node">
<title>InitProcess</title>
<polygon fill="none" stroke="black" points="6189.5,-108 6092.5,-108 6092.5,-72 6189.5,-72 6189.5,-108"/>
<text text-anchor="middle" x="6141" y="-86.3" font-family="Times,serif" font-size="14.00">InitProcess</text>
</g>
<!-- AutoVacLauncherMain&#45;&gt;InitProcess -->
<g id="edge46" class="edge">
<title>AutoVacLauncherMain&#45;&gt;InitProcess</title>
<path fill="none" stroke="black" d="M3382.84,-160.74C3823.75,-159.27 5767.98,-150.49 6082.31,-107.91"/>
<polygon fill="black" stroke="black" points="6082.99,-111.34 6092.38,-106.44 6081.98,-104.42 6082.99,-111.34"/>
</g>
<!-- LWLockRelease -->
<g id="node44" class="node">
<title>LWLockRelease</title>
<polygon fill="none" stroke="black" points="6336,-108 6208,-108 6208,-72 6336,-72 6336,-108"/>
<text text-anchor="middle" x="6272" y="-86.3" font-family="Times,serif" font-size="14.00">LWLockRelease</text>
</g>
<!-- AutoVacLauncherMain&#45;&gt;LWLockRelease -->
<g id="edge47" class="edge">
<title>AutoVacLauncherMain&#45;&gt;LWLockRelease</title>
<path fill="none" stroke="black" d="M3382.66,-160.49C3834.24,-157.77 5869.74,-143.67 6197.57,-107.93"/>
<polygon fill="black" stroke="black" points="6198.12,-111.39 6207.65,-106.76 6197.31,-104.44 6198.12,-111.39"/>
</g>
<!-- AtEOXact_HashTables -->
<g id="node45" class="node">
<title>AtEOXact_HashTables</title>
<polygon fill="none" stroke="black" points="6529.5,-108 6354.5,-108 6354.5,-72 6529.5,-72 6529.5,-108"/>
<text text-anchor="middle" x="6442" y="-86.3" font-family="Times,serif" font-size="14.00">AtEOXact_HashTables</text>
</g>
<!-- AutoVacLauncherMain&#45;&gt;AtEOXact_HashTables -->
<g id="edge48" class="edge">
<title>AutoVacLauncherMain&#45;&gt;AtEOXact_HashTables</title>
<path fill="none" stroke="black" d="M3382.78,-161.33C3817.61,-162.66 5726.33,-165.13 6343.98,-107.97"/>
<polygon fill="black" stroke="black" points="6344.69,-111.42 6354.31,-107 6344.03,-104.45 6344.69,-111.42"/>
</g>
<!-- SetLatch -->
<g id="node37" class="node">
<title>SetLatch</title>
<polygon fill="none" stroke="black" points="395,-36 315,-36 315,0 395,0 395,-36"/>
<text text-anchor="middle" x="355" y="-14.3" font-family="Times,serif" font-size="14.00">SetLatch</text>
</g>
<!-- SignalHandlerForConfigReload&#45;&gt;SetLatch -->
<g id="edge39" class="edge">
<title>SignalHandlerForConfigReload&#45;&gt;SetLatch</title>
<path fill="none" stroke="black" d="M176.43,-71.97C215.76,-60.3 267.4,-44.98 305.03,-33.82"/>
<polygon fill="black" stroke="black" points="306.17,-37.13 314.76,-30.94 304.18,-30.42 306.17,-37.13"/>
</g>
<!-- ProcessLogMemoryContextInterrupt -->
<g id="node8" class="node">
<title>ProcessLogMemoryContextInterrupt</title>
<polygon fill="none" stroke="black" points="1437,-36 1157,-36 1157,0 1437,0 1437,-36"/>
<text text-anchor="middle" x="1297" y="-14.3" font-family="Times,serif" font-size="14.00">ProcessLogMemoryContextInterrupt</text>
</g>
<!-- HandleAutoVacLauncherInterrupts&#45;&gt;ProcessLogMemoryContextInterrupt -->
<g id="edge6" class="edge">
<title>HandleAutoVacLauncherInterrupts&#45;&gt;ProcessLogMemoryContextInterrupt</title>
<path fill="none" stroke="black" d="M1543.67,-71.97C1496.15,-61.76 1435.61,-48.76 1386.41,-38.2"/>
<polygon fill="black" stroke="black" points="1386.92,-34.73 1376.4,-36.05 1385.45,-41.57 1386.92,-34.73"/>
</g>
<!-- ProcessConfigFile -->
<g id="node13" class="node">
<title>ProcessConfigFile</title>
<polygon fill="none" stroke="black" points="1600.5,-36 1455.5,-36 1455.5,0 1600.5,0 1600.5,-36"/>
<text text-anchor="middle" x="1528" y="-14.3" font-family="Times,serif" font-size="14.00">ProcessConfigFile</text>
</g>
<!-- HandleAutoVacLauncherInterrupts&#45;&gt;ProcessConfigFile -->
<g id="edge11" class="edge">
<title>HandleAutoVacLauncherInterrupts&#45;&gt;ProcessConfigFile</title>
<path fill="none" stroke="black" d="M1599.52,-71.7C1587.44,-62.8 1572.55,-51.82 1559.48,-42.2"/>
<polygon fill="black" stroke="black" points="1561.34,-39.22 1551.21,-36.1 1557.19,-44.85 1561.34,-39.22"/>
</g>
<!-- HandleAutoVacLauncherInterrupts&#45;&gt;AutoVacuumingActive -->
<g id="edge35" class="edge">
<title>HandleAutoVacLauncherInterrupts&#45;&gt;AutoVacuumingActive</title>
<path fill="none" stroke="black" d="M1489.99,-73.58C1485.27,-73.05 1480.6,-72.52 1476,-72 1333.54,-55.95 1294.89,-56.75 1148.81,-36.06"/>
<polygon fill="black" stroke="black" points="1148.96,-32.55 1138.56,-34.6 1147.97,-39.48 1148.96,-32.55"/>
</g>
<!-- ProcessCatchupInterrupt -->
<g id="node28" class="node">
<title>ProcessCatchupInterrupt</title>
<polygon fill="none" stroke="black" points="1815.5,-36 1618.5,-36 1618.5,0 1815.5,0 1815.5,-36"/>
<text text-anchor="middle" x="1717" y="-14.3" font-family="Times,serif" font-size="14.00">ProcessCatchupInterrupt</text>
</g>
<!-- HandleAutoVacLauncherInterrupts&#45;&gt;ProcessCatchupInterrupt -->
<g id="edge27" class="edge">
<title>HandleAutoVacLauncherInterrupts&#45;&gt;ProcessCatchupInterrupt</title>
<path fill="none" stroke="black" d="M1646.24,-71.7C1658.19,-62.8 1672.92,-51.82 1685.85,-42.2"/>
<polygon fill="black" stroke="black" points="1688.1,-44.88 1694.03,-36.1 1683.92,-39.27 1688.1,-44.88"/>
</g>
<!-- HandleAutoVacLauncherInterrupts&#45;&gt;AutoVacLauncherShutdown -->
<g id="edge43" class="edge">
<title>HandleAutoVacLauncherInterrupts&#45;&gt;AutoVacLauncherShutdown</title>
<path fill="none" stroke="black" d="M1756.3,-72.96C1836.48,-63.14 1940.86,-50.04 2042.37,-36.21"/>
<polygon fill="black" stroke="black" points="2043.06,-39.65 2052.5,-34.83 2042.12,-32.71 2043.06,-39.65"/>
</g>
<!-- ProcessProcSignalBarrier -->
<g id="node40" class="node">
<title>ProcessProcSignalBarrier</title>
<polygon fill="none" stroke="black" points="2034.5,-36 1833.5,-36 1833.5,0 2034.5,0 2034.5,-36"/>
<text text-anchor="middle" x="1934" y="-14.3" font-family="Times,serif" font-size="14.00">ProcessProcSignalBarrier</text>
</g>
<!-- HandleAutoVacLauncherInterrupts&#45;&gt;ProcessProcSignalBarrier -->
<g id="edge41" class="edge">
<title>HandleAutoVacLauncherInterrupts&#45;&gt;ProcessProcSignalBarrier</title>
<path fill="none" stroke="black" d="M1698.68,-71.97C1743.92,-61.78 1801.52,-48.82 1848.41,-38.26"/>
<polygon fill="black" stroke="black" points="1849.26,-41.66 1858.25,-36.05 1847.72,-34.83 1849.26,-41.66"/>
</g>
<!-- StatementCancelHandler&#45;&gt;SetLatch -->
<g id="edge37" class="edge">
<title>StatementCancelHandler&#45;&gt;SetLatch</title>
<path fill="none" stroke="black" d="M355,-71.7C355,-63.98 355,-54.71 355,-46.11"/>
<polygon fill="black" stroke="black" points="358.5,-46.1 355,-36.1 351.5,-46.1 358.5,-46.1"/>
</g>
<!-- SignalHandlerForShutdownRequest&#45;&gt;SetLatch -->
<g id="edge44" class="edge">
<title>SignalHandlerForShutdownRequest&#45;&gt;SetLatch</title>
<path fill="none" stroke="black" d="M547.19,-71.97C503.51,-59.93 445.71,-44 404.94,-32.76"/>
<polygon fill="black" stroke="black" points="405.79,-29.37 395.22,-30.08 403.93,-36.12 405.79,-29.37"/>
</g>
</g>
</svg>
