<?xml version="1.0" encoding="UTF-8" standalone="no"?>
<!DOCTYPE svg PUBLIC "-//W3C//DTD SVG 1.1//EN"
 "http://www.w3.org/Graphics/SVG/1.1/DTD/svg11.dtd">
<!-- Generated by graphviz version 2.43.0 (0)
 -->
<!-- Title: cflow Pages: 1 -->
<svg width="2330pt" height="188pt"
 viewBox="0.00 0.00 2330.00 188.00" xmlns="http://www.w3.org/2000/svg" xmlns:xlink="http://www.w3.org/1999/xlink">
<g id="graph0" class="graph" transform="scale(1 1) rotate(0) translate(4 184)">
<title>cflow</title>
<polygon fill="white" stroke="transparent" points="-4,4 -4,-184 2326,-184 2326,4 -4,4"/>
<!-- BackgroundWorkerMain -->
<g id="node1" class="node">
<title>BackgroundWorkerMain</title>
<polygon fill="none" stroke="black" points="1291.5,-180 1101.5,-180 1101.5,-144 1291.5,-144 1291.5,-180"/>
<text text-anchor="middle" x="1196.5" y="-158.3" font-family="Times,serif" font-size="14.00">BackgroundWorkerMain</text>
</g>
<!-- MemoryContextAlloc -->
<g id="node2" class="node">
<title>MemoryContextAlloc</title>
<polygon fill="none" stroke="black" points="167,-108 0,-108 0,-72 167,-72 167,-108"/>
<text text-anchor="middle" x="83.5" y="-86.3" font-family="Times,serif" font-size="14.00">MemoryContextAlloc</text>
</g>
<!-- BackgroundWorkerMain&#45;&gt;MemoryContextAlloc -->
<g id="edge1" class="edge">
<title>BackgroundWorkerMain&#45;&gt;MemoryContextAlloc</title>
<path fill="none" stroke="black" d="M1101.24,-160.14C922.1,-157.63 522.79,-147.77 177.03,-107.96"/>
<polygon fill="black" stroke="black" points="177.41,-104.48 167.07,-106.8 176.6,-111.43 177.41,-104.48"/>
</g>
<!-- FloatExceptionHandler -->
<g id="node3" class="node">
<title>FloatExceptionHandler</title>
<polygon fill="none" stroke="black" points="367.5,-108 185.5,-108 185.5,-72 367.5,-72 367.5,-108"/>
<text text-anchor="middle" x="276.5" y="-86.3" font-family="Times,serif" font-size="14.00">FloatExceptionHandler</text>
</g>
<!-- BackgroundWorkerMain&#45;&gt;FloatExceptionHandler -->
<g id="edge2" class="edge">
<title>BackgroundWorkerMain&#45;&gt;FloatExceptionHandler</title>
<path fill="none" stroke="black" d="M1101.32,-158C948.34,-152.46 638.45,-138.32 377.5,-108 377.4,-107.99 377.3,-107.98 377.19,-107.96"/>
<polygon fill="black" stroke="black" points="377.91,-104.53 367.56,-106.77 377.05,-111.47 377.91,-104.53"/>
</g>
<!-- StatementCancelHandler -->
<g id="node4" class="node">
<title>StatementCancelHandler</title>
<polygon fill="none" stroke="black" points="583,-108 386,-108 386,-72 583,-72 583,-108"/>
<text text-anchor="middle" x="484.5" y="-86.3" font-family="Times,serif" font-size="14.00">StatementCancelHandler</text>
</g>
<!-- BackgroundWorkerMain&#45;&gt;StatementCancelHandler -->
<g id="edge3" class="edge">
<title>BackgroundWorkerMain&#45;&gt;StatementCancelHandler</title>
<path fill="none" stroke="black" d="M1101.35,-154.68C984.27,-146.44 779.19,-130.53 593.02,-108.01"/>
<polygon fill="black" stroke="black" points="593.4,-104.53 583.05,-106.8 592.55,-111.48 593.4,-104.53"/>
</g>
<!-- LookupBackgroundWorkerFunction -->
<g id="node5" class="node">
<title>LookupBackgroundWorkerFunction</title>
<polygon fill="none" stroke="black" points="870,-108 601,-108 601,-72 870,-72 870,-108"/>
<text text-anchor="middle" x="735.5" y="-86.3" font-family="Times,serif" font-size="14.00">LookupBackgroundWorkerFunction</text>
</g>
<!-- BackgroundWorkerMain&#45;&gt;LookupBackgroundWorkerFunction -->
<g id="edge4" class="edge">
<title>BackgroundWorkerMain&#45;&gt;LookupBackgroundWorkerFunction</title>
<path fill="none" stroke="black" d="M1101.26,-146.54C1030.74,-135.83 934.07,-121.15 857.82,-109.57"/>
<polygon fill="black" stroke="black" points="858.09,-106.08 847.68,-108.03 857.04,-113 858.09,-106.08"/>
</g>
<!-- HOLD_INTERRUPTS -->
<g id="node6" class="node">
<title>HOLD_INTERRUPTS</title>
<polygon fill="none" stroke="black" points="1053,-108 888,-108 888,-72 1053,-72 1053,-108"/>
<text text-anchor="middle" x="970.5" y="-86.3" font-family="Times,serif" font-size="14.00">HOLD_INTERRUPTS</text>
</g>
<!-- BackgroundWorkerMain&#45;&gt;HOLD_INTERRUPTS -->
<g id="edge5" class="edge">
<title>BackgroundWorkerMain&#45;&gt;HOLD_INTERRUPTS</title>
<path fill="none" stroke="black" d="M1141.5,-143.97C1109.51,-134.06 1069.02,-121.51 1035.46,-111.12"/>
<polygon fill="black" stroke="black" points="1036.33,-107.73 1025.74,-108.11 1034.26,-114.41 1036.33,-107.73"/>
</g>
<!-- BaseInit -->
<g id="node7" class="node">
<title>BaseInit</title>
<polygon fill="none" stroke="black" points="1147.5,-108 1071.5,-108 1071.5,-72 1147.5,-72 1147.5,-108"/>
<text text-anchor="middle" x="1109.5" y="-86.3" font-family="Times,serif" font-size="14.00">BaseInit</text>
</g>
<!-- BackgroundWorkerMain&#45;&gt;BaseInit -->
<g id="edge6" class="edge">
<title>BackgroundWorkerMain&#45;&gt;BaseInit</title>
<path fill="none" stroke="black" d="M1174.99,-143.7C1164.04,-134.88 1150.55,-124.03 1138.68,-114.47"/>
<polygon fill="black" stroke="black" points="1140.74,-111.65 1130.76,-108.1 1136.36,-117.1 1140.74,-111.65"/>
</g>
<!-- Assert -->
<g id="node8" class="node">
<title>Assert</title>
<polygon fill="none" stroke="black" points="1227.5,-108 1165.5,-108 1165.5,-72 1227.5,-72 1227.5,-108"/>
<text text-anchor="middle" x="1196.5" y="-86.3" font-family="Times,serif" font-size="14.00">Assert</text>
</g>
<!-- BackgroundWorkerMain&#45;&gt;Assert -->
<g id="edge7" class="edge">
<title>BackgroundWorkerMain&#45;&gt;Assert</title>
<path fill="none" stroke="black" d="M1196.5,-143.7C1196.5,-135.98 1196.5,-126.71 1196.5,-118.11"/>
<polygon fill="black" stroke="black" points="1200,-118.1 1196.5,-108.1 1193,-118.1 1200,-118.1"/>
</g>
<!-- InitializeTimeouts -->
<g id="node9" class="node">
<title>InitializeTimeouts</title>
<polygon fill="none" stroke="black" points="1391,-108 1246,-108 1246,-72 1391,-72 1391,-108"/>
<text text-anchor="middle" x="1318.5" y="-86.3" font-family="Times,serif" font-size="14.00">InitializeTimeouts</text>
</g>
<!-- BackgroundWorkerMain&#45;&gt;InitializeTimeouts -->
<g id="edge8" class="edge">
<title>BackgroundWorkerMain&#45;&gt;InitializeTimeouts</title>
<path fill="none" stroke="black" d="M1226.34,-143.88C1242.44,-134.64 1262.5,-123.13 1279.79,-113.21"/>
<polygon fill="black" stroke="black" points="1281.61,-116.2 1288.54,-108.19 1278.13,-110.13 1281.61,-116.2"/>
</g>
<!-- GetProcessingMode -->
<g id="node10" class="node">
<title>GetProcessingMode</title>
<polygon fill="none" stroke="black" points="1569.5,-108 1409.5,-108 1409.5,-72 1569.5,-72 1569.5,-108"/>
<text text-anchor="middle" x="1489.5" y="-86.3" font-family="Times,serif" font-size="14.00">GetProcessingMode</text>
</g>
<!-- BackgroundWorkerMain&#45;&gt;GetProcessingMode -->
<g id="edge9" class="edge">
<title>BackgroundWorkerMain&#45;&gt;GetProcessingMode</title>
<path fill="none" stroke="black" d="M1267.8,-143.97C1310.24,-133.83 1364.24,-120.93 1408.31,-110.4"/>
<polygon fill="black" stroke="black" points="1409.22,-113.78 1418.13,-108.05 1407.59,-106.97 1409.22,-113.78"/>
</g>
<!-- MemoryContextDelete -->
<g id="node12" class="node">
<title>MemoryContextDelete</title>
<polygon fill="none" stroke="black" points="1767,-108 1588,-108 1588,-72 1767,-72 1767,-108"/>
<text text-anchor="middle" x="1677.5" y="-86.3" font-family="Times,serif" font-size="14.00">MemoryContextDelete</text>
</g>
<!-- BackgroundWorkerMain&#45;&gt;MemoryContextDelete -->
<g id="edge11" class="edge">
<title>BackgroundWorkerMain&#45;&gt;MemoryContextDelete</title>
<path fill="none" stroke="black" d="M1291.6,-148.67C1366.55,-138.75 1473.95,-124.1 1577.9,-108.07"/>
<polygon fill="black" stroke="black" points="1578.6,-111.5 1587.94,-106.51 1577.52,-104.58 1578.6,-111.5"/>
</g>
<!-- EmitErrorReport -->
<g id="node13" class="node">
<title>EmitErrorReport</title>
<polygon fill="none" stroke="black" points="1924,-108 1785,-108 1785,-72 1924,-72 1924,-108"/>
<text text-anchor="middle" x="1854.5" y="-86.3" font-family="Times,serif" font-size="14.00">EmitErrorReport</text>
</g>
<!-- BackgroundWorkerMain&#45;&gt;EmitErrorReport -->
<g id="edge12" class="edge">
<title>BackgroundWorkerMain&#45;&gt;EmitErrorReport</title>
<path fill="none" stroke="black" d="M1291.62,-155.92C1404.74,-149.07 1599.35,-134.7 1774.9,-108.15"/>
<polygon fill="black" stroke="black" points="1775.48,-111.6 1784.84,-106.63 1774.42,-104.68 1775.48,-111.6"/>
</g>
<!-- BackgroundWorkerUnblockSignals -->
<g id="node14" class="node">
<title>BackgroundWorkerUnblockSignals</title>
<polygon fill="none" stroke="black" points="2207,-108 1942,-108 1942,-72 2207,-72 2207,-108"/>
<text text-anchor="middle" x="2074.5" y="-86.3" font-family="Times,serif" font-size="14.00">BackgroundWorkerUnblockSignals</text>
</g>
<!-- BackgroundWorkerMain&#45;&gt;BackgroundWorkerUnblockSignals -->
<g id="edge13" class="edge">
<title>BackgroundWorkerMain&#45;&gt;BackgroundWorkerUnblockSignals</title>
<path fill="none" stroke="black" d="M1291.73,-155.62C1430.3,-147.47 1695.84,-130.61 1931.54,-108.17"/>
<polygon fill="black" stroke="black" points="1932.06,-111.63 1941.68,-107.2 1931.39,-104.66 1932.06,-111.63"/>
</g>
<!-- InitProcess -->
<g id="node15" class="node">
<title>InitProcess</title>
<polygon fill="none" stroke="black" points="2322,-108 2225,-108 2225,-72 2322,-72 2322,-108"/>
<text text-anchor="middle" x="2273.5" y="-86.3" font-family="Times,serif" font-size="14.00">InitProcess</text>
</g>
<!-- BackgroundWorkerMain&#45;&gt;InitProcess -->
<g id="edge14" class="edge">
<title>BackgroundWorkerMain&#45;&gt;InitProcess</title>
<path fill="none" stroke="black" d="M1291.57,-158.95C1505.78,-153.86 2021.88,-138.92 2214.82,-108.01"/>
<polygon fill="black" stroke="black" points="2215.58,-111.43 2224.86,-106.33 2214.42,-104.53 2215.58,-111.43"/>
</g>
<!-- SetLatch -->
<g id="node11" class="node">
<title>SetLatch</title>
<polygon fill="none" stroke="black" points="524.5,-36 444.5,-36 444.5,0 524.5,0 524.5,-36"/>
<text text-anchor="middle" x="484.5" y="-14.3" font-family="Times,serif" font-size="14.00">SetLatch</text>
</g>
<!-- StatementCancelHandler&#45;&gt;SetLatch -->
<g id="edge10" class="edge">
<title>StatementCancelHandler&#45;&gt;SetLatch</title>
<path fill="none" stroke="black" d="M484.5,-71.7C484.5,-63.98 484.5,-54.71 484.5,-46.11"/>
<polygon fill="black" stroke="black" points="488,-46.1 484.5,-36.1 481,-46.1 488,-46.1"/>
</g>
</g>
</svg>
