<?xml version="1.0" encoding="UTF-8" standalone="no"?>
<!DOCTYPE svg PUBLIC "-//W3C//DTD SVG 1.1//EN"
 "http://www.w3.org/Graphics/SVG/1.1/DTD/svg11.dtd">
<!-- Generated by graphviz version 2.43.0 (0)
 -->
<!-- Title: cflow Pages: 1 -->
<svg width="6236pt" height="260pt"
 viewBox="0.00 0.00 6235.50 260.00" xmlns="http://www.w3.org/2000/svg" xmlns:xlink="http://www.w3.org/1999/xlink">
<g id="graph0" class="graph" transform="scale(1 1) rotate(0) translate(4 256)">
<title>cflow</title>
<polygon fill="white" stroke="transparent" points="-4,4 -4,-256 6231.5,-256 6231.5,4 -4,4"/>
<!-- FirstCallSinceLastCheckpoint -->
<g id="node1" class="node">
<title>FirstCallSinceLastCheckpoint</title>
<polygon fill="none" stroke="black" points="338,-180 109,-180 109,-144 338,-144 338,-180"/>
<text text-anchor="middle" x="223.5" y="-158.3" font-family="Times,serif" font-size="14.00">FirstCallSinceLastCheckpoint</text>
</g>
<!-- SpinLockAcquire -->
<g id="node2" class="node">
<title>SpinLockAcquire</title>
<polygon fill="none" stroke="black" points="292,-108 155,-108 155,-72 292,-72 292,-108"/>
<text text-anchor="middle" x="223.5" y="-86.3" font-family="Times,serif" font-size="14.00">SpinLockAcquire</text>
</g>
<!-- FirstCallSinceLastCheckpoint&#45;&gt;SpinLockAcquire -->
<g id="edge1" class="edge">
<title>FirstCallSinceLastCheckpoint&#45;&gt;SpinLockAcquire</title>
<path fill="none" stroke="black" d="M223.5,-143.7C223.5,-135.98 223.5,-126.71 223.5,-118.11"/>
<polygon fill="black" stroke="black" points="227,-118.1 223.5,-108.1 220,-118.1 227,-118.1"/>
</g>
<!-- SpinLockRelease -->
<g id="node10" class="node">
<title>SpinLockRelease</title>
<polygon fill="none" stroke="black" points="137,-108 0,-108 0,-72 137,-72 137,-108"/>
<text text-anchor="middle" x="68.5" y="-86.3" font-family="Times,serif" font-size="14.00">SpinLockRelease</text>
</g>
<!-- FirstCallSinceLastCheckpoint&#45;&gt;SpinLockRelease -->
<g id="edge7" class="edge">
<title>FirstCallSinceLastCheckpoint&#45;&gt;SpinLockRelease</title>
<path fill="none" stroke="black" d="M185.58,-143.88C164.49,-134.35 138.04,-122.41 115.63,-112.28"/>
<polygon fill="black" stroke="black" points="116.85,-108.99 106.29,-108.07 113.97,-115.37 116.85,-108.99"/>
</g>
<!-- BackgroundWriterMain -->
<g id="node3" class="node">
<title>BackgroundWriterMain</title>
<polygon fill="none" stroke="black" points="3386.5,-252 3202.5,-252 3202.5,-216 3386.5,-216 3386.5,-252"/>
<text text-anchor="middle" x="3294.5" y="-230.3" font-family="Times,serif" font-size="14.00">BackgroundWriterMain</text>
</g>
<!-- BackgroundWriterMain&#45;&gt;FirstCallSinceLastCheckpoint -->
<g id="edge43" class="edge">
<title>BackgroundWriterMain&#45;&gt;FirstCallSinceLastCheckpoint</title>
<path fill="none" stroke="black" d="M3202.31,-232.57C2851.82,-230.66 1568.73,-221.11 512.5,-180 458.59,-177.9 399.08,-174.57 348.14,-171.42"/>
<polygon fill="black" stroke="black" points="348.27,-167.92 338.07,-170.79 347.83,-174.9 348.27,-167.92"/>
</g>
<!-- AllocSetContextCreate -->
<g id="node4" class="node">
<title>AllocSetContextCreate</title>
<polygon fill="none" stroke="black" points="701,-180 522,-180 522,-144 701,-144 701,-180"/>
<text text-anchor="middle" x="611.5" y="-158.3" font-family="Times,serif" font-size="14.00">AllocSetContextCreate</text>
</g>
<!-- BackgroundWriterMain&#45;&gt;AllocSetContextCreate -->
<g id="edge2" class="edge">
<title>BackgroundWriterMain&#45;&gt;AllocSetContextCreate</title>
<path fill="none" stroke="black" d="M3202.26,-232.96C2804.08,-232.5 1229.76,-227.69 711.44,-179.97"/>
<polygon fill="black" stroke="black" points="711.55,-176.47 701.26,-179.02 710.89,-183.44 711.55,-176.47"/>
</g>
<!-- AtEOXact_Buffers -->
<g id="node5" class="node">
<title>AtEOXact_Buffers</title>
<polygon fill="none" stroke="black" points="863.5,-180 719.5,-180 719.5,-144 863.5,-144 863.5,-180"/>
<text text-anchor="middle" x="791.5" y="-158.3" font-family="Times,serif" font-size="14.00">AtEOXact_Buffers</text>
</g>
<!-- BackgroundWriterMain&#45;&gt;AtEOXact_Buffers -->
<g id="edge3" class="edge">
<title>BackgroundWriterMain&#45;&gt;AtEOXact_Buffers</title>
<path fill="none" stroke="black" d="M3202.23,-233.26C2819.8,-234 1357.21,-233.29 874,-180.02"/>
<polygon fill="black" stroke="black" points="874.14,-176.51 863.82,-178.87 873.36,-183.47 874.14,-176.51"/>
</g>
<!-- MemoryContextReset -->
<g id="node6" class="node">
<title>MemoryContextReset</title>
<polygon fill="none" stroke="black" points="1055,-180 882,-180 882,-144 1055,-144 1055,-180"/>
<text text-anchor="middle" x="968.5" y="-158.3" font-family="Times,serif" font-size="14.00">MemoryContextReset</text>
</g>
<!-- BackgroundWriterMain&#45;&gt;MemoryContextReset -->
<g id="edge4" class="edge">
<title>BackgroundWriterMain&#45;&gt;MemoryContextReset</title>
<path fill="none" stroke="black" d="M3202.47,-232.56C2837.81,-230.56 1493.57,-220.53 1069.5,-180 1068.18,-179.87 1066.85,-179.74 1065.52,-179.6"/>
<polygon fill="black" stroke="black" points="1065.5,-176.08 1055.17,-178.41 1064.7,-183.03 1065.5,-176.08"/>
</g>
<!-- ConditionVariableCancelSleep -->
<g id="node7" class="node">
<title>ConditionVariableCancelSleep</title>
<polygon fill="none" stroke="black" points="502.5,-36 270.5,-36 270.5,0 502.5,0 502.5,-36"/>
<text text-anchor="middle" x="386.5" y="-14.3" font-family="Times,serif" font-size="14.00">ConditionVariableCancelSleep</text>
</g>
<!-- BackgroundWriterMain&#45;&gt;ConditionVariableCancelSleep -->
<g id="edge5" class="edge">
<title>BackgroundWriterMain&#45;&gt;ConditionVariableCancelSleep</title>
<path fill="none" stroke="black" d="M3202.27,-233.43C2851.16,-234.66 1597.89,-234.98 1203.5,-180 1139.87,-171.13 1127.02,-153.64 1063.5,-144 983.87,-131.91 395.02,-166.35 339.5,-108 321.74,-89.34 340.03,-62.65 358.73,-43.38"/>
<polygon fill="black" stroke="black" points="361.43,-45.63 366.11,-36.13 356.53,-40.63 361.43,-45.63"/>
</g>
<!-- AuxiliaryProcessMainCommon -->
<g id="node8" class="node">
<title>AuxiliaryProcessMainCommon</title>
<polygon fill="none" stroke="black" points="1448,-180 1213,-180 1213,-144 1448,-144 1448,-180"/>
<text text-anchor="middle" x="1330.5" y="-158.3" font-family="Times,serif" font-size="14.00">AuxiliaryProcessMainCommon</text>
</g>
<!-- BackgroundWriterMain&#45;&gt;AuxiliaryProcessMainCommon -->
<g id="edge20" class="edge">
<title>BackgroundWriterMain&#45;&gt;AuxiliaryProcessMainCommon</title>
<path fill="none" stroke="black" d="M3202.43,-230.95C2949.76,-225.12 2224.24,-207.15 1621.5,-180 1568.06,-177.59 1509.14,-174.28 1458.37,-171.21"/>
<polygon fill="black" stroke="black" points="1458.53,-167.71 1448.33,-170.6 1458.1,-174.7 1458.53,-167.71"/>
</g>
<!-- UnlockBuffers -->
<g id="node12" class="node">
<title>UnlockBuffers</title>
<polygon fill="none" stroke="black" points="1819.5,-180 1701.5,-180 1701.5,-144 1819.5,-144 1819.5,-180"/>
<text text-anchor="middle" x="1760.5" y="-158.3" font-family="Times,serif" font-size="14.00">UnlockBuffers</text>
</g>
<!-- BackgroundWriterMain&#45;&gt;UnlockBuffers -->
<g id="edge9" class="edge">
<title>BackgroundWriterMain&#45;&gt;UnlockBuffers</title>
<path fill="none" stroke="black" d="M3202.17,-232.18C2927.06,-229.35 2114.82,-218.05 1829.62,-179.94"/>
<polygon fill="black" stroke="black" points="1830.08,-176.47 1819.69,-178.57 1829.12,-183.4 1830.08,-176.47"/>
</g>
<!-- EmitErrorReport -->
<g id="node15" class="node">
<title>EmitErrorReport</title>
<polygon fill="none" stroke="black" points="1977,-180 1838,-180 1838,-144 1977,-144 1977,-180"/>
<text text-anchor="middle" x="1907.5" y="-158.3" font-family="Times,serif" font-size="14.00">EmitErrorReport</text>
</g>
<!-- BackgroundWriterMain&#45;&gt;EmitErrorReport -->
<g id="edge12" class="edge">
<title>BackgroundWriterMain&#45;&gt;EmitErrorReport</title>
<path fill="none" stroke="black" d="M3202.25,-231.32C2948.21,-226.37 2241.08,-210.33 1987.11,-179.9"/>
<polygon fill="black" stroke="black" points="1987.53,-176.42 1977.18,-178.67 1986.67,-183.37 1987.53,-176.42"/>
</g>
<!-- HandleMainLoopInterrupts -->
<g id="node16" class="node">
<title>HandleMainLoopInterrupts</title>
<polygon fill="none" stroke="black" points="2207.5,-180 1995.5,-180 1995.5,-144 2207.5,-144 2207.5,-180"/>
<text text-anchor="middle" x="2101.5" y="-158.3" font-family="Times,serif" font-size="14.00">HandleMainLoopInterrupts</text>
</g>
<!-- BackgroundWriterMain&#45;&gt;HandleMainLoopInterrupts -->
<g id="edge13" class="edge">
<title>BackgroundWriterMain&#45;&gt;HandleMainLoopInterrupts</title>
<path fill="none" stroke="black" d="M3202.35,-231.5C3017.51,-227.83 2588.22,-215.97 2217.77,-180.07"/>
<polygon fill="black" stroke="black" points="2217.95,-176.57 2207.66,-179.08 2217.27,-183.53 2217.95,-176.57"/>
</g>
<!-- ReleaseAuxProcessResources -->
<g id="node18" class="node">
<title>ReleaseAuxProcessResources</title>
<polygon fill="none" stroke="black" points="2453.5,-180 2225.5,-180 2225.5,-144 2453.5,-144 2453.5,-180"/>
<text text-anchor="middle" x="2339.5" y="-158.3" font-family="Times,serif" font-size="14.00">ReleaseAuxProcessResources</text>
</g>
<!-- BackgroundWriterMain&#45;&gt;ReleaseAuxProcessResources -->
<g id="edge15" class="edge">
<title>BackgroundWriterMain&#45;&gt;ReleaseAuxProcessResources</title>
<path fill="none" stroke="black" d="M3202.29,-229.35C3050.49,-222.85 2738.27,-207.41 2463.87,-180.1"/>
<polygon fill="black" stroke="black" points="2464.01,-176.59 2453.72,-179.08 2463.32,-183.56 2464.01,-176.59"/>
</g>
<!-- AtEOXact_HashTables -->
<g id="node19" class="node">
<title>AtEOXact_HashTables</title>
<polygon fill="none" stroke="black" points="2647,-180 2472,-180 2472,-144 2647,-144 2647,-180"/>
<text text-anchor="middle" x="2559.5" y="-158.3" font-family="Times,serif" font-size="14.00">AtEOXact_HashTables</text>
</g>
<!-- BackgroundWriterMain&#45;&gt;AtEOXact_HashTables -->
<g id="edge16" class="edge">
<title>BackgroundWriterMain&#45;&gt;AtEOXact_HashTables</title>
<path fill="none" stroke="black" d="M3202.42,-228.05C3080.05,-220.86 2856.94,-205.67 2657.18,-180.15"/>
<polygon fill="black" stroke="black" points="2657.45,-176.66 2647.08,-178.85 2656.55,-183.6 2657.45,-176.66"/>
</g>
<!-- TimestampTzPlusMilliseconds -->
<g id="node20" class="node">
<title>TimestampTzPlusMilliseconds</title>
<polygon fill="none" stroke="black" points="2898,-180 2665,-180 2665,-144 2898,-144 2898,-180"/>
<text text-anchor="middle" x="2781.5" y="-158.3" font-family="Times,serif" font-size="14.00">TimestampTzPlusMilliseconds</text>
</g>
<!-- BackgroundWriterMain&#45;&gt;TimestampTzPlusMilliseconds -->
<g id="edge17" class="edge">
<title>BackgroundWriterMain&#45;&gt;TimestampTzPlusMilliseconds</title>
<path fill="none" stroke="black" d="M3202.49,-220.45C3120.5,-209.26 2999.74,-192.78 2908.56,-180.34"/>
<polygon fill="black" stroke="black" points="2908.81,-176.84 2898.43,-178.96 2907.86,-183.78 2908.81,-176.84"/>
</g>
<!-- WritebackContextInit -->
<g id="node21" class="node">
<title>WritebackContextInit</title>
<polygon fill="none" stroke="black" points="3086.5,-180 2916.5,-180 2916.5,-144 3086.5,-144 3086.5,-180"/>
<text text-anchor="middle" x="3001.5" y="-158.3" font-family="Times,serif" font-size="14.00">WritebackContextInit</text>
</g>
<!-- BackgroundWriterMain&#45;&gt;WritebackContextInit -->
<g id="edge18" class="edge">
<title>BackgroundWriterMain&#45;&gt;WritebackContextInit</title>
<path fill="none" stroke="black" d="M3223.2,-215.97C3180.76,-205.83 3126.76,-192.93 3082.69,-182.4"/>
<polygon fill="black" stroke="black" points="3083.41,-178.97 3072.87,-180.05 3081.78,-185.78 3083.41,-178.97"/>
</g>
<!-- RecoveryInProgress -->
<g id="node24" class="node">
<title>RecoveryInProgress</title>
<polygon fill="none" stroke="black" points="3266,-180 3105,-180 3105,-144 3266,-144 3266,-180"/>
<text text-anchor="middle" x="3185.5" y="-158.3" font-family="Times,serif" font-size="14.00">RecoveryInProgress</text>
</g>
<!-- BackgroundWriterMain&#45;&gt;RecoveryInProgress -->
<g id="edge22" class="edge">
<title>BackgroundWriterMain&#45;&gt;RecoveryInProgress</title>
<path fill="none" stroke="black" d="M3267.84,-215.88C3253.72,-206.81 3236.19,-195.55 3220.94,-185.76"/>
<polygon fill="black" stroke="black" points="3222.57,-182.65 3212.27,-180.19 3218.79,-188.54 3222.57,-182.65"/>
</g>
<!-- SignalHandlerForConfigReload -->
<g id="node25" class="node">
<title>SignalHandlerForConfigReload</title>
<polygon fill="none" stroke="black" points="3522.5,-180 3284.5,-180 3284.5,-144 3522.5,-144 3522.5,-180"/>
<text text-anchor="middle" x="3403.5" y="-158.3" font-family="Times,serif" font-size="14.00">SignalHandlerForConfigReload</text>
</g>
<!-- BackgroundWriterMain&#45;&gt;SignalHandlerForConfigReload -->
<g id="edge23" class="edge">
<title>BackgroundWriterMain&#45;&gt;SignalHandlerForConfigReload</title>
<path fill="none" stroke="black" d="M3321.16,-215.88C3335.28,-206.81 3352.81,-195.55 3368.06,-185.76"/>
<polygon fill="black" stroke="black" points="3370.21,-188.54 3376.73,-180.19 3366.43,-182.65 3370.21,-188.54"/>
</g>
<!-- MemoryContextSwitchTo -->
<g id="node26" class="node">
<title>MemoryContextSwitchTo</title>
<polygon fill="none" stroke="black" points="4030,-180 3833,-180 3833,-144 4030,-144 4030,-180"/>
<text text-anchor="middle" x="3931.5" y="-158.3" font-family="Times,serif" font-size="14.00">MemoryContextSwitchTo</text>
</g>
<!-- BackgroundWriterMain&#45;&gt;MemoryContextSwitchTo -->
<g id="edge24" class="edge">
<title>BackgroundWriterMain&#45;&gt;MemoryContextSwitchTo</title>
<path fill="none" stroke="black" d="M3386.9,-225.33C3490.45,-216.37 3663.57,-200.32 3822.95,-180.03"/>
<polygon fill="black" stroke="black" points="3823.47,-183.49 3832.94,-178.75 3822.58,-176.55 3823.47,-183.49"/>
</g>
<!-- LWLockReleaseAll -->
<g id="node27" class="node">
<title>LWLockReleaseAll</title>
<polygon fill="none" stroke="black" points="1322.5,-36 1176.5,-36 1176.5,0 1322.5,0 1322.5,-36"/>
<text text-anchor="middle" x="1249.5" y="-14.3" font-family="Times,serif" font-size="14.00">LWLockReleaseAll</text>
</g>
<!-- BackgroundWriterMain&#45;&gt;LWLockReleaseAll -->
<g id="edge25" class="edge">
<title>BackgroundWriterMain&#45;&gt;LWLockReleaseAll</title>
<path fill="none" stroke="black" d="M3202.28,-233.45C2869.21,-234.61 1745.21,-234.48 1692.5,-180 1681.37,-168.5 1682.27,-156.3 1692.5,-144 1748.57,-76.57 1830.43,-175.43 1886.5,-108 1896.73,-95.7 1897.33,-83.77 1886.5,-72 1849.72,-32.03 1496.65,-22.2 1332.57,-19.78"/>
<polygon fill="black" stroke="black" points="1332.56,-16.28 1322.51,-19.64 1332.46,-23.28 1332.56,-16.28"/>
</g>
<!-- WaitLatch -->
<g id="node28" class="node">
<title>WaitLatch</title>
<polygon fill="none" stroke="black" points="4137,-180 4048,-180 4048,-144 4137,-144 4137,-180"/>
<text text-anchor="middle" x="4092.5" y="-158.3" font-family="Times,serif" font-size="14.00">WaitLatch</text>
</g>
<!-- BackgroundWriterMain&#45;&gt;WaitLatch -->
<g id="edge26" class="edge">
<title>BackgroundWriterMain&#45;&gt;WaitLatch</title>
<path fill="none" stroke="black" d="M3386.59,-233.49C3526.29,-232.68 3799.86,-225.01 4037.99,-180.03"/>
<polygon fill="black" stroke="black" points="4038.71,-183.46 4047.88,-178.14 4037.4,-176.58 4038.71,-183.46"/>
</g>
<!-- Assert -->
<g id="node30" class="node">
<title>Assert</title>
<polygon fill="none" stroke="black" points="1877.5,-108 1815.5,-108 1815.5,-72 1877.5,-72 1877.5,-108"/>
<text text-anchor="middle" x="1846.5" y="-86.3" font-family="Times,serif" font-size="14.00">Assert</text>
</g>
<!-- BackgroundWriterMain&#45;&gt;Assert -->
<g id="edge35" class="edge">
<title>BackgroundWriterMain&#45;&gt;Assert</title>
<path fill="none" stroke="black" d="M3202.42,-233.51C2865.07,-234.94 1713.42,-235.7 1659.5,-180 1648.37,-168.5 1649.63,-156.6 1659.5,-144 1700.71,-91.39 1742.01,-128.86 1805.5,-108 1805.6,-107.97 1805.7,-107.93 1805.8,-107.9"/>
<polygon fill="black" stroke="black" points="1807.11,-111.15 1815.34,-104.49 1804.75,-104.56 1807.11,-111.15"/>
</g>
<!-- RESUME_INTERRUPTS -->
<g id="node32" class="node">
<title>RESUME_INTERRUPTS</title>
<polygon fill="none" stroke="black" points="4344,-180 4155,-180 4155,-144 4344,-144 4344,-180"/>
<text text-anchor="middle" x="4249.5" y="-158.3" font-family="Times,serif" font-size="14.00">RESUME_INTERRUPTS</text>
</g>
<!-- BackgroundWriterMain&#45;&gt;RESUME_INTERRUPTS -->
<g id="edge31" class="edge">
<title>BackgroundWriterMain&#45;&gt;RESUME_INTERRUPTS</title>
<path fill="none" stroke="black" d="M3386.8,-230.33C3541.61,-225.16 3863.47,-211.53 4144.98,-180.11"/>
<polygon fill="black" stroke="black" points="4145.43,-183.58 4154.98,-178.98 4144.65,-176.62 4145.43,-183.58"/>
</g>
<!-- ResetLatch -->
<g id="node33" class="node">
<title>ResetLatch</title>
<polygon fill="none" stroke="black" points="4459,-180 4362,-180 4362,-144 4459,-144 4459,-180"/>
<text text-anchor="middle" x="4410.5" y="-158.3" font-family="Times,serif" font-size="14.00">ResetLatch</text>
</g>
<!-- BackgroundWriterMain&#45;&gt;ResetLatch -->
<g id="edge32" class="edge">
<title>BackgroundWriterMain&#45;&gt;ResetLatch</title>
<path fill="none" stroke="black" d="M3386.56,-231.22C3604.91,-226.56 4150.38,-212.16 4351.95,-179.99"/>
<polygon fill="black" stroke="black" points="4352.57,-183.43 4361.87,-178.34 4351.43,-176.53 4352.57,-183.43"/>
</g>
<!-- XLogStandbyInfoActive -->
<g id="node34" class="node">
<title>XLogStandbyInfoActive</title>
<polygon fill="none" stroke="black" points="4661.5,-180 4477.5,-180 4477.5,-144 4661.5,-144 4661.5,-180"/>
<text text-anchor="middle" x="4569.5" y="-158.3" font-family="Times,serif" font-size="14.00">XLogStandbyInfoActive</text>
</g>
<!-- BackgroundWriterMain&#45;&gt;XLogStandbyInfoActive -->
<g id="edge33" class="edge">
<title>BackgroundWriterMain&#45;&gt;XLogStandbyInfoActive</title>
<path fill="none" stroke="black" d="M3386.87,-232.64C3583.75,-231.05 4059.32,-222.8 4467.14,-180.06"/>
<polygon fill="black" stroke="black" points="4467.79,-183.51 4477.37,-178.98 4467.05,-176.55 4467.79,-183.51"/>
</g>
<!-- HOLD_INTERRUPTS -->
<g id="node35" class="node">
<title>HOLD_INTERRUPTS</title>
<polygon fill="none" stroke="black" points="4845,-180 4680,-180 4680,-144 4845,-144 4845,-180"/>
<text text-anchor="middle" x="4762.5" y="-158.3" font-family="Times,serif" font-size="14.00">HOLD_INTERRUPTS</text>
</g>
<!-- BackgroundWriterMain&#45;&gt;HOLD_INTERRUPTS -->
<g id="edge34" class="edge">
<title>BackgroundWriterMain&#45;&gt;HOLD_INTERRUPTS</title>
<path fill="none" stroke="black" d="M3386.7,-231.18C3649.71,-225.73 4401.31,-208.19 4669.72,-179.95"/>
<polygon fill="black" stroke="black" points="4670.27,-183.41 4679.83,-178.86 4669.51,-176.45 4670.27,-183.41"/>
</g>
<!-- SignalHandlerForShutdownRequest -->
<g id="node36" class="node">
<title>SignalHandlerForShutdownRequest</title>
<polygon fill="none" stroke="black" points="3814.5,-180 3540.5,-180 3540.5,-144 3814.5,-144 3814.5,-180"/>
<text text-anchor="middle" x="3677.5" y="-158.3" font-family="Times,serif" font-size="14.00">SignalHandlerForShutdownRequest</text>
</g>
<!-- BackgroundWriterMain&#45;&gt;SignalHandlerForShutdownRequest -->
<g id="edge36" class="edge">
<title>BackgroundWriterMain&#45;&gt;SignalHandlerForShutdownRequest</title>
<path fill="none" stroke="black" d="M3386.73,-216.14C3443.33,-205.8 3515.92,-192.53 3574.41,-181.84"/>
<polygon fill="black" stroke="black" points="3575.21,-185.25 3584.41,-180.01 3573.95,-178.37 3575.21,-185.25"/>
</g>
<!-- LogStandbySnapshot -->
<g id="node37" class="node">
<title>LogStandbySnapshot</title>
<polygon fill="none" stroke="black" points="5032,-180 4863,-180 4863,-144 5032,-144 5032,-180"/>
<text text-anchor="middle" x="4947.5" y="-158.3" font-family="Times,serif" font-size="14.00">LogStandbySnapshot</text>
</g>
<!-- BackgroundWriterMain&#45;&gt;LogStandbySnapshot -->
<g id="edge37" class="edge">
<title>BackgroundWriterMain&#45;&gt;LogStandbySnapshot</title>
<path fill="none" stroke="black" d="M3386.7,-231.65C3673.33,-227.16 4547.38,-211.32 4852.75,-180.07"/>
<polygon fill="black" stroke="black" points="4853.35,-183.53 4862.93,-179 4852.62,-176.57 4853.35,-183.53"/>
</g>
<!-- AtEOXact_Files -->
<g id="node38" class="node">
<title>AtEOXact_Files</title>
<polygon fill="none" stroke="black" points="5177,-180 5050,-180 5050,-144 5177,-144 5177,-180"/>
<text text-anchor="middle" x="5113.5" y="-158.3" font-family="Times,serif" font-size="14.00">AtEOXact_Files</text>
</g>
<!-- BackgroundWriterMain&#45;&gt;AtEOXact_Files -->
<g id="edge38" class="edge">
<title>BackgroundWriterMain&#45;&gt;AtEOXact_Files</title>
<path fill="none" stroke="black" d="M3386.68,-232.65C3696.15,-231.11 4697.26,-222.94 5039.7,-180.06"/>
<polygon fill="black" stroke="black" points="5040.16,-183.53 5049.63,-178.78 5039.27,-176.59 5040.16,-183.53"/>
</g>
<!-- GetLastImportantRecPtr -->
<g id="node39" class="node">
<title>GetLastImportantRecPtr</title>
<polygon fill="none" stroke="black" points="5389.5,-180 5195.5,-180 5195.5,-144 5389.5,-144 5389.5,-180"/>
<text text-anchor="middle" x="5292.5" y="-158.3" font-family="Times,serif" font-size="14.00">GetLastImportantRecPtr</text>
</g>
<!-- BackgroundWriterMain&#45;&gt;GetLastImportantRecPtr -->
<g id="edge39" class="edge">
<title>BackgroundWriterMain&#45;&gt;GetLastImportantRecPtr</title>
<path fill="none" stroke="black" d="M3386.71,-232.02C3712.72,-228.3 4810.93,-213.61 5185.18,-180.03"/>
<polygon fill="black" stroke="black" points="5185.6,-183.51 5195.23,-179.11 5184.96,-176.54 5185.6,-183.51"/>
</g>
<!-- GetCurrentTimestamp -->
<g id="node40" class="node">
<title>GetCurrentTimestamp</title>
<polygon fill="none" stroke="black" points="5585.5,-180 5407.5,-180 5407.5,-144 5585.5,-144 5585.5,-180"/>
<text text-anchor="middle" x="5496.5" y="-158.3" font-family="Times,serif" font-size="14.00">GetCurrentTimestamp</text>
</g>
<!-- BackgroundWriterMain&#45;&gt;GetCurrentTimestamp -->
<g id="edge40" class="edge">
<title>BackgroundWriterMain&#45;&gt;GetCurrentTimestamp</title>
<path fill="none" stroke="black" d="M3386.58,-232.48C3735.78,-230.22 4979.28,-219.59 5397.36,-180"/>
<polygon fill="black" stroke="black" points="5397.76,-183.48 5407.38,-179.03 5397.09,-176.51 5397.76,-183.48"/>
</g>
<!-- AtEOXact_SMgr -->
<g id="node42" class="node">
<title>AtEOXact_SMgr</title>
<polygon fill="none" stroke="black" points="5735.5,-180 5603.5,-180 5603.5,-144 5735.5,-144 5735.5,-180"/>
<text text-anchor="middle" x="5669.5" y="-158.3" font-family="Times,serif" font-size="14.00">AtEOXact_SMgr</text>
</g>
<!-- BackgroundWriterMain&#45;&gt;AtEOXact_SMgr -->
<g id="edge42" class="edge">
<title>BackgroundWriterMain&#45;&gt;AtEOXact_SMgr</title>
<path fill="none" stroke="black" d="M3386.52,-233.33C3756.34,-234.29 5135.82,-234.17 5593.4,-179.95"/>
<polygon fill="black" stroke="black" points="5593.87,-183.42 5603.37,-178.74 5593.02,-176.47 5593.87,-183.42"/>
</g>
<!-- BgBufferSync -->
<g id="node43" class="node">
<title>BgBufferSync</title>
<polygon fill="none" stroke="black" points="5869,-180 5754,-180 5754,-144 5869,-144 5869,-180"/>
<text text-anchor="middle" x="5811.5" y="-158.3" font-family="Times,serif" font-size="14.00">BgBufferSync</text>
</g>
<!-- BackgroundWriterMain&#45;&gt;BgBufferSync -->
<g id="edge45" class="edge">
<title>BackgroundWriterMain&#45;&gt;BgBufferSync</title>
<path fill="none" stroke="black" d="M3386.6,-232.24C3798.71,-228.7 5464.97,-212.55 5743.86,-179.77"/>
<polygon fill="black" stroke="black" points="5744.44,-183.22 5753.92,-178.49 5743.56,-176.27 5744.44,-183.22"/>
</g>
<!-- FlushErrorState -->
<g id="node45" class="node">
<title>FlushErrorState</title>
<polygon fill="none" stroke="black" points="6021.5,-180 5887.5,-180 5887.5,-144 6021.5,-144 6021.5,-180"/>
<text text-anchor="middle" x="5954.5" y="-158.3" font-family="Times,serif" font-size="14.00">FlushErrorState</text>
</g>
<!-- BackgroundWriterMain&#45;&gt;FlushErrorState -->
<g id="edge47" class="edge">
<title>BackgroundWriterMain&#45;&gt;FlushErrorState</title>
<path fill="none" stroke="black" d="M3386.53,-232.2C3812.46,-228.36 5583.67,-210.76 5877.29,-179.9"/>
<polygon fill="black" stroke="black" points="5877.94,-183.35 5887.49,-178.75 5877.16,-176.39 5877.94,-183.35"/>
</g>
<!-- StrategyNotifyBgWriter -->
<g id="node47" class="node">
<title>StrategyNotifyBgWriter</title>
<polygon fill="none" stroke="black" points="6227.5,-180 6039.5,-180 6039.5,-144 6227.5,-144 6227.5,-180"/>
<text text-anchor="middle" x="6133.5" y="-158.3" font-family="Times,serif" font-size="14.00">StrategyNotifyBgWriter</text>
</g>
<!-- BackgroundWriterMain&#45;&gt;StrategyNotifyBgWriter -->
<g id="edge50" class="edge">
<title>BackgroundWriterMain&#45;&gt;StrategyNotifyBgWriter</title>
<path fill="none" stroke="black" d="M3386.53,-233C3798.85,-232.74 5479.64,-228.68 6029.27,-180.01"/>
<polygon fill="black" stroke="black" points="6029.63,-183.49 6039.27,-179.11 6029,-176.52 6029.63,-183.49"/>
</g>
<!-- CreateAuxProcessResourceOwner -->
<g id="node9" class="node">
<title>CreateAuxProcessResourceOwner</title>
<polygon fill="none" stroke="black" points="834.5,-108 574.5,-108 574.5,-72 834.5,-72 834.5,-108"/>
<text text-anchor="middle" x="704.5" y="-86.3" font-family="Times,serif" font-size="14.00">CreateAuxProcessResourceOwner</text>
</g>
<!-- AuxiliaryProcessMainCommon&#45;&gt;CreateAuxProcessResourceOwner -->
<g id="edge6" class="edge">
<title>AuxiliaryProcessMainCommon&#45;&gt;CreateAuxProcessResourceOwner</title>
<path fill="none" stroke="black" d="M1212.86,-148.64C1116.7,-138.43 976.91,-123.36 845.01,-108.17"/>
<polygon fill="black" stroke="black" points="845.05,-104.65 834.71,-106.98 844.25,-111.6 845.05,-104.65"/>
</g>
<!-- MemoryContextDelete -->
<g id="node11" class="node">
<title>MemoryContextDelete</title>
<polygon fill="none" stroke="black" points="1032,-108 853,-108 853,-72 1032,-72 1032,-108"/>
<text text-anchor="middle" x="942.5" y="-86.3" font-family="Times,serif" font-size="14.00">MemoryContextDelete</text>
</g>
<!-- AuxiliaryProcessMainCommon&#45;&gt;MemoryContextDelete -->
<g id="edge8" class="edge">
<title>AuxiliaryProcessMainCommon&#45;&gt;MemoryContextDelete</title>
<path fill="none" stroke="black" d="M1236.08,-143.97C1177.45,-133.39 1102.17,-119.81 1042.52,-109.04"/>
<polygon fill="black" stroke="black" points="1042.79,-105.54 1032.33,-107.21 1041.55,-112.43 1042.79,-105.54"/>
</g>
<!-- ProcSignalInit -->
<g id="node13" class="node">
<title>ProcSignalInit</title>
<polygon fill="none" stroke="black" points="1169,-108 1050,-108 1050,-72 1169,-72 1169,-108"/>
<text text-anchor="middle" x="1109.5" y="-86.3" font-family="Times,serif" font-size="14.00">ProcSignalInit</text>
</g>
<!-- AuxiliaryProcessMainCommon&#45;&gt;ProcSignalInit -->
<g id="edge10" class="edge">
<title>AuxiliaryProcessMainCommon&#45;&gt;ProcSignalInit</title>
<path fill="none" stroke="black" d="M1276.72,-143.97C1245.57,-134.1 1206.18,-121.62 1173.45,-111.25"/>
<polygon fill="black" stroke="black" points="1174.11,-107.79 1163.52,-108.11 1172,-114.47 1174.11,-107.79"/>
</g>
<!-- ShutdownAuxiliaryProcess -->
<g id="node14" class="node">
<title>ShutdownAuxiliaryProcess</title>
<polygon fill="none" stroke="black" points="556.5,-108 348.5,-108 348.5,-72 556.5,-72 556.5,-108"/>
<text text-anchor="middle" x="452.5" y="-86.3" font-family="Times,serif" font-size="14.00">ShutdownAuxiliaryProcess</text>
</g>
<!-- AuxiliaryProcessMainCommon&#45;&gt;ShutdownAuxiliaryProcess -->
<g id="edge11" class="edge">
<title>AuxiliaryProcessMainCommon&#45;&gt;ShutdownAuxiliaryProcess</title>
<path fill="none" stroke="black" d="M1212.87,-152.3C1175.94,-149.6 1135.03,-146.64 1097.5,-144 864.45,-127.61 802.83,-133.48 566.8,-108.09"/>
<polygon fill="black" stroke="black" points="566.83,-104.57 556.52,-106.98 566.08,-111.53 566.83,-104.57"/>
</g>
<!-- SetProcessingMode -->
<g id="node22" class="node">
<title>SetProcessingMode</title>
<polygon fill="none" stroke="black" points="1345.5,-108 1187.5,-108 1187.5,-72 1345.5,-72 1345.5,-108"/>
<text text-anchor="middle" x="1266.5" y="-86.3" font-family="Times,serif" font-size="14.00">SetProcessingMode</text>
</g>
<!-- AuxiliaryProcessMainCommon&#45;&gt;SetProcessingMode -->
<g id="edge19" class="edge">
<title>AuxiliaryProcessMainCommon&#45;&gt;SetProcessingMode</title>
<path fill="none" stroke="black" d="M1314.68,-143.7C1306.93,-135.22 1297.46,-124.86 1288.98,-115.58"/>
<polygon fill="black" stroke="black" points="1291.47,-113.12 1282.14,-108.1 1286.3,-117.85 1291.47,-113.12"/>
</g>
<!-- BaseInit -->
<g id="node29" class="node">
<title>BaseInit</title>
<polygon fill="none" stroke="black" points="1439.5,-108 1363.5,-108 1363.5,-72 1439.5,-72 1439.5,-108"/>
<text text-anchor="middle" x="1401.5" y="-86.3" font-family="Times,serif" font-size="14.00">BaseInit</text>
</g>
<!-- AuxiliaryProcessMainCommon&#45;&gt;BaseInit -->
<g id="edge27" class="edge">
<title>AuxiliaryProcessMainCommon&#45;&gt;BaseInit</title>
<path fill="none" stroke="black" d="M1348.05,-143.7C1356.73,-135.14 1367.36,-124.66 1376.85,-115.3"/>
<polygon fill="black" stroke="black" points="1379.49,-117.62 1384.15,-108.1 1374.57,-112.63 1379.49,-117.62"/>
</g>
<!-- AuxiliaryProcessMainCommon&#45;&gt;Assert -->
<g id="edge28" class="edge">
<title>AuxiliaryProcessMainCommon&#45;&gt;Assert</title>
<path fill="none" stroke="black" d="M1448.31,-157.07C1545.45,-151.65 1686.17,-138.73 1805.5,-108 1805.6,-107.97 1805.71,-107.95 1805.81,-107.92"/>
<polygon fill="black" stroke="black" points="1806.96,-111.23 1815.47,-104.93 1804.88,-104.54 1806.96,-111.23"/>
</g>
<!-- GetProcessingMode -->
<g id="node44" class="node">
<title>GetProcessingMode</title>
<polygon fill="none" stroke="black" points="1617.5,-108 1457.5,-108 1457.5,-72 1617.5,-72 1617.5,-108"/>
<text text-anchor="middle" x="1537.5" y="-86.3" font-family="Times,serif" font-size="14.00">GetProcessingMode</text>
</g>
<!-- AuxiliaryProcessMainCommon&#45;&gt;GetProcessingMode -->
<g id="edge46" class="edge">
<title>AuxiliaryProcessMainCommon&#45;&gt;GetProcessingMode</title>
<path fill="none" stroke="black" d="M1380.87,-143.97C1409.92,-134.14 1446.63,-121.73 1477.21,-111.39"/>
<polygon fill="black" stroke="black" points="1478.55,-114.63 1486.9,-108.11 1476.31,-108 1478.55,-114.63"/>
</g>
<!-- InitAuxiliaryProcess -->
<g id="node46" class="node">
<title>InitAuxiliaryProcess</title>
<polygon fill="none" stroke="black" points="1797,-108 1636,-108 1636,-72 1797,-72 1797,-108"/>
<text text-anchor="middle" x="1716.5" y="-86.3" font-family="Times,serif" font-size="14.00">InitAuxiliaryProcess</text>
</g>
<!-- AuxiliaryProcessMainCommon&#45;&gt;InitAuxiliaryProcess -->
<g id="edge49" class="edge">
<title>AuxiliaryProcessMainCommon&#45;&gt;InitAuxiliaryProcess</title>
<path fill="none" stroke="black" d="M1426.86,-143.99C1482.15,-134.16 1553.17,-121.46 1625.36,-108.2"/>
<polygon fill="black" stroke="black" points="1626.35,-111.58 1635.55,-106.33 1625.09,-104.69 1626.35,-111.58"/>
</g>
<!-- ShutdownAuxiliaryProcess&#45;&gt;ConditionVariableCancelSleep -->
<g id="edge29" class="edge">
<title>ShutdownAuxiliaryProcess&#45;&gt;ConditionVariableCancelSleep</title>
<path fill="none" stroke="black" d="M436.19,-71.7C428.19,-63.22 418.43,-52.86 409.68,-43.58"/>
<polygon fill="black" stroke="black" points="412.03,-40.98 402.63,-36.1 406.94,-45.78 412.03,-40.98"/>
</g>
<!-- ShutdownAuxiliaryProcess&#45;&gt;LWLockReleaseAll -->
<g id="edge48" class="edge">
<title>ShutdownAuxiliaryProcess&#45;&gt;LWLockReleaseAll</title>
<path fill="none" stroke="black" d="M556.52,-73.06C559.55,-72.69 562.54,-72.34 565.5,-72 781.54,-47.41 1037.29,-30.94 1166.25,-23.51"/>
<polygon fill="black" stroke="black" points="1166.67,-26.99 1176.45,-22.93 1166.27,-20.01 1166.67,-26.99"/>
</g>
<!-- ProcessProcSignalBarrier -->
<g id="node17" class="node">
<title>ProcessProcSignalBarrier</title>
<polygon fill="none" stroke="black" points="2298,-108 2097,-108 2097,-72 2298,-72 2298,-108"/>
<text text-anchor="middle" x="2197.5" y="-86.3" font-family="Times,serif" font-size="14.00">ProcessProcSignalBarrier</text>
</g>
<!-- HandleMainLoopInterrupts&#45;&gt;ProcessProcSignalBarrier -->
<g id="edge14" class="edge">
<title>HandleMainLoopInterrupts&#45;&gt;ProcessProcSignalBarrier</title>
<path fill="none" stroke="black" d="M2125.23,-143.7C2137.44,-134.8 2152.49,-123.82 2165.68,-114.2"/>
<polygon fill="black" stroke="black" points="2168.02,-116.82 2174.04,-108.1 2163.9,-111.17 2168.02,-116.82"/>
</g>
<!-- ProcessLogMemoryContextInterrupt -->
<g id="node23" class="node">
<title>ProcessLogMemoryContextInterrupt</title>
<polygon fill="none" stroke="black" points="2596.5,-108 2316.5,-108 2316.5,-72 2596.5,-72 2596.5,-108"/>
<text text-anchor="middle" x="2456.5" y="-86.3" font-family="Times,serif" font-size="14.00">ProcessLogMemoryContextInterrupt</text>
</g>
<!-- HandleMainLoopInterrupts&#45;&gt;ProcessLogMemoryContextInterrupt -->
<g id="edge21" class="edge">
<title>HandleMainLoopInterrupts&#45;&gt;ProcessLogMemoryContextInterrupt</title>
<path fill="none" stroke="black" d="M2187.89,-143.97C2239.96,-133.7 2306.38,-120.6 2360.15,-110"/>
<polygon fill="black" stroke="black" points="2360.9,-113.42 2370.03,-108.05 2359.54,-106.55 2360.9,-113.42"/>
</g>
<!-- ProcessConfigFile -->
<g id="node31" class="node">
<title>ProcessConfigFile</title>
<polygon fill="none" stroke="black" points="2079,-108 1934,-108 1934,-72 2079,-72 2079,-108"/>
<text text-anchor="middle" x="2006.5" y="-86.3" font-family="Times,serif" font-size="14.00">ProcessConfigFile</text>
</g>
<!-- HandleMainLoopInterrupts&#45;&gt;ProcessConfigFile -->
<g id="edge30" class="edge">
<title>HandleMainLoopInterrupts&#45;&gt;ProcessConfigFile</title>
<path fill="none" stroke="black" d="M2078.02,-143.7C2065.94,-134.8 2051.05,-123.82 2037.98,-114.2"/>
<polygon fill="black" stroke="black" points="2039.84,-111.22 2029.71,-108.1 2035.69,-116.85 2039.84,-111.22"/>
</g>
<!-- SetLatch -->
<g id="node41" class="node">
<title>SetLatch</title>
<polygon fill="none" stroke="black" points="3580.5,-108 3500.5,-108 3500.5,-72 3580.5,-72 3580.5,-108"/>
<text text-anchor="middle" x="3540.5" y="-86.3" font-family="Times,serif" font-size="14.00">SetLatch</text>
</g>
<!-- SignalHandlerForConfigReload&#45;&gt;SetLatch -->
<g id="edge41" class="edge">
<title>SignalHandlerForConfigReload&#45;&gt;SetLatch</title>
<path fill="none" stroke="black" d="M3437.01,-143.88C3455.34,-134.51 3478.24,-122.81 3497.83,-112.8"/>
<polygon fill="black" stroke="black" points="3499.54,-115.86 3506.86,-108.19 3496.36,-109.62 3499.54,-115.86"/>
</g>
<!-- SignalHandlerForShutdownRequest&#45;&gt;SetLatch -->
<g id="edge44" class="edge">
<title>SignalHandlerForShutdownRequest&#45;&gt;SetLatch</title>
<path fill="none" stroke="black" d="M3643.99,-143.88C3625.66,-134.51 3602.76,-122.81 3583.17,-112.8"/>
<polygon fill="black" stroke="black" points="3584.64,-109.62 3574.14,-108.19 3581.46,-115.86 3584.64,-109.62"/>
</g>
</g>
</svg>
