<?xml version="1.0" encoding="UTF-8" standalone="no"?>
<!DOCTYPE svg PUBLIC "-//W3C//DTD SVG 1.1//EN"
 "http://www.w3.org/Graphics/SVG/1.1/DTD/svg11.dtd">
<!-- Generated by graphviz version 2.43.0 (0)
 -->
<!-- Title: cflow Pages: 1 -->
<svg width="2544pt" height="260pt"
 viewBox="0.00 0.00 2544.00 260.00" xmlns="http://www.w3.org/2000/svg" xmlns:xlink="http://www.w3.org/1999/xlink">
<g id="graph0" class="graph" transform="scale(1 1) rotate(0) translate(4 256)">
<title>cflow</title>
<polygon fill="white" stroke="transparent" points="-4,4 -4,-256 2540,-256 2540,4 -4,4"/>
<!-- ProcessStartupPacket -->
<g id="node1" class="node">
<title>ProcessStartupPacket</title>
<polygon fill="none" stroke="black" points="443.5,-108 269.5,-108 269.5,-72 443.5,-72 443.5,-108"/>
<text text-anchor="middle" x="356.5" y="-86.3" font-family="Times,serif" font-size="14.00">ProcessStartupPacket</text>
</g>
<!-- ProcessStartupPacket&#45;&gt;ProcessStartupPacket -->
<g id="edge6" class="edge">
<title>ProcessStartupPacket&#45;&gt;ProcessStartupPacket</title>
<path fill="none" stroke="black" d="M443.8,-101.68C454.49,-99.59 461.5,-95.7 461.5,-90 461.5,-86.35 458.62,-83.44 453.75,-81.27"/>
<polygon fill="black" stroke="black" points="454.38,-77.81 443.8,-78.32 452.39,-84.52 454.38,-77.81"/>
</g>
<!-- MemoryContextSwitchTo -->
<g id="node2" class="node">
<title>MemoryContextSwitchTo</title>
<polygon fill="none" stroke="black" points="197,-36 0,-36 0,0 197,0 197,-36"/>
<text text-anchor="middle" x="98.5" y="-14.3" font-family="Times,serif" font-size="14.00">MemoryContextSwitchTo</text>
</g>
<!-- ProcessStartupPacket&#45;&gt;MemoryContextSwitchTo -->
<g id="edge1" class="edge">
<title>ProcessStartupPacket&#45;&gt;MemoryContextSwitchTo</title>
<path fill="none" stroke="black" d="M293.72,-71.97C256.88,-61.97 210.17,-49.3 171.68,-38.85"/>
<polygon fill="black" stroke="black" points="172.13,-35.35 161.57,-36.11 170.3,-42.11 172.13,-35.35"/>
</g>
<!-- SendCancelRequest -->
<g id="node5" class="node">
<title>SendCancelRequest</title>
<polygon fill="none" stroke="black" points="374,-36 215,-36 215,0 374,0 374,-36"/>
<text text-anchor="middle" x="294.5" y="-14.3" font-family="Times,serif" font-size="14.00">SendCancelRequest</text>
</g>
<!-- ProcessStartupPacket&#45;&gt;SendCancelRequest -->
<g id="edge3" class="edge">
<title>ProcessStartupPacket&#45;&gt;SendCancelRequest</title>
<path fill="none" stroke="black" d="M341.17,-71.7C333.74,-63.3 324.68,-53.07 316.52,-43.86"/>
<polygon fill="black" stroke="black" points="318.9,-41.27 309.65,-36.1 313.66,-45.91 318.9,-41.27"/>
</g>
<!-- Min -->
<g id="node9" class="node">
<title>Min</title>
<polygon fill="none" stroke="black" points="445.5,-36 391.5,-36 391.5,0 445.5,0 445.5,-36"/>
<text text-anchor="middle" x="418.5" y="-14.3" font-family="Times,serif" font-size="14.00">Min</text>
</g>
<!-- ProcessStartupPacket&#45;&gt;Min -->
<g id="edge8" class="edge">
<title>ProcessStartupPacket&#45;&gt;Min</title>
<path fill="none" stroke="black" d="M371.83,-71.7C379.26,-63.3 388.32,-53.07 396.48,-43.86"/>
<polygon fill="black" stroke="black" points="399.34,-45.91 403.35,-36.1 394.1,-41.27 399.34,-45.91"/>
</g>
<!-- PG_PROTOCOL_MINOR -->
<g id="node12" class="node">
<title>PG_PROTOCOL_MINOR</title>
<polygon fill="none" stroke="black" points="651,-36 464,-36 464,0 651,0 651,-36"/>
<text text-anchor="middle" x="557.5" y="-14.3" font-family="Times,serif" font-size="14.00">PG_PROTOCOL_MINOR</text>
</g>
<!-- ProcessStartupPacket&#45;&gt;PG_PROTOCOL_MINOR -->
<g id="edge12" class="edge">
<title>ProcessStartupPacket&#45;&gt;PG_PROTOCOL_MINOR</title>
<path fill="none" stroke="black" d="M405.41,-71.97C433.5,-62.19 468.96,-49.84 498.57,-39.52"/>
<polygon fill="black" stroke="black" points="500.07,-42.71 508.37,-36.11 497.77,-36.09 500.07,-42.71"/>
</g>
<!-- PG_PROTOCOL_MAJOR -->
<g id="node15" class="node">
<title>PG_PROTOCOL_MAJOR</title>
<polygon fill="none" stroke="black" points="854,-36 669,-36 669,0 854,0 854,-36"/>
<text text-anchor="middle" x="761.5" y="-14.3" font-family="Times,serif" font-size="14.00">PG_PROTOCOL_MAJOR</text>
</g>
<!-- ProcessStartupPacket&#45;&gt;PG_PROTOCOL_MAJOR -->
<g id="edge17" class="edge">
<title>ProcessStartupPacket&#45;&gt;PG_PROTOCOL_MAJOR</title>
<path fill="none" stroke="black" d="M443.88,-73.9C507.03,-62.98 592.54,-48.2 658.93,-36.73"/>
<polygon fill="black" stroke="black" points="659.74,-40.14 669,-34.99 658.55,-33.24 659.74,-40.14"/>
</g>
<!-- SendNegotiateProtocolVersion -->
<g id="node22" class="node">
<title>SendNegotiateProtocolVersion</title>
<polygon fill="none" stroke="black" points="1108.5,-36 872.5,-36 872.5,0 1108.5,0 1108.5,-36"/>
<text text-anchor="middle" x="990.5" y="-14.3" font-family="Times,serif" font-size="14.00">SendNegotiateProtocolVersion</text>
</g>
<!-- ProcessStartupPacket&#45;&gt;SendNegotiateProtocolVersion -->
<g id="edge25" class="edge">
<title>ProcessStartupPacket&#45;&gt;SendNegotiateProtocolVersion</title>
<path fill="none" stroke="black" d="M443.57,-75.5C452.65,-74.24 461.76,-73.05 470.5,-72 641.41,-51.45 687.51,-55.48 862.17,-36.12"/>
<polygon fill="black" stroke="black" points="862.67,-39.59 872.22,-35 861.89,-32.63 862.67,-39.59"/>
</g>
<!-- BackendInitialize -->
<g id="node3" class="node">
<title>BackendInitialize</title>
<polygon fill="none" stroke="black" points="1520.5,-180 1380.5,-180 1380.5,-144 1520.5,-144 1520.5,-180"/>
<text text-anchor="middle" x="1450.5" y="-158.3" font-family="Times,serif" font-size="14.00">BackendInitialize</text>
</g>
<!-- BackendInitialize&#45;&gt;ProcessStartupPacket -->
<g id="edge15" class="edge">
<title>BackendInitialize&#45;&gt;ProcessStartupPacket</title>
<path fill="none" stroke="black" d="M1380.21,-159.47C1219.01,-155.45 810.38,-142.46 470.5,-108 465.03,-107.44 459.41,-106.81 453.75,-106.13"/>
<polygon fill="black" stroke="black" points="453.89,-102.62 443.53,-104.84 453.02,-109.56 453.89,-102.62"/>
</g>
<!-- BackendInitialize&#45;&gt;MemoryContextSwitchTo -->
<g id="edge10" class="edge">
<title>BackendInitialize&#45;&gt;MemoryContextSwitchTo</title>
<path fill="none" stroke="black" d="M1380.3,-159.73C1141.28,-155.16 368.02,-138.16 260.5,-108 234.83,-100.8 174.22,-65.45 134.85,-41.52"/>
<polygon fill="black" stroke="black" points="136.18,-38.23 125.82,-36.01 132.54,-44.21 136.18,-38.23"/>
</g>
<!-- MemoryContextStrdup -->
<g id="node4" class="node">
<title>MemoryContextStrdup</title>
<polygon fill="none" stroke="black" points="661.5,-108 479.5,-108 479.5,-72 661.5,-72 661.5,-108"/>
<text text-anchor="middle" x="570.5" y="-86.3" font-family="Times,serif" font-size="14.00">MemoryContextStrdup</text>
</g>
<!-- BackendInitialize&#45;&gt;MemoryContextStrdup -->
<g id="edge2" class="edge">
<title>BackendInitialize&#45;&gt;MemoryContextStrdup</title>
<path fill="none" stroke="black" d="M1380.46,-158.56C1243.76,-153.27 932,-138.71 671.5,-108 671.4,-107.99 671.3,-107.98 671.19,-107.96"/>
<polygon fill="black" stroke="black" points="671.92,-104.53 661.56,-106.75 671.04,-111.47 671.92,-104.53"/>
</g>
<!-- StartupPacketTimeoutHandler -->
<g id="node6" class="node">
<title>StartupPacketTimeoutHandler</title>
<polygon fill="none" stroke="black" points="915,-108 680,-108 680,-72 915,-72 915,-108"/>
<text text-anchor="middle" x="797.5" y="-86.3" font-family="Times,serif" font-size="14.00">StartupPacketTimeoutHandler</text>
</g>
<!-- BackendInitialize&#45;&gt;StartupPacketTimeoutHandler -->
<g id="edge4" class="edge">
<title>BackendInitialize&#45;&gt;StartupPacketTimeoutHandler</title>
<path fill="none" stroke="black" d="M1380.23,-154.65C1281.26,-145.55 1094.9,-127.82 925.23,-108.06"/>
<polygon fill="black" stroke="black" points="925.45,-104.57 915.11,-106.88 924.64,-111.52 925.45,-104.57"/>
</g>
<!-- ReserveExternalFD -->
<g id="node10" class="node">
<title>ReserveExternalFD</title>
<polygon fill="none" stroke="black" points="1090,-108 933,-108 933,-72 1090,-72 1090,-108"/>
<text text-anchor="middle" x="1011.5" y="-86.3" font-family="Times,serif" font-size="14.00">ReserveExternalFD</text>
</g>
<!-- BackendInitialize&#45;&gt;ReserveExternalFD -->
<g id="edge9" class="edge">
<title>BackendInitialize&#45;&gt;ReserveExternalFD</title>
<path fill="none" stroke="black" d="M1380.44,-151.28C1311.71,-141.55 1203.69,-125.74 1100.16,-108.08"/>
<polygon fill="black" stroke="black" points="1100.6,-104.6 1090.15,-106.36 1099.42,-111.5 1100.6,-104.6"/>
</g>
<!-- IS_INJECTION_POINT_ATTACHED -->
<g id="node11" class="node">
<title>IS_INJECTION_POINT_ATTACHED</title>
<polygon fill="none" stroke="black" points="1369,-108 1108,-108 1108,-72 1369,-72 1369,-108"/>
<text text-anchor="middle" x="1238.5" y="-86.3" font-family="Times,serif" font-size="14.00">IS_INJECTION_POINT_ATTACHED</text>
</g>
<!-- BackendInitialize&#45;&gt;IS_INJECTION_POINT_ATTACHED -->
<g id="edge11" class="edge">
<title>BackendInitialize&#45;&gt;IS_INJECTION_POINT_ATTACHED</title>
<path fill="none" stroke="black" d="M1398.91,-143.97C1369.03,-134.1 1331.24,-121.62 1299.84,-111.25"/>
<polygon fill="black" stroke="black" points="1300.91,-107.92 1290.32,-108.11 1298.72,-114.57 1300.91,-107.92"/>
</g>
<!-- PG_PROTOCOL -->
<g id="node14" class="node">
<title>PG_PROTOCOL</title>
<polygon fill="none" stroke="black" points="1514,-108 1387,-108 1387,-72 1514,-72 1514,-108"/>
<text text-anchor="middle" x="1450.5" y="-86.3" font-family="Times,serif" font-size="14.00">PG_PROTOCOL</text>
</g>
<!-- BackendInitialize&#45;&gt;PG_PROTOCOL -->
<g id="edge14" class="edge">
<title>BackendInitialize&#45;&gt;PG_PROTOCOL</title>
<path fill="none" stroke="black" d="M1450.5,-143.7C1450.5,-135.98 1450.5,-126.71 1450.5,-118.11"/>
<polygon fill="black" stroke="black" points="1454,-118.1 1450.5,-108.1 1447,-118.1 1454,-118.1"/>
</g>
<!-- ProcessSSLStartup -->
<g id="node17" class="node">
<title>ProcessSSLStartup</title>
<polygon fill="none" stroke="black" points="1687,-108 1532,-108 1532,-72 1687,-72 1687,-108"/>
<text text-anchor="middle" x="1609.5" y="-86.3" font-family="Times,serif" font-size="14.00">ProcessSSLStartup</text>
</g>
<!-- BackendInitialize&#45;&gt;ProcessSSLStartup -->
<g id="edge22" class="edge">
<title>BackendInitialize&#45;&gt;ProcessSSLStartup</title>
<path fill="none" stroke="black" d="M1489.4,-143.88C1511.13,-134.31 1538.4,-122.3 1561.46,-112.15"/>
<polygon fill="black" stroke="black" points="1562.99,-115.3 1570.73,-108.07 1560.17,-108.89 1562.99,-115.3"/>
</g>
<!-- InitializeTimeouts -->
<g id="node18" class="node">
<title>InitializeTimeouts</title>
<polygon fill="none" stroke="black" points="1850,-108 1705,-108 1705,-72 1850,-72 1850,-108"/>
<text text-anchor="middle" x="1777.5" y="-86.3" font-family="Times,serif" font-size="14.00">InitializeTimeouts</text>
</g>
<!-- BackendInitialize&#45;&gt;InitializeTimeouts -->
<g id="edge20" class="edge">
<title>BackendInitialize&#45;&gt;InitializeTimeouts</title>
<path fill="none" stroke="black" d="M1520.65,-145.98C1571.79,-135.03 1641.27,-120.16 1695.06,-108.65"/>
<polygon fill="black" stroke="black" points="1695.87,-112.05 1704.92,-106.54 1694.41,-105.21 1695.87,-112.05"/>
</g>
<!-- RegisterTimeout -->
<g id="node19" class="node">
<title>RegisterTimeout</title>
<polygon fill="none" stroke="black" points="2004.5,-108 1868.5,-108 1868.5,-72 2004.5,-72 2004.5,-108"/>
<text text-anchor="middle" x="1936.5" y="-86.3" font-family="Times,serif" font-size="14.00">RegisterTimeout</text>
</g>
<!-- BackendInitialize&#45;&gt;RegisterTimeout -->
<g id="edge21" class="edge">
<title>BackendInitialize&#45;&gt;RegisterTimeout</title>
<path fill="none" stroke="black" d="M1520.62,-153.82C1600.16,-145.25 1733.9,-129.54 1858.06,-108.17"/>
<polygon fill="black" stroke="black" points="1858.88,-111.58 1868.13,-106.42 1857.68,-104.69 1858.88,-111.58"/>
</g>
<!-- INJECTION_POINT -->
<g id="node20" class="node">
<title>INJECTION_POINT</title>
<polygon fill="none" stroke="black" points="2174.5,-108 2022.5,-108 2022.5,-72 2174.5,-72 2174.5,-108"/>
<text text-anchor="middle" x="2098.5" y="-86.3" font-family="Times,serif" font-size="14.00">INJECTION_POINT</text>
</g>
<!-- BackendInitialize&#45;&gt;INJECTION_POINT -->
<g id="edge23" class="edge">
<title>BackendInitialize&#45;&gt;INJECTION_POINT</title>
<path fill="none" stroke="black" d="M1520.56,-156.75C1625.38,-149.86 1829.41,-134.46 2012.05,-108.13"/>
<polygon fill="black" stroke="black" points="2012.72,-111.57 2022.11,-106.67 2011.71,-104.64 2012.72,-111.57"/>
</g>
<!-- GetBackendTypeDesc -->
<g id="node21" class="node">
<title>GetBackendTypeDesc</title>
<polygon fill="none" stroke="black" points="2364.5,-108 2192.5,-108 2192.5,-72 2364.5,-72 2364.5,-108"/>
<text text-anchor="middle" x="2278.5" y="-86.3" font-family="Times,serif" font-size="14.00">GetBackendTypeDesc</text>
</g>
<!-- BackendInitialize&#45;&gt;GetBackendTypeDesc -->
<g id="edge24" class="edge">
<title>BackendInitialize&#45;&gt;GetBackendTypeDesc</title>
<path fill="none" stroke="black" d="M1520.73,-158.38C1649.82,-153.01 1933.61,-138.73 2182.39,-108.06"/>
<polygon fill="black" stroke="black" points="2182.86,-111.53 2192.35,-106.82 2181.99,-104.58 2182.86,-111.53"/>
</g>
<!-- BackendMain -->
<g id="node7" class="node">
<title>BackendMain</title>
<polygon fill="none" stroke="black" points="2008,-252 1895,-252 1895,-216 2008,-216 2008,-252"/>
<text text-anchor="middle" x="1951.5" y="-230.3" font-family="Times,serif" font-size="14.00">BackendMain</text>
</g>
<!-- BackendMain&#45;&gt;MemoryContextSwitchTo -->
<g id="edge7" class="edge">
<title>BackendMain&#45;&gt;MemoryContextSwitchTo</title>
<path fill="none" stroke="black" d="M1894.82,-231.34C1610.39,-222.67 346.01,-180.33 187.5,-108 157.27,-94.21 131.56,-65.4 115.65,-44.28"/>
<polygon fill="black" stroke="black" points="118.37,-42.07 109.65,-36.05 112.72,-46.19 118.37,-42.07"/>
</g>
<!-- BackendMain&#45;&gt;BackendInitialize -->
<g id="edge16" class="edge">
<title>BackendMain&#45;&gt;BackendInitialize</title>
<path fill="none" stroke="black" d="M1894.52,-225.04C1805.29,-212.57 1632.3,-188.4 1530.59,-174.19"/>
<polygon fill="black" stroke="black" points="1531.06,-170.72 1520.67,-172.8 1530.09,-177.65 1531.06,-170.72"/>
</g>
<!-- InitProcess -->
<g id="node8" class="node">
<title>InitProcess</title>
<polygon fill="none" stroke="black" points="2000,-180 1903,-180 1903,-144 2000,-144 2000,-180"/>
<text text-anchor="middle" x="1951.5" y="-158.3" font-family="Times,serif" font-size="14.00">InitProcess</text>
</g>
<!-- BackendMain&#45;&gt;InitProcess -->
<g id="edge5" class="edge">
<title>BackendMain&#45;&gt;InitProcess</title>
<path fill="none" stroke="black" d="M1951.5,-215.7C1951.5,-207.98 1951.5,-198.71 1951.5,-190.11"/>
<polygon fill="black" stroke="black" points="1955,-190.1 1951.5,-180.1 1948,-190.1 1955,-190.1"/>
</g>
<!-- Assert -->
<g id="node13" class="node">
<title>Assert</title>
<polygon fill="none" stroke="black" points="2031.5,-36 1969.5,-36 1969.5,0 2031.5,0 2031.5,-36"/>
<text text-anchor="middle" x="2000.5" y="-14.3" font-family="Times,serif" font-size="14.00">Assert</text>
</g>
<!-- BackendMain&#45;&gt;Assert -->
<g id="edge13" class="edge">
<title>BackendMain&#45;&gt;Assert</title>
<path fill="none" stroke="black" d="M2008.39,-224.62C2113.06,-207.91 2329.5,-166.93 2373.5,-108 2383.07,-95.18 2383.99,-84.08 2373.5,-72 2330.91,-22.93 2129.77,-18.1 2041.83,-18.4"/>
<polygon fill="black" stroke="black" points="2041.66,-14.9 2031.68,-18.46 2041.7,-21.9 2041.66,-14.9"/>
</g>
<!-- PostgresMain -->
<g id="node16" class="node">
<title>PostgresMain</title>
<polygon fill="none" stroke="black" points="2536,-180 2421,-180 2421,-144 2536,-144 2536,-180"/>
<text text-anchor="middle" x="2478.5" y="-158.3" font-family="Times,serif" font-size="14.00">PostgresMain</text>
</g>
<!-- BackendMain&#45;&gt;PostgresMain -->
<g id="edge18" class="edge">
<title>BackendMain&#45;&gt;PostgresMain</title>
<path fill="none" stroke="black" d="M2008.2,-228.52C2094.58,-221.22 2264.14,-205.01 2406.5,-180 2407.96,-179.74 2409.44,-179.47 2410.93,-179.2"/>
<polygon fill="black" stroke="black" points="2411.72,-182.61 2420.85,-177.23 2410.36,-175.74 2411.72,-182.61"/>
</g>
<!-- ProcessSSLStartup&#45;&gt;Assert -->
<g id="edge19" class="edge">
<title>ProcessSSLStartup&#45;&gt;Assert</title>
<path fill="none" stroke="black" d="M1687.27,-73.72C1690.39,-73.14 1693.47,-72.56 1696.5,-72 1790.43,-54.64 1900.98,-35.75 1959.44,-25.89"/>
<polygon fill="black" stroke="black" points="1960.11,-29.32 1969.39,-24.21 1958.95,-22.42 1960.11,-29.32"/>
</g>
</g>
</svg>
