<?xml version="1.0" encoding="UTF-8" standalone="no"?>
<!DOCTYPE svg PUBLIC "-//W3C//DTD SVG 1.1//EN"
 "http://www.w3.org/Graphics/SVG/1.1/DTD/svg11.dtd">
<!-- Generated by graphviz version 2.43.0 (0)
 -->
<!-- Title: cflow Pages: 1 -->
<svg width="3701pt" height="188pt"
 viewBox="0.00 0.00 3701.00 188.00" xmlns="http://www.w3.org/2000/svg" xmlns:xlink="http://www.w3.org/1999/xlink">
<g id="graph0" class="graph" transform="scale(1 1) rotate(0) translate(4 184)">
<title>cflow</title>
<polygon fill="white" stroke="transparent" points="-4,4 -4,-184 3697,-184 3697,4 -4,4"/>
<!-- BootstrapModeMain -->
<g id="node1" class="node">
<title>BootstrapModeMain</title>
<polygon fill="none" stroke="black" points="1731,-180 1568,-180 1568,-144 1731,-144 1731,-180"/>
<text text-anchor="middle" x="1649.5" y="-158.3" font-family="Times,serif" font-size="14.00">BootstrapModeMain</text>
</g>
<!-- InitProcess -->
<g id="node2" class="node">
<title>InitProcess</title>
<polygon fill="none" stroke="black" points="97,-108 0,-108 0,-72 97,-72 97,-108"/>
<text text-anchor="middle" x="48.5" y="-86.3" font-family="Times,serif" font-size="14.00">InitProcess</text>
</g>
<!-- BootstrapModeMain&#45;&gt;InitProcess -->
<g id="edge1" class="edge">
<title>BootstrapModeMain&#45;&gt;InitProcess</title>
<path fill="none" stroke="black" d="M1567.75,-160.89C1294.27,-160.11 411.92,-154.1 107.19,-107.78"/>
<polygon fill="black" stroke="black" points="107.45,-104.28 97.03,-106.18 106.37,-111.19 107.45,-104.28"/>
</g>
<!-- InitializeGUCOptions -->
<g id="node3" class="node">
<title>InitializeGUCOptions</title>
<polygon fill="none" stroke="black" points="283.5,-108 115.5,-108 115.5,-72 283.5,-72 283.5,-108"/>
<text text-anchor="middle" x="199.5" y="-86.3" font-family="Times,serif" font-size="14.00">InitializeGUCOptions</text>
</g>
<!-- BootstrapModeMain&#45;&gt;InitializeGUCOptions -->
<g id="edge2" class="edge">
<title>BootstrapModeMain&#45;&gt;InitializeGUCOptions</title>
<path fill="none" stroke="black" d="M1567.74,-159.33C1317.17,-153.97 561.31,-135.98 293.65,-108"/>
<polygon fill="black" stroke="black" points="293.89,-104.51 283.57,-106.92 293.14,-111.47 293.89,-104.51"/>
</g>
<!-- CreateSharedMemoryAndSemaphores -->
<g id="node4" class="node">
<title>CreateSharedMemoryAndSemaphores</title>
<polygon fill="none" stroke="black" points="592,-108 301,-108 301,-72 592,-72 592,-108"/>
<text text-anchor="middle" x="446.5" y="-86.3" font-family="Times,serif" font-size="14.00">CreateSharedMemoryAndSemaphores</text>
</g>
<!-- BootstrapModeMain&#45;&gt;CreateSharedMemoryAndSemaphores -->
<g id="edge3" class="edge">
<title>BootstrapModeMain&#45;&gt;CreateSharedMemoryAndSemaphores</title>
<path fill="none" stroke="black" d="M1567.78,-158.53C1392.69,-152.87 968.15,-137.22 602.37,-108.13"/>
<polygon fill="black" stroke="black" points="602.63,-104.64 592.39,-107.33 602.08,-111.61 602.63,-104.64"/>
</g>
<!-- SetProcessingMode -->
<g id="node5" class="node">
<title>SetProcessingMode</title>
<polygon fill="none" stroke="black" points="767.5,-108 609.5,-108 609.5,-72 767.5,-72 767.5,-108"/>
<text text-anchor="middle" x="688.5" y="-86.3" font-family="Times,serif" font-size="14.00">SetProcessingMode</text>
</g>
<!-- BootstrapModeMain&#45;&gt;SetProcessingMode -->
<g id="edge4" class="edge">
<title>BootstrapModeMain&#45;&gt;SetProcessingMode</title>
<path fill="none" stroke="black" d="M1567.73,-159.52C1412.92,-155.94 1066.63,-144.25 777.5,-108 777.4,-107.99 777.3,-107.97 777.19,-107.96"/>
<polygon fill="black" stroke="black" points="777.9,-104.53 767.52,-106.64 776.95,-111.46 777.9,-104.53"/>
</g>
<!-- BootStrapXLOG -->
<g id="node6" class="node">
<title>BootStrapXLOG</title>
<polygon fill="none" stroke="black" points="917,-108 786,-108 786,-72 917,-72 917,-108"/>
<text text-anchor="middle" x="851.5" y="-86.3" font-family="Times,serif" font-size="14.00">BootStrapXLOG</text>
</g>
<!-- BootstrapModeMain&#45;&gt;BootStrapXLOG -->
<g id="edge5" class="edge">
<title>BootstrapModeMain&#45;&gt;BootStrapXLOG</title>
<path fill="none" stroke="black" d="M1567.74,-158.99C1435.2,-154.85 1165.2,-142.78 927.47,-108"/>
<polygon fill="black" stroke="black" points="927.65,-104.49 917.24,-106.49 926.62,-111.41 927.65,-104.49"/>
</g>
<!-- InitializeMaxBackends -->
<g id="node7" class="node">
<title>InitializeMaxBackends</title>
<polygon fill="none" stroke="black" points="1113.5,-108 935.5,-108 935.5,-72 1113.5,-72 1113.5,-108"/>
<text text-anchor="middle" x="1024.5" y="-86.3" font-family="Times,serif" font-size="14.00">InitializeMaxBackends</text>
</g>
<!-- BootstrapModeMain&#45;&gt;InitializeMaxBackends -->
<g id="edge6" class="edge">
<title>BootstrapModeMain&#45;&gt;InitializeMaxBackends</title>
<path fill="none" stroke="black" d="M1567.58,-154.59C1465.9,-146.22 1286.96,-130.15 1123.88,-108.14"/>
<polygon fill="black" stroke="black" points="1124.04,-104.62 1113.66,-106.74 1123.09,-111.56 1124.04,-104.62"/>
</g>
<!-- ParseLongOption -->
<g id="node8" class="node">
<title>ParseLongOption</title>
<polygon fill="none" stroke="black" points="1271.5,-108 1131.5,-108 1131.5,-72 1271.5,-72 1271.5,-108"/>
<text text-anchor="middle" x="1201.5" y="-86.3" font-family="Times,serif" font-size="14.00">ParseLongOption</text>
</g>
<!-- BootstrapModeMain&#45;&gt;ParseLongOption -->
<g id="edge7" class="edge">
<title>BootstrapModeMain&#45;&gt;ParseLongOption</title>
<path fill="none" stroke="black" d="M1567.89,-150.93C1495.29,-141.59 1386.01,-126.61 1281.74,-108.16"/>
<polygon fill="black" stroke="black" points="1282.12,-104.67 1271.66,-106.36 1280.89,-111.56 1282.12,-104.67"/>
</g>
<!-- BaseInit -->
<g id="node9" class="node">
<title>BaseInit</title>
<polygon fill="none" stroke="black" points="1365.5,-108 1289.5,-108 1289.5,-72 1365.5,-72 1365.5,-108"/>
<text text-anchor="middle" x="1327.5" y="-86.3" font-family="Times,serif" font-size="14.00">BaseInit</text>
</g>
<!-- BootstrapModeMain&#45;&gt;BaseInit -->
<g id="edge8" class="edge">
<title>BootstrapModeMain&#45;&gt;BaseInit</title>
<path fill="none" stroke="black" d="M1567.99,-147.67C1514.11,-138.21 1442.14,-124.32 1379.5,-108 1378.23,-107.67 1376.95,-107.33 1375.66,-106.97"/>
<polygon fill="black" stroke="black" points="1376.26,-103.5 1365.68,-104.07 1374.31,-110.22 1376.26,-103.5"/>
</g>
<!-- Assert -->
<g id="node10" class="node">
<title>Assert</title>
<polygon fill="none" stroke="black" points="1648.5,-36 1586.5,-36 1586.5,0 1648.5,0 1648.5,-36"/>
<text text-anchor="middle" x="1617.5" y="-14.3" font-family="Times,serif" font-size="14.00">Assert</text>
</g>
<!-- BootstrapModeMain&#45;&gt;Assert -->
<g id="edge9" class="edge">
<title>BootstrapModeMain&#45;&gt;Assert</title>
<path fill="none" stroke="black" d="M1567.73,-153.51C1507.14,-146.07 1431.87,-132.19 1412.5,-108 1366.03,-49.99 1503.92,-28.96 1576.26,-22.05"/>
<polygon fill="black" stroke="black" points="1576.78,-25.52 1586.43,-21.13 1576.15,-18.55 1576.78,-25.52"/>
</g>
<!-- SetConfigOption -->
<g id="node11" class="node">
<title>SetConfigOption</title>
<polygon fill="none" stroke="black" points="1555.5,-108 1421.5,-108 1421.5,-72 1555.5,-72 1555.5,-108"/>
<text text-anchor="middle" x="1488.5" y="-86.3" font-family="Times,serif" font-size="14.00">SetConfigOption</text>
</g>
<!-- BootstrapModeMain&#45;&gt;SetConfigOption -->
<g id="edge10" class="edge">
<title>BootstrapModeMain&#45;&gt;SetConfigOption</title>
<path fill="none" stroke="black" d="M1610.11,-143.88C1588.11,-134.31 1560.49,-122.3 1537.14,-112.15"/>
<polygon fill="black" stroke="black" points="1538.32,-108.85 1527.76,-108.07 1535.53,-115.27 1538.32,-108.85"/>
</g>
<!-- CheckerModeMain -->
<g id="node12" class="node">
<title>CheckerModeMain</title>
<polygon fill="none" stroke="black" points="1725,-108 1574,-108 1574,-72 1725,-72 1725,-108"/>
<text text-anchor="middle" x="1649.5" y="-86.3" font-family="Times,serif" font-size="14.00">CheckerModeMain</text>
</g>
<!-- BootstrapModeMain&#45;&gt;CheckerModeMain -->
<g id="edge11" class="edge">
<title>BootstrapModeMain&#45;&gt;CheckerModeMain</title>
<path fill="none" stroke="black" d="M1649.5,-143.7C1649.5,-135.98 1649.5,-126.71 1649.5,-118.11"/>
<polygon fill="black" stroke="black" points="1653,-118.1 1649.5,-108.1 1646,-118.1 1653,-118.1"/>
</g>
<!-- InitPostmasterChildSlots -->
<g id="node13" class="node">
<title>InitPostmasterChildSlots</title>
<polygon fill="none" stroke="black" points="1939.5,-108 1743.5,-108 1743.5,-72 1939.5,-72 1939.5,-108"/>
<text text-anchor="middle" x="1841.5" y="-86.3" font-family="Times,serif" font-size="14.00">InitPostmasterChildSlots</text>
</g>
<!-- BootstrapModeMain&#45;&gt;InitPostmasterChildSlots -->
<g id="edge19" class="edge">
<title>BootstrapModeMain&#45;&gt;InitPostmasterChildSlots</title>
<path fill="none" stroke="black" d="M1696.47,-143.88C1723.18,-134.14 1756.82,-121.87 1784.97,-111.61"/>
<polygon fill="black" stroke="black" points="1786.49,-114.78 1794.68,-108.07 1784.09,-108.21 1786.49,-114.78"/>
</g>
<!-- CommitTransactionCommand -->
<g id="node14" class="node">
<title>CommitTransactionCommand</title>
<polygon fill="none" stroke="black" points="2187,-108 1958,-108 1958,-72 2187,-72 2187,-108"/>
<text text-anchor="middle" x="2072.5" y="-86.3" font-family="Times,serif" font-size="14.00">CommitTransactionCommand</text>
</g>
<!-- BootstrapModeMain&#45;&gt;CommitTransactionCommand -->
<g id="edge13" class="edge">
<title>BootstrapModeMain&#45;&gt;CommitTransactionCommand</title>
<path fill="none" stroke="black" d="M1731.06,-147.5C1795.95,-136.77 1887.48,-121.62 1959.44,-109.71"/>
<polygon fill="black" stroke="black" points="1960.17,-113.14 1969.46,-108.05 1959.02,-106.23 1960.17,-113.14"/>
</g>
<!-- InitializeFastPathLocks -->
<g id="node15" class="node">
<title>InitializeFastPathLocks</title>
<polygon fill="none" stroke="black" points="2387.5,-108 2205.5,-108 2205.5,-72 2387.5,-72 2387.5,-108"/>
<text text-anchor="middle" x="2296.5" y="-86.3" font-family="Times,serif" font-size="14.00">InitializeFastPathLocks</text>
</g>
<!-- BootstrapModeMain&#45;&gt;InitializeFastPathLocks -->
<g id="edge14" class="edge">
<title>BootstrapModeMain&#45;&gt;InitializeFastPathLocks</title>
<path fill="none" stroke="black" d="M1731.26,-154.92C1836.34,-146.69 2024.6,-130.56 2195.33,-108.1"/>
<polygon fill="black" stroke="black" points="2195.8,-111.57 2205.26,-106.79 2194.88,-104.63 2195.8,-111.57"/>
</g>
<!-- CreateDataDirLockFile -->
<g id="node16" class="node">
<title>CreateDataDirLockFile</title>
<polygon fill="none" stroke="black" points="2587,-108 2406,-108 2406,-72 2587,-72 2587,-108"/>
<text text-anchor="middle" x="2496.5" y="-86.3" font-family="Times,serif" font-size="14.00">CreateDataDirLockFile</text>
</g>
<!-- BootstrapModeMain&#45;&gt;CreateDataDirLockFile -->
<g id="edge15" class="edge">
<title>BootstrapModeMain&#45;&gt;CreateDataDirLockFile</title>
<path fill="none" stroke="black" d="M1731.27,-157.81C1867.06,-151.94 2147.79,-137.36 2395.52,-108.04"/>
<polygon fill="black" stroke="black" points="2396.29,-111.48 2405.81,-106.82 2395.46,-104.53 2396.29,-111.48"/>
</g>
<!-- ChangeToDataDir -->
<g id="node17" class="node">
<title>ChangeToDataDir</title>
<polygon fill="none" stroke="black" points="2748,-108 2605,-108 2605,-72 2748,-72 2748,-108"/>
<text text-anchor="middle" x="2676.5" y="-86.3" font-family="Times,serif" font-size="14.00">ChangeToDataDir</text>
</g>
<!-- BootstrapModeMain&#45;&gt;ChangeToDataDir -->
<g id="edge16" class="edge">
<title>BootstrapModeMain&#45;&gt;ChangeToDataDir</title>
<path fill="none" stroke="black" d="M1731.28,-160.64C1894.16,-159 2270.6,-150.62 2594.58,-108.15"/>
<polygon fill="black" stroke="black" points="2595.18,-111.6 2604.63,-106.82 2594.26,-104.66 2595.18,-111.6"/>
</g>
<!-- RelationMapFinishBootstrap -->
<g id="node18" class="node">
<title>RelationMapFinishBootstrap</title>
<polygon fill="none" stroke="black" points="2988.5,-108 2766.5,-108 2766.5,-72 2988.5,-72 2988.5,-108"/>
<text text-anchor="middle" x="2877.5" y="-86.3" font-family="Times,serif" font-size="14.00">RelationMapFinishBootstrap</text>
</g>
<!-- BootstrapModeMain&#45;&gt;RelationMapFinishBootstrap -->
<g id="edge17" class="edge">
<title>BootstrapModeMain&#45;&gt;RelationMapFinishBootstrap</title>
<path fill="none" stroke="black" d="M1731,-159.69C1913.05,-156.21 2366.69,-144.41 2756.34,-108.06"/>
<polygon fill="black" stroke="black" points="2756.77,-111.53 2766.4,-107.11 2756.12,-104.56 2756.77,-111.53"/>
</g>
<!-- SelectConfigFiles -->
<g id="node19" class="node">
<title>SelectConfigFiles</title>
<polygon fill="none" stroke="black" points="3148,-108 3007,-108 3007,-72 3148,-72 3148,-108"/>
<text text-anchor="middle" x="3077.5" y="-86.3" font-family="Times,serif" font-size="14.00">SelectConfigFiles</text>
</g>
<!-- BootstrapModeMain&#45;&gt;SelectConfigFiles -->
<g id="edge18" class="edge">
<title>BootstrapModeMain&#45;&gt;SelectConfigFiles</title>
<path fill="none" stroke="black" d="M1731.2,-159.61C1980.66,-155.08 2731.05,-139.29 2996.93,-107.89"/>
<polygon fill="black" stroke="black" points="2997.44,-111.36 3006.94,-106.67 2996.59,-104.41 2997.44,-111.36"/>
</g>
<!-- StartTransactionCommand -->
<g id="node20" class="node">
<title>StartTransactionCommand</title>
<polygon fill="none" stroke="black" points="3375,-108 3166,-108 3166,-72 3375,-72 3375,-108"/>
<text text-anchor="middle" x="3270.5" y="-86.3" font-family="Times,serif" font-size="14.00">StartTransactionCommand</text>
</g>
<!-- BootstrapModeMain&#45;&gt;StartTransactionCommand -->
<g id="edge20" class="edge">
<title>BootstrapModeMain&#45;&gt;StartTransactionCommand</title>
<path fill="none" stroke="black" d="M1731.03,-161.4C1956.35,-161.81 2606.6,-158.26 3155.78,-108.1"/>
<polygon fill="black" stroke="black" points="3156.25,-111.57 3165.89,-107.17 3155.61,-104.6 3156.25,-111.57"/>
</g>
<!-- InitPostgres -->
<g id="node21" class="node">
<title>InitPostgres</title>
<polygon fill="none" stroke="black" points="3497.5,-108 3393.5,-108 3393.5,-72 3497.5,-72 3497.5,-108"/>
<text text-anchor="middle" x="3445.5" y="-86.3" font-family="Times,serif" font-size="14.00">InitPostgres</text>
</g>
<!-- BootstrapModeMain&#45;&gt;InitPostgres -->
<g id="edge21" class="edge">
<title>BootstrapModeMain&#45;&gt;InitPostgres</title>
<path fill="none" stroke="black" d="M1731.11,-161.11C2026.44,-161.12 3039.62,-157.55 3383.46,-107.88"/>
<polygon fill="black" stroke="black" points="3384.06,-111.33 3393.44,-106.4 3383.03,-104.41 3384.06,-111.33"/>
</g>
<!-- InitStandaloneProcess -->
<g id="node22" class="node">
<title>InitStandaloneProcess</title>
<polygon fill="none" stroke="black" points="3693,-108 3516,-108 3516,-72 3693,-72 3693,-108"/>
<text text-anchor="middle" x="3604.5" y="-86.3" font-family="Times,serif" font-size="14.00">InitStandaloneProcess</text>
</g>
<!-- BootstrapModeMain&#45;&gt;InitStandaloneProcess -->
<g id="edge22" class="edge">
<title>BootstrapModeMain&#45;&gt;InitStandaloneProcess</title>
<path fill="none" stroke="black" d="M1731.04,-160.23C2039.31,-157.07 3134.47,-143.62 3505.93,-107.94"/>
<polygon fill="black" stroke="black" points="3506.3,-111.42 3515.9,-106.95 3505.61,-104.45 3506.3,-111.42"/>
</g>
<!-- InitPostmasterChildSlots&#45;&gt;Assert -->
<g id="edge12" class="edge">
<title>InitPostmasterChildSlots&#45;&gt;Assert</title>
<path fill="none" stroke="black" d="M1786.99,-71.97C1747.34,-59.57 1694.49,-43.06 1658.41,-31.79"/>
<polygon fill="black" stroke="black" points="1659.3,-28.39 1648.71,-28.75 1657.21,-35.08 1659.3,-28.39"/>
</g>
</g>
</svg>
