<?xml version="1.0" encoding="UTF-8" standalone="no"?>
<!DOCTYPE svg PUBLIC "-//W3C//DTD SVG 1.1//EN"
 "http://www.w3.org/Graphics/SVG/1.1/DTD/svg11.dtd">
<!-- Generated by graphviz version 2.43.0 (0)
 -->
<!-- Title: cflow Pages: 1 -->
<svg width="7119pt" height="404pt"
 viewBox="0.00 0.00 7119.00 404.00" xmlns="http://www.w3.org/2000/svg" xmlns:xlink="http://www.w3.org/1999/xlink">
<g id="graph0" class="graph" transform="scale(1 1) rotate(0) translate(4 400)">
<title>cflow</title>
<polygon fill="white" stroke="transparent" points="-4,4 -4,-400 7115,-400 7115,4 -4,4"/>
<!-- AbsorbSyncRequests -->
<g id="node1" class="node">
<title>AbsorbSyncRequests</title>
<polygon fill="none" stroke="black" points="771,-180 604,-180 604,-144 771,-144 771,-180"/>
<text text-anchor="middle" x="687.5" y="-158.3" font-family="Times,serif" font-size="14.00">AbsorbSyncRequests</text>
</g>
<!-- RememberSyncRequest -->
<g id="node2" class="node">
<title>RememberSyncRequest</title>
<polygon fill="none" stroke="black" points="781.5,-108 593.5,-108 593.5,-72 781.5,-72 781.5,-108"/>
<text text-anchor="middle" x="687.5" y="-86.3" font-family="Times,serif" font-size="14.00">RememberSyncRequest</text>
</g>
<!-- AbsorbSyncRequests&#45;&gt;RememberSyncRequest -->
<g id="edge1" class="edge">
<title>AbsorbSyncRequests&#45;&gt;RememberSyncRequest</title>
<path fill="none" stroke="black" d="M687.5,-143.7C687.5,-135.98 687.5,-126.71 687.5,-118.11"/>
<polygon fill="black" stroke="black" points="691,-118.1 687.5,-108.1 684,-118.1 691,-118.1"/>
</g>
<!-- LWLockRelease -->
<g id="node3" class="node">
<title>LWLockRelease</title>
<polygon fill="none" stroke="black" points="927.5,-108 799.5,-108 799.5,-72 927.5,-72 927.5,-108"/>
<text text-anchor="middle" x="863.5" y="-86.3" font-family="Times,serif" font-size="14.00">LWLockRelease</text>
</g>
<!-- AbsorbSyncRequests&#45;&gt;LWLockRelease -->
<g id="edge2" class="edge">
<title>AbsorbSyncRequests&#45;&gt;LWLockRelease</title>
<path fill="none" stroke="black" d="M730.55,-143.88C754.83,-134.22 785.34,-122.09 811.01,-111.88"/>
<polygon fill="black" stroke="black" points="812.59,-115.02 820.59,-108.07 810,-108.51 812.59,-115.02"/>
</g>
<!-- END_CRIT_SECTION -->
<g id="node25" class="node">
<title>END_CRIT_SECTION</title>
<polygon fill="none" stroke="black" points="167,-108 0,-108 0,-72 167,-72 167,-108"/>
<text text-anchor="middle" x="83.5" y="-86.3" font-family="Times,serif" font-size="14.00">END_CRIT_SECTION</text>
</g>
<!-- AbsorbSyncRequests&#45;&gt;END_CRIT_SECTION -->
<g id="edge19" class="edge">
<title>AbsorbSyncRequests&#45;&gt;END_CRIT_SECTION</title>
<path fill="none" stroke="black" d="M603.89,-154.4C504.49,-146.09 333.42,-130.34 177.44,-108.22"/>
<polygon fill="black" stroke="black" points="177.59,-104.71 167.19,-106.76 176.59,-111.64 177.59,-104.71"/>
</g>
<!-- LWLockAcquire -->
<g id="node44" class="node">
<title>LWLockAcquire</title>
<polygon fill="none" stroke="black" points="1073,-108 946,-108 946,-72 1073,-72 1073,-108"/>
<text text-anchor="middle" x="1009.5" y="-86.3" font-family="Times,serif" font-size="14.00">LWLockAcquire</text>
</g>
<!-- AbsorbSyncRequests&#45;&gt;LWLockAcquire -->
<g id="edge51" class="edge">
<title>AbsorbSyncRequests&#45;&gt;LWLockAcquire</title>
<path fill="none" stroke="black" d="M769.45,-143.97C815.59,-134.28 874.51,-121.75 935.94,-108.11"/>
<polygon fill="black" stroke="black" points="936.81,-111.5 945.82,-105.91 935.29,-104.66 936.81,-111.5"/>
</g>
<!-- AmCheckpointerProcess -->
<g id="node47" class="node">
<title>AmCheckpointerProcess</title>
<polygon fill="none" stroke="black" points="376,-108 185,-108 185,-72 376,-72 376,-108"/>
<text text-anchor="middle" x="280.5" y="-86.3" font-family="Times,serif" font-size="14.00">AmCheckpointerProcess</text>
</g>
<!-- AbsorbSyncRequests&#45;&gt;AmCheckpointerProcess -->
<g id="edge44" class="edge">
<title>AbsorbSyncRequests&#45;&gt;AmCheckpointerProcess</title>
<path fill="none" stroke="black" d="M603.66,-146.58C540.8,-135.77 454.32,-120.89 386.63,-109.25"/>
<polygon fill="black" stroke="black" points="386.81,-105.73 376.36,-107.49 385.62,-112.63 386.81,-105.73"/>
</g>
<!-- START_CRIT_SECTION -->
<g id="node50" class="node">
<title>START_CRIT_SECTION</title>
<polygon fill="none" stroke="black" points="575,-108 394,-108 394,-72 575,-72 575,-108"/>
<text text-anchor="middle" x="484.5" y="-86.3" font-family="Times,serif" font-size="14.00">START_CRIT_SECTION</text>
</g>
<!-- AbsorbSyncRequests&#45;&gt;START_CRIT_SECTION -->
<g id="edge50" class="edge">
<title>AbsorbSyncRequests&#45;&gt;START_CRIT_SECTION</title>
<path fill="none" stroke="black" d="M638.1,-143.97C609.61,-134.14 573.61,-121.73 543.63,-111.39"/>
<polygon fill="black" stroke="black" points="544.72,-108.06 534.12,-108.11 542.43,-114.68 544.72,-108.06"/>
</g>
<!-- CheckpointerMain -->
<g id="node4" class="node">
<title>CheckpointerMain</title>
<polygon fill="none" stroke="black" points="4446.5,-396 4298.5,-396 4298.5,-360 4446.5,-360 4446.5,-396"/>
<text text-anchor="middle" x="4372.5" y="-374.3" font-family="Times,serif" font-size="14.00">CheckpointerMain</text>
</g>
<!-- CheckpointerMain&#45;&gt;AbsorbSyncRequests -->
<g id="edge36" class="edge">
<title>CheckpointerMain&#45;&gt;AbsorbSyncRequests</title>
<path fill="none" stroke="black" d="M4298.31,-376.89C3854.9,-376.09 1563.88,-369.76 1254.5,-324 1061.51,-295.46 841.5,-220.13 741.75,-183.54"/>
<polygon fill="black" stroke="black" points="742.78,-180.19 732.19,-180.01 740.36,-186.76 742.78,-180.19"/>
</g>
<!-- GetInsertRecPtr -->
<g id="node5" class="node">
<title>GetInsertRecPtr</title>
<polygon fill="none" stroke="black" points="2393.5,-324 2259.5,-324 2259.5,-288 2393.5,-288 2393.5,-324"/>
<text text-anchor="middle" x="2326.5" y="-302.3" font-family="Times,serif" font-size="14.00">GetInsertRecPtr</text>
</g>
<!-- CheckpointerMain&#45;&gt;GetInsertRecPtr -->
<g id="edge3" class="edge">
<title>CheckpointerMain&#45;&gt;GetInsertRecPtr</title>
<path fill="none" stroke="black" d="M4298.48,-376.92C3989.45,-376.3 2800.37,-370.92 2403.59,-323.95"/>
<polygon fill="black" stroke="black" points="2403.86,-320.46 2393.51,-322.73 2403.02,-327.41 2403.86,-320.46"/>
</g>
<!-- FlushErrorState -->
<g id="node6" class="node">
<title>FlushErrorState</title>
<polygon fill="none" stroke="black" points="2545.5,-324 2411.5,-324 2411.5,-288 2545.5,-288 2545.5,-324"/>
<text text-anchor="middle" x="2478.5" y="-302.3" font-family="Times,serif" font-size="14.00">FlushErrorState</text>
</g>
<!-- CheckpointerMain&#45;&gt;FlushErrorState -->
<g id="edge4" class="edge">
<title>CheckpointerMain&#45;&gt;FlushErrorState</title>
<path fill="none" stroke="black" d="M4298.25,-376.73C4004.3,-375.35 2920.68,-367.46 2555.58,-323.95"/>
<polygon fill="black" stroke="black" points="2555.87,-320.46 2545.51,-322.72 2555.02,-327.41 2555.87,-320.46"/>
</g>
<!-- MemoryContextReset -->
<g id="node7" class="node">
<title>MemoryContextReset</title>
<polygon fill="none" stroke="black" points="2737,-324 2564,-324 2564,-288 2737,-288 2737,-324"/>
<text text-anchor="middle" x="2650.5" y="-302.3" font-family="Times,serif" font-size="14.00">MemoryContextReset</text>
</g>
<!-- CheckpointerMain&#45;&gt;MemoryContextReset -->
<g id="edge5" class="edge">
<title>CheckpointerMain&#45;&gt;MemoryContextReset</title>
<path fill="none" stroke="black" d="M4298.28,-375.99C4025.01,-372.05 3074.31,-356.37 2747.45,-323.97"/>
<polygon fill="black" stroke="black" points="2747.33,-320.44 2737.03,-322.91 2746.62,-327.4 2747.33,-320.44"/>
</g>
<!-- Assert -->
<g id="node9" class="node">
<title>Assert</title>
<polygon fill="none" stroke="black" points="1748.5,-36 1686.5,-36 1686.5,0 1748.5,0 1748.5,-36"/>
<text text-anchor="middle" x="1717.5" y="-14.3" font-family="Times,serif" font-size="14.00">Assert</text>
</g>
<!-- CheckpointerMain&#45;&gt;Assert -->
<g id="edge61" class="edge">
<title>CheckpointerMain&#45;&gt;Assert</title>
<path fill="none" stroke="black" d="M4298.29,-376.78C3884.63,-375.38 1872.49,-366.42 1599.5,-324 1478.39,-305.18 1338.5,-357.56 1338.5,-235 1338.5,-235 1338.5,-235 1338.5,-161 1338.5,-89.48 1578.18,-41.91 1676.34,-25.43"/>
<polygon fill="black" stroke="black" points="1677.19,-28.83 1686.48,-23.75 1676.05,-21.93 1677.19,-28.83"/>
</g>
<!-- HandleCheckpointerInterrupts -->
<g id="node10" class="node">
<title>HandleCheckpointerInterrupts</title>
<polygon fill="none" stroke="black" points="1844.5,-324 1608.5,-324 1608.5,-288 1844.5,-288 1844.5,-324"/>
<text text-anchor="middle" x="1726.5" y="-302.3" font-family="Times,serif" font-size="14.00">HandleCheckpointerInterrupts</text>
</g>
<!-- CheckpointerMain&#45;&gt;HandleCheckpointerInterrupts -->
<g id="edge57" class="edge">
<title>CheckpointerMain&#45;&gt;HandleCheckpointerInterrupts</title>
<path fill="none" stroke="black" d="M4298.1,-376.14C4008.84,-372.6 2931.23,-357.79 2044.5,-324 1982.09,-321.62 1912.84,-318.03 1854.93,-314.76"/>
<polygon fill="black" stroke="black" points="1854.81,-311.25 1844.63,-314.18 1854.42,-318.24 1854.81,-311.25"/>
</g>
<!-- GetXLogReplayRecPtr -->
<g id="node12" class="node">
<title>GetXLogReplayRecPtr</title>
<polygon fill="none" stroke="black" points="2931.5,-324 2755.5,-324 2755.5,-288 2931.5,-288 2931.5,-324"/>
<text text-anchor="middle" x="2843.5" y="-302.3" font-family="Times,serif" font-size="14.00">GetXLogReplayRecPtr</text>
</g>
<!-- CheckpointerMain&#45;&gt;GetXLogReplayRecPtr -->
<g id="edge8" class="edge">
<title>CheckpointerMain&#45;&gt;GetXLogReplayRecPtr</title>
<path fill="none" stroke="black" d="M4298.11,-375.59C4046.57,-370.61 3228.01,-352.67 2942.07,-324.05"/>
<polygon fill="black" stroke="black" points="2942.02,-320.53 2931.72,-322.99 2941.3,-327.49 2942.02,-320.53"/>
</g>
<!-- AllocSetContextCreate -->
<g id="node13" class="node">
<title>AllocSetContextCreate</title>
<polygon fill="none" stroke="black" points="3129,-324 2950,-324 2950,-288 3129,-288 3129,-324"/>
<text text-anchor="middle" x="3039.5" y="-302.3" font-family="Times,serif" font-size="14.00">AllocSetContextCreate</text>
</g>
<!-- CheckpointerMain&#45;&gt;AllocSetContextCreate -->
<g id="edge9" class="edge">
<title>CheckpointerMain&#45;&gt;AllocSetContextCreate</title>
<path fill="none" stroke="black" d="M4298.19,-377.09C4107.35,-376.63 3584.39,-370.9 3139.18,-323.98"/>
<polygon fill="black" stroke="black" points="3139.32,-320.47 3129.01,-322.89 3138.58,-327.43 3139.32,-320.47"/>
</g>
<!-- AtEOXact_Buffers -->
<g id="node14" class="node">
<title>AtEOXact_Buffers</title>
<polygon fill="none" stroke="black" points="3291.5,-324 3147.5,-324 3147.5,-288 3291.5,-288 3291.5,-324"/>
<text text-anchor="middle" x="3219.5" y="-302.3" font-family="Times,serif" font-size="14.00">AtEOXact_Buffers</text>
</g>
<!-- CheckpointerMain&#45;&gt;AtEOXact_Buffers -->
<g id="edge10" class="edge">
<title>CheckpointerMain&#45;&gt;AtEOXact_Buffers</title>
<path fill="none" stroke="black" d="M4298.39,-377.34C4125.3,-377.27 3681.02,-372.1 3301.9,-324.06"/>
<polygon fill="black" stroke="black" points="3302.19,-320.57 3291.83,-322.77 3301.3,-327.51 3302.19,-320.57"/>
</g>
<!-- AuxiliaryProcessMainCommon -->
<g id="node15" class="node">
<title>AuxiliaryProcessMainCommon</title>
<polygon fill="none" stroke="black" points="3545,-324 3310,-324 3310,-288 3545,-288 3545,-324"/>
<text text-anchor="middle" x="3427.5" y="-302.3" font-family="Times,serif" font-size="14.00">AuxiliaryProcessMainCommon</text>
</g>
<!-- CheckpointerMain&#45;&gt;AuxiliaryProcessMainCommon -->
<g id="edge35" class="edge">
<title>CheckpointerMain&#45;&gt;AuxiliaryProcessMainCommon</title>
<path fill="none" stroke="black" d="M4298.29,-372.94C4158.89,-365.11 3848.44,-346.66 3587.5,-324 3577.06,-323.09 3566.24,-322.09 3555.39,-321.03"/>
<polygon fill="black" stroke="black" points="3555.71,-317.55 3545.41,-320.05 3555.02,-324.51 3555.71,-317.55"/>
</g>
<!-- ShutdownXLOG -->
<g id="node18" class="node">
<title>ShutdownXLOG</title>
<polygon fill="none" stroke="black" points="3759.5,-324 3629.5,-324 3629.5,-288 3759.5,-288 3759.5,-324"/>
<text text-anchor="middle" x="3694.5" y="-302.3" font-family="Times,serif" font-size="14.00">ShutdownXLOG</text>
</g>
<!-- CheckpointerMain&#45;&gt;ShutdownXLOG -->
<g id="edge13" class="edge">
<title>CheckpointerMain&#45;&gt;ShutdownXLOG</title>
<path fill="none" stroke="black" d="M4298.18,-373.79C4185.7,-368.2 3965.46,-354.4 3769.67,-324.06"/>
<polygon fill="black" stroke="black" points="3770.2,-320.6 3759.77,-322.51 3769.11,-327.52 3770.2,-320.6"/>
</g>
<!-- UpdateSharedMemoryConfig -->
<g id="node21" class="node">
<title>UpdateSharedMemoryConfig</title>
<polygon fill="none" stroke="black" points="1310,-252 1085,-252 1085,-216 1310,-216 1310,-252"/>
<text text-anchor="middle" x="1197.5" y="-230.3" font-family="Times,serif" font-size="14.00">UpdateSharedMemoryConfig</text>
</g>
<!-- CheckpointerMain&#45;&gt;UpdateSharedMemoryConfig -->
<g id="edge54" class="edge">
<title>CheckpointerMain&#45;&gt;UpdateSharedMemoryConfig</title>
<path fill="none" stroke="black" d="M4298.46,-376.94C3846.17,-376.41 1470.19,-371.36 1324.5,-324 1284.47,-310.99 1245.97,-280.68 1222.06,-259.05"/>
<polygon fill="black" stroke="black" points="1224.25,-256.31 1214.53,-252.09 1219.5,-261.45 1224.25,-256.31"/>
</g>
<!-- ConditionVariableCancelSleep -->
<g id="node23" class="node">
<title>ConditionVariableCancelSleep</title>
<polygon fill="none" stroke="black" points="2068.5,-180 1836.5,-180 1836.5,-144 2068.5,-144 2068.5,-180"/>
<text text-anchor="middle" x="1952.5" y="-158.3" font-family="Times,serif" font-size="14.00">ConditionVariableCancelSleep</text>
</g>
<!-- CheckpointerMain&#45;&gt;ConditionVariableCancelSleep -->
<g id="edge17" class="edge">
<title>CheckpointerMain&#45;&gt;ConditionVariableCancelSleep</title>
<path fill="none" stroke="black" d="M4298.25,-376.81C3946.18,-375.69 2453.53,-368.32 2250.5,-324 2171.13,-306.67 2151.95,-294.14 2082.5,-252 2060.9,-238.89 2059.08,-230.66 2038.5,-216 2023.6,-205.38 2006.55,-194.61 1991.59,-185.58"/>
<polygon fill="black" stroke="black" points="1992.96,-182.33 1982.58,-180.2 1989.37,-188.33 1992.96,-182.33"/>
</g>
<!-- UnlockBuffers -->
<g id="node26" class="node">
<title>UnlockBuffers</title>
<polygon fill="none" stroke="black" points="3895.5,-324 3777.5,-324 3777.5,-288 3895.5,-288 3895.5,-324"/>
<text text-anchor="middle" x="3836.5" y="-302.3" font-family="Times,serif" font-size="14.00">UnlockBuffers</text>
</g>
<!-- CheckpointerMain&#45;&gt;UnlockBuffers -->
<g id="edge20" class="edge">
<title>CheckpointerMain&#45;&gt;UnlockBuffers</title>
<path fill="none" stroke="black" d="M4298.35,-371.16C4206.61,-363.32 4045.82,-347.6 3909.5,-324 3908.24,-323.78 3906.96,-323.55 3905.68,-323.32"/>
<polygon fill="black" stroke="black" points="3906.23,-319.86 3895.75,-321.4 3904.9,-326.73 3906.23,-319.86"/>
</g>
<!-- CheckArchiveTimeout -->
<g id="node27" class="node">
<title>CheckArchiveTimeout</title>
<polygon fill="none" stroke="black" points="4125,-324 3952,-324 3952,-288 4125,-288 4125,-324"/>
<text text-anchor="middle" x="4038.5" y="-302.3" font-family="Times,serif" font-size="14.00">CheckArchiveTimeout</text>
</g>
<!-- CheckpointerMain&#45;&gt;CheckArchiveTimeout -->
<g id="edge34" class="edge">
<title>CheckpointerMain&#45;&gt;CheckArchiveTimeout</title>
<path fill="none" stroke="black" d="M4298.37,-361.46C4248.63,-351.04 4182.77,-337.24 4129.8,-326.14"/>
<polygon fill="black" stroke="black" points="4130.23,-322.65 4119.73,-324.02 4128.8,-329.5 4130.23,-322.65"/>
</g>
<!-- EmitErrorReport -->
<g id="node29" class="node">
<title>EmitErrorReport</title>
<polygon fill="none" stroke="black" points="4282,-324 4143,-324 4143,-288 4282,-288 4282,-324"/>
<text text-anchor="middle" x="4212.5" y="-302.3" font-family="Times,serif" font-size="14.00">EmitErrorReport</text>
</g>
<!-- CheckpointerMain&#45;&gt;EmitErrorReport -->
<g id="edge22" class="edge">
<title>CheckpointerMain&#45;&gt;EmitErrorReport</title>
<path fill="none" stroke="black" d="M4333.36,-359.88C4311.49,-350.31 4284.04,-338.3 4260.84,-328.15"/>
<polygon fill="black" stroke="black" points="4262.08,-324.87 4251.51,-324.07 4259.27,-331.28 4262.08,-324.87"/>
</g>
<!-- CreateCheckPoint -->
<g id="node30" class="node">
<title>CreateCheckPoint</title>
<polygon fill="none" stroke="black" points="4445,-324 4300,-324 4300,-288 4445,-288 4445,-324"/>
<text text-anchor="middle" x="4372.5" y="-302.3" font-family="Times,serif" font-size="14.00">CreateCheckPoint</text>
</g>
<!-- CheckpointerMain&#45;&gt;CreateCheckPoint -->
<g id="edge23" class="edge">
<title>CheckpointerMain&#45;&gt;CreateCheckPoint</title>
<path fill="none" stroke="black" d="M4372.5,-359.7C4372.5,-351.98 4372.5,-342.71 4372.5,-334.11"/>
<polygon fill="black" stroke="black" points="4376,-334.1 4372.5,-324.1 4369,-334.1 4376,-334.1"/>
</g>
<!-- ReqShutdownXLOG -->
<g id="node32" class="node">
<title>ReqShutdownXLOG</title>
<polygon fill="none" stroke="black" points="4441.5,-180 4283.5,-180 4283.5,-144 4441.5,-144 4441.5,-180"/>
<text text-anchor="middle" x="4362.5" y="-158.3" font-family="Times,serif" font-size="14.00">ReqShutdownXLOG</text>
</g>
<!-- CheckpointerMain&#45;&gt;ReqShutdownXLOG -->
<g id="edge25" class="edge">
<title>CheckpointerMain&#45;&gt;ReqShutdownXLOG</title>
<path fill="none" stroke="black" d="M4400.78,-359.92C4416.86,-349.92 4437.17,-336.78 4454.5,-324 4474.56,-309.21 4475.3,-299.33 4497.5,-288 4555.88,-258.21 4600.21,-303.69 4640.5,-252 4650.34,-239.38 4650.71,-228.32 4640.5,-216 4614.75,-184.91 4506.94,-187.59 4451.65,-179.93"/>
<polygon fill="black" stroke="black" points="4452.08,-176.45 4441.65,-178.3 4450.96,-183.36 4452.08,-176.45"/>
</g>
<!-- SpinLockRelease -->
<g id="node34" class="node">
<title>SpinLockRelease</title>
<polygon fill="none" stroke="black" points="4715,-324 4578,-324 4578,-288 4715,-288 4715,-324"/>
<text text-anchor="middle" x="4646.5" y="-302.3" font-family="Times,serif" font-size="14.00">SpinLockRelease</text>
</g>
<!-- CheckpointerMain&#45;&gt;SpinLockRelease -->
<g id="edge27" class="edge">
<title>CheckpointerMain&#45;&gt;SpinLockRelease</title>
<path fill="none" stroke="black" d="M4439.18,-359.97C4478.63,-349.89 4528.75,-337.08 4569.83,-326.59"/>
<polygon fill="black" stroke="black" points="4570.7,-329.98 4579.52,-324.11 4568.97,-323.2 4570.7,-329.98"/>
</g>
<!-- SpinLockAcquire -->
<g id="node35" class="node">
<title>SpinLockAcquire</title>
<polygon fill="none" stroke="black" points="4870,-324 4733,-324 4733,-288 4870,-288 4870,-324"/>
<text text-anchor="middle" x="4801.5" y="-302.3" font-family="Times,serif" font-size="14.00">SpinLockAcquire</text>
</g>
<!-- CheckpointerMain&#45;&gt;SpinLockAcquire -->
<g id="edge28" class="edge">
<title>CheckpointerMain&#45;&gt;SpinLockAcquire</title>
<path fill="none" stroke="black" d="M4446.57,-367.34C4515.67,-357.98 4621.84,-342.74 4722.65,-324.29"/>
<polygon fill="black" stroke="black" points="4723.5,-327.69 4732.7,-322.43 4722.23,-320.8 4723.5,-327.69"/>
</g>
<!-- ReleaseAuxProcessResources -->
<g id="node36" class="node">
<title>ReleaseAuxProcessResources</title>
<polygon fill="none" stroke="black" points="5116.5,-324 4888.5,-324 4888.5,-288 5116.5,-288 5116.5,-324"/>
<text text-anchor="middle" x="5002.5" y="-302.3" font-family="Times,serif" font-size="14.00">ReleaseAuxProcessResources</text>
</g>
<!-- CheckpointerMain&#45;&gt;ReleaseAuxProcessResources -->
<g id="edge29" class="edge">
<title>CheckpointerMain&#45;&gt;ReleaseAuxProcessResources</title>
<path fill="none" stroke="black" d="M4446.9,-370C4543.77,-360.72 4718.62,-343.36 4878.26,-324.13"/>
<polygon fill="black" stroke="black" points="4878.76,-327.59 4888.27,-322.92 4877.92,-320.65 4878.76,-327.59"/>
</g>
<!-- SendPostmasterSignal -->
<g id="node37" class="node">
<title>SendPostmasterSignal</title>
<polygon fill="none" stroke="black" points="5314,-324 5135,-324 5135,-288 5314,-288 5314,-324"/>
<text text-anchor="middle" x="5224.5" y="-302.3" font-family="Times,serif" font-size="14.00">SendPostmasterSignal</text>
</g>
<!-- CheckpointerMain&#45;&gt;SendPostmasterSignal -->
<g id="edge30" class="edge">
<title>CheckpointerMain&#45;&gt;SendPostmasterSignal</title>
<path fill="none" stroke="black" d="M4446.75,-374.23C4580.3,-368.72 4870.04,-354.29 5124.79,-324.01"/>
<polygon fill="black" stroke="black" points="5125.47,-327.45 5134.98,-322.78 5124.63,-320.5 5125.47,-327.45"/>
</g>
<!-- AtEOXact_HashTables -->
<g id="node38" class="node">
<title>AtEOXact_HashTables</title>
<polygon fill="none" stroke="black" points="5507,-324 5332,-324 5332,-288 5507,-288 5507,-324"/>
<text text-anchor="middle" x="5419.5" y="-302.3" font-family="Times,serif" font-size="14.00">AtEOXact_HashTables</text>
</g>
<!-- CheckpointerMain&#45;&gt;AtEOXact_HashTables -->
<g id="edge31" class="edge">
<title>CheckpointerMain&#45;&gt;AtEOXact_HashTables</title>
<path fill="none" stroke="black" d="M4446.74,-375.88C4605.59,-372.83 4990.27,-361.95 5321.65,-324.14"/>
<polygon fill="black" stroke="black" points="5322.4,-327.57 5331.93,-322.95 5321.59,-320.62 5322.4,-327.57"/>
</g>
<!-- SignalHandlerForConfigReload -->
<g id="node41" class="node">
<title>SignalHandlerForConfigReload</title>
<polygon fill="none" stroke="black" points="4697.5,-180 4459.5,-180 4459.5,-144 4697.5,-144 4697.5,-180"/>
<text text-anchor="middle" x="4578.5" y="-158.3" font-family="Times,serif" font-size="14.00">SignalHandlerForConfigReload</text>
</g>
<!-- CheckpointerMain&#45;&gt;SignalHandlerForConfigReload -->
<g id="edge37" class="edge">
<title>CheckpointerMain&#45;&gt;SignalHandlerForConfigReload</title>
<path fill="none" stroke="black" d="M4416.54,-359.99C4439.02,-350.59 4466.42,-337.98 4489.5,-324 4511.7,-310.55 4512.42,-299.88 4535.5,-288 4585.76,-262.12 4623.65,-297.28 4657.5,-252 4667.08,-239.18 4665.03,-230.12 4657.5,-216 4650.81,-203.45 4639.68,-193.35 4627.86,-185.47"/>
<polygon fill="black" stroke="black" points="4629.53,-182.39 4619.18,-180.12 4625.86,-188.34 4629.53,-182.39"/>
</g>
<!-- MemoryContextSwitchTo -->
<g id="node42" class="node">
<title>MemoryContextSwitchTo</title>
<polygon fill="none" stroke="black" points="5722,-324 5525,-324 5525,-288 5722,-288 5722,-324"/>
<text text-anchor="middle" x="5623.5" y="-302.3" font-family="Times,serif" font-size="14.00">MemoryContextSwitchTo</text>
</g>
<!-- CheckpointerMain&#45;&gt;MemoryContextSwitchTo -->
<g id="edge38" class="edge">
<title>CheckpointerMain&#45;&gt;MemoryContextSwitchTo</title>
<path fill="none" stroke="black" d="M4446.66,-376.42C4627.6,-374.38 5106.21,-365.3 5514.5,-324.14"/>
<polygon fill="black" stroke="black" points="5515.14,-327.59 5524.73,-323.1 5514.43,-320.63 5515.14,-327.59"/>
</g>
<!-- RecoveryInProgress -->
<g id="node45" class="node">
<title>RecoveryInProgress</title>
<polygon fill="none" stroke="black" points="3791,-252 3630,-252 3630,-216 3791,-216 3791,-252"/>
<text text-anchor="middle" x="3710.5" y="-230.3" font-family="Times,serif" font-size="14.00">RecoveryInProgress</text>
</g>
<!-- CheckpointerMain&#45;&gt;RecoveryInProgress -->
<g id="edge42" class="edge">
<title>CheckpointerMain&#45;&gt;RecoveryInProgress</title>
<path fill="none" stroke="black" d="M4298.16,-373.3C4192.49,-367.11 4004.86,-352.45 3943.5,-324 3922.1,-314.08 3925.13,-299.43 3904.5,-288 3885.59,-277.52 3839.57,-264.77 3797.1,-254.41"/>
<polygon fill="black" stroke="black" points="3797.79,-250.98 3787.25,-252.03 3796.15,-257.78 3797.79,-250.98"/>
</g>
<!-- LWLockReleaseAll -->
<g id="node48" class="node">
<title>LWLockReleaseAll</title>
<polygon fill="none" stroke="black" points="3473.5,-180 3327.5,-180 3327.5,-144 3473.5,-144 3473.5,-180"/>
<text text-anchor="middle" x="3400.5" y="-158.3" font-family="Times,serif" font-size="14.00">LWLockReleaseAll</text>
</g>
<!-- CheckpointerMain&#45;&gt;LWLockReleaseAll -->
<g id="edge47" class="edge">
<title>CheckpointerMain&#45;&gt;LWLockReleaseAll</title>
<path fill="none" stroke="black" d="M4298.26,-376.33C4119.04,-374.08 3673.55,-364.45 3620.5,-324 3580.04,-293.15 3619.46,-250.98 3582.5,-216 3555.96,-190.88 3518.2,-177.58 3483.95,-170.57"/>
<polygon fill="black" stroke="black" points="3484.4,-167.1 3473.93,-168.68 3483.1,-173.97 3484.4,-167.1"/>
</g>
<!-- WaitLatch -->
<g id="node49" class="node">
<title>WaitLatch</title>
<polygon fill="none" stroke="black" points="5829,-324 5740,-324 5740,-288 5829,-288 5829,-324"/>
<text text-anchor="middle" x="5784.5" y="-302.3" font-family="Times,serif" font-size="14.00">WaitLatch</text>
</g>
<!-- CheckpointerMain&#45;&gt;WaitLatch -->
<g id="edge48" class="edge">
<title>CheckpointerMain&#45;&gt;WaitLatch</title>
<path fill="none" stroke="black" d="M4446.67,-376.75C4689.75,-375.53 5461.6,-368.3 5729.8,-323.97"/>
<polygon fill="black" stroke="black" points="5730.63,-327.38 5739.9,-322.25 5729.45,-320.48 5730.63,-327.38"/>
</g>
<!-- RESUME_INTERRUPTS -->
<g id="node52" class="node">
<title>RESUME_INTERRUPTS</title>
<polygon fill="none" stroke="black" points="6036,-324 5847,-324 5847,-288 6036,-288 6036,-324"/>
<text text-anchor="middle" x="5941.5" y="-302.3" font-family="Times,serif" font-size="14.00">RESUME_INTERRUPTS</text>
</g>
<!-- CheckpointerMain&#45;&gt;RESUME_INTERRUPTS -->
<g id="edge53" class="edge">
<title>CheckpointerMain&#45;&gt;RESUME_INTERRUPTS</title>
<path fill="none" stroke="black" d="M4446.71,-377.65C4660.93,-378.81 5298.8,-377.27 5836.69,-324.1"/>
<polygon fill="black" stroke="black" points="5837.38,-327.55 5846.99,-323.08 5836.69,-320.59 5837.38,-327.55"/>
</g>
<!-- ResetLatch -->
<g id="node53" class="node">
<title>ResetLatch</title>
<polygon fill="none" stroke="black" points="6151,-324 6054,-324 6054,-288 6151,-288 6151,-324"/>
<text text-anchor="middle" x="6102.5" y="-302.3" font-family="Times,serif" font-size="14.00">ResetLatch</text>
</g>
<!-- CheckpointerMain&#45;&gt;ResetLatch -->
<g id="edge55" class="edge">
<title>CheckpointerMain&#45;&gt;ResetLatch</title>
<path fill="none" stroke="black" d="M4446.59,-377.19C4725.19,-377.51 5710.55,-375.04 6043.73,-324"/>
<polygon fill="black" stroke="black" points="6044.54,-327.42 6053.88,-322.4 6043.45,-320.5 6044.54,-327.42"/>
</g>
<!-- ConditionVariableBroadcast -->
<g id="node54" class="node">
<title>ConditionVariableBroadcast</title>
<polygon fill="none" stroke="black" points="6385.5,-324 6169.5,-324 6169.5,-288 6385.5,-288 6385.5,-324"/>
<text text-anchor="middle" x="6277.5" y="-302.3" font-family="Times,serif" font-size="14.00">ConditionVariableBroadcast</text>
</g>
<!-- CheckpointerMain&#45;&gt;ConditionVariableBroadcast -->
<g id="edge56" class="edge">
<title>CheckpointerMain&#45;&gt;ConditionVariableBroadcast</title>
<path fill="none" stroke="black" d="M4446.69,-375.94C4737.23,-371.6 5799.02,-354.07 6159.3,-324.02"/>
<polygon fill="black" stroke="black" points="6159.83,-327.49 6169.5,-323.15 6159.24,-320.52 6159.83,-327.49"/>
</g>
<!-- HOLD_INTERRUPTS -->
<g id="node56" class="node">
<title>HOLD_INTERRUPTS</title>
<polygon fill="none" stroke="black" points="6569,-324 6404,-324 6404,-288 6569,-288 6569,-324"/>
<text text-anchor="middle" x="6486.5" y="-302.3" font-family="Times,serif" font-size="14.00">HOLD_INTERRUPTS</text>
</g>
<!-- CheckpointerMain&#45;&gt;HOLD_INTERRUPTS -->
<g id="edge60" class="edge">
<title>CheckpointerMain&#45;&gt;HOLD_INTERRUPTS</title>
<path fill="none" stroke="black" d="M4446.55,-376.61C4760.66,-374.73 5985.07,-364.94 6393.75,-323.94"/>
<polygon fill="black" stroke="black" points="6394.25,-327.41 6403.84,-322.91 6393.53,-320.45 6394.25,-327.41"/>
</g>
<!-- SignalHandlerForShutdownRequest -->
<g id="node57" class="node">
<title>SignalHandlerForShutdownRequest</title>
<polygon fill="none" stroke="black" points="4989.5,-180 4715.5,-180 4715.5,-144 4989.5,-144 4989.5,-180"/>
<text text-anchor="middle" x="4852.5" y="-158.3" font-family="Times,serif" font-size="14.00">SignalHandlerForShutdownRequest</text>
</g>
<!-- CheckpointerMain&#45;&gt;SignalHandlerForShutdownRequest -->
<g id="edge62" class="edge">
<title>CheckpointerMain&#45;&gt;SignalHandlerForShutdownRequest</title>
<path fill="none" stroke="black" d="M4438.83,-359.99C4466.89,-351.34 4499.3,-339.37 4526.5,-324 4548.2,-311.74 4547.79,-300.25 4569.5,-288 4612.47,-263.76 4629,-271.07 4674.5,-252 4723.05,-231.64 4776.87,-203.99 4812.49,-184.93"/>
<polygon fill="black" stroke="black" points="4814.43,-187.86 4821.58,-180.04 4811.12,-181.7 4814.43,-187.86"/>
</g>
<!-- Min -->
<g id="node58" class="node">
<title>Min</title>
<polygon fill="none" stroke="black" points="6641.5,-324 6587.5,-324 6587.5,-288 6641.5,-288 6641.5,-324"/>
<text text-anchor="middle" x="6614.5" y="-302.3" font-family="Times,serif" font-size="14.00">Min</text>
</g>
<!-- CheckpointerMain&#45;&gt;Min -->
<g id="edge64" class="edge">
<title>CheckpointerMain&#45;&gt;Min</title>
<path fill="none" stroke="black" d="M4446.71,-377.04C4802.18,-377.01 6323.75,-374.02 6577.28,-323.43"/>
<polygon fill="black" stroke="black" points="6578.39,-326.77 6587.41,-321.22 6576.9,-319.93 6578.39,-326.77"/>
</g>
<!-- AtEOXact_Files -->
<g id="node59" class="node">
<title>AtEOXact_Files</title>
<polygon fill="none" stroke="black" points="6787,-324 6660,-324 6660,-288 6787,-288 6787,-324"/>
<text text-anchor="middle" x="6723.5" y="-302.3" font-family="Times,serif" font-size="14.00">AtEOXact_Files</text>
</g>
<!-- CheckpointerMain&#45;&gt;AtEOXact_Files -->
<g id="edge65" class="edge">
<title>CheckpointerMain&#45;&gt;AtEOXact_Files</title>
<path fill="none" stroke="black" d="M4446.62,-377.32C4785.33,-378.48 6188.83,-379.84 6649.89,-323.86"/>
<polygon fill="black" stroke="black" points="6650.45,-327.32 6659.94,-322.61 6649.58,-320.37 6650.45,-327.32"/>
</g>
<!-- AtEOXact_SMgr -->
<g id="node60" class="node">
<title>AtEOXact_SMgr</title>
<polygon fill="none" stroke="black" points="6937.5,-324 6805.5,-324 6805.5,-288 6937.5,-288 6937.5,-324"/>
<text text-anchor="middle" x="6871.5" y="-302.3" font-family="Times,serif" font-size="14.00">AtEOXact_SMgr</text>
</g>
<!-- CheckpointerMain&#45;&gt;AtEOXact_SMgr -->
<g id="edge66" class="edge">
<title>CheckpointerMain&#45;&gt;AtEOXact_SMgr</title>
<path fill="none" stroke="black" d="M4446.58,-377.39C4798.49,-378.91 6304.27,-381.94 6795.38,-323.95"/>
<polygon fill="black" stroke="black" points="6795.87,-327.42 6805.37,-322.75 6795.03,-320.47 6795.87,-327.42"/>
</g>
<!-- CreateRestartPoint -->
<g id="node64" class="node">
<title>CreateRestartPoint</title>
<polygon fill="none" stroke="black" points="7111,-324 6956,-324 6956,-288 7111,-288 7111,-324"/>
<text text-anchor="middle" x="7033.5" y="-302.3" font-family="Times,serif" font-size="14.00">CreateRestartPoint</text>
</g>
<!-- CheckpointerMain&#45;&gt;CreateRestartPoint -->
<g id="edge72" class="edge">
<title>CheckpointerMain&#45;&gt;CreateRestartPoint</title>
<path fill="none" stroke="black" d="M4446.5,-377.2C4811.33,-377.92 6421.49,-377.98 6945.53,-323.95"/>
<polygon fill="black" stroke="black" points="6946.23,-327.4 6955.81,-322.87 6945.5,-320.43 6946.23,-327.4"/>
</g>
<!-- SyncRepWakeQueue -->
<g id="node8" class="node">
<title>SyncRepWakeQueue</title>
<polygon fill="none" stroke="black" points="1799,-108 1636,-108 1636,-72 1799,-72 1799,-108"/>
<text text-anchor="middle" x="1717.5" y="-86.3" font-family="Times,serif" font-size="14.00">SyncRepWakeQueue</text>
</g>
<!-- SyncRepWakeQueue&#45;&gt;Assert -->
<g id="edge6" class="edge">
<title>SyncRepWakeQueue&#45;&gt;Assert</title>
<path fill="none" stroke="black" d="M1717.5,-71.7C1717.5,-63.98 1717.5,-54.71 1717.5,-46.11"/>
<polygon fill="black" stroke="black" points="1721,-46.1 1717.5,-36.1 1714,-46.1 1721,-46.1"/>
</g>
<!-- SetLatch -->
<g id="node24" class="node">
<title>SetLatch</title>
<polygon fill="none" stroke="black" points="4554.5,-36 4474.5,-36 4474.5,0 4554.5,0 4554.5,-36"/>
<text text-anchor="middle" x="4514.5" y="-14.3" font-family="Times,serif" font-size="14.00">SetLatch</text>
</g>
<!-- SyncRepWakeQueue&#45;&gt;SetLatch -->
<g id="edge18" class="edge">
<title>SyncRepWakeQueue&#45;&gt;SetLatch</title>
<path fill="none" stroke="black" d="M1799.32,-86.95C2219.43,-76.44 4127.51,-28.69 4463.8,-20.27"/>
<polygon fill="black" stroke="black" points="4464.28,-23.76 4474.19,-20.01 4464.11,-16.76 4464.28,-23.76"/>
</g>
<!-- ProcessProcSignalBarrier -->
<g id="node11" class="node">
<title>ProcessProcSignalBarrier</title>
<polygon fill="none" stroke="black" points="1568,-252 1367,-252 1367,-216 1568,-216 1568,-252"/>
<text text-anchor="middle" x="1467.5" y="-230.3" font-family="Times,serif" font-size="14.00">ProcessProcSignalBarrier</text>
</g>
<!-- HandleCheckpointerInterrupts&#45;&gt;ProcessProcSignalBarrier -->
<g id="edge7" class="edge">
<title>HandleCheckpointerInterrupts&#45;&gt;ProcessProcSignalBarrier</title>
<path fill="none" stroke="black" d="M1663.47,-287.97C1626.34,-277.93 1579.2,-265.19 1540.47,-254.72"/>
<polygon fill="black" stroke="black" points="1541.38,-251.34 1530.81,-252.11 1539.55,-258.1 1541.38,-251.34"/>
</g>
<!-- HandleCheckpointerInterrupts&#45;&gt;UpdateSharedMemoryConfig -->
<g id="edge58" class="edge">
<title>HandleCheckpointerInterrupts&#45;&gt;UpdateSharedMemoryConfig</title>
<path fill="none" stroke="black" d="M1608.44,-289.38C1522.76,-278.04 1407.15,-262.74 1320.38,-251.26"/>
<polygon fill="black" stroke="black" points="1320.59,-247.76 1310.21,-249.91 1319.67,-254.7 1320.59,-247.76"/>
</g>
<!-- ProcessLogMemoryContextInterrupt -->
<g id="node31" class="node">
<title>ProcessLogMemoryContextInterrupt</title>
<polygon fill="none" stroke="black" points="1866.5,-252 1586.5,-252 1586.5,-216 1866.5,-216 1866.5,-252"/>
<text text-anchor="middle" x="1726.5" y="-230.3" font-family="Times,serif" font-size="14.00">ProcessLogMemoryContextInterrupt</text>
</g>
<!-- HandleCheckpointerInterrupts&#45;&gt;ProcessLogMemoryContextInterrupt -->
<g id="edge24" class="edge">
<title>HandleCheckpointerInterrupts&#45;&gt;ProcessLogMemoryContextInterrupt</title>
<path fill="none" stroke="black" d="M1726.5,-287.7C1726.5,-279.98 1726.5,-270.71 1726.5,-262.11"/>
<polygon fill="black" stroke="black" points="1730,-262.1 1726.5,-252.1 1723,-262.1 1730,-262.1"/>
</g>
<!-- ProcessConfigFile -->
<g id="node40" class="node">
<title>ProcessConfigFile</title>
<polygon fill="none" stroke="black" points="2030,-252 1885,-252 1885,-216 2030,-216 2030,-252"/>
<text text-anchor="middle" x="1957.5" y="-230.3" font-family="Times,serif" font-size="14.00">ProcessConfigFile</text>
</g>
<!-- HandleCheckpointerInterrupts&#45;&gt;ProcessConfigFile -->
<g id="edge33" class="edge">
<title>HandleCheckpointerInterrupts&#45;&gt;ProcessConfigFile</title>
<path fill="none" stroke="black" d="M1782.71,-287.97C1815.41,-278.06 1856.8,-265.51 1891.1,-255.12"/>
<polygon fill="black" stroke="black" points="1892.48,-258.36 1901.03,-252.11 1890.45,-251.66 1892.48,-258.36"/>
</g>
<!-- AuxiliaryProcessMainCommon&#45;&gt;Assert -->
<g id="edge45" class="edge">
<title>AuxiliaryProcessMainCommon&#45;&gt;Assert</title>
<path fill="none" stroke="black" d="M3309.92,-288.83C3306.75,-288.53 3303.6,-288.25 3300.5,-288 3234.86,-282.62 2168.66,-290.88 2115.5,-252 2074.43,-221.96 2113.55,-179.91 2077.5,-144 1988.36,-55.23 1833.03,-29.37 1759.01,-21.94"/>
<polygon fill="black" stroke="black" points="1758.98,-18.42 1748.7,-20.97 1758.33,-25.39 1758.98,-18.42"/>
</g>
<!-- CreateAuxProcessResourceOwner -->
<g id="node16" class="node">
<title>CreateAuxProcessResourceOwner</title>
<polygon fill="none" stroke="black" points="2742.5,-252 2482.5,-252 2482.5,-216 2742.5,-216 2742.5,-252"/>
<text text-anchor="middle" x="2612.5" y="-230.3" font-family="Times,serif" font-size="14.00">CreateAuxProcessResourceOwner</text>
</g>
<!-- AuxiliaryProcessMainCommon&#45;&gt;CreateAuxProcessResourceOwner -->
<g id="edge11" class="edge">
<title>AuxiliaryProcessMainCommon&#45;&gt;CreateAuxProcessResourceOwner</title>
<path fill="none" stroke="black" d="M3309.91,-288.97C3306.74,-288.63 3303.6,-288.31 3300.5,-288 3060.51,-264.1 2996.69,-274.55 2752.94,-252.1"/>
<polygon fill="black" stroke="black" points="2752.98,-248.59 2742.7,-251.15 2752.33,-255.56 2752.98,-248.59"/>
</g>
<!-- MemoryContextDelete -->
<g id="node17" class="node">
<title>MemoryContextDelete</title>
<polygon fill="none" stroke="black" points="2940,-252 2761,-252 2761,-216 2940,-216 2940,-252"/>
<text text-anchor="middle" x="2850.5" y="-230.3" font-family="Times,serif" font-size="14.00">MemoryContextDelete</text>
</g>
<!-- AuxiliaryProcessMainCommon&#45;&gt;MemoryContextDelete -->
<g id="edge12" class="edge">
<title>AuxiliaryProcessMainCommon&#45;&gt;MemoryContextDelete</title>
<path fill="none" stroke="black" d="M3309.89,-289.13C3306.73,-288.74 3303.59,-288.37 3300.5,-288 3147.53,-269.94 3105.98,-273.3 2950.12,-252.17"/>
<polygon fill="black" stroke="black" points="2950.56,-248.7 2940.18,-250.82 2949.62,-255.64 2950.56,-248.7"/>
</g>
<!-- ProcSignalInit -->
<g id="node19" class="node">
<title>ProcSignalInit</title>
<polygon fill="none" stroke="black" points="3077,-252 2958,-252 2958,-216 3077,-216 3077,-252"/>
<text text-anchor="middle" x="3017.5" y="-230.3" font-family="Times,serif" font-size="14.00">ProcSignalInit</text>
</g>
<!-- AuxiliaryProcessMainCommon&#45;&gt;ProcSignalInit -->
<g id="edge14" class="edge">
<title>AuxiliaryProcessMainCommon&#45;&gt;ProcSignalInit</title>
<path fill="none" stroke="black" d="M3309.87,-289.3C3246.65,-280.25 3167.2,-267.88 3087.49,-252.11"/>
<polygon fill="black" stroke="black" points="3087.76,-248.59 3077.27,-250.06 3086.39,-255.45 3087.76,-248.59"/>
</g>
<!-- ShutdownAuxiliaryProcess -->
<g id="node20" class="node">
<title>ShutdownAuxiliaryProcess</title>
<polygon fill="none" stroke="black" points="3303.5,-252 3095.5,-252 3095.5,-216 3303.5,-216 3303.5,-252"/>
<text text-anchor="middle" x="3199.5" y="-230.3" font-family="Times,serif" font-size="14.00">ShutdownAuxiliaryProcess</text>
</g>
<!-- AuxiliaryProcessMainCommon&#45;&gt;ShutdownAuxiliaryProcess -->
<g id="edge15" class="edge">
<title>AuxiliaryProcessMainCommon&#45;&gt;ShutdownAuxiliaryProcess</title>
<path fill="none" stroke="black" d="M3372.02,-287.97C3339.74,-278.06 3298.89,-265.51 3265.04,-255.12"/>
<polygon fill="black" stroke="black" points="3265.82,-251.7 3255.23,-252.11 3263.76,-258.39 3265.82,-251.7"/>
</g>
<!-- SetProcessingMode -->
<g id="node39" class="node">
<title>SetProcessingMode</title>
<polygon fill="none" stroke="black" points="3479.5,-252 3321.5,-252 3321.5,-216 3479.5,-216 3479.5,-252"/>
<text text-anchor="middle" x="3400.5" y="-230.3" font-family="Times,serif" font-size="14.00">SetProcessingMode</text>
</g>
<!-- AuxiliaryProcessMainCommon&#45;&gt;SetProcessingMode -->
<g id="edge32" class="edge">
<title>AuxiliaryProcessMainCommon&#45;&gt;SetProcessingMode</title>
<path fill="none" stroke="black" d="M3420.83,-287.7C3417.79,-279.81 3414.12,-270.3 3410.74,-261.55"/>
<polygon fill="black" stroke="black" points="3413.96,-260.17 3407.1,-252.1 3407.43,-262.69 3413.96,-260.17"/>
</g>
<!-- BaseInit -->
<g id="node46" class="node">
<title>BaseInit</title>
<polygon fill="none" stroke="black" points="3573.5,-252 3497.5,-252 3497.5,-216 3573.5,-216 3573.5,-252"/>
<text text-anchor="middle" x="3535.5" y="-230.3" font-family="Times,serif" font-size="14.00">BaseInit</text>
</g>
<!-- AuxiliaryProcessMainCommon&#45;&gt;BaseInit -->
<g id="edge43" class="edge">
<title>AuxiliaryProcessMainCommon&#45;&gt;BaseInit</title>
<path fill="none" stroke="black" d="M3453.92,-287.88C3467.91,-278.81 3485.28,-267.55 3500.39,-257.76"/>
<polygon fill="black" stroke="black" points="3502.49,-260.57 3508.98,-252.19 3498.68,-254.69 3502.49,-260.57"/>
</g>
<!-- GetProcessingMode -->
<g id="node63" class="node">
<title>GetProcessingMode</title>
<polygon fill="none" stroke="black" points="2284.5,-252 2124.5,-252 2124.5,-216 2284.5,-216 2284.5,-252"/>
<text text-anchor="middle" x="2204.5" y="-230.3" font-family="Times,serif" font-size="14.00">GetProcessingMode</text>
</g>
<!-- AuxiliaryProcessMainCommon&#45;&gt;GetProcessingMode -->
<g id="edge71" class="edge">
<title>AuxiliaryProcessMainCommon&#45;&gt;GetProcessingMode</title>
<path fill="none" stroke="black" d="M3309.92,-288.85C3306.75,-288.55 3303.6,-288.26 3300.5,-288 2857.63,-250.53 2740.29,-301.38 2295.19,-252.08"/>
<polygon fill="black" stroke="black" points="2295.27,-248.57 2284.95,-250.94 2294.5,-255.53 2295.27,-248.57"/>
</g>
<!-- InitAuxiliaryProcess -->
<g id="node65" class="node">
<title>InitAuxiliaryProcess</title>
<polygon fill="none" stroke="black" points="2464,-252 2303,-252 2303,-216 2464,-216 2464,-252"/>
<text text-anchor="middle" x="2383.5" y="-230.3" font-family="Times,serif" font-size="14.00">InitAuxiliaryProcess</text>
</g>
<!-- AuxiliaryProcessMainCommon&#45;&gt;InitAuxiliaryProcess -->
<g id="edge75" class="edge">
<title>AuxiliaryProcessMainCommon&#45;&gt;InitAuxiliaryProcess</title>
<path fill="none" stroke="black" d="M3309.91,-288.88C3306.74,-288.57 3303.6,-288.27 3300.5,-288 2937.34,-255.85 2840.71,-293.56 2474.45,-252"/>
<polygon fill="black" stroke="black" points="2474.7,-248.5 2464.37,-250.84 2473.91,-255.46 2474.7,-248.5"/>
</g>
<!-- ShutdownAuxiliaryProcess&#45;&gt;ConditionVariableCancelSleep -->
<g id="edge46" class="edge">
<title>ShutdownAuxiliaryProcess&#45;&gt;ConditionVariableCancelSleep</title>
<path fill="none" stroke="black" d="M3095.49,-217.05C3092.12,-216.67 3088.79,-216.32 3085.5,-216 2721.06,-180.4 2288.26,-168.55 2078.7,-164.74"/>
<polygon fill="black" stroke="black" points="2078.64,-161.23 2068.58,-164.55 2078.52,-168.23 2078.64,-161.23"/>
</g>
<!-- ShutdownAuxiliaryProcess&#45;&gt;LWLockReleaseAll -->
<g id="edge74" class="edge">
<title>ShutdownAuxiliaryProcess&#45;&gt;LWLockReleaseAll</title>
<path fill="none" stroke="black" d="M3248.41,-215.97C3276.5,-206.19 3311.96,-193.84 3341.57,-183.52"/>
<polygon fill="black" stroke="black" points="3343.07,-186.71 3351.37,-180.11 3340.77,-180.09 3343.07,-186.71"/>
</g>
<!-- SyncRepUpdateSyncStandbysDefined -->
<g id="node22" class="node">
<title>SyncRepUpdateSyncStandbysDefined</title>
<polygon fill="none" stroke="black" points="1114,-180 827,-180 827,-144 1114,-144 1114,-180"/>
<text text-anchor="middle" x="970.5" y="-158.3" font-family="Times,serif" font-size="14.00">SyncRepUpdateSyncStandbysDefined</text>
</g>
<!-- UpdateSharedMemoryConfig&#45;&gt;SyncRepUpdateSyncStandbysDefined -->
<g id="edge16" class="edge">
<title>UpdateSharedMemoryConfig&#45;&gt;SyncRepUpdateSyncStandbysDefined</title>
<path fill="none" stroke="black" d="M1142.26,-215.97C1110.13,-206.06 1069.45,-193.51 1035.75,-183.12"/>
<polygon fill="black" stroke="black" points="1036.58,-179.71 1025.99,-180.11 1034.51,-186.4 1036.58,-179.71"/>
</g>
<!-- UpdateFullPageWrites -->
<g id="node62" class="node">
<title>UpdateFullPageWrites</title>
<polygon fill="none" stroke="black" points="1310.5,-180 1132.5,-180 1132.5,-144 1310.5,-144 1310.5,-180"/>
<text text-anchor="middle" x="1221.5" y="-158.3" font-family="Times,serif" font-size="14.00">UpdateFullPageWrites</text>
</g>
<!-- UpdateSharedMemoryConfig&#45;&gt;UpdateFullPageWrites -->
<g id="edge69" class="edge">
<title>UpdateSharedMemoryConfig&#45;&gt;UpdateFullPageWrites</title>
<path fill="none" stroke="black" d="M1203.43,-215.7C1206.11,-207.9 1209.33,-198.51 1212.3,-189.83"/>
<polygon fill="black" stroke="black" points="1215.7,-190.7 1215.64,-180.1 1209.08,-188.43 1215.7,-190.7"/>
</g>
<!-- SyncRepUpdateSyncStandbysDefined&#45;&gt;LWLockRelease -->
<g id="edge68" class="edge">
<title>SyncRepUpdateSyncStandbysDefined&#45;&gt;LWLockRelease</title>
<path fill="none" stroke="black" d="M944.32,-143.88C930.46,-134.81 913.26,-123.55 898.29,-113.76"/>
<polygon fill="black" stroke="black" points="900.06,-110.74 889.78,-108.19 896.23,-116.59 900.06,-110.74"/>
</g>
<!-- SyncRepUpdateSyncStandbysDefined&#45;&gt;SyncRepWakeQueue -->
<g id="edge41" class="edge">
<title>SyncRepUpdateSyncStandbysDefined&#45;&gt;SyncRepWakeQueue</title>
<path fill="none" stroke="black" d="M1114.23,-144.94C1117.35,-144.62 1120.44,-144.31 1123.5,-144 1301.18,-126.2 1509.06,-108.33 1625.8,-98.56"/>
<polygon fill="black" stroke="black" points="1626.1,-102.05 1635.78,-97.73 1625.52,-95.07 1626.1,-102.05"/>
</g>
<!-- SyncStandbysDefined -->
<g id="node33" class="node">
<title>SyncStandbysDefined</title>
<polygon fill="none" stroke="black" points="1264,-108 1091,-108 1091,-72 1264,-72 1264,-108"/>
<text text-anchor="middle" x="1177.5" y="-86.3" font-family="Times,serif" font-size="14.00">SyncStandbysDefined</text>
</g>
<!-- SyncRepUpdateSyncStandbysDefined&#45;&gt;SyncStandbysDefined -->
<g id="edge26" class="edge">
<title>SyncRepUpdateSyncStandbysDefined&#45;&gt;SyncStandbysDefined</title>
<path fill="none" stroke="black" d="M1020.87,-143.97C1049.92,-134.14 1086.63,-121.73 1117.21,-111.39"/>
<polygon fill="black" stroke="black" points="1118.55,-114.63 1126.9,-108.11 1116.31,-108 1118.55,-114.63"/>
</g>
<!-- SyncRepUpdateSyncStandbysDefined&#45;&gt;LWLockAcquire -->
<g id="edge40" class="edge">
<title>SyncRepUpdateSyncStandbysDefined&#45;&gt;LWLockAcquire</title>
<path fill="none" stroke="black" d="M980.14,-143.7C984.63,-135.64 990.06,-125.89 995.02,-116.98"/>
<polygon fill="black" stroke="black" points="998.16,-118.54 999.97,-108.1 992.05,-115.14 998.16,-118.54"/>
</g>
<!-- GetLastSegSwitchData -->
<g id="node28" class="node">
<title>GetLastSegSwitchData</title>
<polygon fill="none" stroke="black" points="4275.5,-252 4093.5,-252 4093.5,-216 4275.5,-216 4275.5,-252"/>
<text text-anchor="middle" x="4184.5" y="-230.3" font-family="Times,serif" font-size="14.00">GetLastSegSwitchData</text>
</g>
<!-- CheckArchiveTimeout&#45;&gt;GetLastSegSwitchData -->
<g id="edge21" class="edge">
<title>CheckArchiveTimeout&#45;&gt;GetLastSegSwitchData</title>
<path fill="none" stroke="black" d="M4074.22,-287.88C4094,-278.39 4118.77,-266.51 4139.83,-256.42"/>
<polygon fill="black" stroke="black" points="4141.4,-259.55 4148.9,-252.07 4138.37,-253.24 4141.4,-259.55"/>
</g>
<!-- RequestXLogSwitch -->
<g id="node43" class="node">
<title>RequestXLogSwitch</title>
<polygon fill="none" stroke="black" points="4453.5,-252 4293.5,-252 4293.5,-216 4453.5,-216 4453.5,-252"/>
<text text-anchor="middle" x="4373.5" y="-230.3" font-family="Times,serif" font-size="14.00">RequestXLogSwitch</text>
</g>
<!-- CheckArchiveTimeout&#45;&gt;RequestXLogSwitch -->
<g id="edge39" class="edge">
<title>CheckArchiveTimeout&#45;&gt;RequestXLogSwitch</title>
<path fill="none" stroke="black" d="M4120.02,-287.97C4169.41,-277.65 4232.48,-264.47 4283.35,-253.84"/>
<polygon fill="black" stroke="black" points="4284.28,-257.22 4293.35,-251.75 4282.85,-250.37 4284.28,-257.22"/>
</g>
<!-- CheckArchiveTimeout&#45;&gt;RecoveryInProgress -->
<g id="edge49" class="edge">
<title>CheckArchiveTimeout&#45;&gt;RecoveryInProgress</title>
<path fill="none" stroke="black" d="M3958.68,-287.97C3910.87,-277.76 3849.96,-264.76 3800.45,-254.2"/>
<polygon fill="black" stroke="black" points="3800.9,-250.71 3790.39,-252.05 3799.44,-257.56 3800.9,-250.71"/>
</g>
<!-- XLogSegmentOffset -->
<g id="node51" class="node">
<title>XLogSegmentOffset</title>
<polygon fill="none" stroke="black" points="4631,-252 4472,-252 4472,-216 4631,-216 4631,-252"/>
<text text-anchor="middle" x="4551.5" y="-230.3" font-family="Times,serif" font-size="14.00">XLogSegmentOffset</text>
</g>
<!-- CheckArchiveTimeout&#45;&gt;XLogSegmentOffset -->
<g id="edge52" class="edge">
<title>CheckArchiveTimeout&#45;&gt;XLogSegmentOffset</title>
<path fill="none" stroke="black" d="M4125.06,-289.4C4128.25,-288.91 4131.4,-288.44 4134.5,-288 4276.41,-267.67 4315.72,-273.49 4461.74,-252.04"/>
<polygon fill="black" stroke="black" points="4462.6,-255.45 4471.98,-250.51 4461.57,-248.52 4462.6,-255.45"/>
</g>
<!-- Max -->
<g id="node55" class="node">
<title>Max</title>
<polygon fill="none" stroke="black" points="3863.5,-252 3809.5,-252 3809.5,-216 3863.5,-216 3863.5,-252"/>
<text text-anchor="middle" x="3836.5" y="-230.3" font-family="Times,serif" font-size="14.00">Max</text>
</g>
<!-- CheckArchiveTimeout&#45;&gt;Max -->
<g id="edge59" class="edge">
<title>CheckArchiveTimeout&#45;&gt;Max</title>
<path fill="none" stroke="black" d="M3978.68,-287.99C3949.1,-279.09 3912.82,-267.46 3873.18,-252.05"/>
<polygon fill="black" stroke="black" points="3874.44,-248.78 3863.85,-248.37 3871.88,-255.29 3874.44,-248.78"/>
</g>
<!-- GetLastImportantRecPtr -->
<g id="node61" class="node">
<title>GetLastImportantRecPtr</title>
<polygon fill="none" stroke="black" points="4075.5,-252 3881.5,-252 3881.5,-216 4075.5,-216 4075.5,-252"/>
<text text-anchor="middle" x="3978.5" y="-230.3" font-family="Times,serif" font-size="14.00">GetLastImportantRecPtr</text>
</g>
<!-- CheckArchiveTimeout&#45;&gt;GetLastImportantRecPtr -->
<g id="edge67" class="edge">
<title>CheckArchiveTimeout&#45;&gt;GetLastImportantRecPtr</title>
<path fill="none" stroke="black" d="M4023.67,-287.7C4016.48,-279.3 4007.7,-269.07 3999.81,-259.86"/>
<polygon fill="black" stroke="black" points="4002.33,-257.42 3993.16,-252.1 3997.01,-261.97 4002.33,-257.42"/>
</g>
<!-- ReqShutdownXLOG&#45;&gt;SetLatch -->
<g id="edge73" class="edge">
<title>ReqShutdownXLOG&#45;&gt;SetLatch</title>
<path fill="none" stroke="black" d="M4380.83,-143.87C4407.77,-118.71 4458.14,-71.65 4488.77,-43.04"/>
<polygon fill="black" stroke="black" points="4491.18,-45.57 4496.1,-36.19 4486.4,-40.46 4491.18,-45.57"/>
</g>
<!-- SignalHandlerForConfigReload&#45;&gt;SetLatch -->
<g id="edge63" class="edge">
<title>SignalHandlerForConfigReload&#45;&gt;SetLatch</title>
<path fill="none" stroke="black" d="M4570.78,-143.87C4559.78,-119.46 4539.48,-74.43 4526.5,-45.64"/>
<polygon fill="black" stroke="black" points="4529.55,-43.87 4522.25,-36.19 4523.17,-46.74 4529.55,-43.87"/>
</g>
<!-- SignalHandlerForShutdownRequest&#45;&gt;SetLatch -->
<g id="edge70" class="edge">
<title>SignalHandlerForShutdownRequest&#45;&gt;SetLatch</title>
<path fill="none" stroke="black" d="M4811.73,-143.87C4749.56,-117.75 4631.22,-68.04 4564.14,-39.85"/>
<polygon fill="black" stroke="black" points="4565.2,-36.5 4554.63,-35.86 4562.49,-42.96 4565.2,-36.5"/>
</g>
</g>
</svg>
