<?xml version="1.0" encoding="UTF-8" standalone="no"?>
<!DOCTYPE svg PUBLIC "-//W3C//DTD SVG 1.1//EN"
 "http://www.w3.org/Graphics/SVG/1.1/DTD/svg11.dtd">
<!-- Generated by graphviz version 2.43.0 (0)
 -->
<!-- Title: cflow Pages: 1 -->
<svg width="1261pt" height="116pt"
 viewBox="0.00 0.00 1260.50 116.00" xmlns="http://www.w3.org/2000/svg" xmlns:xlink="http://www.w3.org/1999/xlink">
<g id="graph0" class="graph" transform="scale(1 1) rotate(0) translate(4 112)">
<title>cflow</title>
<polygon fill="white" stroke="transparent" points="-4,4 -4,-112 1256.5,-112 1256.5,4 -4,4"/>
<!-- main -->
<g id="node1" class="node">
<title>main</title>
<polygon fill="none" stroke="black" points="690,-108 636,-108 636,-72 690,-72 690,-108"/>
<text text-anchor="middle" x="663" y="-86.3" font-family="Times,serif" font-size="14.00">main</text>
</g>
<!-- PostgresSingleUserMain -->
<g id="node2" class="node">
<title>PostgresSingleUserMain</title>
<polygon fill="none" stroke="black" points="194,-36 0,-36 0,0 194,0 194,-36"/>
<text text-anchor="middle" x="97" y="-14.3" font-family="Times,serif" font-size="14.00">PostgresSingleUserMain</text>
</g>
<!-- main&#45;&gt;PostgresSingleUserMain -->
<g id="edge1" class="edge">
<title>main&#45;&gt;PostgresSingleUserMain</title>
<path fill="none" stroke="black" d="M635.99,-86.31C566.3,-79.28 374.54,-59.37 203.93,-36.1"/>
<polygon fill="black" stroke="black" points="204.4,-32.63 194.02,-34.74 203.45,-39.56 204.4,-32.63"/>
</g>
<!-- PG_TEXTDOMAIN -->
<g id="node3" class="node">
<title>PG_TEXTDOMAIN</title>
<polygon fill="none" stroke="black" points="358,-36 212,-36 212,0 358,0 358,-36"/>
<text text-anchor="middle" x="285" y="-14.3" font-family="Times,serif" font-size="14.00">PG_TEXTDOMAIN</text>
</g>
<!-- main&#45;&gt;PG_TEXTDOMAIN -->
<g id="edge2" class="edge">
<title>main&#45;&gt;PG_TEXTDOMAIN</title>
<path fill="none" stroke="black" d="M635.61,-84.35C584.95,-75.7 472.96,-56.32 368.39,-36.24"/>
<polygon fill="black" stroke="black" points="368.78,-32.75 358.3,-34.3 367.46,-39.63 368.78,-32.75"/>
</g>
<!-- BootstrapModeMain -->
<g id="node4" class="node">
<title>BootstrapModeMain</title>
<polygon fill="none" stroke="black" points="539.5,-36 376.5,-36 376.5,0 539.5,0 539.5,-36"/>
<text text-anchor="middle" x="458" y="-14.3" font-family="Times,serif" font-size="14.00">BootstrapModeMain</text>
</g>
<!-- main&#45;&gt;BootstrapModeMain -->
<g id="edge3" class="edge">
<title>main&#45;&gt;BootstrapModeMain</title>
<path fill="none" stroke="black" d="M635.78,-79.7C605.76,-69.45 556.53,-52.65 517.49,-39.31"/>
<polygon fill="black" stroke="black" points="518.39,-35.92 507.8,-36 516.13,-42.55 518.39,-35.92"/>
</g>
<!-- GucInfoMain -->
<g id="node5" class="node">
<title>GucInfoMain</title>
<polygon fill="none" stroke="black" points="666,-36 558,-36 558,0 666,0 666,-36"/>
<text text-anchor="middle" x="612" y="-14.3" font-family="Times,serif" font-size="14.00">GucInfoMain</text>
</g>
<!-- main&#45;&gt;GucInfoMain -->
<g id="edge4" class="edge">
<title>main&#45;&gt;GucInfoMain</title>
<path fill="none" stroke="black" d="M650.39,-71.7C644.4,-63.47 637.12,-53.48 630.52,-44.42"/>
<polygon fill="black" stroke="black" points="633.18,-42.13 624.46,-36.1 627.52,-46.25 633.18,-42.13"/>
</g>
<!-- Assert -->
<g id="node6" class="node">
<title>Assert</title>
<polygon fill="none" stroke="black" points="746,-36 684,-36 684,0 746,0 746,-36"/>
<text text-anchor="middle" x="715" y="-14.3" font-family="Times,serif" font-size="14.00">Assert</text>
</g>
<!-- main&#45;&gt;Assert -->
<g id="edge5" class="edge">
<title>main&#45;&gt;Assert</title>
<path fill="none" stroke="black" d="M675.85,-71.7C682.03,-63.39 689.54,-53.28 696.32,-44.14"/>
<polygon fill="black" stroke="black" points="699.14,-46.22 702.29,-36.1 693.52,-42.04 699.14,-46.22"/>
</g>
<!-- PostmasterMain -->
<g id="node7" class="node">
<title>PostmasterMain</title>
<polygon fill="none" stroke="black" points="898,-36 764,-36 764,0 898,0 898,-36"/>
<text text-anchor="middle" x="831" y="-14.3" font-family="Times,serif" font-size="14.00">PostmasterMain</text>
</g>
<!-- main&#45;&gt;PostmasterMain -->
<g id="edge6" class="edge">
<title>main&#45;&gt;PostmasterMain</title>
<path fill="none" stroke="black" d="M690.37,-77.6C714.78,-67.42 751.14,-52.27 780.78,-39.93"/>
<polygon fill="black" stroke="black" points="782.25,-43.1 790.14,-36.03 779.56,-36.64 782.25,-43.1"/>
</g>
<!-- MemoryContextInit -->
<g id="node8" class="node">
<title>MemoryContextInit</title>
<polygon fill="none" stroke="black" points="1073.5,-36 916.5,-36 916.5,0 1073.5,0 1073.5,-36"/>
<text text-anchor="middle" x="995" y="-14.3" font-family="Times,serif" font-size="14.00">MemoryContextInit</text>
</g>
<!-- main&#45;&gt;MemoryContextInit -->
<g id="edge7" class="edge">
<title>main&#45;&gt;MemoryContextInit</title>
<path fill="none" stroke="black" d="M690.17,-83.27C736.83,-73.43 834.16,-52.91 906.34,-37.69"/>
<polygon fill="black" stroke="black" points="907.29,-41.07 916.36,-35.58 905.85,-34.22 907.29,-41.07"/>
</g>
<!-- SubPostmasterMain -->
<g id="node9" class="node">
<title>SubPostmasterMain</title>
<polygon fill="none" stroke="black" points="1252.5,-36 1091.5,-36 1091.5,0 1252.5,0 1252.5,-36"/>
<text text-anchor="middle" x="1172" y="-14.3" font-family="Times,serif" font-size="14.00">SubPostmasterMain</text>
</g>
<!-- main&#45;&gt;SubPostmasterMain -->
<g id="edge8" class="edge">
<title>main&#45;&gt;SubPostmasterMain</title>
<path fill="none" stroke="black" d="M690.11,-86.18C755.58,-79.24 927.67,-60.24 1080.96,-36.28"/>
<polygon fill="black" stroke="black" points="1081.7,-39.7 1091.03,-34.69 1080.61,-32.79 1081.7,-39.7"/>
</g>
</g>
</svg>
