<?xml version="1.0" encoding="UTF-8" standalone="no"?>
<!DOCTYPE svg PUBLIC "-//W3C//DTD SVG 1.1//EN"
 "http://www.w3.org/Graphics/SVG/1.1/DTD/svg11.dtd">
<!-- Generated by graphviz version 2.43.0 (0)
 -->
<!-- Title: cflow Pages: 1 -->
<svg width="5447pt" height="332pt"
 viewBox="0.00 0.00 5446.50 332.00" xmlns="http://www.w3.org/2000/svg" xmlns:xlink="http://www.w3.org/1999/xlink">
<g id="graph0" class="graph" transform="scale(1 1) rotate(0) translate(4 328)">
<title>cflow</title>
<polygon fill="white" stroke="transparent" points="-4,4 -4,-328 5442.5,-328 5442.5,4 -4,4"/>
<!-- ParallelQueryMain -->
<g id="node1" class="node">
<title>ParallelQueryMain</title>
<polygon fill="none" stroke="black" points="3713,-324 3563,-324 3563,-288 3713,-288 3713,-324"/>
<text text-anchor="middle" x="3638" y="-302.3" font-family="Times,serif" font-size="14.00">ParallelQueryMain</text>
</g>
<!-- ExecParallelGetQueryDesc -->
<g id="node2" class="node">
<title>ExecParallelGetQueryDesc</title>
<polygon fill="none" stroke="black" points="426.5,-252 217.5,-252 217.5,-216 426.5,-216 426.5,-252"/>
<text text-anchor="middle" x="322" y="-230.3" font-family="Times,serif" font-size="14.00">ExecParallelGetQueryDesc</text>
</g>
<!-- ParallelQueryMain&#45;&gt;ExecParallelGetQueryDesc -->
<g id="edge1" class="edge">
<title>ParallelQueryMain&#45;&gt;ExecParallelGetQueryDesc</title>
<path fill="none" stroke="black" d="M3562.9,-303.98C3237.38,-299.49 1916.04,-280.36 831,-252 695.63,-248.46 540.06,-243.07 436.91,-239.31"/>
<polygon fill="black" stroke="black" points="436.9,-235.81 426.78,-238.94 436.65,-242.81 436.9,-235.81"/>
</g>
<!-- ExecParallelReportInstrumentation -->
<g id="node3" class="node">
<title>ExecParallelReportInstrumentation</title>
<polygon fill="none" stroke="black" points="1110,-252 840,-252 840,-216 1110,-216 1110,-252"/>
<text text-anchor="middle" x="975" y="-230.3" font-family="Times,serif" font-size="14.00">ExecParallelReportInstrumentation</text>
</g>
<!-- ParallelQueryMain&#45;&gt;ExecParallelReportInstrumentation -->
<g id="edge38" class="edge">
<title>ParallelQueryMain&#45;&gt;ExecParallelReportInstrumentation</title>
<path fill="none" stroke="black" d="M3562.75,-304.88C3263.48,-304.07 2128.59,-297.95 1196,-252 1171.49,-250.79 1145.47,-249.13 1120.22,-247.32"/>
<polygon fill="black" stroke="black" points="1120.44,-243.82 1110.21,-246.59 1119.93,-250.81 1120.44,-243.82"/>
</g>
<!-- ExecParallelInitializeWorker -->
<g id="node4" class="node">
<title>ExecParallelInitializeWorker</title>
<polygon fill="none" stroke="black" points="3202.5,-252 2983.5,-252 2983.5,-216 3202.5,-216 3202.5,-252"/>
<text text-anchor="middle" x="3093" y="-230.3" font-family="Times,serif" font-size="14.00">ExecParallelInitializeWorker</text>
</g>
<!-- ParallelQueryMain&#45;&gt;ExecParallelInitializeWorker -->
<g id="edge56" class="edge">
<title>ParallelQueryMain&#45;&gt;ExecParallelInitializeWorker</title>
<path fill="none" stroke="black" d="M3562.79,-295.34C3472.41,-283.73 3319.62,-264.11 3212.91,-250.4"/>
<polygon fill="black" stroke="black" points="3213.09,-246.9 3202.73,-249.09 3212.2,-253.84 3213.09,-246.9"/>
</g>
<!-- ExecutorFinish -->
<g id="node7" class="node">
<title>ExecutorFinish</title>
<polygon fill="none" stroke="black" points="3363.5,-252 3238.5,-252 3238.5,-216 3363.5,-216 3363.5,-252"/>
<text text-anchor="middle" x="3301" y="-230.3" font-family="Times,serif" font-size="14.00">ExecutorFinish</text>
</g>
<!-- ParallelQueryMain&#45;&gt;ExecutorFinish -->
<g id="edge5" class="edge">
<title>ParallelQueryMain&#45;&gt;ExecutorFinish</title>
<path fill="none" stroke="black" d="M3562.74,-290.8C3511.78,-281 3442.7,-267.36 3373.46,-252.28"/>
<polygon fill="black" stroke="black" points="3374.21,-248.87 3363.69,-250.15 3372.71,-255.7 3374.21,-248.87"/>
</g>
<!-- ExecSetTupleBound -->
<g id="node16" class="node">
<title>ExecSetTupleBound</title>
<polygon fill="none" stroke="black" points="3542.5,-252 3381.5,-252 3381.5,-216 3542.5,-216 3542.5,-252"/>
<text text-anchor="middle" x="3462" y="-230.3" font-family="Times,serif" font-size="14.00">ExecSetTupleBound</text>
</g>
<!-- ParallelQueryMain&#45;&gt;ExecSetTupleBound -->
<g id="edge34" class="edge">
<title>ParallelQueryMain&#45;&gt;ExecSetTupleBound</title>
<path fill="none" stroke="black" d="M3594.95,-287.88C3570.67,-278.22 3540.16,-266.09 3514.49,-255.88"/>
<polygon fill="black" stroke="black" points="3515.5,-252.51 3504.91,-252.07 3512.91,-259.02 3515.5,-252.51"/>
</g>
<!-- ExecutorStart -->
<g id="node22" class="node">
<title>ExecutorStart</title>
<polygon fill="none" stroke="black" points="3697,-252 3579,-252 3579,-216 3697,-216 3697,-252"/>
<text text-anchor="middle" x="3638" y="-230.3" font-family="Times,serif" font-size="14.00">ExecutorStart</text>
</g>
<!-- ParallelQueryMain&#45;&gt;ExecutorStart -->
<g id="edge17" class="edge">
<title>ParallelQueryMain&#45;&gt;ExecutorStart</title>
<path fill="none" stroke="black" d="M3638,-287.7C3638,-279.98 3638,-270.71 3638,-262.11"/>
<polygon fill="black" stroke="black" points="3641.5,-262.1 3638,-252.1 3634.5,-262.1 3641.5,-262.1"/>
</g>
<!-- RestoreParamExecParams -->
<g id="node26" class="node">
<title>RestoreParamExecParams</title>
<polygon fill="none" stroke="black" points="3921,-252 3715,-252 3715,-216 3921,-216 3921,-252"/>
<text text-anchor="middle" x="3818" y="-230.3" font-family="Times,serif" font-size="14.00">RestoreParamExecParams</text>
</g>
<!-- ParallelQueryMain&#45;&gt;RestoreParamExecParams -->
<g id="edge20" class="edge">
<title>ParallelQueryMain&#45;&gt;RestoreParamExecParams</title>
<path fill="none" stroke="black" d="M3682.03,-287.88C3706.97,-278.18 3738.34,-265.98 3764.66,-255.74"/>
<polygon fill="black" stroke="black" points="3766.06,-258.95 3774.11,-252.07 3763.52,-252.43 3766.06,-258.95"/>
</g>
<!-- InstrEndParallelQuery -->
<g id="node27" class="node">
<title>InstrEndParallelQuery</title>
<polygon fill="none" stroke="black" points="4116.5,-252 3939.5,-252 3939.5,-216 4116.5,-216 4116.5,-252"/>
<text text-anchor="middle" x="4028" y="-230.3" font-family="Times,serif" font-size="14.00">InstrEndParallelQuery</text>
</g>
<!-- ParallelQueryMain&#45;&gt;InstrEndParallelQuery -->
<g id="edge21" class="edge">
<title>ParallelQueryMain&#45;&gt;InstrEndParallelQuery</title>
<path fill="none" stroke="black" d="M3713.2,-291.5C3774.67,-280.47 3862.09,-264.78 3929.21,-252.73"/>
<polygon fill="black" stroke="black" points="3930.16,-256.12 3939.38,-250.91 3928.92,-249.23 3930.16,-256.12"/>
</g>
<!-- InstrStartParallelQuery -->
<g id="node28" class="node">
<title>InstrStartParallelQuery</title>
<polygon fill="none" stroke="black" points="4319.5,-252 4134.5,-252 4134.5,-216 4319.5,-216 4319.5,-252"/>
<text text-anchor="middle" x="4227" y="-230.3" font-family="Times,serif" font-size="14.00">InstrStartParallelQuery</text>
</g>
<!-- ParallelQueryMain&#45;&gt;InstrStartParallelQuery -->
<g id="edge23" class="edge">
<title>ParallelQueryMain&#45;&gt;InstrStartParallelQuery</title>
<path fill="none" stroke="black" d="M3713.25,-298.15C3807.01,-289.31 3972.37,-272.73 4124.47,-252.03"/>
<polygon fill="black" stroke="black" points="4125.04,-255.48 4134.47,-250.66 4124.09,-248.55 4125.04,-255.48"/>
</g>
<!-- Assert -->
<g id="node29" class="node">
<title>Assert</title>
<polygon fill="none" stroke="black" points="1265,-108 1203,-108 1203,-72 1265,-72 1265,-108"/>
<text text-anchor="middle" x="1234" y="-86.3" font-family="Times,serif" font-size="14.00">Assert</text>
</g>
<!-- ParallelQueryMain&#45;&gt;Assert -->
<g id="edge24" class="edge">
<title>ParallelQueryMain&#45;&gt;Assert</title>
<path fill="none" stroke="black" d="M3562.78,-304.33C3166.14,-300.67 1333.92,-282.14 1284,-252 1239.19,-224.95 1232.58,-157.12 1232.68,-118.69"/>
<polygon fill="black" stroke="black" points="1236.18,-118.29 1232.87,-108.23 1229.18,-118.17 1236.18,-118.29"/>
</g>
<!-- ExecParallelGetReceiver -->
<g id="node33" class="node">
<title>ExecParallelGetReceiver</title>
<polygon fill="none" stroke="black" points="4530.5,-252 4337.5,-252 4337.5,-216 4530.5,-216 4530.5,-252"/>
<text text-anchor="middle" x="4434" y="-230.3" font-family="Times,serif" font-size="14.00">ExecParallelGetReceiver</text>
</g>
<!-- ParallelQueryMain&#45;&gt;ExecParallelGetReceiver -->
<g id="edge37" class="edge">
<title>ParallelQueryMain&#45;&gt;ExecParallelGetReceiver</title>
<path fill="none" stroke="black" d="M3713.24,-301.25C3838.4,-294.58 4097.45,-278.85 4327.06,-252.05"/>
<polygon fill="black" stroke="black" points="4327.76,-255.49 4337.28,-250.85 4326.94,-248.54 4327.76,-255.49"/>
</g>
<!-- FreeQueryDesc -->
<g id="node38" class="node">
<title>FreeQueryDesc</title>
<polygon fill="none" stroke="black" points="1421,-252 1293,-252 1293,-216 1421,-216 1421,-252"/>
<text text-anchor="middle" x="1357" y="-230.3" font-family="Times,serif" font-size="14.00">FreeQueryDesc</text>
</g>
<!-- ParallelQueryMain&#45;&gt;FreeQueryDesc -->
<g id="edge51" class="edge">
<title>ParallelQueryMain&#45;&gt;FreeQueryDesc</title>
<path fill="none" stroke="black" d="M3562.76,-302.69C3216.2,-292.06 1776.01,-247.86 1431.35,-237.28"/>
<polygon fill="black" stroke="black" points="1431.33,-233.78 1421.23,-236.97 1431.12,-240.78 1431.33,-233.78"/>
</g>
<!-- ExecutorRun -->
<g id="node41" class="node">
<title>ExecutorRun</title>
<polygon fill="none" stroke="black" points="4659,-252 4549,-252 4549,-216 4659,-216 4659,-252"/>
<text text-anchor="middle" x="4604" y="-230.3" font-family="Times,serif" font-size="14.00">ExecutorRun</text>
</g>
<!-- ParallelQueryMain&#45;&gt;ExecutorRun -->
<g id="edge36" class="edge">
<title>ParallelQueryMain&#45;&gt;ExecutorRun</title>
<path fill="none" stroke="black" d="M3713.09,-305.66C3866.83,-305.91 4228.36,-300.87 4538.9,-251.97"/>
<polygon fill="black" stroke="black" points="4539.67,-255.39 4548.99,-250.36 4538.57,-248.48 4539.67,-255.39"/>
</g>
<!-- ExecutorEnd -->
<g id="node43" class="node">
<title>ExecutorEnd</title>
<polygon fill="none" stroke="black" points="4787,-252 4677,-252 4677,-216 4787,-216 4787,-252"/>
<text text-anchor="middle" x="4732" y="-230.3" font-family="Times,serif" font-size="14.00">ExecutorEnd</text>
</g>
<!-- ParallelQueryMain&#45;&gt;ExecutorEnd -->
<g id="edge44" class="edge">
<title>ParallelQueryMain&#45;&gt;ExecutorEnd</title>
<path fill="none" stroke="black" d="M3713.28,-303.16C3914.97,-297.91 4465.24,-281.42 4667.08,-251.89"/>
<polygon fill="black" stroke="black" points="4667.64,-255.35 4677,-250.39 4666.59,-248.43 4667.64,-255.35"/>
</g>
<!-- DsaPointerIsValid -->
<g id="node52" class="node">
<title>DsaPointerIsValid</title>
<polygon fill="none" stroke="black" points="4948.5,-252 4805.5,-252 4805.5,-216 4948.5,-216 4948.5,-252"/>
<text text-anchor="middle" x="4877" y="-230.3" font-family="Times,serif" font-size="14.00">DsaPointerIsValid</text>
</g>
<!-- ParallelQueryMain&#45;&gt;DsaPointerIsValid -->
<g id="edge58" class="edge">
<title>ParallelQueryMain&#45;&gt;DsaPointerIsValid</title>
<path fill="none" stroke="black" d="M3713.21,-305.74C3896.73,-306.64 4382.06,-303.61 4795.06,-251.98"/>
<polygon fill="black" stroke="black" points="4795.63,-255.44 4805.11,-250.71 4794.75,-248.49 4795.63,-255.44"/>
</g>
<!-- CreateQueryDesc -->
<g id="node8" class="node">
<title>CreateQueryDesc</title>
<polygon fill="none" stroke="black" points="143.5,-180 0.5,-180 0.5,-144 143.5,-144 143.5,-180"/>
<text text-anchor="middle" x="72" y="-158.3" font-family="Times,serif" font-size="14.00">CreateQueryDesc</text>
</g>
<!-- ExecParallelGetQueryDesc&#45;&gt;CreateQueryDesc -->
<g id="edge6" class="edge">
<title>ExecParallelGetQueryDesc&#45;&gt;CreateQueryDesc</title>
<path fill="none" stroke="black" d="M261.16,-215.97C225.47,-205.97 180.21,-193.3 142.91,-182.85"/>
<polygon fill="black" stroke="black" points="143.68,-179.44 133.11,-180.11 141.8,-186.18 143.68,-179.44"/>
</g>
<!-- GetActiveSnapshot -->
<g id="node31" class="node">
<title>GetActiveSnapshot</title>
<polygon fill="none" stroke="black" points="314.5,-180 161.5,-180 161.5,-144 314.5,-144 314.5,-180"/>
<text text-anchor="middle" x="238" y="-158.3" font-family="Times,serif" font-size="14.00">GetActiveSnapshot</text>
</g>
<!-- ExecParallelGetQueryDesc&#45;&gt;GetActiveSnapshot -->
<g id="edge27" class="edge">
<title>ExecParallelGetQueryDesc&#45;&gt;GetActiveSnapshot</title>
<path fill="none" stroke="black" d="M301.24,-215.7C290.76,-206.97 277.89,-196.24 266.5,-186.75"/>
<polygon fill="black" stroke="black" points="268.45,-183.82 258.53,-180.1 263.97,-189.19 268.45,-183.82"/>
</g>
<!-- RestoreParamList -->
<g id="node46" class="node">
<title>RestoreParamList</title>
<polygon fill="none" stroke="black" points="477.5,-180 332.5,-180 332.5,-144 477.5,-144 477.5,-180"/>
<text text-anchor="middle" x="405" y="-158.3" font-family="Times,serif" font-size="14.00">RestoreParamList</text>
</g>
<!-- ExecParallelGetQueryDesc&#45;&gt;RestoreParamList -->
<g id="edge47" class="edge">
<title>ExecParallelGetQueryDesc&#45;&gt;RestoreParamList</title>
<path fill="none" stroke="black" d="M342.52,-215.7C352.87,-206.97 365.59,-196.24 376.84,-186.75"/>
<polygon fill="black" stroke="black" points="379.33,-189.23 384.72,-180.1 374.82,-183.88 379.33,-189.23"/>
</g>
<!-- ExecParallelReportInstrumentation&#45;&gt;ExecParallelReportInstrumentation -->
<g id="edge2" class="edge">
<title>ExecParallelReportInstrumentation&#45;&gt;ExecParallelReportInstrumentation</title>
<path fill="none" stroke="black" d="M1110.03,-244.38C1121.12,-242.14 1128,-238.68 1128,-234 1128,-230.93 1125.04,-228.39 1119.87,-226.36"/>
<polygon fill="black" stroke="black" points="1120.61,-222.94 1110.03,-223.62 1118.72,-229.68 1120.61,-222.94"/>
</g>
<!-- GetInstrumentationArray -->
<g id="node6" class="node">
<title>GetInstrumentationArray</title>
<polygon fill="none" stroke="black" points="694,-180 496,-180 496,-144 694,-144 694,-180"/>
<text text-anchor="middle" x="595" y="-158.3" font-family="Times,serif" font-size="14.00">GetInstrumentationArray</text>
</g>
<!-- ExecParallelReportInstrumentation&#45;&gt;GetInstrumentationArray -->
<g id="edge4" class="edge">
<title>ExecParallelReportInstrumentation&#45;&gt;GetInstrumentationArray</title>
<path fill="none" stroke="black" d="M882.53,-215.97C826.56,-205.66 755.1,-192.49 697.42,-181.87"/>
<polygon fill="black" stroke="black" points="698.03,-178.42 687.56,-180.05 696.76,-185.3 698.03,-178.42"/>
</g>
<!-- InstrEndLoop -->
<g id="node11" class="node">
<title>InstrEndLoop</title>
<polygon fill="none" stroke="black" points="826,-180 712,-180 712,-144 826,-144 826,-180"/>
<text text-anchor="middle" x="769" y="-158.3" font-family="Times,serif" font-size="14.00">InstrEndLoop</text>
</g>
<!-- ExecParallelReportInstrumentation&#45;&gt;InstrEndLoop -->
<g id="edge39" class="edge">
<title>ExecParallelReportInstrumentation&#45;&gt;InstrEndLoop</title>
<path fill="none" stroke="black" d="M924.87,-215.97C895.96,-206.14 859.43,-193.73 829,-183.39"/>
<polygon fill="black" stroke="black" points="829.95,-180.01 819.35,-180.11 827.7,-186.64 829.95,-180.01"/>
</g>
<!-- InstrAggNode -->
<g id="node25" class="node">
<title>InstrAggNode</title>
<polygon fill="none" stroke="black" points="990,-180 874,-180 874,-144 990,-144 990,-180"/>
<text text-anchor="middle" x="932" y="-158.3" font-family="Times,serif" font-size="14.00">InstrAggNode</text>
</g>
<!-- ExecParallelReportInstrumentation&#45;&gt;InstrAggNode -->
<g id="edge57" class="edge">
<title>ExecParallelReportInstrumentation&#45;&gt;InstrAggNode</title>
<path fill="none" stroke="black" d="M964.37,-215.7C959.37,-207.56 953.31,-197.69 947.79,-188.7"/>
<polygon fill="black" stroke="black" points="950.72,-186.79 942.51,-180.1 944.76,-190.46 950.72,-186.79"/>
</g>
<!-- ExecParallelReportInstrumentation&#45;&gt;Assert -->
<g id="edge43" class="edge">
<title>ExecParallelReportInstrumentation&#45;&gt;Assert</title>
<path fill="none" stroke="black" d="M982.34,-215.73C991.89,-195.37 1010.56,-162.05 1037,-144 1093.63,-105.35 1121.33,-127.69 1187,-108 1188.93,-107.42 1190.9,-106.81 1192.88,-106.17"/>
<polygon fill="black" stroke="black" points="1194.45,-109.33 1202.81,-102.83 1192.22,-102.7 1194.45,-109.33"/>
</g>
<!-- IsParallelWorker -->
<g id="node30" class="node">
<title>IsParallelWorker</title>
<polygon fill="none" stroke="black" points="1181.5,-180 1046.5,-180 1046.5,-144 1181.5,-144 1181.5,-180"/>
<text text-anchor="middle" x="1114" y="-158.3" font-family="Times,serif" font-size="14.00">IsParallelWorker</text>
</g>
<!-- ExecParallelReportInstrumentation&#45;&gt;IsParallelWorker -->
<g id="edge26" class="edge">
<title>ExecParallelReportInstrumentation&#45;&gt;IsParallelWorker</title>
<path fill="none" stroke="black" d="M1009,-215.88C1027.6,-206.51 1050.83,-194.81 1070.71,-184.8"/>
<polygon fill="black" stroke="black" points="1072.51,-187.81 1079.87,-180.19 1069.36,-181.56 1072.51,-187.81"/>
</g>
<!-- ExecParallelInitializeWorker&#45;&gt;ExecParallelInitializeWorker -->
<g id="edge22" class="edge">
<title>ExecParallelInitializeWorker&#45;&gt;ExecParallelInitializeWorker</title>
<path fill="none" stroke="black" d="M3202.72,-245.01C3213.59,-242.8 3220.5,-239.13 3220.5,-234 3220.5,-230.63 3217.52,-227.89 3212.41,-225.79"/>
<polygon fill="black" stroke="black" points="3213.3,-222.4 3202.72,-222.99 3211.36,-229.13 3213.3,-222.4"/>
</g>
<!-- ExecAppendInitializeWorker -->
<g id="node5" class="node">
<title>ExecAppendInitializeWorker</title>
<polygon fill="none" stroke="black" points="1947.5,-180 1728.5,-180 1728.5,-144 1947.5,-144 1947.5,-180"/>
<text text-anchor="middle" x="1838" y="-158.3" font-family="Times,serif" font-size="14.00">ExecAppendInitializeWorker</text>
</g>
<!-- ExecParallelInitializeWorker&#45;&gt;ExecAppendInitializeWorker -->
<g id="edge3" class="edge">
<title>ExecParallelInitializeWorker&#45;&gt;ExecAppendInitializeWorker</title>
<path fill="none" stroke="black" d="M2983.49,-231.36C2782.38,-227.58 2340.53,-215.73 1957.71,-180"/>
<polygon fill="black" stroke="black" points="1957.82,-176.5 1947.54,-179.05 1957.16,-183.47 1957.82,-176.5"/>
</g>
<!-- ExecHashInitializeWorker -->
<g id="node9" class="node">
<title>ExecHashInitializeWorker</title>
<polygon fill="none" stroke="black" points="2168,-180 1966,-180 1966,-144 2168,-144 2168,-180"/>
<text text-anchor="middle" x="2067" y="-158.3" font-family="Times,serif" font-size="14.00">ExecHashInitializeWorker</text>
</g>
<!-- ExecParallelInitializeWorker&#45;&gt;ExecHashInitializeWorker -->
<g id="edge7" class="edge">
<title>ExecParallelInitializeWorker&#45;&gt;ExecHashInitializeWorker</title>
<path fill="none" stroke="black" d="M2983.45,-230.04C2813.27,-224.7 2474.99,-211.07 2178.34,-180.08"/>
<polygon fill="black" stroke="black" points="2178.56,-176.59 2168.25,-179.02 2177.83,-183.55 2178.56,-176.59"/>
</g>
<!-- ExecHashJoinInitializeWorker -->
<g id="node10" class="node">
<title>ExecHashJoinInitializeWorker</title>
<polygon fill="none" stroke="black" points="2415.5,-180 2186.5,-180 2186.5,-144 2415.5,-144 2415.5,-180"/>
<text text-anchor="middle" x="2301" y="-158.3" font-family="Times,serif" font-size="14.00">ExecHashJoinInitializeWorker</text>
</g>
<!-- ExecParallelInitializeWorker&#45;&gt;ExecHashJoinInitializeWorker -->
<g id="edge8" class="edge">
<title>ExecParallelInitializeWorker&#45;&gt;ExecHashJoinInitializeWorker</title>
<path fill="none" stroke="black" d="M2983.48,-226.24C2853.14,-217.75 2628.71,-201.76 2425.77,-180.05"/>
<polygon fill="black" stroke="black" points="2426.14,-176.57 2415.82,-178.98 2425.39,-183.53 2426.14,-176.57"/>
</g>
<!-- ExecForeignScanInitializeWorker -->
<g id="node14" class="node">
<title>ExecForeignScanInitializeWorker</title>
<polygon fill="none" stroke="black" points="2688,-180 2434,-180 2434,-144 2688,-144 2688,-180"/>
<text text-anchor="middle" x="2561" y="-158.3" font-family="Times,serif" font-size="14.00">ExecForeignScanInitializeWorker</text>
</g>
<!-- ExecParallelInitializeWorker&#45;&gt;ExecForeignScanInitializeWorker -->
<g id="edge11" class="edge">
<title>ExecParallelInitializeWorker&#45;&gt;ExecForeignScanInitializeWorker</title>
<path fill="none" stroke="black" d="M2983.41,-218.58C2900.82,-207.71 2787.02,-192.74 2698.35,-181.07"/>
<polygon fill="black" stroke="black" points="2698.58,-177.57 2688.21,-179.74 2697.67,-184.51 2698.58,-177.57"/>
</g>
<!-- ExecIndexOnlyScanInitializeWorker -->
<g id="node18" class="node">
<title>ExecIndexOnlyScanInitializeWorker</title>
<polygon fill="none" stroke="black" points="2978,-180 2706,-180 2706,-144 2978,-144 2978,-180"/>
<text text-anchor="middle" x="2842" y="-158.3" font-family="Times,serif" font-size="14.00">ExecIndexOnlyScanInitializeWorker</text>
</g>
<!-- ExecParallelInitializeWorker&#45;&gt;ExecIndexOnlyScanInitializeWorker -->
<g id="edge14" class="edge">
<title>ExecParallelInitializeWorker&#45;&gt;ExecIndexOnlyScanInitializeWorker</title>
<path fill="none" stroke="black" d="M3031.92,-215.97C2996.09,-205.97 2950.64,-193.3 2913.19,-182.85"/>
<polygon fill="black" stroke="black" points="2913.93,-179.43 2903.35,-180.11 2912.05,-186.17 2913.93,-179.43"/>
</g>
<!-- ExecAggInitializeWorker -->
<g id="node36" class="node">
<title>ExecAggInitializeWorker</title>
<polygon fill="none" stroke="black" points="3189.5,-180 2996.5,-180 2996.5,-144 3189.5,-144 3189.5,-180"/>
<text text-anchor="middle" x="3093" y="-158.3" font-family="Times,serif" font-size="14.00">ExecAggInitializeWorker</text>
</g>
<!-- ExecParallelInitializeWorker&#45;&gt;ExecAggInitializeWorker -->
<g id="edge31" class="edge">
<title>ExecParallelInitializeWorker&#45;&gt;ExecAggInitializeWorker</title>
<path fill="none" stroke="black" d="M3093,-215.7C3093,-207.98 3093,-198.71 3093,-190.11"/>
<polygon fill="black" stroke="black" points="3096.5,-190.1 3093,-180.1 3089.5,-190.1 3096.5,-190.1"/>
</g>
<!-- ExecSeqScanInitializeWorker -->
<g id="node40" class="node">
<title>ExecSeqScanInitializeWorker</title>
<polygon fill="none" stroke="black" points="3434.5,-180 3207.5,-180 3207.5,-144 3434.5,-144 3434.5,-180"/>
<text text-anchor="middle" x="3321" y="-158.3" font-family="Times,serif" font-size="14.00">ExecSeqScanInitializeWorker</text>
</g>
<!-- ExecParallelInitializeWorker&#45;&gt;ExecSeqScanInitializeWorker -->
<g id="edge35" class="edge">
<title>ExecParallelInitializeWorker&#45;&gt;ExecSeqScanInitializeWorker</title>
<path fill="none" stroke="black" d="M3148.48,-215.97C3180.76,-206.06 3221.61,-193.51 3255.46,-183.12"/>
<polygon fill="black" stroke="black" points="3256.74,-186.39 3265.27,-180.11 3254.68,-179.7 3256.74,-186.39"/>
</g>
<!-- ExecSortInitializeWorker -->
<g id="node42" class="node">
<title>ExecSortInitializeWorker</title>
<polygon fill="none" stroke="black" points="3649,-180 3453,-180 3453,-144 3649,-144 3649,-180"/>
<text text-anchor="middle" x="3551" y="-158.3" font-family="Times,serif" font-size="14.00">ExecSortInitializeWorker</text>
</g>
<!-- ExecParallelInitializeWorker&#45;&gt;ExecSortInitializeWorker -->
<g id="edge40" class="edge">
<title>ExecParallelInitializeWorker&#45;&gt;ExecSortInitializeWorker</title>
<path fill="none" stroke="black" d="M3202.59,-216.57C3271.59,-206.19 3362.52,-192.43 3443,-180 3443.1,-179.98 3443.21,-179.97 3443.31,-179.95"/>
<polygon fill="black" stroke="black" points="3443.65,-183.44 3452.99,-178.45 3442.58,-176.52 3443.65,-183.44"/>
</g>
<!-- ExecBitmapHeapInitializeWorker -->
<g id="node45" class="node">
<title>ExecBitmapHeapInitializeWorker</title>
<polygon fill="none" stroke="black" points="1710,-180 1456,-180 1456,-144 1710,-144 1710,-180"/>
<text text-anchor="middle" x="1583" y="-158.3" font-family="Times,serif" font-size="14.00">ExecBitmapHeapInitializeWorker</text>
</g>
<!-- ExecParallelInitializeWorker&#45;&gt;ExecBitmapHeapInitializeWorker -->
<g id="edge46" class="edge">
<title>ExecParallelInitializeWorker&#45;&gt;ExecBitmapHeapInitializeWorker</title>
<path fill="none" stroke="black" d="M2983.27,-231.96C2751.78,-229.07 2196.25,-218.46 1720.18,-180.05"/>
<polygon fill="black" stroke="black" points="1720.26,-176.55 1710.01,-179.23 1719.7,-183.52 1720.26,-176.55"/>
</g>
<!-- ExecMemoizeInitializeWorker -->
<g id="node48" class="node">
<title>ExecMemoizeInitializeWorker</title>
<polygon fill="none" stroke="black" points="3897,-180 3667,-180 3667,-144 3897,-144 3897,-180"/>
<text text-anchor="middle" x="3782" y="-158.3" font-family="Times,serif" font-size="14.00">ExecMemoizeInitializeWorker</text>
</g>
<!-- ExecParallelInitializeWorker&#45;&gt;ExecMemoizeInitializeWorker -->
<g id="edge49" class="edge">
<title>ExecParallelInitializeWorker&#45;&gt;ExecMemoizeInitializeWorker</title>
<path fill="none" stroke="black" d="M3202.81,-218.88C3211.67,-217.87 3220.48,-216.89 3229,-216 3416.05,-196.47 3466.12,-200.84 3656.77,-180.1"/>
<polygon fill="black" stroke="black" points="3657.29,-183.57 3666.85,-179 3656.53,-176.61 3657.29,-183.57"/>
</g>
<!-- ExecIncrementalSortInitializeWorker -->
<g id="node50" class="node">
<title>ExecIncrementalSortInitializeWorker</title>
<polygon fill="none" stroke="black" points="4197,-180 3915,-180 3915,-144 4197,-144 4197,-180"/>
<text text-anchor="middle" x="4056" y="-158.3" font-family="Times,serif" font-size="14.00">ExecIncrementalSortInitializeWorker</text>
</g>
<!-- ExecParallelInitializeWorker&#45;&gt;ExecIncrementalSortInitializeWorker -->
<g id="edge54" class="edge">
<title>ExecParallelInitializeWorker&#45;&gt;ExecIncrementalSortInitializeWorker</title>
<path fill="none" stroke="black" d="M3202.78,-218.6C3211.65,-217.64 3220.47,-216.76 3229,-216 3525.76,-189.6 3603.97,-204.63 3904.38,-180.1"/>
<polygon fill="black" stroke="black" points="3905.02,-183.56 3914.7,-179.25 3904.45,-176.59 3905.02,-183.56"/>
</g>
<!-- ExecCustomScanInitializeWorker -->
<g id="node51" class="node">
<title>ExecCustomScanInitializeWorker</title>
<polygon fill="none" stroke="black" points="4469,-180 4215,-180 4215,-144 4469,-144 4469,-180"/>
<text text-anchor="middle" x="4342" y="-158.3" font-family="Times,serif" font-size="14.00">ExecCustomScanInitializeWorker</text>
</g>
<!-- ExecParallelInitializeWorker&#45;&gt;ExecCustomScanInitializeWorker -->
<g id="edge55" class="edge">
<title>ExecParallelInitializeWorker&#45;&gt;ExecCustomScanInitializeWorker</title>
<path fill="none" stroke="black" d="M3202.77,-218.44C3211.64,-217.52 3220.46,-216.69 3229,-216 3658.83,-181.28 3771.2,-214.47 4205.01,-180.03"/>
<polygon fill="black" stroke="black" points="4205.3,-183.52 4214.99,-179.23 4204.74,-176.54 4205.3,-183.52"/>
</g>
<!-- ExecIndexScanInitializeWorker -->
<g id="node53" class="node">
<title>ExecIndexScanInitializeWorker</title>
<polygon fill="none" stroke="black" points="4726.5,-180 4487.5,-180 4487.5,-144 4726.5,-144 4726.5,-180"/>
<text text-anchor="middle" x="4607" y="-158.3" font-family="Times,serif" font-size="14.00">ExecIndexScanInitializeWorker</text>
</g>
<!-- ExecParallelInitializeWorker&#45;&gt;ExecIndexScanInitializeWorker -->
<g id="edge59" class="edge">
<title>ExecParallelInitializeWorker&#45;&gt;ExecIndexScanInitializeWorker</title>
<path fill="none" stroke="black" d="M3202.76,-218.37C3211.63,-217.46 3220.46,-216.66 3229,-216 3779.33,-173.77 3922.69,-223.72 4476.96,-180.02"/>
<polygon fill="black" stroke="black" points="4477.53,-183.49 4487.22,-179.21 4476.98,-176.51 4477.53,-183.49"/>
</g>
<!-- RegisterSnapshot -->
<g id="node15" class="node">
<title>RegisterSnapshot</title>
<polygon fill="none" stroke="black" points="144,-108 0,-108 0,-72 144,-72 144,-108"/>
<text text-anchor="middle" x="72" y="-86.3" font-family="Times,serif" font-size="14.00">RegisterSnapshot</text>
</g>
<!-- CreateQueryDesc&#45;&gt;RegisterSnapshot -->
<g id="edge12" class="edge">
<title>CreateQueryDesc&#45;&gt;RegisterSnapshot</title>
<path fill="none" stroke="black" d="M72,-143.7C72,-135.98 72,-126.71 72,-118.11"/>
<polygon fill="black" stroke="black" points="75.5,-118.1 72,-108.1 68.5,-118.1 75.5,-118.1"/>
</g>
<!-- ExecParallelHashJoin -->
<g id="node19" class="node">
<title>ExecParallelHashJoin</title>
<polygon fill="none" stroke="black" points="2193.5,-108 2024.5,-108 2024.5,-72 2193.5,-72 2193.5,-108"/>
<text text-anchor="middle" x="2109" y="-86.3" font-family="Times,serif" font-size="14.00">ExecParallelHashJoin</text>
</g>
<!-- ExecHashJoinInitializeWorker&#45;&gt;ExecParallelHashJoin -->
<g id="edge15" class="edge">
<title>ExecHashJoinInitializeWorker&#45;&gt;ExecParallelHashJoin</title>
<path fill="none" stroke="black" d="M2254.03,-143.88C2227.32,-134.14 2193.68,-121.87 2165.53,-111.61"/>
<polygon fill="black" stroke="black" points="2166.41,-108.21 2155.82,-108.07 2164.01,-114.78 2166.41,-108.21"/>
</g>
<!-- ExecSetExecProcNode -->
<g id="node44" class="node">
<title>ExecSetExecProcNode</title>
<polygon fill="none" stroke="black" points="2390.5,-108 2211.5,-108 2211.5,-72 2390.5,-72 2390.5,-108"/>
<text text-anchor="middle" x="2301" y="-86.3" font-family="Times,serif" font-size="14.00">ExecSetExecProcNode</text>
</g>
<!-- ExecHashJoinInitializeWorker&#45;&gt;ExecSetExecProcNode -->
<g id="edge45" class="edge">
<title>ExecHashJoinInitializeWorker&#45;&gt;ExecSetExecProcNode</title>
<path fill="none" stroke="black" d="M2301,-143.7C2301,-135.98 2301,-126.71 2301,-118.11"/>
<polygon fill="black" stroke="black" points="2304.5,-118.1 2301,-108.1 2297.5,-118.1 2304.5,-118.1"/>
</g>
<!-- SharedFileSetAttach -->
<g id="node49" class="node">
<title>SharedFileSetAttach</title>
<polygon fill="none" stroke="black" points="2573.5,-108 2408.5,-108 2408.5,-72 2573.5,-72 2573.5,-108"/>
<text text-anchor="middle" x="2491" y="-86.3" font-family="Times,serif" font-size="14.00">SharedFileSetAttach</text>
</g>
<!-- ExecHashJoinInitializeWorker&#45;&gt;SharedFileSetAttach -->
<g id="edge53" class="edge">
<title>ExecHashJoinInitializeWorker&#45;&gt;SharedFileSetAttach</title>
<path fill="none" stroke="black" d="M2347.48,-143.88C2373.92,-134.14 2407.2,-121.87 2435.06,-111.61"/>
<polygon fill="black" stroke="black" points="2436.5,-114.81 2444.67,-108.07 2434.08,-108.24 2436.5,-114.81"/>
</g>
<!-- INSTR_TIME_SET_ZERO -->
<g id="node12" class="node">
<title>INSTR_TIME_SET_ZERO</title>
<polygon fill="none" stroke="black" points="420,-108 226,-108 226,-72 420,-72 420,-108"/>
<text text-anchor="middle" x="323" y="-86.3" font-family="Times,serif" font-size="14.00">INSTR_TIME_SET_ZERO</text>
</g>
<!-- InstrEndLoop&#45;&gt;INSTR_TIME_SET_ZERO -->
<g id="edge9" class="edge">
<title>InstrEndLoop&#45;&gt;INSTR_TIME_SET_ZERO</title>
<path fill="none" stroke="black" d="M711.86,-145.83C708.87,-145.18 705.9,-144.56 703,-144 585.6,-121.25 552.28,-125.48 430.15,-108.13"/>
<polygon fill="black" stroke="black" points="430.43,-104.64 420.03,-106.67 429.43,-111.56 430.43,-104.64"/>
</g>
<!-- INSTR_TIME_IS_ZERO -->
<g id="node13" class="node">
<title>INSTR_TIME_IS_ZERO</title>
<polygon fill="none" stroke="black" points="617.5,-108 438.5,-108 438.5,-72 617.5,-72 617.5,-108"/>
<text text-anchor="middle" x="528" y="-86.3" font-family="Times,serif" font-size="14.00">INSTR_TIME_IS_ZERO</text>
</g>
<!-- InstrEndLoop&#45;&gt;INSTR_TIME_IS_ZERO -->
<g id="edge10" class="edge">
<title>InstrEndLoop&#45;&gt;INSTR_TIME_IS_ZERO</title>
<path fill="none" stroke="black" d="M711.89,-144.41C677.41,-134.4 633.25,-121.57 596.85,-111"/>
<polygon fill="black" stroke="black" points="597.38,-107.51 586.8,-108.08 595.43,-114.23 597.38,-107.51"/>
</g>
<!-- INSTR_TIME_GET_DOUBLE -->
<g id="node37" class="node">
<title>INSTR_TIME_GET_DOUBLE</title>
<polygon fill="none" stroke="black" points="854,-108 636,-108 636,-72 854,-72 854,-108"/>
<text text-anchor="middle" x="745" y="-86.3" font-family="Times,serif" font-size="14.00">INSTR_TIME_GET_DOUBLE</text>
</g>
<!-- InstrEndLoop&#45;&gt;INSTR_TIME_GET_DOUBLE -->
<g id="edge32" class="edge">
<title>InstrEndLoop&#45;&gt;INSTR_TIME_GET_DOUBLE</title>
<path fill="none" stroke="black" d="M763.07,-143.7C760.39,-135.9 757.17,-126.51 754.2,-117.83"/>
<polygon fill="black" stroke="black" points="757.42,-116.43 750.86,-108.1 750.8,-118.7 757.42,-116.43"/>
</g>
<!-- ExecSetTupleBound&#45;&gt;ExecSetTupleBound -->
<g id="edge42" class="edge">
<title>ExecSetTupleBound&#45;&gt;ExecSetTupleBound</title>
<path fill="none" stroke="black" d="M3542.77,-245.9C3553.43,-243.87 3560.5,-239.91 3560.5,-234 3560.5,-230.22 3557.6,-227.23 3552.71,-225.03"/>
<polygon fill="black" stroke="black" points="3553.35,-221.57 3542.77,-222.1 3551.37,-228.29 3553.35,-221.57"/>
</g>
<!-- IsA -->
<g id="node17" class="node">
<title>IsA</title>
<polygon fill="none" stroke="black" points="4799,-180 4745,-180 4745,-144 4799,-144 4799,-180"/>
<text text-anchor="middle" x="4772" y="-158.3" font-family="Times,serif" font-size="14.00">IsA</text>
</g>
<!-- ExecSetTupleBound&#45;&gt;IsA -->
<g id="edge13" class="edge">
<title>ExecSetTupleBound&#45;&gt;IsA</title>
<path fill="none" stroke="black" d="M3542.66,-219.17C3551.86,-217.93 3561.12,-216.83 3570,-216 3824.83,-192.11 4467.36,-239.39 4734.78,-179.56"/>
<polygon fill="black" stroke="black" points="4735.96,-182.88 4744.91,-177.2 4734.37,-176.07 4735.96,-182.88"/>
</g>
<!-- BufferUsageAdd -->
<g id="node20" class="node">
<title>BufferUsageAdd</title>
<polygon fill="none" stroke="black" points="1006,-108 872,-108 872,-72 1006,-72 1006,-108"/>
<text text-anchor="middle" x="939" y="-86.3" font-family="Times,serif" font-size="14.00">BufferUsageAdd</text>
</g>
<!-- INSTR_TIME_ADD -->
<g id="node21" class="node">
<title>INSTR_TIME_ADD</title>
<polygon fill="none" stroke="black" points="1060,-36 912,-36 912,0 1060,0 1060,-36"/>
<text text-anchor="middle" x="986" y="-14.3" font-family="Times,serif" font-size="14.00">INSTR_TIME_ADD</text>
</g>
<!-- BufferUsageAdd&#45;&gt;INSTR_TIME_ADD -->
<g id="edge16" class="edge">
<title>BufferUsageAdd&#45;&gt;INSTR_TIME_ADD</title>
<path fill="none" stroke="black" d="M950.62,-71.7C956.14,-63.47 962.85,-53.48 968.93,-44.42"/>
<polygon fill="black" stroke="black" points="971.85,-46.36 974.52,-36.1 966.04,-42.46 971.85,-46.36"/>
</g>
<!-- BufferUsageAccumDiff -->
<g id="node23" class="node">
<title>BufferUsageAccumDiff</title>
<polygon fill="none" stroke="black" points="4996.5,-180 4817.5,-180 4817.5,-144 4996.5,-144 4996.5,-180"/>
<text text-anchor="middle" x="4907" y="-158.3" font-family="Times,serif" font-size="14.00">BufferUsageAccumDiff</text>
</g>
<!-- INSTR_TIME_ACCUM_DIFF -->
<g id="node24" class="node">
<title>INSTR_TIME_ACCUM_DIFF</title>
<polygon fill="none" stroke="black" points="5014.5,-108 4799.5,-108 4799.5,-72 5014.5,-72 5014.5,-108"/>
<text text-anchor="middle" x="4907" y="-86.3" font-family="Times,serif" font-size="14.00">INSTR_TIME_ACCUM_DIFF</text>
</g>
<!-- BufferUsageAccumDiff&#45;&gt;INSTR_TIME_ACCUM_DIFF -->
<g id="edge18" class="edge">
<title>BufferUsageAccumDiff&#45;&gt;INSTR_TIME_ACCUM_DIFF</title>
<path fill="none" stroke="black" d="M4907,-143.7C4907,-135.98 4907,-126.71 4907,-118.11"/>
<polygon fill="black" stroke="black" points="4910.5,-118.1 4907,-108.1 4903.5,-118.1 4910.5,-118.1"/>
</g>
<!-- InstrAggNode&#45;&gt;BufferUsageAdd -->
<g id="edge19" class="edge">
<title>InstrAggNode&#45;&gt;BufferUsageAdd</title>
<path fill="none" stroke="black" d="M933.73,-143.7C934.5,-135.98 935.43,-126.71 936.29,-118.11"/>
<polygon fill="black" stroke="black" points="939.78,-118.4 937.29,-108.1 932.81,-117.71 939.78,-118.4"/>
</g>
<!-- InstrAggNode&#45;&gt;INSTR_TIME_ADD -->
<g id="edge50" class="edge">
<title>InstrAggNode&#45;&gt;INSTR_TIME_ADD</title>
<path fill="none" stroke="black" d="M975.56,-143.87C990.86,-135.49 1006.37,-123.74 1015,-108 1026.01,-87.91 1016.1,-62.97 1004.98,-44.6"/>
<polygon fill="black" stroke="black" points="1007.88,-42.65 999.51,-36.17 1002.01,-46.46 1007.88,-42.65"/>
</g>
<!-- WalUsageAdd -->
<g id="node32" class="node">
<title>WalUsageAdd</title>
<polygon fill="none" stroke="black" points="1178,-108 1062,-108 1062,-72 1178,-72 1178,-108"/>
<text text-anchor="middle" x="1120" y="-86.3" font-family="Times,serif" font-size="14.00">WalUsageAdd</text>
</g>
<!-- InstrAggNode&#45;&gt;WalUsageAdd -->
<g id="edge28" class="edge">
<title>InstrAggNode&#45;&gt;WalUsageAdd</title>
<path fill="none" stroke="black" d="M977.99,-143.88C1004.15,-134.14 1037.09,-121.87 1064.65,-111.61"/>
<polygon fill="black" stroke="black" points="1066.01,-114.84 1074.16,-108.07 1063.57,-108.28 1066.01,-114.84"/>
</g>
<!-- InstrEndParallelQuery&#45;&gt;BufferUsageAccumDiff -->
<g id="edge25" class="edge">
<title>InstrEndParallelQuery&#45;&gt;BufferUsageAccumDiff</title>
<path fill="none" stroke="black" d="M4116.74,-217C4119.52,-216.65 4122.28,-216.31 4125,-216 4423.79,-182.07 4504.19,-213.1 4807.53,-179.96"/>
<polygon fill="black" stroke="black" points="4807.93,-183.43 4817.49,-178.86 4807.16,-176.48 4807.93,-183.43"/>
</g>
<!-- WalUsageAccumDiff -->
<g id="node35" class="node">
<title>WalUsageAccumDiff</title>
<polygon fill="none" stroke="black" points="5175.5,-180 5014.5,-180 5014.5,-144 5175.5,-144 5175.5,-180"/>
<text text-anchor="middle" x="5095" y="-158.3" font-family="Times,serif" font-size="14.00">WalUsageAccumDiff</text>
</g>
<!-- InstrEndParallelQuery&#45;&gt;WalUsageAccumDiff -->
<g id="edge30" class="edge">
<title>InstrEndParallelQuery&#45;&gt;WalUsageAccumDiff</title>
<path fill="none" stroke="black" d="M4116.74,-216.96C4119.52,-216.62 4122.28,-216.29 4125,-216 4511.3,-174.44 4614.93,-224.02 5003.95,-180.14"/>
<polygon fill="black" stroke="black" points="5004.53,-183.6 5014.07,-178.98 5003.74,-176.64 5004.53,-183.6"/>
</g>
<!-- CreateTupleQueueDestReceiver -->
<g id="node34" class="node">
<title>CreateTupleQueueDestReceiver</title>
<polygon fill="none" stroke="black" points="5438.5,-180 5193.5,-180 5193.5,-144 5438.5,-144 5438.5,-180"/>
<text text-anchor="middle" x="5316" y="-158.3" font-family="Times,serif" font-size="14.00">CreateTupleQueueDestReceiver</text>
</g>
<!-- ExecParallelGetReceiver&#45;&gt;CreateTupleQueueDestReceiver -->
<g id="edge29" class="edge">
<title>ExecParallelGetReceiver&#45;&gt;CreateTupleQueueDestReceiver</title>
<path fill="none" stroke="black" d="M4530.71,-217.07C4533.84,-216.69 4536.94,-216.33 4540,-216 4822.11,-185.59 4897.36,-206 5183.05,-180.14"/>
<polygon fill="black" stroke="black" points="5183.67,-183.6 5193.3,-179.2 5183.03,-176.63 5183.67,-183.6"/>
</g>
<!-- FreeQueryDesc&#45;&gt;Assert -->
<g id="edge41" class="edge">
<title>FreeQueryDesc&#45;&gt;Assert</title>
<path fill="none" stroke="black" d="M1315.06,-215.87C1298.22,-207.23 1279.8,-195.3 1267,-180 1252.1,-162.19 1243.6,-137.03 1238.98,-117.99"/>
<polygon fill="black" stroke="black" points="1242.37,-117.14 1236.79,-108.14 1235.54,-118.66 1242.37,-117.14"/>
</g>
<!-- UnregisterSnapshot -->
<g id="node39" class="node">
<title>UnregisterSnapshot</title>
<polygon fill="none" stroke="black" points="1437.5,-180 1276.5,-180 1276.5,-144 1437.5,-144 1437.5,-180"/>
<text text-anchor="middle" x="1357" y="-158.3" font-family="Times,serif" font-size="14.00">UnregisterSnapshot</text>
</g>
<!-- FreeQueryDesc&#45;&gt;UnregisterSnapshot -->
<g id="edge33" class="edge">
<title>FreeQueryDesc&#45;&gt;UnregisterSnapshot</title>
<path fill="none" stroke="black" d="M1357,-215.7C1357,-207.98 1357,-198.71 1357,-190.11"/>
<polygon fill="black" stroke="black" points="1360.5,-190.1 1357,-180.1 1353.5,-190.1 1360.5,-190.1"/>
</g>
<!-- ExecBitmapHeapInitializeWorker&#45;&gt;Assert -->
<g id="edge52" class="edge">
<title>ExecBitmapHeapInitializeWorker&#45;&gt;Assert</title>
<path fill="none" stroke="black" d="M1498.07,-143.97C1427.37,-129.78 1329.75,-110.2 1275.18,-99.26"/>
<polygon fill="black" stroke="black" points="1275.67,-95.79 1265.18,-97.25 1274.3,-102.65 1275.67,-95.79"/>
</g>
<!-- MAXALIGN -->
<g id="node47" class="node">
<title>MAXALIGN</title>
<polygon fill="none" stroke="black" points="1632,-108 1534,-108 1534,-72 1632,-72 1632,-108"/>
<text text-anchor="middle" x="1583" y="-86.3" font-family="Times,serif" font-size="14.00">MAXALIGN</text>
</g>
<!-- ExecBitmapHeapInitializeWorker&#45;&gt;MAXALIGN -->
<g id="edge48" class="edge">
<title>ExecBitmapHeapInitializeWorker&#45;&gt;MAXALIGN</title>
<path fill="none" stroke="black" d="M1583,-143.7C1583,-135.98 1583,-126.71 1583,-118.11"/>
<polygon fill="black" stroke="black" points="1586.5,-118.1 1583,-108.1 1579.5,-118.1 1586.5,-118.1"/>
</g>
</g>
</svg>
