<?xml version="1.0" encoding="UTF-8" standalone="no"?>
<!DOCTYPE svg PUBLIC "-//W3C//DTD SVG 1.1//EN"
 "http://www.w3.org/Graphics/SVG/1.1/DTD/svg11.dtd">
<!-- Generated by graphviz version 2.43.0 (0)
 -->
<!-- Title: cflow Pages: 1 -->
<svg width="1635pt" height="260pt"
 viewBox="0.00 0.00 1635.00 260.00" xmlns="http://www.w3.org/2000/svg" xmlns:xlink="http://www.w3.org/1999/xlink">
<g id="graph0" class="graph" transform="scale(1 1) rotate(0) translate(4 256)">
<title>cflow</title>
<polygon fill="white" stroke="transparent" points="-4,4 -4,-256 1631,-256 1631,4 -4,4"/>
<!-- PgArchiverMain -->
<g id="node1" class="node">
<title>PgArchiverMain</title>
<polygon fill="none" stroke="black" points="981,-252 849,-252 849,-216 981,-216 981,-252"/>
<text text-anchor="middle" x="915" y="-230.3" font-family="Times,serif" font-size="14.00">PgArchiverMain</text>
</g>
<!-- SignalHandlerForConfigReload -->
<g id="node2" class="node">
<title>SignalHandlerForConfigReload</title>
<polygon fill="none" stroke="black" points="281,-180 43,-180 43,-144 281,-144 281,-180"/>
<text text-anchor="middle" x="162" y="-158.3" font-family="Times,serif" font-size="14.00">SignalHandlerForConfigReload</text>
</g>
<!-- PgArchiverMain&#45;&gt;SignalHandlerForConfigReload -->
<g id="edge1" class="edge">
<title>PgArchiverMain&#45;&gt;SignalHandlerForConfigReload</title>
<path fill="none" stroke="black" d="M848.92,-227.74C737.92,-218.78 507.01,-199.62 312,-180 305.25,-179.32 298.34,-178.61 291.36,-177.87"/>
<polygon fill="black" stroke="black" points="291.42,-174.36 281.1,-176.78 290.67,-181.32 291.42,-174.36"/>
</g>
<!-- XLogArchivingActive -->
<g id="node3" class="node">
<title>XLogArchivingActive</title>
<polygon fill="none" stroke="black" points="486.5,-180 321.5,-180 321.5,-144 486.5,-144 486.5,-180"/>
<text text-anchor="middle" x="404" y="-158.3" font-family="Times,serif" font-size="14.00">XLogArchivingActive</text>
</g>
<!-- PgArchiverMain&#45;&gt;XLogArchivingActive -->
<g id="edge2" class="edge">
<title>PgArchiverMain&#45;&gt;XLogArchivingActive</title>
<path fill="none" stroke="black" d="M848.8,-225.8C768.17,-216.78 627.62,-200.19 496.91,-180.09"/>
<polygon fill="black" stroke="black" points="497.13,-176.58 486.71,-178.51 496.06,-183.5 497.13,-176.58"/>
</g>
<!-- AuxiliaryProcessMainCommon -->
<g id="node4" class="node">
<title>AuxiliaryProcessMainCommon</title>
<polygon fill="none" stroke="black" points="1032.5,-180 797.5,-180 797.5,-144 1032.5,-144 1032.5,-180"/>
<text text-anchor="middle" x="915" y="-158.3" font-family="Times,serif" font-size="14.00">AuxiliaryProcessMainCommon</text>
</g>
<!-- PgArchiverMain&#45;&gt;AuxiliaryProcessMainCommon -->
<g id="edge16" class="edge">
<title>PgArchiverMain&#45;&gt;AuxiliaryProcessMainCommon</title>
<path fill="none" stroke="black" d="M915,-215.7C915,-207.98 915,-198.71 915,-190.11"/>
<polygon fill="black" stroke="black" points="918.5,-190.1 915,-180.1 911.5,-190.1 918.5,-190.1"/>
</g>
<!-- Assert -->
<g id="node9" class="node">
<title>Assert</title>
<polygon fill="none" stroke="black" points="1627,-108 1565,-108 1565,-72 1627,-72 1627,-108"/>
<text text-anchor="middle" x="1596" y="-86.3" font-family="Times,serif" font-size="14.00">Assert</text>
</g>
<!-- PgArchiverMain&#45;&gt;Assert -->
<g id="edge7" class="edge">
<title>PgArchiverMain&#45;&gt;Assert</title>
<path fill="none" stroke="black" d="M967.49,-216C991.25,-207.1 1019.07,-194.92 1042,-180 1061.5,-167.31 1058.73,-153.42 1080,-144 1174.25,-102.26 1437.44,-131.32 1554.99,-107.57"/>
<polygon fill="black" stroke="black" points="1555.89,-110.96 1564.89,-105.36 1554.37,-104.13 1555.89,-110.96"/>
</g>
<!-- SignalHandlerForShutdownRequest -->
<g id="node10" class="node">
<title>SignalHandlerForShutdownRequest</title>
<polygon fill="none" stroke="black" points="779,-180 505,-180 505,-144 779,-144 779,-180"/>
<text text-anchor="middle" x="642" y="-158.3" font-family="Times,serif" font-size="14.00">SignalHandlerForShutdownRequest</text>
</g>
<!-- PgArchiverMain&#45;&gt;SignalHandlerForShutdownRequest -->
<g id="edge8" class="edge">
<title>PgArchiverMain&#45;&gt;SignalHandlerForShutdownRequest</title>
<path fill="none" stroke="black" d="M848.91,-216.05C809.47,-205.94 759.22,-193.06 718.12,-182.52"/>
<polygon fill="black" stroke="black" points="718.98,-179.13 708.42,-180.03 717.24,-185.91 718.98,-179.13"/>
</g>
<!-- LoadArchiveLibrary -->
<g id="node11" class="node">
<title>LoadArchiveLibrary</title>
<polygon fill="none" stroke="black" points="1247,-180 1089,-180 1089,-144 1247,-144 1247,-180"/>
<text text-anchor="middle" x="1168" y="-158.3" font-family="Times,serif" font-size="14.00">LoadArchiveLibrary</text>
</g>
<!-- PgArchiverMain&#45;&gt;LoadArchiveLibrary -->
<g id="edge9" class="edge">
<title>PgArchiverMain&#45;&gt;LoadArchiveLibrary</title>
<path fill="none" stroke="black" d="M976.57,-215.97C1012.69,-205.97 1058.49,-193.3 1096.24,-182.85"/>
<polygon fill="black" stroke="black" points="1097.45,-186.15 1106.16,-180.11 1095.59,-179.4 1097.45,-186.15"/>
</g>
<!-- AllocSetContextCreate -->
<g id="node14" class="node">
<title>AllocSetContextCreate</title>
<polygon fill="none" stroke="black" points="1444.5,-180 1265.5,-180 1265.5,-144 1444.5,-144 1444.5,-180"/>
<text text-anchor="middle" x="1355" y="-158.3" font-family="Times,serif" font-size="14.00">AllocSetContextCreate</text>
</g>
<!-- PgArchiverMain&#45;&gt;AllocSetContextCreate -->
<g id="edge12" class="edge">
<title>PgArchiverMain&#45;&gt;AllocSetContextCreate</title>
<path fill="none" stroke="black" d="M981.06,-223.05C1047.57,-212.96 1153.42,-196.71 1255.27,-180.11"/>
<polygon fill="black" stroke="black" points="1256.13,-183.51 1265.43,-178.45 1255,-176.6 1256.13,-183.51"/>
</g>
<!-- SetLatch -->
<g id="node16" class="node">
<title>SetLatch</title>
<polygon fill="none" stroke="black" points="80,-108 0,-108 0,-72 80,-72 80,-108"/>
<text text-anchor="middle" x="40" y="-86.3" font-family="Times,serif" font-size="14.00">SetLatch</text>
</g>
<!-- SignalHandlerForConfigReload&#45;&gt;SetLatch -->
<g id="edge15" class="edge">
<title>SignalHandlerForConfigReload&#45;&gt;SetLatch</title>
<path fill="none" stroke="black" d="M132.16,-143.88C116.06,-134.64 96,-123.13 78.71,-113.21"/>
<polygon fill="black" stroke="black" points="80.37,-110.13 69.96,-108.19 76.89,-116.2 80.37,-110.13"/>
</g>
<!-- CreateAuxProcessResourceOwner -->
<g id="node5" class="node">
<title>CreateAuxProcessResourceOwner</title>
<polygon fill="none" stroke="black" points="358,-108 98,-108 98,-72 358,-72 358,-108"/>
<text text-anchor="middle" x="228" y="-86.3" font-family="Times,serif" font-size="14.00">CreateAuxProcessResourceOwner</text>
</g>
<!-- AuxiliaryProcessMainCommon&#45;&gt;CreateAuxProcessResourceOwner -->
<g id="edge3" class="edge">
<title>AuxiliaryProcessMainCommon&#45;&gt;CreateAuxProcessResourceOwner</title>
<path fill="none" stroke="black" d="M797.4,-145.06C794.23,-144.69 791.1,-144.34 788,-144 604.61,-123.9 555.5,-127.27 368.38,-108.12"/>
<polygon fill="black" stroke="black" points="368.51,-104.61 358.2,-107.07 367.79,-111.58 368.51,-104.61"/>
</g>
<!-- MemoryContextDelete -->
<g id="node6" class="node">
<title>MemoryContextDelete</title>
<polygon fill="none" stroke="black" points="555.5,-108 376.5,-108 376.5,-72 555.5,-72 555.5,-108"/>
<text text-anchor="middle" x="466" y="-86.3" font-family="Times,serif" font-size="14.00">MemoryContextDelete</text>
</g>
<!-- AuxiliaryProcessMainCommon&#45;&gt;MemoryContextDelete -->
<g id="edge4" class="edge">
<title>AuxiliaryProcessMainCommon&#45;&gt;MemoryContextDelete</title>
<path fill="none" stroke="black" d="M797.9,-143.97C732.28,-134.28 648.69,-121.66 565.81,-108.28"/>
<polygon fill="black" stroke="black" points="566.14,-104.79 555.71,-106.64 565.02,-111.7 566.14,-104.79"/>
</g>
<!-- ProcSignalInit -->
<g id="node7" class="node">
<title>ProcSignalInit</title>
<polygon fill="none" stroke="black" points="692.5,-108 573.5,-108 573.5,-72 692.5,-72 692.5,-108"/>
<text text-anchor="middle" x="633" y="-86.3" font-family="Times,serif" font-size="14.00">ProcSignalInit</text>
</g>
<!-- AuxiliaryProcessMainCommon&#45;&gt;ProcSignalInit -->
<g id="edge5" class="edge">
<title>AuxiliaryProcessMainCommon&#45;&gt;ProcSignalInit</title>
<path fill="none" stroke="black" d="M846.38,-143.97C802.72,-133.13 746.37,-119.14 702.55,-108.26"/>
<polygon fill="black" stroke="black" points="703.38,-104.86 692.83,-105.85 701.69,-111.66 703.38,-104.86"/>
</g>
<!-- ShutdownAuxiliaryProcess -->
<g id="node8" class="node">
<title>ShutdownAuxiliaryProcess</title>
<polygon fill="none" stroke="black" points="919,-108 711,-108 711,-72 919,-72 919,-108"/>
<text text-anchor="middle" x="815" y="-86.3" font-family="Times,serif" font-size="14.00">ShutdownAuxiliaryProcess</text>
</g>
<!-- AuxiliaryProcessMainCommon&#45;&gt;ShutdownAuxiliaryProcess -->
<g id="edge6" class="edge">
<title>AuxiliaryProcessMainCommon&#45;&gt;ShutdownAuxiliaryProcess</title>
<path fill="none" stroke="black" d="M890.54,-143.88C877.7,-134.89 861.8,-123.76 847.91,-114.03"/>
<polygon fill="black" stroke="black" points="849.76,-111.06 839.56,-108.19 845.74,-116.79 849.76,-111.06"/>
</g>
<!-- AuxiliaryProcessMainCommon&#45;&gt;Assert -->
<g id="edge13" class="edge">
<title>AuxiliaryProcessMainCommon&#45;&gt;Assert</title>
<path fill="none" stroke="black" d="M1032.63,-145.5C1037.48,-144.97 1042.29,-144.47 1047,-144 1269.36,-121.84 1333.64,-159.93 1554.92,-107.76"/>
<polygon fill="black" stroke="black" points="1555.98,-111.11 1564.89,-105.38 1554.35,-104.3 1555.98,-111.11"/>
</g>
<!-- SetProcessingMode -->
<g id="node12" class="node">
<title>SetProcessingMode</title>
<polygon fill="none" stroke="black" points="1095,-108 937,-108 937,-72 1095,-72 1095,-108"/>
<text text-anchor="middle" x="1016" y="-86.3" font-family="Times,serif" font-size="14.00">SetProcessingMode</text>
</g>
<!-- AuxiliaryProcessMainCommon&#45;&gt;SetProcessingMode -->
<g id="edge10" class="edge">
<title>AuxiliaryProcessMainCommon&#45;&gt;SetProcessingMode</title>
<path fill="none" stroke="black" d="M939.71,-143.88C952.67,-134.89 968.73,-123.76 982.77,-114.03"/>
<polygon fill="black" stroke="black" points="984.97,-116.76 991.2,-108.19 980.98,-111.01 984.97,-116.76"/>
</g>
<!-- BaseInit -->
<g id="node13" class="node">
<title>BaseInit</title>
<polygon fill="none" stroke="black" points="1189,-108 1113,-108 1113,-72 1189,-72 1189,-108"/>
<text text-anchor="middle" x="1151" y="-86.3" font-family="Times,serif" font-size="14.00">BaseInit</text>
</g>
<!-- AuxiliaryProcessMainCommon&#45;&gt;BaseInit -->
<g id="edge11" class="edge">
<title>AuxiliaryProcessMainCommon&#45;&gt;BaseInit</title>
<path fill="none" stroke="black" d="M980.52,-143.9C1014.7,-134.68 1057.36,-122.72 1103.32,-108.12"/>
<polygon fill="black" stroke="black" points="1104.4,-111.44 1112.86,-105.06 1102.27,-104.78 1104.4,-111.44"/>
</g>
<!-- GetProcessingMode -->
<g id="node17" class="node">
<title>GetProcessingMode</title>
<polygon fill="none" stroke="black" points="1367,-108 1207,-108 1207,-72 1367,-72 1367,-108"/>
<text text-anchor="middle" x="1287" y="-86.3" font-family="Times,serif" font-size="14.00">GetProcessingMode</text>
</g>
<!-- AuxiliaryProcessMainCommon&#45;&gt;GetProcessingMode -->
<g id="edge18" class="edge">
<title>AuxiliaryProcessMainCommon&#45;&gt;GetProcessingMode</title>
<path fill="none" stroke="black" d="M1006.46,-143.96C1059.29,-134.09 1127.3,-121.36 1196.7,-108.24"/>
<polygon fill="black" stroke="black" points="1197.77,-111.6 1206.95,-106.3 1196.47,-104.72 1197.77,-111.6"/>
</g>
<!-- InitAuxiliaryProcess -->
<g id="node19" class="node">
<title>InitAuxiliaryProcess</title>
<polygon fill="none" stroke="black" points="1546.5,-108 1385.5,-108 1385.5,-72 1546.5,-72 1546.5,-108"/>
<text text-anchor="middle" x="1466" y="-86.3" font-family="Times,serif" font-size="14.00">InitAuxiliaryProcess</text>
</g>
<!-- AuxiliaryProcessMainCommon&#45;&gt;InitAuxiliaryProcess -->
<g id="edge20" class="edge">
<title>AuxiliaryProcessMainCommon&#45;&gt;InitAuxiliaryProcess</title>
<path fill="none" stroke="black" d="M1032.66,-145.73C1037.5,-145.14 1042.3,-144.56 1047,-144 1189.78,-127 1228.77,-129.54 1374.86,-108.1"/>
<polygon fill="black" stroke="black" points="1375.72,-111.52 1385.1,-106.59 1374.69,-104.59 1375.72,-111.52"/>
</g>
<!-- ConditionVariableCancelSleep -->
<g id="node15" class="node">
<title>ConditionVariableCancelSleep</title>
<polygon fill="none" stroke="black" points="828,-36 596,-36 596,0 828,0 828,-36"/>
<text text-anchor="middle" x="712" y="-14.3" font-family="Times,serif" font-size="14.00">ConditionVariableCancelSleep</text>
</g>
<!-- ShutdownAuxiliaryProcess&#45;&gt;ConditionVariableCancelSleep -->
<g id="edge14" class="edge">
<title>ShutdownAuxiliaryProcess&#45;&gt;ConditionVariableCancelSleep</title>
<path fill="none" stroke="black" d="M789.8,-71.88C776.59,-62.89 760.21,-51.76 745.89,-42.03"/>
<polygon fill="black" stroke="black" points="747.53,-38.92 737.29,-36.19 743.6,-44.71 747.53,-38.92"/>
</g>
<!-- LWLockReleaseAll -->
<g id="node18" class="node">
<title>LWLockReleaseAll</title>
<polygon fill="none" stroke="black" points="992,-36 846,-36 846,0 992,0 992,-36"/>
<text text-anchor="middle" x="919" y="-14.3" font-family="Times,serif" font-size="14.00">LWLockReleaseAll</text>
</g>
<!-- ShutdownAuxiliaryProcess&#45;&gt;LWLockReleaseAll -->
<g id="edge19" class="edge">
<title>ShutdownAuxiliaryProcess&#45;&gt;LWLockReleaseAll</title>
<path fill="none" stroke="black" d="M840.44,-71.88C853.79,-62.89 870.32,-51.76 884.78,-42.03"/>
<polygon fill="black" stroke="black" points="887.12,-44.68 893.46,-36.19 883.21,-38.87 887.12,-44.68"/>
</g>
<!-- SignalHandlerForShutdownRequest&#45;&gt;SetLatch -->
<g id="edge17" class="edge">
<title>SignalHandlerForShutdownRequest&#45;&gt;SetLatch</title>
<path fill="none" stroke="black" d="M504.69,-145C501.43,-144.66 498.19,-144.33 495,-144 318.04,-125.93 267.93,-145.25 90.1,-107.93"/>
<polygon fill="black" stroke="black" points="90.66,-104.47 80.15,-105.81 89.2,-111.31 90.66,-104.47"/>
</g>
</g>
</svg>
