<?xml version="1.0" encoding="UTF-8" standalone="no"?>
<!DOCTYPE svg PUBLIC "-//W3C//DTD SVG 1.1//EN"
 "http://www.w3.org/Graphics/SVG/1.1/DTD/svg11.dtd">
<!-- Generated by graphviz version 2.43.0 (0)
 -->
<!-- Title: cflow Pages: 1 -->
<svg width="2967pt" height="188pt"
 viewBox="0.00 0.00 2966.50 188.00" xmlns="http://www.w3.org/2000/svg" xmlns:xlink="http://www.w3.org/1999/xlink">
<g id="graph0" class="graph" transform="scale(1 1) rotate(0) translate(4 184)">
<title>cflow</title>
<polygon fill="white" stroke="transparent" points="-4,4 -4,-184 2962.5,-184 2962.5,4 -4,4"/>
<!-- PostgresSingleUserMain -->
<g id="node1" class="node">
<title>PostgresSingleUserMain</title>
<polygon fill="none" stroke="black" points="1599.5,-180 1405.5,-180 1405.5,-144 1599.5,-144 1599.5,-180"/>
<text text-anchor="middle" x="1502.5" y="-158.3" font-family="Times,serif" font-size="14.00">PostgresSingleUserMain</text>
</g>
<!-- PostgresMain -->
<g id="node2" class="node">
<title>PostgresMain</title>
<polygon fill="none" stroke="black" points="115,-108 0,-108 0,-72 115,-72 115,-108"/>
<text text-anchor="middle" x="57.5" y="-86.3" font-family="Times,serif" font-size="14.00">PostgresMain</text>
</g>
<!-- PostgresSingleUserMain&#45;&gt;PostgresMain -->
<g id="edge1" class="edge">
<title>PostgresSingleUserMain&#45;&gt;PostgresMain</title>
<path fill="none" stroke="black" d="M1405.17,-159.96C1137.04,-156.67 390.51,-144.55 125.3,-108.05"/>
<polygon fill="black" stroke="black" points="125.7,-104.58 115.31,-106.63 124.71,-111.51 125.7,-104.58"/>
</g>
<!-- CreateDataDirLockFile -->
<g id="node3" class="node">
<title>CreateDataDirLockFile</title>
<polygon fill="none" stroke="black" points="314,-108 133,-108 133,-72 314,-72 314,-108"/>
<text text-anchor="middle" x="223.5" y="-86.3" font-family="Times,serif" font-size="14.00">CreateDataDirLockFile</text>
</g>
<!-- PostgresSingleUserMain&#45;&gt;CreateDataDirLockFile -->
<g id="edge2" class="edge">
<title>PostgresSingleUserMain&#45;&gt;CreateDataDirLockFile</title>
<path fill="none" stroke="black" d="M1405.14,-160.68C1204.68,-159.14 731.26,-150.94 324.39,-108"/>
<polygon fill="black" stroke="black" points="324.5,-104.5 314.18,-106.92 323.76,-111.46 324.5,-104.5"/>
</g>
<!-- InitializeWalConsistencyChecking -->
<g id="node4" class="node">
<title>InitializeWalConsistencyChecking</title>
<polygon fill="none" stroke="black" points="589,-108 332,-108 332,-72 589,-72 589,-108"/>
<text text-anchor="middle" x="460.5" y="-86.3" font-family="Times,serif" font-size="14.00">InitializeWalConsistencyChecking</text>
</g>
<!-- PostgresSingleUserMain&#45;&gt;InitializeWalConsistencyChecking -->
<g id="edge3" class="edge">
<title>PostgresSingleUserMain&#45;&gt;InitializeWalConsistencyChecking</title>
<path fill="none" stroke="black" d="M1405.36,-157.35C1241.48,-150.73 899.47,-134.98 599.23,-108.03"/>
<polygon fill="black" stroke="black" points="599.3,-104.52 589.02,-107.11 598.67,-111.49 599.3,-104.52"/>
</g>
<!-- InitializeFastPathLocks -->
<g id="node5" class="node">
<title>InitializeFastPathLocks</title>
<polygon fill="none" stroke="black" points="789.5,-108 607.5,-108 607.5,-72 789.5,-72 789.5,-108"/>
<text text-anchor="middle" x="698.5" y="-86.3" font-family="Times,serif" font-size="14.00">InitializeFastPathLocks</text>
</g>
<!-- PostgresSingleUserMain&#45;&gt;InitializeFastPathLocks -->
<g id="edge4" class="edge">
<title>PostgresSingleUserMain&#45;&gt;InitializeFastPathLocks</title>
<path fill="none" stroke="black" d="M1405.28,-156.49C1269.37,-149.54 1015.01,-134.21 799.5,-108 799.4,-107.99 799.3,-107.98 799.19,-107.96"/>
<polygon fill="black" stroke="black" points="799.93,-104.53 789.56,-106.72 799.03,-111.47 799.93,-104.53"/>
</g>
<!-- ChangeToDataDir -->
<g id="node6" class="node">
<title>ChangeToDataDir</title>
<polygon fill="none" stroke="black" points="951,-108 808,-108 808,-72 951,-72 951,-108"/>
<text text-anchor="middle" x="879.5" y="-86.3" font-family="Times,serif" font-size="14.00">ChangeToDataDir</text>
</g>
<!-- PostgresSingleUserMain&#45;&gt;ChangeToDataDir -->
<g id="edge5" class="edge">
<title>PostgresSingleUserMain&#45;&gt;ChangeToDataDir</title>
<path fill="none" stroke="black" d="M1405.17,-154.71C1298.61,-147.08 1122.57,-132.34 961.51,-108.06"/>
<polygon fill="black" stroke="black" points="961.83,-104.57 951.41,-106.52 960.77,-111.49 961.83,-104.57"/>
</g>
<!-- SelectConfigFiles -->
<g id="node7" class="node">
<title>SelectConfigFiles</title>
<polygon fill="none" stroke="black" points="1110,-108 969,-108 969,-72 1110,-72 1110,-108"/>
<text text-anchor="middle" x="1039.5" y="-86.3" font-family="Times,serif" font-size="14.00">SelectConfigFiles</text>
</g>
<!-- PostgresSingleUserMain&#45;&gt;SelectConfigFiles -->
<g id="edge6" class="edge">
<title>PostgresSingleUserMain&#45;&gt;SelectConfigFiles</title>
<path fill="none" stroke="black" d="M1405.39,-149.52C1330.22,-140.18 1223.3,-125.9 1120.09,-108.03"/>
<polygon fill="black" stroke="black" points="1120.57,-104.56 1110.12,-106.29 1119.37,-111.46 1120.57,-104.56"/>
</g>
<!-- InitStandaloneProcess -->
<g id="node8" class="node">
<title>InitStandaloneProcess</title>
<polygon fill="none" stroke="black" points="1305,-108 1128,-108 1128,-72 1305,-72 1305,-108"/>
<text text-anchor="middle" x="1216.5" y="-86.3" font-family="Times,serif" font-size="14.00">InitStandaloneProcess</text>
</g>
<!-- PostgresSingleUserMain&#45;&gt;InitStandaloneProcess -->
<g id="edge7" class="edge">
<title>PostgresSingleUserMain&#45;&gt;InitStandaloneProcess</title>
<path fill="none" stroke="black" d="M1432.9,-143.97C1391.64,-133.87 1339.19,-121.03 1296.26,-110.52"/>
<polygon fill="black" stroke="black" points="1296.96,-107.09 1286.41,-108.11 1295.29,-113.89 1296.96,-107.09"/>
</g>
<!-- InitPostmasterChildSlots -->
<g id="node9" class="node">
<title>InitPostmasterChildSlots</title>
<polygon fill="none" stroke="black" points="1518.5,-108 1322.5,-108 1322.5,-72 1518.5,-72 1518.5,-108"/>
<text text-anchor="middle" x="1420.5" y="-86.3" font-family="Times,serif" font-size="14.00">InitPostmasterChildSlots</text>
</g>
<!-- PostgresSingleUserMain&#45;&gt;InitPostmasterChildSlots -->
<g id="edge8" class="edge">
<title>PostgresSingleUserMain&#45;&gt;InitPostmasterChildSlots</title>
<path fill="none" stroke="black" d="M1482.23,-143.7C1472,-134.97 1459.44,-124.24 1448.32,-114.75"/>
<polygon fill="black" stroke="black" points="1450.41,-111.94 1440.54,-108.1 1445.87,-117.26 1450.41,-111.94"/>
</g>
<!-- InitProcess -->
<g id="node10" class="node">
<title>InitProcess</title>
<polygon fill="none" stroke="black" points="1633,-108 1536,-108 1536,-72 1633,-72 1633,-108"/>
<text text-anchor="middle" x="1584.5" y="-86.3" font-family="Times,serif" font-size="14.00">InitProcess</text>
</g>
<!-- PostgresSingleUserMain&#45;&gt;InitProcess -->
<g id="edge9" class="edge">
<title>PostgresSingleUserMain&#45;&gt;InitProcess</title>
<path fill="none" stroke="black" d="M1522.77,-143.7C1533,-134.97 1545.56,-124.24 1556.68,-114.75"/>
<polygon fill="black" stroke="black" points="1559.13,-117.26 1564.46,-108.1 1554.59,-111.94 1559.13,-117.26"/>
</g>
<!-- InitializeGUCOptions -->
<g id="node11" class="node">
<title>InitializeGUCOptions</title>
<polygon fill="none" stroke="black" points="1819.5,-108 1651.5,-108 1651.5,-72 1819.5,-72 1819.5,-108"/>
<text text-anchor="middle" x="1735.5" y="-86.3" font-family="Times,serif" font-size="14.00">InitializeGUCOptions</text>
</g>
<!-- PostgresSingleUserMain&#45;&gt;InitializeGUCOptions -->
<g id="edge10" class="edge">
<title>PostgresSingleUserMain&#45;&gt;InitializeGUCOptions</title>
<path fill="none" stroke="black" d="M1559.2,-143.97C1592.18,-134.06 1633.93,-121.51 1668.53,-111.12"/>
<polygon fill="black" stroke="black" points="1669.98,-114.34 1678.55,-108.11 1667.96,-107.64 1669.98,-114.34"/>
</g>
<!-- Assert -->
<g id="node12" class="node">
<title>Assert</title>
<polygon fill="none" stroke="black" points="1664.5,-36 1602.5,-36 1602.5,0 1664.5,0 1664.5,-36"/>
<text text-anchor="middle" x="1633.5" y="-14.3" font-family="Times,serif" font-size="14.00">Assert</text>
</g>
<!-- PostgresSingleUserMain&#45;&gt;Assert -->
<g id="edge17" class="edge">
<title>PostgresSingleUserMain&#45;&gt;Assert</title>
<path fill="none" stroke="black" d="M1599.6,-158.65C1684.81,-154.3 1799.52,-142.07 1828.5,-108 1874.31,-54.14 1744.71,-31.2 1674.84,-22.96"/>
<polygon fill="black" stroke="black" points="1674.91,-19.44 1664.58,-21.8 1674.13,-26.4 1674.91,-19.44"/>
</g>
<!-- CreateSharedMemoryAndSemaphores -->
<g id="node13" class="node">
<title>CreateSharedMemoryAndSemaphores</title>
<polygon fill="none" stroke="black" points="2166,-108 1875,-108 1875,-72 2166,-72 2166,-108"/>
<text text-anchor="middle" x="2020.5" y="-86.3" font-family="Times,serif" font-size="14.00">CreateSharedMemoryAndSemaphores</text>
</g>
<!-- PostgresSingleUserMain&#45;&gt;CreateSharedMemoryAndSemaphores -->
<g id="edge12" class="edge">
<title>PostgresSingleUserMain&#45;&gt;CreateSharedMemoryAndSemaphores</title>
<path fill="none" stroke="black" d="M1599.63,-147.87C1679.96,-137.02 1794.97,-121.48 1884.47,-109.38"/>
<polygon fill="black" stroke="black" points="1884.98,-112.84 1894.42,-108.04 1884.05,-105.91 1884.98,-112.84"/>
</g>
<!-- LocalProcessControlFile -->
<g id="node14" class="node">
<title>LocalProcessControlFile</title>
<polygon fill="none" stroke="black" points="2374.5,-108 2184.5,-108 2184.5,-72 2374.5,-72 2374.5,-108"/>
<text text-anchor="middle" x="2279.5" y="-86.3" font-family="Times,serif" font-size="14.00">LocalProcessControlFile</text>
</g>
<!-- PostgresSingleUserMain&#45;&gt;LocalProcessControlFile -->
<g id="edge13" class="edge">
<title>PostgresSingleUserMain&#45;&gt;LocalProcessControlFile</title>
<path fill="none" stroke="black" d="M1599.71,-155.9C1728.73,-148.55 1963.81,-133.18 2174.32,-108.08"/>
<polygon fill="black" stroke="black" points="2174.82,-111.55 2184.33,-106.88 2173.98,-104.6 2174.82,-111.55"/>
</g>
<!-- InitializeMaxBackends -->
<g id="node15" class="node">
<title>InitializeMaxBackends</title>
<polygon fill="none" stroke="black" points="2570.5,-108 2392.5,-108 2392.5,-72 2570.5,-72 2570.5,-108"/>
<text text-anchor="middle" x="2481.5" y="-86.3" font-family="Times,serif" font-size="14.00">InitializeMaxBackends</text>
</g>
<!-- PostgresSingleUserMain&#45;&gt;InitializeMaxBackends -->
<g id="edge14" class="edge">
<title>PostgresSingleUserMain&#45;&gt;InitializeMaxBackends</title>
<path fill="none" stroke="black" d="M1599.61,-158.7C1760.35,-154.11 2091.95,-141.34 2382.06,-108.09"/>
<polygon fill="black" stroke="black" points="2382.83,-111.52 2392.36,-106.9 2382.03,-104.57 2382.83,-111.52"/>
</g>
<!-- InitializeShmemGUCs -->
<g id="node16" class="node">
<title>InitializeShmemGUCs</title>
<polygon fill="none" stroke="black" points="2762.5,-108 2588.5,-108 2588.5,-72 2762.5,-72 2762.5,-108"/>
<text text-anchor="middle" x="2675.5" y="-86.3" font-family="Times,serif" font-size="14.00">InitializeShmemGUCs</text>
</g>
<!-- PostgresSingleUserMain&#45;&gt;InitializeShmemGUCs -->
<g id="edge15" class="edge">
<title>PostgresSingleUserMain&#45;&gt;InitializeShmemGUCs</title>
<path fill="none" stroke="black" d="M1599.74,-160.31C1787.27,-158.1 2212.01,-148.71 2578.44,-108.03"/>
<polygon fill="black" stroke="black" points="2578.9,-111.5 2588.45,-106.91 2578.12,-104.54 2578.9,-111.5"/>
</g>
<!-- GetCurrentTimestamp -->
<g id="node17" class="node">
<title>GetCurrentTimestamp</title>
<polygon fill="none" stroke="black" points="2958.5,-108 2780.5,-108 2780.5,-72 2958.5,-72 2958.5,-108"/>
<text text-anchor="middle" x="2869.5" y="-86.3" font-family="Times,serif" font-size="14.00">GetCurrentTimestamp</text>
</g>
<!-- PostgresSingleUserMain&#45;&gt;GetCurrentTimestamp -->
<g id="edge16" class="edge">
<title>PostgresSingleUserMain&#45;&gt;GetCurrentTimestamp</title>
<path fill="none" stroke="black" d="M1599.53,-161.24C1810.76,-160.83 2328.11,-154.76 2770.27,-108.04"/>
<polygon fill="black" stroke="black" points="2770.8,-111.51 2780.37,-106.97 2770.06,-104.55 2770.8,-111.51"/>
</g>
<!-- InitPostmasterChildSlots&#45;&gt;Assert -->
<g id="edge11" class="edge">
<title>InitPostmasterChildSlots&#45;&gt;Assert</title>
<path fill="none" stroke="black" d="M1472.33,-71.97C1509.32,-59.81 1558.37,-43.69 1592.61,-32.44"/>
<polygon fill="black" stroke="black" points="1593.88,-35.7 1602.29,-29.26 1591.7,-29.05 1593.88,-35.7"/>
</g>
</g>
</svg>
