<?xml version="1.0" encoding="UTF-8" standalone="no"?>
<!DOCTYPE svg PUBLIC "-//W3C//DTD SVG 1.1//EN"
 "http://www.w3.org/Graphics/SVG/1.1/DTD/svg11.dtd">
<!-- Generated by graphviz version 2.43.0 (0)
 -->
<!-- Title: cflow Pages: 1 -->
<svg width="2045pt" height="260pt"
 viewBox="0.00 0.00 2045.00 260.00" xmlns="http://www.w3.org/2000/svg" xmlns:xlink="http://www.w3.org/1999/xlink">
<g id="graph0" class="graph" transform="scale(1 1) rotate(0) translate(4 256)">
<title>cflow</title>
<polygon fill="white" stroke="transparent" points="-4,4 -4,-256 2041,-256 2041,4 -4,4"/>
<!-- StartupProcessMain -->
<g id="node1" class="node">
<title>StartupProcessMain</title>
<polygon fill="none" stroke="black" points="1301.5,-252 1138.5,-252 1138.5,-216 1301.5,-216 1301.5,-252"/>
<text text-anchor="middle" x="1220" y="-230.3" font-family="Times,serif" font-size="14.00">StartupProcessMain</text>
</g>
<!-- StartupProcExit -->
<g id="node2" class="node">
<title>StartupProcExit</title>
<polygon fill="none" stroke="black" points="268.5,-180 135.5,-180 135.5,-144 268.5,-144 268.5,-180"/>
<text text-anchor="middle" x="202" y="-158.3" font-family="Times,serif" font-size="14.00">StartupProcExit</text>
</g>
<!-- StartupProcessMain&#45;&gt;StartupProcExit -->
<g id="edge1" class="edge">
<title>StartupProcessMain&#45;&gt;StartupProcExit</title>
<path fill="none" stroke="black" d="M1138.33,-231.02C978.49,-226.53 613.28,-213.26 308,-180 298.51,-178.97 288.58,-177.67 278.76,-176.25"/>
<polygon fill="black" stroke="black" points="278.99,-172.74 268.58,-174.73 277.96,-179.67 278.99,-172.74"/>
</g>
<!-- StartupProcSigHupHandler -->
<g id="node3" class="node">
<title>StartupProcSigHupHandler</title>
<polygon fill="none" stroke="black" points="532.5,-180 317.5,-180 317.5,-144 532.5,-144 532.5,-180"/>
<text text-anchor="middle" x="425" y="-158.3" font-family="Times,serif" font-size="14.00">StartupProcSigHupHandler</text>
</g>
<!-- StartupProcessMain&#45;&gt;StartupProcSigHupHandler -->
<g id="edge10" class="edge">
<title>StartupProcessMain&#45;&gt;StartupProcSigHupHandler</title>
<path fill="none" stroke="black" d="M1138.36,-226.94C1016.65,-217.74 780.46,-199.29 580,-180 567.88,-178.83 555.23,-177.55 542.62,-176.23"/>
<polygon fill="black" stroke="black" points="542.84,-172.74 532.53,-175.17 542.1,-179.7 542.84,-172.74"/>
</g>
<!-- AuxiliaryProcessMainCommon -->
<g id="node5" class="node">
<title>AuxiliaryProcessMainCommon</title>
<polygon fill="none" stroke="black" points="1337.5,-180 1102.5,-180 1102.5,-144 1337.5,-144 1337.5,-180"/>
<text text-anchor="middle" x="1220" y="-158.3" font-family="Times,serif" font-size="14.00">AuxiliaryProcessMainCommon</text>
</g>
<!-- StartupProcessMain&#45;&gt;AuxiliaryProcessMainCommon -->
<g id="edge9" class="edge">
<title>StartupProcessMain&#45;&gt;AuxiliaryProcessMainCommon</title>
<path fill="none" stroke="black" d="M1220,-215.7C1220,-207.98 1220,-198.71 1220,-190.11"/>
<polygon fill="black" stroke="black" points="1223.5,-190.1 1220,-180.1 1216.5,-190.1 1223.5,-190.1"/>
</g>
<!-- StartupProcShutdownHandler -->
<g id="node8" class="node">
<title>StartupProcShutdownHandler</title>
<polygon fill="none" stroke="black" points="822.5,-180 589.5,-180 589.5,-144 822.5,-144 822.5,-180"/>
<text text-anchor="middle" x="706" y="-158.3" font-family="Times,serif" font-size="14.00">StartupProcShutdownHandler</text>
</g>
<!-- StartupProcessMain&#45;&gt;StartupProcShutdownHandler -->
<g id="edge17" class="edge">
<title>StartupProcessMain&#45;&gt;StartupProcShutdownHandler</title>
<path fill="none" stroke="black" d="M1138.27,-221.87C1056.06,-210.67 928.16,-193.25 832.77,-180.27"/>
<polygon fill="black" stroke="black" points="833.16,-176.78 822.77,-178.9 832.21,-183.72 833.16,-176.78"/>
</g>
<!-- Assert -->
<g id="node13" class="node">
<title>Assert</title>
<polygon fill="none" stroke="black" points="2037,-108 1975,-108 1975,-72 2037,-72 2037,-108"/>
<text text-anchor="middle" x="2006" y="-86.3" font-family="Times,serif" font-size="14.00">Assert</text>
</g>
<!-- StartupProcessMain&#45;&gt;Assert -->
<g id="edge18" class="edge">
<title>StartupProcessMain&#45;&gt;Assert</title>
<path fill="none" stroke="black" d="M1271.29,-215.9C1294.95,-206.91 1322.86,-194.69 1346,-180 1366.19,-167.18 1363.95,-153.26 1386,-144 1502.28,-95.19 1824.72,-135.69 1965.11,-107.55"/>
<polygon fill="black" stroke="black" points="1965.88,-110.96 1974.9,-105.4 1964.38,-104.13 1965.88,-110.96"/>
</g>
<!-- StartupProcTriggerHandler -->
<g id="node15" class="node">
<title>StartupProcTriggerHandler</title>
<polygon fill="none" stroke="black" points="1074.5,-180 859.5,-180 859.5,-144 1074.5,-144 1074.5,-180"/>
<text text-anchor="middle" x="967" y="-158.3" font-family="Times,serif" font-size="14.00">StartupProcTriggerHandler</text>
</g>
<!-- StartupProcessMain&#45;&gt;StartupProcTriggerHandler -->
<g id="edge23" class="edge">
<title>StartupProcessMain&#45;&gt;StartupProcTriggerHandler</title>
<path fill="none" stroke="black" d="M1158.43,-215.97C1122.31,-205.97 1076.51,-193.3 1038.76,-182.85"/>
<polygon fill="black" stroke="black" points="1039.41,-179.4 1028.84,-180.11 1037.55,-186.15 1039.41,-179.4"/>
</g>
<!-- StartupXLOG -->
<g id="node17" class="node">
<title>StartupXLOG</title>
<polygon fill="none" stroke="black" points="1507.5,-180 1394.5,-180 1394.5,-144 1507.5,-144 1507.5,-180"/>
<text text-anchor="middle" x="1451" y="-158.3" font-family="Times,serif" font-size="14.00">StartupXLOG</text>
</g>
<!-- StartupProcessMain&#45;&gt;StartupXLOG -->
<g id="edge16" class="edge">
<title>StartupProcessMain&#45;&gt;StartupXLOG</title>
<path fill="none" stroke="black" d="M1276.21,-215.97C1308.91,-206.06 1350.3,-193.51 1384.6,-183.12"/>
<polygon fill="black" stroke="black" points="1385.98,-186.36 1394.53,-180.11 1383.95,-179.66 1385.98,-186.36"/>
</g>
<!-- InitializeTimeouts -->
<g id="node21" class="node">
<title>InitializeTimeouts</title>
<polygon fill="none" stroke="black" points="1670.5,-180 1525.5,-180 1525.5,-144 1670.5,-144 1670.5,-180"/>
<text text-anchor="middle" x="1598" y="-158.3" font-family="Times,serif" font-size="14.00">InitializeTimeouts</text>
</g>
<!-- StartupProcessMain&#45;&gt;InitializeTimeouts -->
<g id="edge22" class="edge">
<title>StartupProcessMain&#45;&gt;InitializeTimeouts</title>
<path fill="none" stroke="black" d="M1301.75,-219.1C1359.02,-209.2 1437.61,-195.29 1515.21,-180.32"/>
<polygon fill="black" stroke="black" points="1516.01,-183.73 1525.16,-178.4 1514.68,-176.86 1516.01,-183.73"/>
</g>
<!-- RegisterTimeout -->
<g id="node22" class="node">
<title>RegisterTimeout</title>
<polygon fill="none" stroke="black" points="1825,-180 1689,-180 1689,-144 1825,-144 1825,-180"/>
<text text-anchor="middle" x="1757" y="-158.3" font-family="Times,serif" font-size="14.00">RegisterTimeout</text>
</g>
<!-- StartupProcessMain&#45;&gt;RegisterTimeout -->
<g id="edge24" class="edge">
<title>StartupProcessMain&#45;&gt;RegisterTimeout</title>
<path fill="none" stroke="black" d="M1301.79,-226.13C1391.88,-217.98 1541.19,-202.78 1678.75,-180.12"/>
<polygon fill="black" stroke="black" points="1679.35,-183.57 1688.64,-178.47 1678.2,-176.66 1679.35,-183.57"/>
</g>
<!-- ShutdownRecoveryTransactionEnvironment -->
<g id="node16" class="node">
<title>ShutdownRecoveryTransactionEnvironment</title>
<polygon fill="none" stroke="black" points="332,-108 0,-108 0,-72 332,-72 332,-108"/>
<text text-anchor="middle" x="166" y="-86.3" font-family="Times,serif" font-size="14.00">ShutdownRecoveryTransactionEnvironment</text>
</g>
<!-- StartupProcExit&#45;&gt;ShutdownRecoveryTransactionEnvironment -->
<g id="edge15" class="edge">
<title>StartupProcExit&#45;&gt;ShutdownRecoveryTransactionEnvironment</title>
<path fill="none" stroke="black" d="M193.1,-143.7C189,-135.73 184.05,-126.1 179.51,-117.26"/>
<polygon fill="black" stroke="black" points="182.48,-115.4 174.8,-108.1 176.26,-118.6 182.48,-115.4"/>
</g>
<!-- WakeupRecovery -->
<g id="node4" class="node">
<title>WakeupRecovery</title>
<polygon fill="none" stroke="black" points="489.5,-108 350.5,-108 350.5,-72 489.5,-72 489.5,-108"/>
<text text-anchor="middle" x="420" y="-86.3" font-family="Times,serif" font-size="14.00">WakeupRecovery</text>
</g>
<!-- StartupProcSigHupHandler&#45;&gt;WakeupRecovery -->
<g id="edge2" class="edge">
<title>StartupProcSigHupHandler&#45;&gt;WakeupRecovery</title>
<path fill="none" stroke="black" d="M423.76,-143.7C423.21,-135.98 422.55,-126.71 421.94,-118.11"/>
<polygon fill="black" stroke="black" points="425.43,-117.83 421.22,-108.1 418.44,-118.33 425.43,-117.83"/>
</g>
<!-- CreateAuxProcessResourceOwner -->
<g id="node6" class="node">
<title>CreateAuxProcessResourceOwner</title>
<polygon fill="none" stroke="black" points="768,-108 508,-108 508,-72 768,-72 768,-108"/>
<text text-anchor="middle" x="638" y="-86.3" font-family="Times,serif" font-size="14.00">CreateAuxProcessResourceOwner</text>
</g>
<!-- AuxiliaryProcessMainCommon&#45;&gt;CreateAuxProcessResourceOwner -->
<g id="edge3" class="edge">
<title>AuxiliaryProcessMainCommon&#45;&gt;CreateAuxProcessResourceOwner</title>
<path fill="none" stroke="black" d="M1102.3,-146.35C1095.77,-145.55 1089.31,-144.76 1083,-144 950.24,-127.95 914.62,-124.47 778.22,-108.14"/>
<polygon fill="black" stroke="black" points="778.56,-104.66 768.22,-106.94 777.73,-111.61 778.56,-104.66"/>
</g>
<!-- MemoryContextDelete -->
<g id="node7" class="node">
<title>MemoryContextDelete</title>
<polygon fill="none" stroke="black" points="965.5,-108 786.5,-108 786.5,-72 965.5,-72 965.5,-108"/>
<text text-anchor="middle" x="876" y="-86.3" font-family="Times,serif" font-size="14.00">MemoryContextDelete</text>
</g>
<!-- AuxiliaryProcessMainCommon&#45;&gt;MemoryContextDelete -->
<g id="edge4" class="edge">
<title>AuxiliaryProcessMainCommon&#45;&gt;MemoryContextDelete</title>
<path fill="none" stroke="black" d="M1136.29,-143.97C1085.94,-133.72 1021.73,-120.66 969.69,-110.07"/>
<polygon fill="black" stroke="black" points="970.29,-106.61 959.79,-108.05 968.89,-113.47 970.29,-106.61"/>
</g>
<!-- ProcSignalInit -->
<g id="node9" class="node">
<title>ProcSignalInit</title>
<polygon fill="none" stroke="black" points="1102.5,-108 983.5,-108 983.5,-72 1102.5,-72 1102.5,-108"/>
<text text-anchor="middle" x="1043" y="-86.3" font-family="Times,serif" font-size="14.00">ProcSignalInit</text>
</g>
<!-- AuxiliaryProcessMainCommon&#45;&gt;ProcSignalInit -->
<g id="edge6" class="edge">
<title>AuxiliaryProcessMainCommon&#45;&gt;ProcSignalInit</title>
<path fill="none" stroke="black" d="M1176.7,-143.88C1152.29,-134.22 1121.6,-122.09 1095.79,-111.88"/>
<polygon fill="black" stroke="black" points="1096.74,-108.49 1086.16,-108.07 1094.17,-115 1096.74,-108.49"/>
</g>
<!-- ShutdownAuxiliaryProcess -->
<g id="node10" class="node">
<title>ShutdownAuxiliaryProcess</title>
<polygon fill="none" stroke="black" points="1329,-108 1121,-108 1121,-72 1329,-72 1329,-108"/>
<text text-anchor="middle" x="1225" y="-86.3" font-family="Times,serif" font-size="14.00">ShutdownAuxiliaryProcess</text>
</g>
<!-- AuxiliaryProcessMainCommon&#45;&gt;ShutdownAuxiliaryProcess -->
<g id="edge7" class="edge">
<title>AuxiliaryProcessMainCommon&#45;&gt;ShutdownAuxiliaryProcess</title>
<path fill="none" stroke="black" d="M1221.24,-143.7C1221.79,-135.98 1222.45,-126.71 1223.06,-118.11"/>
<polygon fill="black" stroke="black" points="1226.56,-118.33 1223.78,-108.1 1219.57,-117.83 1226.56,-118.33"/>
</g>
<!-- SetProcessingMode -->
<g id="node11" class="node">
<title>SetProcessingMode</title>
<polygon fill="none" stroke="black" points="1505,-108 1347,-108 1347,-72 1505,-72 1505,-108"/>
<text text-anchor="middle" x="1426" y="-86.3" font-family="Times,serif" font-size="14.00">SetProcessingMode</text>
</g>
<!-- AuxiliaryProcessMainCommon&#45;&gt;SetProcessingMode -->
<g id="edge8" class="edge">
<title>AuxiliaryProcessMainCommon&#45;&gt;SetProcessingMode</title>
<path fill="none" stroke="black" d="M1270.13,-143.97C1299.04,-134.14 1335.57,-121.73 1366,-111.39"/>
<polygon fill="black" stroke="black" points="1367.3,-114.64 1375.65,-108.11 1365.05,-108.01 1367.3,-114.64"/>
</g>
<!-- BaseInit -->
<g id="node12" class="node">
<title>BaseInit</title>
<polygon fill="none" stroke="black" points="1599,-108 1523,-108 1523,-72 1599,-72 1599,-108"/>
<text text-anchor="middle" x="1561" y="-86.3" font-family="Times,serif" font-size="14.00">BaseInit</text>
</g>
<!-- AuxiliaryProcessMainCommon&#45;&gt;BaseInit -->
<g id="edge11" class="edge">
<title>AuxiliaryProcessMainCommon&#45;&gt;BaseInit</title>
<path fill="none" stroke="black" d="M1337.61,-144.46C1389.15,-136.08 1450.34,-124.61 1513.25,-107.97"/>
<polygon fill="black" stroke="black" points="1514.2,-111.34 1522.95,-105.37 1512.39,-104.58 1514.2,-111.34"/>
</g>
<!-- AuxiliaryProcessMainCommon&#45;&gt;Assert -->
<g id="edge12" class="edge">
<title>AuxiliaryProcessMainCommon&#45;&gt;Assert</title>
<path fill="none" stroke="black" d="M1337.62,-145.43C1342.48,-144.92 1347.28,-144.44 1352,-144 1620.85,-118.84 1697.98,-169.12 1964.92,-107.74"/>
<polygon fill="black" stroke="black" points="1965.96,-111.09 1974.9,-105.41 1964.37,-104.28 1965.96,-111.09"/>
</g>
<!-- GetProcessingMode -->
<g id="node18" class="node">
<title>GetProcessingMode</title>
<polygon fill="none" stroke="black" points="1777,-108 1617,-108 1617,-72 1777,-72 1777,-108"/>
<text text-anchor="middle" x="1697" y="-86.3" font-family="Times,serif" font-size="14.00">GetProcessingMode</text>
</g>
<!-- AuxiliaryProcessMainCommon&#45;&gt;GetProcessingMode -->
<g id="edge19" class="edge">
<title>AuxiliaryProcessMainCommon&#45;&gt;GetProcessingMode</title>
<path fill="none" stroke="black" d="M1337.65,-145.63C1427.3,-133.79 1544.39,-118.03 1607.04,-108.1"/>
<polygon fill="black" stroke="black" points="1607.67,-111.54 1616.98,-106.49 1606.55,-104.63 1607.67,-111.54"/>
</g>
<!-- InitAuxiliaryProcess -->
<g id="node20" class="node">
<title>InitAuxiliaryProcess</title>
<polygon fill="none" stroke="black" points="1956.5,-108 1795.5,-108 1795.5,-72 1956.5,-72 1956.5,-108"/>
<text text-anchor="middle" x="1876" y="-86.3" font-family="Times,serif" font-size="14.00">InitAuxiliaryProcess</text>
</g>
<!-- AuxiliaryProcessMainCommon&#45;&gt;InitAuxiliaryProcess -->
<g id="edge21" class="edge">
<title>AuxiliaryProcessMainCommon&#45;&gt;InitAuxiliaryProcess</title>
<path fill="none" stroke="black" d="M1337.64,-145.57C1342.49,-145.03 1347.29,-144.5 1352,-144 1541.19,-123.98 1592.46,-133.65 1784.94,-108.06"/>
<polygon fill="black" stroke="black" points="1785.67,-111.49 1795.11,-106.69 1784.73,-104.55 1785.67,-111.49"/>
</g>
<!-- StartupProcShutdownHandler&#45;&gt;WakeupRecovery -->
<g id="edge5" class="edge">
<title>StartupProcShutdownHandler&#45;&gt;WakeupRecovery</title>
<path fill="none" stroke="black" d="M636.4,-143.97C595.14,-133.87 542.69,-121.03 499.76,-110.52"/>
<polygon fill="black" stroke="black" points="500.46,-107.09 489.91,-108.11 498.79,-113.89 500.46,-107.09"/>
</g>
<!-- ConditionVariableCancelSleep -->
<g id="node14" class="node">
<title>ConditionVariableCancelSleep</title>
<polygon fill="none" stroke="black" points="1238,-36 1006,-36 1006,0 1238,0 1238,-36"/>
<text text-anchor="middle" x="1122" y="-14.3" font-family="Times,serif" font-size="14.00">ConditionVariableCancelSleep</text>
</g>
<!-- ShutdownAuxiliaryProcess&#45;&gt;ConditionVariableCancelSleep -->
<g id="edge13" class="edge">
<title>ShutdownAuxiliaryProcess&#45;&gt;ConditionVariableCancelSleep</title>
<path fill="none" stroke="black" d="M1199.8,-71.88C1186.59,-62.89 1170.21,-51.76 1155.89,-42.03"/>
<polygon fill="black" stroke="black" points="1157.53,-38.92 1147.29,-36.19 1153.6,-44.71 1157.53,-38.92"/>
</g>
<!-- LWLockReleaseAll -->
<g id="node19" class="node">
<title>LWLockReleaseAll</title>
<polygon fill="none" stroke="black" points="1402,-36 1256,-36 1256,0 1402,0 1402,-36"/>
<text text-anchor="middle" x="1329" y="-14.3" font-family="Times,serif" font-size="14.00">LWLockReleaseAll</text>
</g>
<!-- ShutdownAuxiliaryProcess&#45;&gt;LWLockReleaseAll -->
<g id="edge20" class="edge">
<title>ShutdownAuxiliaryProcess&#45;&gt;LWLockReleaseAll</title>
<path fill="none" stroke="black" d="M1250.44,-71.88C1263.79,-62.89 1280.32,-51.76 1294.78,-42.03"/>
<polygon fill="black" stroke="black" points="1297.12,-44.68 1303.46,-36.19 1293.21,-38.87 1297.12,-44.68"/>
</g>
<!-- StartupProcTriggerHandler&#45;&gt;WakeupRecovery -->
<g id="edge14" class="edge">
<title>StartupProcTriggerHandler&#45;&gt;WakeupRecovery</title>
<path fill="none" stroke="black" d="M859.38,-147.38C849.78,-146.22 840.22,-145.08 831,-144 686.75,-127.16 647.21,-131.45 499.59,-108"/>
<polygon fill="black" stroke="black" points="500.14,-104.54 489.71,-106.41 499.03,-111.45 500.14,-104.54"/>
</g>
</g>
</svg>
