<?xml version="1.0" encoding="UTF-8" standalone="no"?>
<!DOCTYPE svg PUBLIC "-//W3C//DTD SVG 1.1//EN"
 "http://www.w3.org/Graphics/SVG/1.1/DTD/svg11.dtd">
<!-- Generated by graphviz version 2.43.0 (0)
 -->
<!-- Title: cflow Pages: 1 -->
<svg width="1655pt" height="260pt"
 viewBox="0.00 0.00 1655.00 260.00" xmlns="http://www.w3.org/2000/svg" xmlns:xlink="http://www.w3.org/1999/xlink">
<g id="graph0" class="graph" transform="scale(1 1) rotate(0) translate(4 256)">
<title>cflow</title>
<polygon fill="white" stroke="transparent" points="-4,4 -4,-256 1651,-256 1651,4 -4,4"/>
<!-- PGSharedMemoryNoReAttach -->
<g id="node1" class="node">
<title>PGSharedMemoryNoReAttach</title>
<polygon fill="none" stroke="black" points="307.5,-180 74.5,-180 74.5,-144 307.5,-144 307.5,-180"/>
<text text-anchor="middle" x="191" y="-158.3" font-family="Times,serif" font-size="14.00">PGSharedMemoryNoReAttach</text>
</g>
<!-- PGSharedMemoryDetach -->
<g id="node2" class="node">
<title>PGSharedMemoryDetach</title>
<polygon fill="none" stroke="black" points="316,-108 118,-108 118,-72 316,-72 316,-108"/>
<text text-anchor="middle" x="217" y="-86.3" font-family="Times,serif" font-size="14.00">PGSharedMemoryDetach</text>
</g>
<!-- PGSharedMemoryNoReAttach&#45;&gt;PGSharedMemoryDetach -->
<g id="edge1" class="edge">
<title>PGSharedMemoryNoReAttach&#45;&gt;PGSharedMemoryDetach</title>
<path fill="none" stroke="black" d="M197.43,-143.7C200.36,-135.81 203.89,-126.3 207.14,-117.55"/>
<polygon fill="black" stroke="black" points="210.45,-118.7 210.65,-108.1 203.88,-116.26 210.45,-118.7"/>
</g>
<!-- Assert -->
<g id="node16" class="node">
<title>Assert</title>
<polygon fill="none" stroke="black" points="62,-108 0,-108 0,-72 62,-72 62,-108"/>
<text text-anchor="middle" x="31" y="-86.3" font-family="Times,serif" font-size="14.00">Assert</text>
</g>
<!-- PGSharedMemoryNoReAttach&#45;&gt;Assert -->
<g id="edge19" class="edge">
<title>PGSharedMemoryNoReAttach&#45;&gt;Assert</title>
<path fill="none" stroke="black" d="M151.86,-143.88C127.52,-133.23 96.28,-119.56 71.67,-108.79"/>
<polygon fill="black" stroke="black" points="72.81,-105.47 62.24,-104.67 70,-111.88 72.81,-105.47"/>
</g>
<!-- UnmapViewOfFile -->
<g id="node7" class="node">
<title>UnmapViewOfFile</title>
<polygon fill="none" stroke="black" points="310,-36 164,-36 164,0 310,0 310,-36"/>
<text text-anchor="middle" x="237" y="-14.3" font-family="Times,serif" font-size="14.00">UnmapViewOfFile</text>
</g>
<!-- PGSharedMemoryDetach&#45;&gt;UnmapViewOfFile -->
<g id="edge4" class="edge">
<title>PGSharedMemoryDetach&#45;&gt;UnmapViewOfFile</title>
<path fill="none" stroke="black" d="M221.94,-71.7C224.17,-63.9 226.85,-54.51 229.33,-45.83"/>
<polygon fill="black" stroke="black" points="232.73,-46.68 232.11,-36.1 226,-44.76 232.73,-46.68"/>
</g>
<!-- VirtualFree -->
<g id="node9" class="node">
<title>VirtualFree</title>
<polygon fill="none" stroke="black" points="491,-36 393,-36 393,0 491,0 491,-36"/>
<text text-anchor="middle" x="442" y="-14.3" font-family="Times,serif" font-size="14.00">VirtualFree</text>
</g>
<!-- PGSharedMemoryDetach&#45;&gt;VirtualFree -->
<g id="edge20" class="edge">
<title>PGSharedMemoryDetach&#45;&gt;VirtualFree</title>
<path fill="none" stroke="black" d="M271.75,-71.97C305.38,-61.5 348.44,-48.11 382.85,-37.4"/>
<polygon fill="black" stroke="black" points="384.26,-40.63 392.76,-34.32 382.18,-33.95 384.26,-40.63"/>
</g>
<!-- GetLastError -->
<g id="node12" class="node">
<title>GetLastError</title>
<polygon fill="none" stroke="black" points="146,-36 34,-36 34,0 146,0 146,-36"/>
<text text-anchor="middle" x="90" y="-14.3" font-family="Times,serif" font-size="14.00">GetLastError</text>
</g>
<!-- PGSharedMemoryDetach&#45;&gt;GetLastError -->
<g id="edge11" class="edge">
<title>PGSharedMemoryDetach&#45;&gt;GetLastError</title>
<path fill="none" stroke="black" d="M185.93,-71.88C169.17,-62.64 148.29,-51.13 130.3,-41.21"/>
<polygon fill="black" stroke="black" points="131.63,-37.95 121.19,-36.19 128.26,-44.08 131.63,-37.95"/>
</g>
<!-- CloseHandle -->
<g id="node15" class="node">
<title>CloseHandle</title>
<polygon fill="none" stroke="black" points="713.5,-36 606.5,-36 606.5,0 713.5,0 713.5,-36"/>
<text text-anchor="middle" x="660" y="-14.3" font-family="Times,serif" font-size="14.00">CloseHandle</text>
</g>
<!-- PGSharedMemoryDetach&#45;&gt;CloseHandle -->
<g id="edge14" class="edge">
<title>PGSharedMemoryDetach&#45;&gt;CloseHandle</title>
<path fill="none" stroke="black" d="M316.14,-73.33C401.77,-59.8 522.94,-40.66 596.23,-29.08"/>
<polygon fill="black" stroke="black" points="596.91,-32.51 606.24,-27.49 595.82,-25.6 596.91,-32.51"/>
</g>
<!-- PGSharedMemoryReAttach -->
<g id="node3" class="node">
<title>PGSharedMemoryReAttach</title>
<polygon fill="none" stroke="black" points="538.5,-180 325.5,-180 325.5,-144 538.5,-144 538.5,-180"/>
<text text-anchor="middle" x="432" y="-158.3" font-family="Times,serif" font-size="14.00">PGSharedMemoryReAttach</text>
</g>
<!-- PGSharedMemoryReAttach&#45;&gt;PGSharedMemoryDetach -->
<g id="edge22" class="edge">
<title>PGSharedMemoryReAttach&#45;&gt;PGSharedMemoryDetach</title>
<path fill="none" stroke="black" d="M379.68,-143.97C349.38,-134.1 311.05,-121.62 279.21,-111.25"/>
<polygon fill="black" stroke="black" points="280.15,-107.88 269.55,-108.11 277.98,-114.53 280.15,-107.88"/>
</g>
<!-- PGSharedMemoryAttach -->
<g id="node4" class="node">
<title>PGSharedMemoryAttach</title>
<polygon fill="none" stroke="black" points="730,-108 536,-108 536,-72 730,-72 730,-108"/>
<text text-anchor="middle" x="633" y="-86.3" font-family="Times,serif" font-size="14.00">PGSharedMemoryAttach</text>
</g>
<!-- PGSharedMemoryReAttach&#45;&gt;PGSharedMemoryAttach -->
<g id="edge2" class="edge">
<title>PGSharedMemoryReAttach&#45;&gt;PGSharedMemoryAttach</title>
<path fill="none" stroke="black" d="M480.91,-143.97C509,-134.19 544.46,-121.84 574.07,-111.52"/>
<polygon fill="black" stroke="black" points="575.57,-114.71 583.87,-108.11 573.27,-108.09 575.57,-114.71"/>
</g>
<!-- PGSharedMemoryReAttach&#45;&gt;VirtualFree -->
<g id="edge7" class="edge">
<title>PGSharedMemoryReAttach&#45;&gt;VirtualFree</title>
<path fill="none" stroke="black" d="M458.12,-143.82C469.58,-134.69 481.81,-122.39 488,-108 494.33,-93.3 493.6,-86.99 488,-72 484.12,-61.62 477.2,-51.93 469.88,-43.74"/>
<polygon fill="black" stroke="black" points="472.27,-41.18 462.82,-36.38 467.22,-46.03 472.27,-41.18"/>
</g>
<!-- MapViewOfFileEx -->
<g id="node11" class="node">
<title>MapViewOfFileEx</title>
<polygon fill="none" stroke="black" points="479.5,-108 334.5,-108 334.5,-72 479.5,-72 479.5,-108"/>
<text text-anchor="middle" x="407" y="-86.3" font-family="Times,serif" font-size="14.00">MapViewOfFileEx</text>
</g>
<!-- PGSharedMemoryReAttach&#45;&gt;MapViewOfFileEx -->
<g id="edge10" class="edge">
<title>PGSharedMemoryReAttach&#45;&gt;MapViewOfFileEx</title>
<path fill="none" stroke="black" d="M425.82,-143.7C423,-135.81 419.61,-126.3 416.48,-117.55"/>
<polygon fill="black" stroke="black" points="419.77,-116.34 413.11,-108.1 413.18,-118.7 419.77,-116.34"/>
</g>
<!-- PGSharedMemoryReAttach&#45;&gt;GetLastError -->
<g id="edge23" class="edge">
<title>PGSharedMemoryReAttach&#45;&gt;GetLastError</title>
<path fill="none" stroke="black" d="M325.37,-144.94C232.84,-130.79 113.02,-111.84 109,-108 92.52,-92.29 88.57,-66.07 88.27,-46.14"/>
<polygon fill="black" stroke="black" points="91.77,-46.16 88.41,-36.11 84.77,-46.06 91.77,-46.16"/>
</g>
<!-- PGSharedMemoryReAttach&#45;&gt;Assert -->
<g id="edge16" class="edge">
<title>PGSharedMemoryReAttach&#45;&gt;Assert</title>
<path fill="none" stroke="black" d="M325.45,-145.27C221.69,-129.94 79.07,-108.8 76,-108 74.73,-107.67 73.44,-107.31 72.15,-106.94"/>
<polygon fill="black" stroke="black" points="72.79,-103.47 62.19,-103.76 70.65,-110.14 72.79,-103.47"/>
</g>
<!-- SubPostmasterMain -->
<g id="node5" class="node">
<title>SubPostmasterMain</title>
<polygon fill="none" stroke="black" points="1095.5,-252 934.5,-252 934.5,-216 1095.5,-216 1095.5,-252"/>
<text text-anchor="middle" x="1015" y="-230.3" font-family="Times,serif" font-size="14.00">SubPostmasterMain</text>
</g>
<!-- SubPostmasterMain&#45;&gt;PGSharedMemoryNoReAttach -->
<g id="edge6" class="edge">
<title>SubPostmasterMain&#45;&gt;PGSharedMemoryNoReAttach</title>
<path fill="none" stroke="black" d="M934.4,-228.45C806.07,-220.86 547.17,-204.14 317.95,-180.17"/>
<polygon fill="black" stroke="black" points="318.06,-176.67 307.75,-179.1 317.32,-183.63 318.06,-176.67"/>
</g>
<!-- SubPostmasterMain&#45;&gt;PGSharedMemoryReAttach -->
<g id="edge8" class="edge">
<title>SubPostmasterMain&#45;&gt;PGSharedMemoryReAttach</title>
<path fill="none" stroke="black" d="M934.24,-223.3C834.25,-211.3 663.19,-190.76 548.87,-177.03"/>
<polygon fill="black" stroke="black" points="549.03,-173.53 538.68,-175.81 548.19,-180.48 549.03,-173.53"/>
</g>
<!-- ClosePostmasterPorts -->
<g id="node6" class="node">
<title>ClosePostmasterPorts</title>
<polygon fill="none" stroke="black" points="913,-180 739,-180 739,-144 913,-144 913,-180"/>
<text text-anchor="middle" x="826" y="-158.3" font-family="Times,serif" font-size="14.00">ClosePostmasterPorts</text>
</g>
<!-- SubPostmasterMain&#45;&gt;ClosePostmasterPorts -->
<g id="edge3" class="edge">
<title>SubPostmasterMain&#45;&gt;ClosePostmasterPorts</title>
<path fill="none" stroke="black" d="M968.77,-215.88C942.47,-206.14 909.36,-193.87 881.64,-183.61"/>
<polygon fill="black" stroke="black" points="882.68,-180.26 872.08,-180.07 880.25,-186.82 882.68,-180.26"/>
</g>
<!-- InitializeGUCOptions -->
<g id="node13" class="node">
<title>InitializeGUCOptions</title>
<polygon fill="none" stroke="black" points="1099,-180 931,-180 931,-144 1099,-144 1099,-180"/>
<text text-anchor="middle" x="1015" y="-158.3" font-family="Times,serif" font-size="14.00">InitializeGUCOptions</text>
</g>
<!-- SubPostmasterMain&#45;&gt;InitializeGUCOptions -->
<g id="edge12" class="edge">
<title>SubPostmasterMain&#45;&gt;InitializeGUCOptions</title>
<path fill="none" stroke="black" d="M1015,-215.7C1015,-207.98 1015,-198.71 1015,-190.11"/>
<polygon fill="black" stroke="black" points="1018.5,-190.1 1015,-180.1 1011.5,-190.1 1018.5,-190.1"/>
</g>
<!-- InitShmemAccess -->
<g id="node14" class="node">
<title>InitShmemAccess</title>
<polygon fill="none" stroke="black" points="1260.5,-180 1117.5,-180 1117.5,-144 1260.5,-144 1260.5,-180"/>
<text text-anchor="middle" x="1189" y="-158.3" font-family="Times,serif" font-size="14.00">InitShmemAccess</text>
</g>
<!-- SubPostmasterMain&#45;&gt;InitShmemAccess -->
<g id="edge13" class="edge">
<title>SubPostmasterMain&#45;&gt;InitShmemAccess</title>
<path fill="none" stroke="black" d="M1057.57,-215.88C1081.56,-206.22 1111.73,-194.09 1137.1,-183.88"/>
<polygon fill="black" stroke="black" points="1138.6,-187.05 1146.57,-180.07 1135.99,-180.55 1138.6,-187.05"/>
</g>
<!-- InitPostmasterChild -->
<g id="node17" class="node">
<title>InitPostmasterChild</title>
<polygon fill="none" stroke="black" points="1439,-180 1279,-180 1279,-144 1439,-144 1439,-180"/>
<text text-anchor="middle" x="1359" y="-158.3" font-family="Times,serif" font-size="14.00">InitPostmasterChild</text>
</g>
<!-- SubPostmasterMain&#45;&gt;InitPostmasterChild -->
<g id="edge17" class="edge">
<title>SubPostmasterMain&#45;&gt;InitPostmasterChild</title>
<path fill="none" stroke="black" d="M1095.65,-216.59C1147.62,-206.01 1215.27,-192.25 1268.99,-181.32"/>
<polygon fill="black" stroke="black" points="1269.75,-184.73 1278.85,-179.31 1268.36,-177.87 1269.75,-184.73"/>
</g>
<!-- LocalProcessControlFile -->
<g id="node18" class="node">
<title>LocalProcessControlFile</title>
<polygon fill="none" stroke="black" points="1647,-180 1457,-180 1457,-144 1647,-144 1647,-180"/>
<text text-anchor="middle" x="1552" y="-158.3" font-family="Times,serif" font-size="14.00">LocalProcessControlFile</text>
</g>
<!-- SubPostmasterMain&#45;&gt;LocalProcessControlFile -->
<g id="edge18" class="edge">
<title>SubPostmasterMain&#45;&gt;LocalProcessControlFile</title>
<path fill="none" stroke="black" d="M1095.73,-224.1C1180.58,-214.52 1318.21,-198.36 1446.78,-180.15"/>
<polygon fill="black" stroke="black" points="1447.4,-183.59 1456.81,-178.72 1446.42,-176.66 1447.4,-183.59"/>
</g>
<!-- DNSServiceRefSockFD -->
<g id="node8" class="node">
<title>DNSServiceRefSockFD</title>
<polygon fill="none" stroke="black" points="1201.5,-108 1020.5,-108 1020.5,-72 1201.5,-72 1201.5,-108"/>
<text text-anchor="middle" x="1111" y="-86.3" font-family="Times,serif" font-size="14.00">DNSServiceRefSockFD</text>
</g>
<!-- ClosePostmasterPorts&#45;&gt;DNSServiceRefSockFD -->
<g id="edge5" class="edge">
<title>ClosePostmasterPorts&#45;&gt;DNSServiceRefSockFD</title>
<path fill="none" stroke="black" d="M895.35,-143.97C936.47,-133.87 988.74,-121.03 1031.52,-110.52"/>
<polygon fill="black" stroke="black" points="1032.46,-113.9 1041.33,-108.11 1030.79,-107.1 1032.46,-113.9"/>
</g>
<!-- ReleaseExternalFD -->
<g id="node10" class="node">
<title>ReleaseExternalFD</title>
<polygon fill="none" stroke="black" points="1374.5,-108 1219.5,-108 1219.5,-72 1374.5,-72 1374.5,-108"/>
<text text-anchor="middle" x="1297" y="-86.3" font-family="Times,serif" font-size="14.00">ReleaseExternalFD</text>
</g>
<!-- ClosePostmasterPorts&#45;&gt;ReleaseExternalFD -->
<g id="edge9" class="edge">
<title>ClosePostmasterPorts&#45;&gt;ReleaseExternalFD</title>
<path fill="none" stroke="black" d="M913.09,-145.38C916.09,-144.9 919.07,-144.44 922,-144 1046.74,-125.2 1081.46,-128.38 1209.06,-108.25"/>
<polygon fill="black" stroke="black" points="1209.91,-111.66 1219.23,-106.63 1208.8,-104.75 1209.91,-111.66"/>
</g>
<!-- ClosePostmasterPorts&#45;&gt;CloseHandle -->
<g id="edge15" class="edge">
<title>ClosePostmasterPorts&#45;&gt;CloseHandle</title>
<path fill="none" stroke="black" d="M810.1,-143.92C789.26,-121.67 753.62,-84.16 739,-72 725.98,-61.17 710.72,-50.51 697.09,-41.63"/>
<polygon fill="black" stroke="black" points="698.73,-38.52 688.42,-36.06 694.95,-44.41 698.73,-38.52"/>
</g>
<!-- FreeWaitEventSetAfterFork -->
<g id="node19" class="node">
<title>FreeWaitEventSetAfterFork</title>
<polygon fill="none" stroke="black" points="1002,-108 786,-108 786,-72 1002,-72 1002,-108"/>
<text text-anchor="middle" x="894" y="-86.3" font-family="Times,serif" font-size="14.00">FreeWaitEventSetAfterFork</text>
</g>
<!-- ClosePostmasterPorts&#45;&gt;FreeWaitEventSetAfterFork -->
<g id="edge21" class="edge">
<title>ClosePostmasterPorts&#45;&gt;FreeWaitEventSetAfterFork</title>
<path fill="none" stroke="black" d="M842.81,-143.7C851.13,-135.14 861.31,-124.66 870.39,-115.3"/>
<polygon fill="black" stroke="black" points="872.93,-117.72 877.38,-108.1 867.91,-112.84 872.93,-117.72"/>
</g>
</g>
</svg>
