<?xml version="1.0" encoding="UTF-8" standalone="no"?>
<!DOCTYPE svg PUBLIC "-//W3C//DTD SVG 1.1//EN"
 "http://www.w3.org/Graphics/SVG/1.1/DTD/svg11.dtd">
<!-- Generated by graphviz version 2.43.0 (0)
 -->
<!-- Title: cflow Pages: 1 -->
<svg width="2180pt" height="188pt"
 viewBox="0.00 0.00 2179.50 188.00" xmlns="http://www.w3.org/2000/svg" xmlns:xlink="http://www.w3.org/1999/xlink">
<g id="graph0" class="graph" transform="scale(1 1) rotate(0) translate(4 184)">
<title>cflow</title>
<polygon fill="white" stroke="transparent" points="-4,4 -4,-184 2175.5,-184 2175.5,4 -4,4"/>
<!-- SysLoggerMain -->
<g id="node1" class="node">
<title>SysLoggerMain</title>
<polygon fill="none" stroke="black" points="1198,-180 1070,-180 1070,-144 1198,-144 1198,-180"/>
<text text-anchor="middle" x="1134" y="-158.3" font-family="Times,serif" font-size="14.00">SysLoggerMain</text>
</g>
<!-- SignalHandlerForConfigReload -->
<g id="node2" class="node">
<title>SignalHandlerForConfigReload</title>
<polygon fill="none" stroke="black" points="238,-108 0,-108 0,-72 238,-72 238,-108"/>
<text text-anchor="middle" x="119" y="-86.3" font-family="Times,serif" font-size="14.00">SignalHandlerForConfigReload</text>
</g>
<!-- SysLoggerMain&#45;&gt;SignalHandlerForConfigReload -->
<g id="edge1" class="edge">
<title>SysLoggerMain&#45;&gt;SignalHandlerForConfigReload</title>
<path fill="none" stroke="black" d="M1069.87,-158.76C925.24,-153.37 562.41,-137.9 248.41,-108.1"/>
<polygon fill="black" stroke="black" points="248.49,-104.59 238.2,-107.12 247.82,-111.55 248.49,-104.59"/>
</g>
<!-- LeaveCriticalSection -->
<g id="node3" class="node">
<title>LeaveCriticalSection</title>
<polygon fill="none" stroke="black" points="420,-108 256,-108 256,-72 420,-72 420,-108"/>
<text text-anchor="middle" x="338" y="-86.3" font-family="Times,serif" font-size="14.00">LeaveCriticalSection</text>
</g>
<!-- SysLoggerMain&#45;&gt;LeaveCriticalSection -->
<g id="edge2" class="edge">
<title>SysLoggerMain&#45;&gt;LeaveCriticalSection</title>
<path fill="none" stroke="black" d="M1069.7,-158.48C947.3,-153.17 672.25,-138.81 430.23,-107.93"/>
<polygon fill="black" stroke="black" points="430.55,-104.45 420.19,-106.64 429.66,-111.39 430.55,-104.45"/>
</g>
<!-- CreateWaitEventSet -->
<g id="node4" class="node">
<title>CreateWaitEventSet</title>
<polygon fill="none" stroke="black" points="601.5,-108 438.5,-108 438.5,-72 601.5,-72 601.5,-108"/>
<text text-anchor="middle" x="520" y="-86.3" font-family="Times,serif" font-size="14.00">CreateWaitEventSet</text>
</g>
<!-- SysLoggerMain&#45;&gt;CreateWaitEventSet -->
<g id="edge3" class="edge">
<title>SysLoggerMain&#45;&gt;CreateWaitEventSet</title>
<path fill="none" stroke="black" d="M1069.78,-156.23C972.81,-148.65 783.04,-132.31 611.75,-108.04"/>
<polygon fill="black" stroke="black" points="612.19,-104.57 601.8,-106.62 611.2,-111.5 612.19,-104.57"/>
</g>
<!-- InitializeCriticalSection -->
<g id="node5" class="node">
<title>InitializeCriticalSection</title>
<polygon fill="none" stroke="black" points="804.5,-108 619.5,-108 619.5,-72 804.5,-72 804.5,-108"/>
<text text-anchor="middle" x="712" y="-86.3" font-family="Times,serif" font-size="14.00">InitializeCriticalSection</text>
</g>
<!-- SysLoggerMain&#45;&gt;InitializeCriticalSection -->
<g id="edge4" class="edge">
<title>SysLoggerMain&#45;&gt;InitializeCriticalSection</title>
<path fill="none" stroke="black" d="M1069.94,-150.41C1007.55,-140.09 909.71,-123.9 814.65,-108.11"/>
<polygon fill="black" stroke="black" points="815,-104.62 804.57,-106.43 813.86,-111.52 815,-104.62"/>
</g>
<!-- WaitEventSetWait -->
<g id="node6" class="node">
<title>WaitEventSetWait</title>
<polygon fill="none" stroke="black" points="969.5,-108 822.5,-108 822.5,-72 969.5,-72 969.5,-108"/>
<text text-anchor="middle" x="896" y="-86.3" font-family="Times,serif" font-size="14.00">WaitEventSetWait</text>
</g>
<!-- SysLoggerMain&#45;&gt;WaitEventSetWait -->
<g id="edge5" class="edge">
<title>SysLoggerMain&#45;&gt;WaitEventSetWait</title>
<path fill="none" stroke="black" d="M1076.08,-143.97C1042.25,-134.01 999.38,-121.41 963.96,-110.99"/>
<polygon fill="black" stroke="black" points="964.76,-107.57 954.18,-108.11 962.78,-114.29 964.76,-107.57"/>
</g>
<!-- ResetLatch -->
<g id="node7" class="node">
<title>ResetLatch</title>
<polygon fill="none" stroke="black" points="1084.5,-108 987.5,-108 987.5,-72 1084.5,-72 1084.5,-108"/>
<text text-anchor="middle" x="1036" y="-86.3" font-family="Times,serif" font-size="14.00">ResetLatch</text>
</g>
<!-- SysLoggerMain&#45;&gt;ResetLatch -->
<g id="edge6" class="edge">
<title>SysLoggerMain&#45;&gt;ResetLatch</title>
<path fill="none" stroke="black" d="M1110.03,-143.88C1097.45,-134.89 1081.87,-123.76 1068.25,-114.03"/>
<polygon fill="black" stroke="black" points="1070.24,-111.15 1060.07,-108.19 1066.17,-116.85 1070.24,-111.15"/>
</g>
<!-- Assert -->
<g id="node8" class="node">
<title>Assert</title>
<polygon fill="none" stroke="black" points="1165,-108 1103,-108 1103,-72 1165,-72 1165,-108"/>
<text text-anchor="middle" x="1134" y="-86.3" font-family="Times,serif" font-size="14.00">Assert</text>
</g>
<!-- SysLoggerMain&#45;&gt;Assert -->
<g id="edge7" class="edge">
<title>SysLoggerMain&#45;&gt;Assert</title>
<path fill="none" stroke="black" d="M1134,-143.7C1134,-135.98 1134,-126.71 1134,-118.11"/>
<polygon fill="black" stroke="black" points="1137.5,-118.1 1134,-108.1 1130.5,-118.1 1137.5,-118.1"/>
</g>
<!-- EnterCriticalSection -->
<g id="node9" class="node">
<title>EnterCriticalSection</title>
<polygon fill="none" stroke="black" points="1346.5,-108 1183.5,-108 1183.5,-72 1346.5,-72 1346.5,-108"/>
<text text-anchor="middle" x="1265" y="-86.3" font-family="Times,serif" font-size="14.00">EnterCriticalSection</text>
</g>
<!-- SysLoggerMain&#45;&gt;EnterCriticalSection -->
<g id="edge8" class="edge">
<title>SysLoggerMain&#45;&gt;EnterCriticalSection</title>
<path fill="none" stroke="black" d="M1166.05,-143.88C1183.49,-134.55 1205.27,-122.92 1223.94,-112.94"/>
<polygon fill="black" stroke="black" points="1225.66,-115.99 1232.83,-108.19 1222.36,-109.82 1225.66,-115.99"/>
</g>
<!-- AddWaitEventToSet -->
<g id="node10" class="node">
<title>AddWaitEventToSet</title>
<polygon fill="none" stroke="black" points="1523.5,-108 1364.5,-108 1364.5,-72 1523.5,-72 1523.5,-108"/>
<text text-anchor="middle" x="1444" y="-86.3" font-family="Times,serif" font-size="14.00">AddWaitEventToSet</text>
</g>
<!-- SysLoggerMain&#45;&gt;AddWaitEventToSet -->
<g id="edge9" class="edge">
<title>SysLoggerMain&#45;&gt;AddWaitEventToSet</title>
<path fill="none" stroke="black" d="M1198.23,-146.5C1244.7,-136 1307.98,-121.71 1358.69,-110.26"/>
<polygon fill="black" stroke="black" points="1359.67,-113.63 1368.65,-108.01 1358.13,-106.8 1359.67,-113.63"/>
</g>
<!-- MakePGDirectory -->
<g id="node11" class="node">
<title>MakePGDirectory</title>
<polygon fill="none" stroke="black" points="1686,-108 1542,-108 1542,-72 1686,-72 1686,-108"/>
<text text-anchor="middle" x="1614" y="-86.3" font-family="Times,serif" font-size="14.00">MakePGDirectory</text>
</g>
<!-- SysLoggerMain&#45;&gt;MakePGDirectory -->
<g id="edge10" class="edge">
<title>SysLoggerMain&#45;&gt;MakePGDirectory</title>
<path fill="none" stroke="black" d="M1198.14,-153.98C1275.08,-145.22 1408.14,-129.01 1531.62,-108.17"/>
<polygon fill="black" stroke="black" points="1532.36,-111.6 1541.63,-106.47 1531.18,-104.7 1532.36,-111.6"/>
</g>
<!-- CloseHandle -->
<g id="node12" class="node">
<title>CloseHandle</title>
<polygon fill="none" stroke="black" points="1811.5,-108 1704.5,-108 1704.5,-72 1811.5,-72 1811.5,-108"/>
<text text-anchor="middle" x="1758" y="-86.3" font-family="Times,serif" font-size="14.00">CloseHandle</text>
</g>
<!-- SysLoggerMain&#45;&gt;CloseHandle -->
<g id="edge11" class="edge">
<title>SysLoggerMain&#45;&gt;CloseHandle</title>
<path fill="none" stroke="black" d="M1198.42,-158.46C1301.4,-153.63 1509.43,-140.67 1694.28,-107.94"/>
<polygon fill="black" stroke="black" points="1694.96,-111.38 1704.18,-106.17 1693.72,-104.49 1694.96,-111.38"/>
</g>
<!-- MemoryContextDelete -->
<g id="node13" class="node">
<title>MemoryContextDelete</title>
<polygon fill="none" stroke="black" points="2008.5,-108 1829.5,-108 1829.5,-72 2008.5,-72 2008.5,-108"/>
<text text-anchor="middle" x="1919" y="-86.3" font-family="Times,serif" font-size="14.00">MemoryContextDelete</text>
</g>
<!-- SysLoggerMain&#45;&gt;MemoryContextDelete -->
<g id="edge12" class="edge">
<title>SysLoggerMain&#45;&gt;MemoryContextDelete</title>
<path fill="none" stroke="black" d="M1198.14,-158.08C1318.18,-152.18 1585.1,-136.97 1819.26,-108.16"/>
<polygon fill="black" stroke="black" points="1819.84,-111.61 1829.33,-106.91 1818.97,-104.66 1819.84,-111.61"/>
</g>
<!-- ProcessConfigFile -->
<g id="node15" class="node">
<title>ProcessConfigFile</title>
<polygon fill="none" stroke="black" points="2171.5,-108 2026.5,-108 2026.5,-72 2171.5,-72 2171.5,-108"/>
<text text-anchor="middle" x="2099" y="-86.3" font-family="Times,serif" font-size="14.00">ProcessConfigFile</text>
</g>
<!-- SysLoggerMain&#45;&gt;ProcessConfigFile -->
<g id="edge14" class="edge">
<title>SysLoggerMain&#45;&gt;ProcessConfigFile</title>
<path fill="none" stroke="black" d="M1198.1,-160.38C1342.62,-158.28 1704.96,-149.14 2016.11,-108.15"/>
<polygon fill="black" stroke="black" points="2016.78,-111.59 2026.23,-106.8 2015.86,-104.65 2016.78,-111.59"/>
</g>
<!-- SetLatch -->
<g id="node14" class="node">
<title>SetLatch</title>
<polygon fill="none" stroke="black" points="159,-36 79,-36 79,0 159,0 159,-36"/>
<text text-anchor="middle" x="119" y="-14.3" font-family="Times,serif" font-size="14.00">SetLatch</text>
</g>
<!-- SignalHandlerForConfigReload&#45;&gt;SetLatch -->
<g id="edge13" class="edge">
<title>SignalHandlerForConfigReload&#45;&gt;SetLatch</title>
<path fill="none" stroke="black" d="M119,-71.7C119,-63.98 119,-54.71 119,-46.11"/>
<polygon fill="black" stroke="black" points="122.5,-46.1 119,-36.1 115.5,-46.1 122.5,-46.1"/>
</g>
</g>
</svg>
