<?xml version="1.0" encoding="UTF-8" standalone="no"?>
<!DOCTYPE svg PUBLIC "-//W3C//DTD SVG 1.1//EN"
 "http://www.w3.org/Graphics/SVG/1.1/DTD/svg11.dtd">
<!-- Generated by graphviz version 2.43.0 (0)
 -->
<!-- Title: cflow Pages: 1 -->
<svg width="4968pt" height="260pt"
 viewBox="0.00 0.00 4968.00 260.00" xmlns="http://www.w3.org/2000/svg" xmlns:xlink="http://www.w3.org/1999/xlink">
<g id="graph0" class="graph" transform="scale(1 1) rotate(0) translate(4 256)">
<title>cflow</title>
<polygon fill="white" stroke="transparent" points="-4,4 -4,-256 4964,-256 4964,4 -4,4"/>
<!-- WalWriterMain -->
<g id="node1" class="node">
<title>WalWriterMain</title>
<polygon fill="none" stroke="black" points="2727,-252 2602,-252 2602,-216 2727,-216 2727,-252"/>
<text text-anchor="middle" x="2664.5" y="-230.3" font-family="Times,serif" font-size="14.00">WalWriterMain</text>
</g>
<!-- AtEOXact_Files -->
<g id="node2" class="node">
<title>AtEOXact_Files</title>
<polygon fill="none" stroke="black" points="127,-180 0,-180 0,-144 127,-144 127,-180"/>
<text text-anchor="middle" x="63.5" y="-158.3" font-family="Times,serif" font-size="14.00">AtEOXact_Files</text>
</g>
<!-- WalWriterMain&#45;&gt;AtEOXact_Files -->
<g id="edge1" class="edge">
<title>WalWriterMain&#45;&gt;AtEOXact_Files</title>
<path fill="none" stroke="black" d="M2601.72,-232.47C2240.43,-229.28 432.4,-211.94 137.3,-179.82"/>
<polygon fill="black" stroke="black" points="137.4,-176.31 127.06,-178.62 136.59,-183.26 137.4,-176.31"/>
</g>
<!-- XLogBackgroundFlush -->
<g id="node3" class="node">
<title>XLogBackgroundFlush</title>
<polygon fill="none" stroke="black" points="323.5,-180 145.5,-180 145.5,-144 323.5,-144 323.5,-180"/>
<text text-anchor="middle" x="234.5" y="-158.3" font-family="Times,serif" font-size="14.00">XLogBackgroundFlush</text>
</g>
<!-- WalWriterMain&#45;&gt;XLogBackgroundFlush -->
<g id="edge2" class="edge">
<title>WalWriterMain&#45;&gt;XLogBackgroundFlush</title>
<path fill="none" stroke="black" d="M2601.95,-232.77C2278.75,-231.39 795.42,-222.79 337.5,-180 336.23,-179.88 334.95,-179.76 333.67,-179.63"/>
<polygon fill="black" stroke="black" points="334.05,-176.15 323.73,-178.52 333.28,-183.1 334.05,-176.15"/>
</g>
<!-- Assert -->
<g id="node4" class="node">
<title>Assert</title>
<polygon fill="none" stroke="black" points="441.5,-108 379.5,-108 379.5,-72 441.5,-72 441.5,-108"/>
<text text-anchor="middle" x="410.5" y="-86.3" font-family="Times,serif" font-size="14.00">Assert</text>
</g>
<!-- WalWriterMain&#45;&gt;Assert -->
<g id="edge3" class="edge">
<title>WalWriterMain&#45;&gt;Assert</title>
<path fill="none" stroke="black" d="M2601.99,-232.57C2390.97,-230.77 1685.63,-221.8 1104.5,-180 816.11,-159.26 735.22,-181.47 451.39,-107.8"/>
<polygon fill="black" stroke="black" points="452.2,-104.4 441.64,-105.25 450.43,-111.17 452.2,-104.4"/>
</g>
<!-- AuxiliaryProcessMainCommon -->
<g id="node5" class="node">
<title>AuxiliaryProcessMainCommon</title>
<polygon fill="none" stroke="black" points="1349,-180 1114,-180 1114,-144 1349,-144 1349,-180"/>
<text text-anchor="middle" x="1231.5" y="-158.3" font-family="Times,serif" font-size="14.00">AuxiliaryProcessMainCommon</text>
</g>
<!-- WalWriterMain&#45;&gt;AuxiliaryProcessMainCommon -->
<g id="edge27" class="edge">
<title>WalWriterMain&#45;&gt;AuxiliaryProcessMainCommon</title>
<path fill="none" stroke="black" d="M2601.99,-230.15C2432.68,-222.41 1951.03,-200.2 1550.5,-180 1487.54,-176.82 1417.59,-173.12 1359.28,-169.98"/>
<polygon fill="black" stroke="black" points="1359.45,-166.48 1349.28,-169.44 1359.08,-173.47 1359.45,-166.48"/>
</g>
<!-- AtEOXact_SMgr -->
<g id="node8" class="node">
<title>AtEOXact_SMgr</title>
<polygon fill="none" stroke="black" points="1724.5,-180 1592.5,-180 1592.5,-144 1724.5,-144 1724.5,-180"/>
<text text-anchor="middle" x="1658.5" y="-158.3" font-family="Times,serif" font-size="14.00">AtEOXact_SMgr</text>
</g>
<!-- WalWriterMain&#45;&gt;AtEOXact_SMgr -->
<g id="edge6" class="edge">
<title>WalWriterMain&#45;&gt;AtEOXact_SMgr</title>
<path fill="none" stroke="black" d="M2601.77,-233.01C2452.78,-232.27 2065.97,-225.82 1734.91,-180.05"/>
<polygon fill="black" stroke="black" points="1735.03,-176.54 1724.64,-178.62 1734.06,-183.47 1735.03,-176.54"/>
</g>
<!-- SetWalWriterSleeping -->
<g id="node9" class="node">
<title>SetWalWriterSleeping</title>
<polygon fill="none" stroke="black" points="1918,-180 1743,-180 1743,-144 1918,-144 1918,-180"/>
<text text-anchor="middle" x="1830.5" y="-158.3" font-family="Times,serif" font-size="14.00">SetWalWriterSleeping</text>
</g>
<!-- WalWriterMain&#45;&gt;SetWalWriterSleeping -->
<g id="edge7" class="edge">
<title>WalWriterMain&#45;&gt;SetWalWriterSleeping</title>
<path fill="none" stroke="black" d="M2601.69,-230.64C2475.88,-225.44 2183.92,-211.03 1928.43,-180.03"/>
<polygon fill="black" stroke="black" points="1928.56,-176.52 1918.21,-178.78 1927.71,-183.47 1928.56,-176.52"/>
</g>
<!-- FlushErrorState -->
<g id="node12" class="node">
<title>FlushErrorState</title>
<polygon fill="none" stroke="black" points="2070.5,-180 1936.5,-180 1936.5,-144 2070.5,-144 2070.5,-180"/>
<text text-anchor="middle" x="2003.5" y="-158.3" font-family="Times,serif" font-size="14.00">FlushErrorState</text>
</g>
<!-- WalWriterMain&#45;&gt;FlushErrorState -->
<g id="edge10" class="edge">
<title>WalWriterMain&#45;&gt;FlushErrorState</title>
<path fill="none" stroke="black" d="M2601.84,-230C2496.25,-224.35 2276.1,-210.06 2080.71,-180.07"/>
<polygon fill="black" stroke="black" points="2080.97,-176.57 2070.55,-178.49 2079.89,-183.48 2080.97,-176.57"/>
</g>
<!-- HandleMainLoopInterrupts -->
<g id="node13" class="node">
<title>HandleMainLoopInterrupts</title>
<polygon fill="none" stroke="black" points="2300.5,-180 2088.5,-180 2088.5,-144 2300.5,-144 2300.5,-180"/>
<text text-anchor="middle" x="2194.5" y="-158.3" font-family="Times,serif" font-size="14.00">HandleMainLoopInterrupts</text>
</g>
<!-- WalWriterMain&#45;&gt;HandleMainLoopInterrupts -->
<g id="edge19" class="edge">
<title>WalWriterMain&#45;&gt;HandleMainLoopInterrupts</title>
<path fill="none" stroke="black" d="M2601.6,-223.63C2527.39,-212.58 2402.48,-193.98 2310.56,-180.29"/>
<polygon fill="black" stroke="black" points="2311.05,-176.82 2300.64,-178.81 2310.02,-183.74 2311.05,-176.82"/>
</g>
<!-- AtEOXact_Buffers -->
<g id="node15" class="node">
<title>AtEOXact_Buffers</title>
<polygon fill="none" stroke="black" points="2462.5,-180 2318.5,-180 2318.5,-144 2462.5,-144 2462.5,-180"/>
<text text-anchor="middle" x="2390.5" y="-158.3" font-family="Times,serif" font-size="14.00">AtEOXact_Buffers</text>
</g>
<!-- WalWriterMain&#45;&gt;AtEOXact_Buffers -->
<g id="edge12" class="edge">
<title>WalWriterMain&#45;&gt;AtEOXact_Buffers</title>
<path fill="none" stroke="black" d="M2601.98,-217.03C2561.83,-206.77 2509.42,-193.38 2466.82,-182.5"/>
<polygon fill="black" stroke="black" points="2467.61,-179.09 2457.05,-180 2465.88,-185.87 2467.61,-179.09"/>
</g>
<!-- MemoryContextReset -->
<g id="node16" class="node">
<title>MemoryContextReset</title>
<polygon fill="none" stroke="black" points="2654,-180 2481,-180 2481,-144 2654,-144 2654,-180"/>
<text text-anchor="middle" x="2567.5" y="-158.3" font-family="Times,serif" font-size="14.00">MemoryContextReset</text>
</g>
<!-- WalWriterMain&#45;&gt;MemoryContextReset -->
<g id="edge13" class="edge">
<title>WalWriterMain&#45;&gt;MemoryContextReset</title>
<path fill="none" stroke="black" d="M2640.52,-215.7C2628.19,-206.8 2612.98,-195.82 2599.65,-186.2"/>
<polygon fill="black" stroke="black" points="2601.36,-183.12 2591.2,-180.1 2597.26,-188.79 2601.36,-183.12"/>
</g>
<!-- ConditionVariableCancelSleep -->
<g id="node17" class="node">
<title>ConditionVariableCancelSleep</title>
<polygon fill="none" stroke="black" points="1156.5,-36 924.5,-36 924.5,0 1156.5,0 1156.5,-36"/>
<text text-anchor="middle" x="1040.5" y="-14.3" font-family="Times,serif" font-size="14.00">ConditionVariableCancelSleep</text>
</g>
<!-- WalWriterMain&#45;&gt;ConditionVariableCancelSleep -->
<g id="edge14" class="edge">
<title>WalWriterMain&#45;&gt;ConditionVariableCancelSleep</title>
<path fill="none" stroke="black" d="M2601.98,-232.39C2279.26,-229.08 809.16,-212.33 608.5,-180 499.4,-162.42 436.37,-196.74 370.5,-108 360.96,-95.15 359.64,-83.75 370.5,-72 406.56,-32.98 730.5,-22.65 914.4,-19.94"/>
<polygon fill="black" stroke="black" points="914.45,-23.44 924.4,-19.8 914.35,-16.44 914.45,-23.44"/>
</g>
<!-- AllocSetContextCreate -->
<g id="node18" class="node">
<title>AllocSetContextCreate</title>
<polygon fill="none" stroke="black" points="2851,-180 2672,-180 2672,-144 2851,-144 2851,-180"/>
<text text-anchor="middle" x="2761.5" y="-158.3" font-family="Times,serif" font-size="14.00">AllocSetContextCreate</text>
</g>
<!-- WalWriterMain&#45;&gt;AllocSetContextCreate -->
<g id="edge15" class="edge">
<title>WalWriterMain&#45;&gt;AllocSetContextCreate</title>
<path fill="none" stroke="black" d="M2688.48,-215.7C2700.81,-206.8 2716.02,-195.82 2729.35,-186.2"/>
<polygon fill="black" stroke="black" points="2731.74,-188.79 2737.8,-180.1 2727.64,-183.12 2731.74,-188.79"/>
</g>
<!-- UnlockBuffers -->
<g id="node19" class="node">
<title>UnlockBuffers</title>
<polygon fill="none" stroke="black" points="2987.5,-180 2869.5,-180 2869.5,-144 2987.5,-144 2987.5,-180"/>
<text text-anchor="middle" x="2928.5" y="-158.3" font-family="Times,serif" font-size="14.00">UnlockBuffers</text>
</g>
<!-- WalWriterMain&#45;&gt;UnlockBuffers -->
<g id="edge16" class="edge">
<title>WalWriterMain&#45;&gt;UnlockBuffers</title>
<path fill="none" stroke="black" d="M2727.06,-216.41C2766.79,-205.88 2818.24,-192.24 2859.2,-181.38"/>
<polygon fill="black" stroke="black" points="2860.34,-184.7 2869.1,-178.75 2858.54,-177.93 2860.34,-184.7"/>
</g>
<!-- ReleaseAuxProcessResources -->
<g id="node22" class="node">
<title>ReleaseAuxProcessResources</title>
<polygon fill="none" stroke="black" points="3233.5,-180 3005.5,-180 3005.5,-144 3233.5,-144 3233.5,-180"/>
<text text-anchor="middle" x="3119.5" y="-158.3" font-family="Times,serif" font-size="14.00">ReleaseAuxProcessResources</text>
</g>
<!-- WalWriterMain&#45;&gt;ReleaseAuxProcessResources -->
<g id="edge20" class="edge">
<title>WalWriterMain&#45;&gt;ReleaseAuxProcessResources</title>
<path fill="none" stroke="black" d="M2727.29,-223.34C2797.12,-212.6 2911.59,-194.99 2998.88,-181.56"/>
<polygon fill="black" stroke="black" points="2999.5,-185 3008.85,-180.02 2998.43,-178.08 2999.5,-185"/>
</g>
<!-- EmitErrorReport -->
<g id="node23" class="node">
<title>EmitErrorReport</title>
<polygon fill="none" stroke="black" points="3391,-180 3252,-180 3252,-144 3391,-144 3391,-180"/>
<text text-anchor="middle" x="3321.5" y="-158.3" font-family="Times,serif" font-size="14.00">EmitErrorReport</text>
</g>
<!-- WalWriterMain&#45;&gt;EmitErrorReport -->
<g id="edge21" class="edge">
<title>WalWriterMain&#45;&gt;EmitErrorReport</title>
<path fill="none" stroke="black" d="M2727.24,-229.73C2831.86,-223.73 3048.65,-208.99 3241.75,-180"/>
<polygon fill="black" stroke="black" points="3242.44,-183.44 3251.8,-178.48 3241.39,-176.52 3242.44,-183.44"/>
</g>
<!-- AtEOXact_HashTables -->
<g id="node25" class="node">
<title>AtEOXact_HashTables</title>
<polygon fill="none" stroke="black" points="3584,-180 3409,-180 3409,-144 3584,-144 3584,-180"/>
<text text-anchor="middle" x="3496.5" y="-158.3" font-family="Times,serif" font-size="14.00">AtEOXact_HashTables</text>
</g>
<!-- WalWriterMain&#45;&gt;AtEOXact_HashTables -->
<g id="edge23" class="edge">
<title>WalWriterMain&#45;&gt;AtEOXact_HashTables</title>
<path fill="none" stroke="black" d="M2727.14,-230.63C2852.61,-225.41 3143.78,-210.97 3398.6,-180.03"/>
<polygon fill="black" stroke="black" points="3399.29,-183.47 3408.79,-178.78 3398.44,-176.52 3399.29,-183.47"/>
</g>
<!-- SignalHandlerForConfigReload -->
<g id="node27" class="node">
<title>SignalHandlerForConfigReload</title>
<polygon fill="none" stroke="black" points="3840.5,-180 3602.5,-180 3602.5,-144 3840.5,-144 3840.5,-180"/>
<text text-anchor="middle" x="3721.5" y="-158.3" font-family="Times,serif" font-size="14.00">SignalHandlerForConfigReload</text>
</g>
<!-- WalWriterMain&#45;&gt;SignalHandlerForConfigReload -->
<g id="edge28" class="edge">
<title>WalWriterMain&#45;&gt;SignalHandlerForConfigReload</title>
<path fill="none" stroke="black" d="M2727.08,-231.02C2875.29,-226 3259.58,-210.96 3592.08,-179.99"/>
<polygon fill="black" stroke="black" points="3592.77,-183.44 3602.4,-179.02 3592.12,-176.47 3592.77,-183.44"/>
</g>
<!-- MemoryContextSwitchTo -->
<g id="node28" class="node">
<title>MemoryContextSwitchTo</title>
<polygon fill="none" stroke="black" points="4348,-180 4151,-180 4151,-144 4348,-144 4348,-180"/>
<text text-anchor="middle" x="4249.5" y="-158.3" font-family="Times,serif" font-size="14.00">MemoryContextSwitchTo</text>
</g>
<!-- WalWriterMain&#45;&gt;MemoryContextSwitchTo -->
<g id="edge29" class="edge">
<title>WalWriterMain&#45;&gt;MemoryContextSwitchTo</title>
<path fill="none" stroke="black" d="M2727.3,-233.44C2930.35,-234.3 3587.48,-232.59 4140.79,-179.98"/>
<polygon fill="black" stroke="black" points="4141.35,-183.45 4150.97,-179.01 4140.69,-176.48 4141.35,-183.45"/>
</g>
<!-- LWLockReleaseAll -->
<g id="node29" class="node">
<title>LWLockReleaseAll</title>
<polygon fill="none" stroke="black" points="1719.5,-36 1573.5,-36 1573.5,0 1719.5,0 1719.5,-36"/>
<text text-anchor="middle" x="1646.5" y="-14.3" font-family="Times,serif" font-size="14.00">LWLockReleaseAll</text>
</g>
<!-- WalWriterMain&#45;&gt;LWLockReleaseAll -->
<g id="edge30" class="edge">
<title>WalWriterMain&#45;&gt;LWLockReleaseAll</title>
<path fill="none" stroke="black" d="M2601.68,-232.28C2376.14,-229.41 1618.77,-217.04 1583.5,-180 1572.47,-168.41 1572.81,-155.9 1583.5,-144 1633.38,-88.46 1867.62,-163.54 1917.5,-108 1975.08,-43.88 1829.15,-25.81 1729.78,-20.81"/>
<polygon fill="black" stroke="black" points="1729.87,-17.31 1719.72,-20.34 1729.54,-24.3 1729.87,-17.31"/>
</g>
<!-- WaitLatch -->
<g id="node30" class="node">
<title>WaitLatch</title>
<polygon fill="none" stroke="black" points="4455,-180 4366,-180 4366,-144 4455,-144 4455,-180"/>
<text text-anchor="middle" x="4410.5" y="-158.3" font-family="Times,serif" font-size="14.00">WaitLatch</text>
</g>
<!-- WalWriterMain&#45;&gt;WaitLatch -->
<g id="edge31" class="edge">
<title>WalWriterMain&#45;&gt;WaitLatch</title>
<path fill="none" stroke="black" d="M2727.32,-233.37C2991.62,-234.58 4014.86,-235.6 4356.01,-179.93"/>
<polygon fill="black" stroke="black" points="4356.62,-183.38 4365.9,-178.27 4355.46,-176.48 4356.62,-183.38"/>
</g>
<!-- RESUME_INTERRUPTS -->
<g id="node32" class="node">
<title>RESUME_INTERRUPTS</title>
<polygon fill="none" stroke="black" points="4662,-180 4473,-180 4473,-144 4662,-144 4662,-180"/>
<text text-anchor="middle" x="4567.5" y="-158.3" font-family="Times,serif" font-size="14.00">RESUME_INTERRUPTS</text>
</g>
<!-- WalWriterMain&#45;&gt;RESUME_INTERRUPTS -->
<g id="edge33" class="edge">
<title>WalWriterMain&#45;&gt;RESUME_INTERRUPTS</title>
<path fill="none" stroke="black" d="M2727.35,-232.28C3001.66,-228.98 4096.18,-213.95 4462.88,-180.06"/>
<polygon fill="black" stroke="black" points="4463.36,-183.53 4472.99,-179.1 4462.71,-176.56 4463.36,-183.53"/>
</g>
<!-- ResetLatch -->
<g id="node33" class="node">
<title>ResetLatch</title>
<polygon fill="none" stroke="black" points="4777,-180 4680,-180 4680,-144 4777,-144 4777,-180"/>
<text text-anchor="middle" x="4728.5" y="-158.3" font-family="Times,serif" font-size="14.00">ResetLatch</text>
</g>
<!-- WalWriterMain&#45;&gt;ResetLatch -->
<g id="edge34" class="edge">
<title>WalWriterMain&#45;&gt;ResetLatch</title>
<path fill="none" stroke="black" d="M2727.09,-232.33C3040.45,-228.83 4432.84,-211.72 4669.78,-179.9"/>
<polygon fill="black" stroke="black" points="4670.49,-183.33 4679.88,-178.42 4669.48,-176.4 4670.49,-183.33"/>
</g>
<!-- SignalHandlerForShutdownRequest -->
<g id="node34" class="node">
<title>SignalHandlerForShutdownRequest</title>
<polygon fill="none" stroke="black" points="4132.5,-180 3858.5,-180 3858.5,-144 4132.5,-144 4132.5,-180"/>
<text text-anchor="middle" x="3995.5" y="-158.3" font-family="Times,serif" font-size="14.00">SignalHandlerForShutdownRequest</text>
</g>
<!-- WalWriterMain&#45;&gt;SignalHandlerForShutdownRequest -->
<g id="edge40" class="edge">
<title>WalWriterMain&#45;&gt;SignalHandlerForShutdownRequest</title>
<path fill="none" stroke="black" d="M2727.23,-231.77C2902.62,-227.98 3413.19,-214.68 3848.1,-180.08"/>
<polygon fill="black" stroke="black" points="3848.67,-183.54 3858.36,-179.26 3848.11,-176.57 3848.67,-183.54"/>
</g>
<!-- HOLD_INTERRUPTS -->
<g id="node36" class="node">
<title>HOLD_INTERRUPTS</title>
<polygon fill="none" stroke="black" points="4960,-180 4795,-180 4795,-144 4960,-144 4960,-180"/>
<text text-anchor="middle" x="4877.5" y="-158.3" font-family="Times,serif" font-size="14.00">HOLD_INTERRUPTS</text>
</g>
<!-- WalWriterMain&#45;&gt;HOLD_INTERRUPTS -->
<g id="edge37" class="edge">
<title>WalWriterMain&#45;&gt;HOLD_INTERRUPTS</title>
<path fill="none" stroke="black" d="M2727.01,-232.79C3030.29,-231.55 4351.04,-223.74 4784.68,-180.08"/>
<polygon fill="black" stroke="black" points="4785.17,-183.54 4794.76,-179.04 4784.45,-176.58 4785.17,-183.54"/>
</g>
<!-- AuxiliaryProcessMainCommon&#45;&gt;Assert -->
<g id="edge24" class="edge">
<title>AuxiliaryProcessMainCommon&#45;&gt;Assert</title>
<path fill="none" stroke="black" d="M1113.95,-157.82C932.16,-152.1 590.22,-138.02 451.62,-107.69"/>
<polygon fill="black" stroke="black" points="452.14,-104.22 441.61,-105.38 450.57,-111.04 452.14,-104.22"/>
</g>
<!-- CreateAuxProcessResourceOwner -->
<g id="node6" class="node">
<title>CreateAuxProcessResourceOwner</title>
<polygon fill="none" stroke="black" points="899.5,-108 639.5,-108 639.5,-72 899.5,-72 899.5,-108"/>
<text text-anchor="middle" x="769.5" y="-86.3" font-family="Times,serif" font-size="14.00">CreateAuxProcessResourceOwner</text>
</g>
<!-- AuxiliaryProcessMainCommon&#45;&gt;CreateAuxProcessResourceOwner -->
<g id="edge4" class="edge">
<title>AuxiliaryProcessMainCommon&#45;&gt;CreateAuxProcessResourceOwner</title>
<path fill="none" stroke="black" d="M1119.07,-143.97C1050.46,-133.57 962.71,-120.27 892.29,-109.6"/>
<polygon fill="black" stroke="black" points="892.44,-106.09 882.03,-108.05 891.39,-113.01 892.44,-106.09"/>
</g>
<!-- MemoryContextDelete -->
<g id="node7" class="node">
<title>MemoryContextDelete</title>
<polygon fill="none" stroke="black" points="1097,-108 918,-108 918,-72 1097,-72 1097,-108"/>
<text text-anchor="middle" x="1007.5" y="-86.3" font-family="Times,serif" font-size="14.00">MemoryContextDelete</text>
</g>
<!-- AuxiliaryProcessMainCommon&#45;&gt;MemoryContextDelete -->
<g id="edge5" class="edge">
<title>AuxiliaryProcessMainCommon&#45;&gt;MemoryContextDelete</title>
<path fill="none" stroke="black" d="M1176.99,-143.97C1145.28,-134.06 1105.14,-121.51 1071.89,-111.12"/>
<polygon fill="black" stroke="black" points="1072.84,-107.75 1062.25,-108.11 1070.76,-114.43 1072.84,-107.75"/>
</g>
<!-- ProcSignalInit -->
<g id="node10" class="node">
<title>ProcSignalInit</title>
<polygon fill="none" stroke="black" points="1234,-108 1115,-108 1115,-72 1234,-72 1234,-108"/>
<text text-anchor="middle" x="1174.5" y="-86.3" font-family="Times,serif" font-size="14.00">ProcSignalInit</text>
</g>
<!-- AuxiliaryProcessMainCommon&#45;&gt;ProcSignalInit -->
<g id="edge8" class="edge">
<title>AuxiliaryProcessMainCommon&#45;&gt;ProcSignalInit</title>
<path fill="none" stroke="black" d="M1217.41,-143.7C1210.58,-135.3 1202.24,-125.07 1194.74,-115.86"/>
<polygon fill="black" stroke="black" points="1197.46,-113.65 1188.43,-108.1 1192.03,-118.07 1197.46,-113.65"/>
</g>
<!-- ShutdownAuxiliaryProcess -->
<g id="node11" class="node">
<title>ShutdownAuxiliaryProcess</title>
<polygon fill="none" stroke="black" points="1460.5,-108 1252.5,-108 1252.5,-72 1460.5,-72 1460.5,-108"/>
<text text-anchor="middle" x="1356.5" y="-86.3" font-family="Times,serif" font-size="14.00">ShutdownAuxiliaryProcess</text>
</g>
<!-- AuxiliaryProcessMainCommon&#45;&gt;ShutdownAuxiliaryProcess -->
<g id="edge9" class="edge">
<title>AuxiliaryProcessMainCommon&#45;&gt;ShutdownAuxiliaryProcess</title>
<path fill="none" stroke="black" d="M1262.08,-143.88C1278.57,-134.64 1299.12,-123.13 1316.84,-113.21"/>
<polygon fill="black" stroke="black" points="1318.79,-116.13 1325.8,-108.19 1315.37,-110.02 1318.79,-116.13"/>
</g>
<!-- SetProcessingMode -->
<g id="node20" class="node">
<title>SetProcessingMode</title>
<polygon fill="none" stroke="black" points="1636.5,-108 1478.5,-108 1478.5,-72 1636.5,-72 1636.5,-108"/>
<text text-anchor="middle" x="1557.5" y="-86.3" font-family="Times,serif" font-size="14.00">SetProcessingMode</text>
</g>
<!-- AuxiliaryProcessMainCommon&#45;&gt;SetProcessingMode -->
<g id="edge17" class="edge">
<title>AuxiliaryProcessMainCommon&#45;&gt;SetProcessingMode</title>
<path fill="none" stroke="black" d="M1310.83,-143.97C1358.44,-133.74 1419.11,-120.72 1468.37,-110.14"/>
<polygon fill="black" stroke="black" points="1469.34,-113.51 1478.38,-107.99 1467.87,-106.67 1469.34,-113.51"/>
</g>
<!-- BaseInit -->
<g id="node24" class="node">
<title>BaseInit</title>
<polygon fill="none" stroke="black" points="1730.5,-108 1654.5,-108 1654.5,-72 1730.5,-72 1730.5,-108"/>
<text text-anchor="middle" x="1692.5" y="-86.3" font-family="Times,serif" font-size="14.00">BaseInit</text>
</g>
<!-- AuxiliaryProcessMainCommon&#45;&gt;BaseInit -->
<g id="edge22" class="edge">
<title>AuxiliaryProcessMainCommon&#45;&gt;BaseInit</title>
<path fill="none" stroke="black" d="M1349.19,-152.86C1430.2,-145.63 1540.18,-132.61 1644.72,-107.89"/>
<polygon fill="black" stroke="black" points="1645.59,-111.28 1654.5,-105.54 1643.95,-104.47 1645.59,-111.28"/>
</g>
<!-- GetProcessingMode -->
<g id="node35" class="node">
<title>GetProcessingMode</title>
<polygon fill="none" stroke="black" points="1908.5,-108 1748.5,-108 1748.5,-72 1908.5,-72 1908.5,-108"/>
<text text-anchor="middle" x="1828.5" y="-86.3" font-family="Times,serif" font-size="14.00">GetProcessingMode</text>
</g>
<!-- AuxiliaryProcessMainCommon&#45;&gt;GetProcessingMode -->
<g id="edge36" class="edge">
<title>AuxiliaryProcessMainCommon&#45;&gt;GetProcessingMode</title>
<path fill="none" stroke="black" d="M1349.13,-151.58C1449.9,-142.84 1599.08,-128.34 1738.04,-108.15"/>
<polygon fill="black" stroke="black" points="1738.63,-111.6 1748.02,-106.69 1737.62,-104.68 1738.63,-111.6"/>
</g>
<!-- InitAuxiliaryProcess -->
<g id="node37" class="node">
<title>InitAuxiliaryProcess</title>
<polygon fill="none" stroke="black" points="621,-108 460,-108 460,-72 621,-72 621,-108"/>
<text text-anchor="middle" x="540.5" y="-86.3" font-family="Times,serif" font-size="14.00">InitAuxiliaryProcess</text>
</g>
<!-- AuxiliaryProcessMainCommon&#45;&gt;InitAuxiliaryProcess -->
<g id="edge39" class="edge">
<title>AuxiliaryProcessMainCommon&#45;&gt;InitAuxiliaryProcess</title>
<path fill="none" stroke="black" d="M1113.93,-154.08C994.81,-146.27 805.07,-131.67 631.48,-108.06"/>
<polygon fill="black" stroke="black" points="631.77,-104.56 621.39,-106.67 630.82,-111.5 631.77,-104.56"/>
</g>
<!-- ShutdownAuxiliaryProcess&#45;&gt;ConditionVariableCancelSleep -->
<g id="edge25" class="edge">
<title>ShutdownAuxiliaryProcess&#45;&gt;ConditionVariableCancelSleep</title>
<path fill="none" stroke="black" d="M1279.6,-71.97C1233.64,-61.78 1175.11,-48.82 1127.46,-38.26"/>
<polygon fill="black" stroke="black" points="1127.99,-34.8 1117.47,-36.05 1126.48,-41.63 1127.99,-34.8"/>
</g>
<!-- ShutdownAuxiliaryProcess&#45;&gt;LWLockReleaseAll -->
<g id="edge38" class="edge">
<title>ShutdownAuxiliaryProcess&#45;&gt;LWLockReleaseAll</title>
<path fill="none" stroke="black" d="M1427.07,-71.97C1468.99,-61.85 1522.29,-48.98 1565.87,-38.46"/>
<polygon fill="black" stroke="black" points="1566.96,-41.8 1575.86,-36.05 1565.32,-34.99 1566.96,-41.8"/>
</g>
<!-- ProcessProcSignalBarrier -->
<g id="node14" class="node">
<title>ProcessProcSignalBarrier</title>
<polygon fill="none" stroke="black" points="2166,-108 1965,-108 1965,-72 2166,-72 2166,-108"/>
<text text-anchor="middle" x="2065.5" y="-86.3" font-family="Times,serif" font-size="14.00">ProcessProcSignalBarrier</text>
</g>
<!-- HandleMainLoopInterrupts&#45;&gt;ProcessProcSignalBarrier -->
<g id="edge11" class="edge">
<title>HandleMainLoopInterrupts&#45;&gt;ProcessProcSignalBarrier</title>
<path fill="none" stroke="black" d="M2162.94,-143.88C2145.84,-134.6 2124.52,-123.03 2106.18,-113.08"/>
<polygon fill="black" stroke="black" points="2107.64,-109.88 2097.18,-108.19 2104.3,-116.04 2107.64,-109.88"/>
</g>
<!-- ProcessLogMemoryContextInterrupt -->
<g id="node21" class="node">
<title>ProcessLogMemoryContextInterrupt</title>
<polygon fill="none" stroke="black" points="2464.5,-108 2184.5,-108 2184.5,-72 2464.5,-72 2464.5,-108"/>
<text text-anchor="middle" x="2324.5" y="-86.3" font-family="Times,serif" font-size="14.00">ProcessLogMemoryContextInterrupt</text>
</g>
<!-- HandleMainLoopInterrupts&#45;&gt;ProcessLogMemoryContextInterrupt -->
<g id="edge18" class="edge">
<title>HandleMainLoopInterrupts&#45;&gt;ProcessLogMemoryContextInterrupt</title>
<path fill="none" stroke="black" d="M2226.3,-143.88C2243.61,-134.55 2265.22,-122.92 2283.76,-112.94"/>
<polygon fill="black" stroke="black" points="2285.43,-116.01 2292.58,-108.19 2282.11,-109.85 2285.43,-116.01"/>
</g>
<!-- ProcessConfigFile -->
<g id="node26" class="node">
<title>ProcessConfigFile</title>
<polygon fill="none" stroke="black" points="2628,-108 2483,-108 2483,-72 2628,-72 2628,-108"/>
<text text-anchor="middle" x="2555.5" y="-86.3" font-family="Times,serif" font-size="14.00">ProcessConfigFile</text>
</g>
<!-- HandleMainLoopInterrupts&#45;&gt;ProcessConfigFile -->
<g id="edge26" class="edge">
<title>HandleMainLoopInterrupts&#45;&gt;ProcessConfigFile</title>
<path fill="none" stroke="black" d="M2286.31,-143.96C2338.21,-134.23 2404.56,-121.64 2472.59,-108.17"/>
<polygon fill="black" stroke="black" points="2473.51,-111.55 2482.64,-106.17 2472.15,-104.69 2473.51,-111.55"/>
</g>
<!-- SetLatch -->
<g id="node31" class="node">
<title>SetLatch</title>
<polygon fill="none" stroke="black" points="3898.5,-108 3818.5,-108 3818.5,-72 3898.5,-72 3898.5,-108"/>
<text text-anchor="middle" x="3858.5" y="-86.3" font-family="Times,serif" font-size="14.00">SetLatch</text>
</g>
<!-- SignalHandlerForConfigReload&#45;&gt;SetLatch -->
<g id="edge32" class="edge">
<title>SignalHandlerForConfigReload&#45;&gt;SetLatch</title>
<path fill="none" stroke="black" d="M3755.01,-143.88C3773.34,-134.51 3796.24,-122.81 3815.83,-112.8"/>
<polygon fill="black" stroke="black" points="3817.54,-115.86 3824.86,-108.19 3814.36,-109.62 3817.54,-115.86"/>
</g>
<!-- SignalHandlerForShutdownRequest&#45;&gt;SetLatch -->
<g id="edge35" class="edge">
<title>SignalHandlerForShutdownRequest&#45;&gt;SetLatch</title>
<path fill="none" stroke="black" d="M3961.99,-143.88C3943.66,-134.51 3920.76,-122.81 3901.17,-112.8"/>
<polygon fill="black" stroke="black" points="3902.64,-109.62 3892.14,-108.19 3899.46,-115.86 3902.64,-109.62"/>
</g>
</g>
</svg>
